<svg xmlns="http://www.w3.org/2000/svg" viewBox="0 0 42.65 42.65"><defs><style>.cls-1{fill:#ffbd1a;}.cls-2,.cls-3,.cls-4{fill:#fff;}.cls-2,.cls-4{stroke:#010202;stroke-miterlimit:10;}.cls-2{stroke-width:0.25px;}.cls-4{stroke-width:0.15px;}</style></defs><g id="Layer_2" data-name="Layer 2"><g id="Layer_1-2" data-name="Layer 1"><circle class="cls-1" cx="21.32" cy="21.32" r="21.32"/><path class="cls-2" d="M32.36,17.52l0,0Z"/><path class="cls-3" d="M33.39,20.94H29.14a.62.62,0,0,1-.49-.61.64.64,0,0,1,.31-.54,1.3,1.3,0,1,0-1.4,0,.64.64,0,0,1,.31.54.62.62,0,0,1-.48.61H23.9V15.86a.63.63,0,0,0-.63-.63.66.66,0,0,0-.54.3,1.3,1.3,0,1,1,0-1.39.64.64,0,0,0,.54.31h0a.64.64,0,0,0,.63-.64V10.45c5.21.05,8.41,4.25,8.46,7.07A5.14,5.14,0,0,0,33.39,20.94Z"/><path class="cls-3" d="M27.48,27.68a1.3,1.3,0,0,1-2.41.62.66.66,0,0,0-.54-.3.64.64,0,0,0-.63.59v7.77a3.78,3.78,0,0,1-.92.07c-.61-4.31-2.92-4.57-4.55-4.83a25.06,25.06,0,0,0,.72-2.52c0-.65-.15-.75-1.21-1.83a12.48,12.48,0,0,1-3.72-6.31h3.41a.63.63,0,0,1,.18,1.16,1.3,1.3,0,1,0,1.4,0,.63.63,0,0,1,.18-1.16H23.9v5.69a.64.64,0,0,0,.63.59.62.62,0,0,0,.54-.31,1.33,1.33,0,0,1,1.11-.6A1.3,1.3,0,0,1,27.48,27.68Z"/><path class="cls-3" d="M21.23,7.55,20,10.69a.63.63,0,0,1-.82.36h0a.64.64,0,0,1-.39-.48,1.3,1.3,0,0,0-2.47-.29,1.31,1.31,0,0,0,2,1.59.66.66,0,0,1,.62-.09.64.64,0,0,1,.36.82l-1.85,4.73-4.2-1.64a.65.65,0,0,0-.69.4.63.63,0,0,0,.09.61A1.3,1.3,0,0,1,12.79,18a1.3,1.3,0,0,1-2.46-.85,1.28,1.28,0,0,1,1-.9.67.67,0,0,0,.48-.4.63.63,0,0,0-.24-.75L8.4,13.82a7.7,7.7,0,0,1,2.88-4.9,9.92,9.92,0,0,1,9.86-1.41Z"/><path class="cls-4" d="M33.28,24c0,.65.45.5.45.91s-.71.48-.71.48c.13.36.48.61.49.79,0,.52-1,.42-1,1.18s.83,2.9-2,2.9c-2.45,0-3,.46-3.07.49-.82.76-1.22,1.69-.22,4.54a18.49,18.49,0,0,1-3.38,1.06V28.59a.64.64,0,0,1,.63-.59.66.66,0,0,1,.54.3,1.3,1.3,0,0,0,2.41-.62,1.3,1.3,0,0,0-1.3-1.37,1.33,1.33,0,0,0-1.11.6.62.62,0,0,1-.54.31.64.64,0,0,1-.63-.59V20.94h3.49a.62.62,0,0,0,.48-.61.64.64,0,0,0-.31-.54,1.31,1.31,0,0,1-.6-1.1,1.3,1.3,0,1,1,2,1.1.64.64,0,0,0-.31.54.62.62,0,0,0,.49.61h4.25c.69,1,1.47,1.53,1.45,1.91C34.82,23.44,33.28,24,33.28,24Z"/></g></g></svg>