<svg xmlns="http://www.w3.org/2000/svg" viewBox="0 0 37.28 37.28" style="width: 34px; height: 24px;"><defs><style>.cls-1{fill:#0d3f62;}.cls-2{fill:#f8ac17;}</style></defs><g id="Layer_2" data-name="Layer 2"><g id="Layer_1-2" data-name="Layer 1"><circle class="cls-1" cx="18.64" cy="18.64" r="18.64"/><path class="cls-2" d="M21.53,17.41H18.59v9.93H15.18V17.41H13.3V15.77l1.88-.92v-.92a4.07,4.07,0,0,1,1.05-3.11,4.83,4.83,0,0,1,3.36-1,8.8,8.8,0,0,1,3.14.53l-.87,2.5a6.57,6.57,0,0,0-1.9-.32,1.22,1.22,0,0,0-1.05.43,1.75,1.75,0,0,0-.32,1.1v.78h2.94Z"/></g></g></svg>