<svg xmlns="http://www.w3.org/2000/svg" viewBox="0 0 60.53 67.85"><defs><style>.cls-1{fill:none;}.cls-2{fill:#f8ac17;}.cls-3{fill:#e4261d;}.cls-4{fill:#0d3f62;}.cls-5{fill:#265526;}</style></defs><g id="Layer_2" data-name="Layer 2"><g id="Layer_1-2" data-name="Layer 1"><path class="cls-1" d="M54.87,24.53l-.08-.07Z"/><path class="cls-2" d="M57.21,32.37H47.47a1.44,1.44,0,0,1-1.1-1.4,1.46,1.46,0,0,1,.69-1.24,3,3,0,1,0-4.57-2.52,3,3,0,0,0,1.38,2.51,1.49,1.49,0,0,1,.7,1.25,1.44,1.44,0,0,1-1.1,1.4h-8V20.74a1.44,1.44,0,0,0-1.44-1.45,1.48,1.48,0,0,0-1.25.7,3,3,0,0,1-5.5-1.77,3,3,0,0,1,2.75-2.8A3,3,0,0,1,32.8,16.8a1.48,1.48,0,0,0,1.24.7h0a1.44,1.44,0,0,0,1.44-1.45V8.34c11.93.12,19.25,9.73,19.37,16.19A11.76,11.76,0,0,0,57.21,32.37Z"/><path class="cls-3" d="M57,39.4c0,1.47,1,1.15,1,2.08s-1.61,1.1-1.61,1.1c.3.82,1.1,1.39,1.11,1.81,0,1.19-2.21,1-2.21,2.69s1.91,6.64-4.52,6.64c-5.59,0-6.93,1.06-7,1.13-1.87,1.73-2.8,3.87-.51,10.39a42.31,42.31,0,0,1-7.73,2.44V49.88a1.44,1.44,0,0,1,2.68-.65,3,3,0,0,0,5.5-1.43A3,3,0,0,0,38.17,46a1.44,1.44,0,0,1-2.68-.65v-13h8a1.44,1.44,0,0,0,1.1-1.4,1.49,1.49,0,0,0-.7-1.25,3,3,0,0,1,1.77-5.49,3,3,0,0,1,1.42,5.5A1.46,1.46,0,0,0,46.37,31a1.44,1.44,0,0,0,1.1,1.4h9.74c1.58,2.19,3.36,3.5,3.32,4.37C60.48,38.08,57,39.4,57,39.4Z"/><path class="cls-4" d="M43.67,47.8a3,3,0,0,1-5.5,1.43,1.44,1.44,0,0,0-2.68.65v17.8a9.39,9.39,0,0,1-2.1.16C32,58,26.7,57.37,23,56.78A58.31,58.31,0,0,0,24.62,51c0-1.49-.36-1.73-2.77-4.2-5.22-5.18-7.65-10.13-8.52-14.44h7.79a1.44,1.44,0,0,1,1.12,1.41A1.48,1.48,0,0,1,21.55,35a3,3,0,1,0,3.19,0A1.47,1.47,0,0,1,24,33.78a1.46,1.46,0,0,1,1.13-1.41H35.49v13a1.44,1.44,0,0,0,2.68.65,3,3,0,0,1,5.5,1.76Z"/><path class="cls-5" d="M29.38,1.71,26.58,8.9a1.45,1.45,0,0,1-1.87.82h0a1.47,1.47,0,0,1-.9-1.1,3,3,0,1,0-1.15,3,1.45,1.45,0,0,1,2.23,1.68L20.65,24.11,11,20.35a1.46,1.46,0,0,0-1.56.9,1.48,1.48,0,0,0,.21,1.42A3,3,0,0,1,6,27.15,3,3,0,0,1,6.7,21.5a1.45,1.45,0,0,0,.56-2.62L0,16.05A17.68,17.68,0,0,1,6.58,4.84C11.73.42,20.64-1.7,29.16,1.63Z"/></g></g></svg>