<svg xmlns="http://www.w3.org/2000/svg" viewBox="0 0 768.76 629.24"><defs><style>.cls-1{fill:#fff;}.cls-2{fill:#ffbd1a;}.cls-3{fill:#f1f2f2;}.cls-4{fill:#ffd364;}.cls-5{fill:#ffc200;}.cls-6{fill:#0d3f62;}.cls-7{fill:#2f6384;}.cls-8{fill:#bc1e1b;}.cls-9{fill:#ef4136;}.cls-10{fill:#231f20;}.cls-11{fill:#f8ac17;}.cls-12{fill:#182460;}</style></defs><g id="Layer_2" data-name="Layer 2"><g id="Layer_1-2" data-name="Layer 1"><rect class="cls-1" x="37.48" y="79.55" width="371.98" height="256.93"/><rect class="cls-2" x="71.61" y="109.79" width="303.71" height="196.45"/><polygon class="cls-3" points="37.48 336.48 0 397.68 446.94 397.68 409.46 336.48 37.48 336.48"/><rect class="cls-1" y="397.68" width="446.94" height="32.56"/><path class="cls-4" d="M342.3,518.27V488.58l-25.06-17.46a17.8,17.8,0,0,1-5.92-7l-12.45-26.61a10.64,10.64,0,0,1,5.53-14.32h0A10.63,10.63,0,0,1,317.89,428l8.83,16.55h6.76a8,8,0,0,0,8-8V377.11a7.1,7.1,0,0,1,7.1-7.1h8.68v-1.35A8.76,8.76,0,0,1,366,359.9h3.5a8.76,8.76,0,0,1,8.76,8.76h8.61a6.24,6.24,0,0,1,6.24,6.23v2.87h3.66a9.68,9.68,0,0,1,9.68,9.69V461.2A19.45,19.45,0,0,1,402,473.63L389.25,489v26.28Z"/><path class="cls-5" d="M364.59,360a8.75,8.75,0,0,0-7.37,8.65V370h-8.68a7.1,7.1,0,0,0-7.1,7.1v59.43a8,8,0,0,1-8,8h-6.76L317.89,428a10.63,10.63,0,0,0-13.49-4.81h0a10.64,10.64,0,0,0-5.53,14.32l12.45,26.61a17.8,17.8,0,0,0,5.92,7l25.06,17.46v29.69l22.29-1.44Z"/><rect class="cls-6" x="333.16" y="526.27" width="31.43" height="102.98"/><rect class="cls-7" x="328.42" y="562.04" width="102.98" height="31.43" transform="translate(-197.85 957.66) rotate(-90)"/><rect class="cls-8" x="326.32" y="509.25" width="38.31" height="37.44" transform="translate(-182.5 873.44) rotate(-90)"/><rect class="cls-9" x="363.75" y="509.25" width="38.31" height="37.44" transform="translate(-145.06 910.88) rotate(-90)"/><path class="cls-5" d="M110.78,518.27V488.58l25.06-17.46a17.8,17.8,0,0,0,5.92-7l12.45-26.61a10.64,10.64,0,0,0-5.53-14.32h0A10.63,10.63,0,0,0,135.19,428c-3.88,7.27-8.82,16.55-8.82,16.55H119.6a8,8,0,0,1-8-8V377.11a7.1,7.1,0,0,0-7.1-7.1H95.86v-1.35a8.76,8.76,0,0,0-8.76-8.76H83.6a8.76,8.76,0,0,0-8.76,8.76H66.23A6.24,6.24,0,0,0,60,374.89v2.87H56.33a9.68,9.68,0,0,0-9.68,9.69V461.2a19.45,19.45,0,0,0,4.48,12.43L63.83,489v26.28Z"/><path class="cls-4" d="M88.49,360a8.75,8.75,0,0,1,7.37,8.65V370h8.68a7.1,7.1,0,0,1,7.1,7.1v59.43a8,8,0,0,0,8,8h6.77s4.94-9.28,8.82-16.55a10.63,10.63,0,0,1,13.49-4.81h0a10.64,10.64,0,0,1,5.53,14.32l-12.45,26.61a17.8,17.8,0,0,1-5.92,7l-25.06,17.46v29.69l-22.29-1.44Z"/><rect class="cls-7" x="52.72" y="562.04" width="102.98" height="31.43" transform="translate(-473.55 681.96) rotate(-90)"/><rect class="cls-6" x="57.46" y="526.27" width="31.43" height="102.98"/><rect class="cls-9" x="88.45" y="509.25" width="38.31" height="37.44" transform="translate(-420.36 635.58) rotate(-90)"/><rect class="cls-8" x="51.01" y="509.25" width="38.31" height="37.44" transform="translate(-457.8 598.14) rotate(-90)"/><path class="cls-10" d="M482.3,136.27h-4v-4.63h4Zm-15.14,0h-4v-4.63h4Zm-15.14,0h-4v-4.63h4Zm-15.14,0h-4v-4.63h4Zm-15.14,0h-4v-4.63h4Zm-15.14,0h-4v-4.63h4Zm-15.14,0h-4v-4.63h4Zm-15.14,0h-4v-4.63h4Zm-15.13,0h-4v-4.63h4Zm-15.14,0h-4v-4.63h4Zm-15.14,0h-4v-4.63h4Zm-15.14,0h-4v-4.63h4Zm-15.14,0h-4v-4.63h4Zm-15.13,0h-4v-4.63h4Zm-15.14,0h-4v-4.63h4Zm-15.14,0h-4v-4.63h4Zm-15.14,0h-4v-4.63h4Zm-15.14,0h-4v-4.63h4Zm-15.13,0h-4v-4.63h4Zm-15.14,0h-4v-4.63h4Zm-15.14,0h-4v-4.63h4Zm-15.14,0h-4v-4.63h4ZM492,130.21h-4.63v-4H492Zm0-15.14h-4.63v-4H492Zm0-15.14h-4.63v-4H492Zm0-15.14h-4.63v-4H492Zm0-15.14h-4.63v-4H492Zm0-15.13h-4.63v-4H492Zm0-15.14h-4.63v-4H492Zm39.7-5.1h-4V29.65h4Zm-15.14,0h-4V29.65h4Zm-15.13,0h-4V29.65h4Z"/><path class="cls-10" d="M603.4,175.92h-4v-4.63h4Zm-15.14,0h-4v-4.63h4Zm-15.14,0h-4v-4.63h4Zm-15.13,0h-4v-4.63h4Zm-15.14,0h-4v-4.63h4Zm-15.14,0h-4v-4.63h4Zm-15.14,0h-4v-4.63h4Zm-15.14,0h-4v-4.63h4Zm-15.13,0h-4v-4.63h4Zm-15.14,0h-4v-4.63h4Zm-15.14,0h-4v-4.63h4Zm-15.14,0h-4v-4.63h4Zm-15.14,0h-4v-4.63h4Zm-15.14,0h-4v-4.63h4Zm-15.14,0h-4v-4.63h4Zm-15.14,0h-4v-4.63h4Zm-15.13,0h-4v-4.63h4Zm-15.14,0h-4v-4.63h4Zm-15.14,0h-4v-4.63h4Zm-15.14,0h-4v-4.63h4Zm-15.14,0h-4v-4.63h4Zm-15.13,0h-4v-4.63h4Zm-15.14,0h-4v-4.63h4Zm-15.14,0h-4v-4.63h4Zm-15.14,0h-4v-4.63h4Zm-15.14,0h-4v-4.63h4Zm-15.13,0h-4v-4.63h4Zm-15.14,0h-4v-4.63h4Zm-15.14,0h-4v-4.63h4Zm-15.14,0h-4v-4.63h4Z"/><path class="cls-10" d="M656.3,293.56h-4v-4.63h4Zm-15.14,0h-4v-4.63h4Zm-15.14,0h-4v-4.63h4Zm-15.14,0h-4v-4.63h4Zm-15.14,0h-4v-4.63h4Zm-15.14,0h-4v-4.63h4Zm-15.14,0h-4v-4.63h4Zm-9.06-6.07h-4.63v-4h4.63Zm0-15.14h-4.63v-4h4.63Zm0-15.14h-4.63v-4h4.63Zm0-15.14h-4.63v-4h4.63Zm0-15.14h-4.63v-4h4.63Zm0-15.13h-4.63v-3.91H554l-.06-2.31h2.43Zm-13.55-1.59h-4v-4.63h4Zm-15.14,0h-4v-4.63h4Zm-15.14,0h-4v-4.63h4Zm-15.14,0h-4v-4.63h4Zm-15.13,0h-4v-4.63h4Zm-15.14,0h-4v-4.63h4Zm-15.14,0h-4v-4.63h4Zm-15.14,0h-4v-4.63h4Zm-15.14,0h-4v-4.63h4Zm-15.14,0h-4v-4.63h4Zm-15.14,0h-4v-4.63h4Zm-15.14,0h-4v-4.63h4Zm-15.13,0h-4v-4.63h4Zm-15.14,0h-4v-4.63h4Zm-15.14,0h-4v-4.63h4Zm-15.14,0h-4v-4.63h4Zm-15.14,0h-4v-4.63h4Zm-15.13,0h-4v-4.63h4Zm-15.14,0h-4v-4.63h4Zm-15.14,0h-4v-4.63h4Zm-15.14,0h-4v-4.63h4Zm-15.14,0h-4v-4.63h4Zm-15.13,0h-4v-4.63h4Zm-15.14,0h-4v-4.63h4Zm-15.14,0h-4v-4.63h4Zm-15.14,0h-4v-4.63h4Z"/><path class="cls-10" d="M528.85,414.23h-4v-4.64h4Zm15.14,0h-4v-4.64h4Zm15.14,0h-4v-4.64h4Zm26.27,0v-4.64h4v4.64Zm-11.13,0h-4v-4.64h4Zm-50.81-9.72h-4.63v-4h4.63Zm0-15.14h-4.63v-4h4.63Zm0-15.14h-4.63v-4h4.63Zm0-15.14h-4.63v-4h4.63Zm0-15.13h-4.63v-4h4.63Zm0-15.14h-4.63v-4h4.63Zm0-15.14h-4.63v-4h4.63Zm0-15.14h-4.63v-4h4.63Zm0-15.14h-4.63v-4h4.63Zm0-15.14h-4.63v-4h4.63Zm0-15.13h-4.63v-4h4.63Zm-10.89-4.25h-4v-4.63h4Zm-15.14,0h-4v-4.63h4Zm-15.13,0h-4v-4.63h4Zm-15.14,0h-4v-4.63h4Zm-15.14,0h-4v-4.63h4Zm-15.14,0h-4v-4.63h4Zm-15.14,0h-4v-4.63h4Zm-15.14,0h-4v-4.63h4Zm-15.14,0h-4v-4.63h4Zm-15.14,0h-4v-4.63h4Zm-15.13,0h-4v-4.63h4Zm-15.14,0h-4v-4.63h4Zm-15.14,0h-4v-4.63h4Zm-15.14,0h-4v-4.63h4Zm-15.14,0h-4v-4.63h4Zm-15.13,0h-4v-4.63h4Zm-15.14,0h-4v-4.63h4Zm-15.14,0h-4v-4.63h4Zm-15.14,0h-4v-4.63h4Zm-15.14,0h-4v-4.63h4Zm-15.13,0h-4v-4.63h4Zm-15.14,0h-4v-4.63h4Zm-15.14,0h-4v-4.63h4Zm-15.14,0h-4v-4.63h4Z"/><path class="cls-5" d="M615,173.61a11.86,11.86,0,1,1-11.86-11.86A11.86,11.86,0,0,1,615,173.61Z"/><path class="cls-5" d="M554.55,32A11.86,11.86,0,1,1,542.69,20.1,11.86,11.86,0,0,1,554.55,32Z"/><path class="cls-5" d="M670.08,291.24a11.86,11.86,0,1,1-11.86-11.86A11.86,11.86,0,0,1,670.08,291.24Z"/><path class="cls-5" d="M612.09,411.87A11.86,11.86,0,1,1,600.23,400,11.86,11.86,0,0,1,612.09,411.87Z"/><path class="cls-10" d="M649.66,55.85H577.42V0h72.24Zm-69.15-3.09h66.06V3.09H580.51Z"/><path class="cls-10" d="M649.66,76.41H577.42V52.76h72.24Zm-69.15-3.09h66.06V55.85H580.51Z"/><rect class="cls-10" x="607.98" y="60.17" width="22.77" height="3.09"/><rect class="cls-10" x="607.98" y="66" width="31.1" height="3.09"/><path class="cls-11" d="M623.43,20A10.9,10.9,0,1,1,612.54,9.09,10.9,10.9,0,0,1,623.43,20Z"/><path class="cls-11" d="M623.68,45.44H601.39V42.15A11.15,11.15,0,0,1,612.54,31h0a11.14,11.14,0,0,1,11.14,11.14Z"/><path class="cls-10" d="M593.94,71.46l-.71-.36c-.07,0-6.51-3.47-6.51-7.53a4.53,4.53,0,0,1,4.5-4.84,5.34,5.34,0,0,1,2.72.92,5.27,5.27,0,0,1,2.71-.92,4.53,4.53,0,0,1,4.5,4.84c0,4.08-6.44,7.5-6.51,7.53Zm-2.72-9.64c-1,0-1.41.94-1.41,1.75,0,1.25,2.39,3.3,4.13,4.38,1.74-1.08,4.12-3.13,4.12-4.38,0-.29-.07-1.75-1.41-1.75a3.15,3.15,0,0,0-1.6.88l-1.11,1.15-1.11-1.15A3.25,3.25,0,0,0,591.22,61.82Z"/><polygon class="cls-10" points="642.16 442.14 627.89 400.39 660.19 389.3 661.2 392.23 631.81 402.31 644.09 438.22 662.99 431.73 663.99 434.65 642.16 442.14"/><polygon class="cls-10" points="646.16 453.82 641.16 439.23 662.99 431.73 663.99 434.65 645.08 441.14 648.08 449.9 690.19 435.52 689.57 433.68 692.51 432.7 694.09 437.45 646.16 453.82"/><polygon class="cls-11" points="660.69 403.25 660.1 402.85 655.6 417.52 650.11 414.53 646.22 426.81 660.69 421.81 660.69 403.25"/><path class="cls-10" d="M709.84,422.38H659.16v-44.1h50.68Zm-47.59-3.08h44.5V381.36h-44.5Z"/><polygon class="cls-10" points="697.13 434.73 659.15 434.73 659.15 419.28 709.86 419.28 709.86 429.2 706.77 429.2 706.77 422.36 662.24 422.36 662.24 431.65 697.13 431.65 697.13 434.73"/><polygon class="cls-11" points="667.91 409.18 675.59 398.81 679.85 403.49 688.87 390.99 701.56 409.18 667.91 409.18"/><path class="cls-10" d="M710,453.41H694.84V436.29a8.67,8.67,0,0,1,8.66-8.66h8.86V421.9L733,435.19l-20.61,13.3v-5.74h-1.58a.81.81,0,0,0-.8.81Zm-12.05-3.08h9v-6.77a3.89,3.89,0,0,1,3.89-3.89h4.67v3.14l11.81-7.62-11.81-7.62v3.14h-12a5.59,5.59,0,0,0-5.57,5.58Z"/><polygon class="cls-10" points="699.03 199.84 638.58 199.84 638.58 143.04 711.95 143.04 711.95 192.71 708.86 192.71 708.86 146.13 641.67 146.13 641.67 196.75 699.03 196.75 699.03 199.84"/><path class="cls-10" d="M711.91,158.14H638.57V143.07h73.34Zm-70.25-3.09h67.16v-8.89H641.66Z"/><polygon class="cls-11" points="666.36 164.75 687.29 176.84 666.36 188.93 666.36 164.75"/><path class="cls-10" d="M649.22,150.6a1.71,1.71,0,1,1-1.71-1.7A1.71,1.71,0,0,1,649.22,150.6Z"/><path class="cls-10" d="M654.74,150.6a1.71,1.71,0,1,1-1.71-1.7A1.7,1.7,0,0,1,654.74,150.6Z"/><path class="cls-10" d="M660.26,150.6a1.71,1.71,0,1,1-1.7-1.7A1.7,1.7,0,0,1,660.26,150.6Z"/><path class="cls-10" d="M698.25,209.27a2.35,2.35,0,0,1-1.4-.46,2.4,2.4,0,0,1-.89-2.68l2.15-6.58-5.6-4.06a2.41,2.41,0,0,1,1.41-4.35h6.92l2.14-6.57c.63-2,3.92-2,4.56,0l2.14,6.57h6.91a2.41,2.41,0,0,1,1.42,4.35l-5.6,4.06,2.13,6.58a2.39,2.39,0,0,1-3.69,2.68l-5.6-4.06-5.59,4.06A2.42,2.42,0,0,1,698.25,209.27Zm7-7.78a2.45,2.45,0,0,1,1.41.46l4.28,3.11-1.63-5a2.36,2.36,0,0,1,.87-2.68l4.28-3.12h-5.3a2.41,2.41,0,0,1-2.28-1.64l-1.64-5-1.63,5a2.38,2.38,0,0,1-2.28,1.65H696l4.29,3.12a2.39,2.39,0,0,1,.87,2.67l-1.64,5,4.29-3.11A2.42,2.42,0,0,1,705.26,201.49Z"/><path class="cls-10" d="M519.67,521.77h-3.73v-4.64h3.73Zm-14.85,0h-4v-4.64h4Zm-15.14,0h-4v-4.64h4ZM485,511.34h-4.63v-4H485Zm0-15.13h-4.63v-4H485Zm0-15.14h-4.63v-4H485Zm0-15.14h-4.63v-4H485Zm0-15.14h-4.63v-4H485Zm0-15.14h-4.63v-4H485Zm0-15.13h-4.63v-4H485Zm0-15.14h-4.63v-4H485Zm0-15.14h-4.63v-4H485Zm0-15.14h-4.63v-4H485ZM485,360h-4.63v-4H485Zm0-15.13h-4.63v-4H485Zm0-15.14h-4.63v-4H485ZM476.53,323h-4v-4.63h4Zm-15.14,0h-4v-4.63h4Zm-15.14,0h-3.51v-5.13h4.63v2.82h-1.12Zm1.12-16.26h-4.63v-4h4.63Zm0-15.14h-4.63v-4h4.63Zm-10.49-4.64h-4v-4.63h4Zm-15.14,0h-4v-4.63h4Zm-15.14,0h-4v-4.63h4Zm-15.14,0h-4v-4.63h4Zm-15.14,0h-4v-4.63h4Zm-15.13,0h-4v-4.63h4Zm-15.14,0h-4v-4.63h4Zm-15.14,0h-4v-4.63h4Zm-15.14,0h-4v-4.63h4Zm-15.14,0h-4v-4.63h4Zm-15.13,0h-4v-4.63h4Zm-15.14,0h-4v-4.63h4Zm-15.14,0h-4v-4.63h4Zm-15.14,0h-4v-4.63h4Zm-15.14,0h-4v-4.63h4Zm-15.13,0h-4v-4.63h4Zm-15.14,0h-4v-4.63h4Zm-15.14,0h-4v-4.63h4Zm-15.14,0h-4v-4.63h4Z"/><path class="cls-11" d="M622.56,512.56a12.52,12.52,0,0,1-24.86,2.1,15.87,15.87,0,0,0,4.49-11.08,1.27,1.27,0,0,0-.1-.6,12.17,12.17,0,0,1,7.89-2.9A12.5,12.5,0,0,1,622.56,512.56Z"/><path class="cls-11" d="M622.86,538v3.69H602.59v-4.89a15.38,15.38,0,0,0-1.89-7.59,12.67,12.67,0,0,1,9.28-4A12.82,12.82,0,0,1,622.86,538Z"/><path class="cls-10" d="M585.84,521.43a17.9,17.9,0,1,1,17.9-17.9A17.91,17.91,0,0,1,585.84,521.43Zm0-32.72a14.82,14.82,0,1,0,14.81,14.82A14.83,14.83,0,0,0,585.84,488.71Z"/><path class="cls-10" d="M579.83,543.25H567.6v-6.43a17.87,17.87,0,0,1,1.87-8l2.75,1.38a15,15,0,0,0-1.53,6.6v3.35h9.14Z"/><path class="cls-10" d="M604.14,543.25H585.82v-3.08h15.23v-3.35a13.71,13.71,0,0,0-1.7-6.83,14.92,14.92,0,0,0-13.53-8.41,14.34,14.34,0,0,0-10,4l-.45.43h-.62l0-1.59-1-1.06a17.38,17.38,0,0,1,12.15-4.83,17.93,17.93,0,0,1,16.26,10,16.66,16.66,0,0,1,2.06,8.27Z"/><path class="cls-10" d="M567.18,561.81c-.49,0-1,0-1.46,0a20.25,20.25,0,0,1-11.84-35.48,20.45,20.45,0,0,1,14.69-4.9,20.24,20.24,0,0,1-1.39,40.43Zm-.06-37.39a16.94,16.94,0,0,0-11.21,4.2h0a17.14,17.14,0,1,0,12.45-4.16C567.94,524.43,567.53,524.42,567.12,524.42Zm0,31.37c-.34,0-.68,0-1,0a14.22,14.22,0,0,1-8.32-24.92,13.89,13.89,0,0,1,10.33-3.44,14.07,14.07,0,0,1,9.73,4.86,14.21,14.21,0,0,1-10.71,23.54Zm0-25.35A11.13,11.13,0,1,0,574.44,550a11.13,11.13,0,0,0,1.11-15.69,11,11,0,0,0-7.62-3.81C567.66,530.45,567.4,530.44,567.13,530.44Z"/><rect class="cls-10" x="543.47" y="556.29" width="9.83" height="3.09" transform="translate(-231.76 500.56) rotate(-41.29)"/><path class="cls-10" d="M529.88,579l-.36,0a4.91,4.91,0,0,1-2.87-8.61L539,559.64a4.91,4.91,0,0,1,6.44,7.42L533.09,577.8A4.88,4.88,0,0,1,529.88,579Zm12.35-17.46A1.79,1.79,0,0,0,541,562l-12.36,10.73a1.82,1.82,0,0,0,1.06,3.19,1.6,1.6,0,0,0,1.32-.44l12.36-10.74a1.81,1.81,0,0,0,.63-1.24,1.87,1.87,0,0,0-.44-1.32A1.83,1.83,0,0,0,542.23,561.54Z"/><rect class="cls-10" x="545.12" y="500.05" width="3.09" height="18.74"/><rect class="cls-10" x="537.3" y="507.88" width="18.73" height="3.08"/><rect class="cls-10" x="603.78" y="553.35" width="3.09" height="13.84"/><rect class="cls-10" x="598.4" y="558.73" width="13.85" height="3.08"/><path class="cls-10" d="M604.14,541.71h-3.09v-4.89a13.71,13.71,0,0,0-1.7-6.83l2.69-1.52a16.78,16.78,0,0,1,2.1,8.35Z"/><path class="cls-5" d="M531.53,519.45a11.86,11.86,0,1,1-11.86-11.85A11.86,11.86,0,0,1,531.53,519.45Z"/><path class="cls-10" d="M762.62,288.49a4.13,4.13,0,0,1-1.35-.27l.93-2.94h0a2.5,2.5,0,0,0,.4.11c1.4,0,3-2.73,3-6.24s-1.63-6.24-3-6.24a2.19,2.19,0,0,0-.4.11l-1-2.92a4.25,4.25,0,0,1,1.4-.28c3.44,0,6.14,4.1,6.14,9.33S766.06,288.49,762.62,288.49Z"/><path class="cls-10" d="M763.31,315.17l-10.75-9.45c-11.33-9.94-18.64-14.38-32-14.38h-.91l-4.09-7.3H712l1.8-3.2-1.79-3.2h3.57l4.09-7.3h.91c13.35,0,20.66-4.43,32-14.38l10.75-9.45Zm-41.83-26.91c15,.24,23.21,6.45,33.11,15.14l5.63,5v-55l-5.63,4.94c-9.9,8.7-18.12,14.91-33.11,15.14l-4.22,7.31.06.11-.05.11h.12Z"/><path class="cls-10" d="M721.11,326.16h-26.4V290.47H712Zm-23.31-3.09h19.33l-7.51-29.51H697.8Z"/><rect class="cls-11" x="687.53" y="267.27" width="35.04" height="27.14"/><path class="cls-12" d="M99.93,129a4.68,4.68,0,0,1-1.12,3.15A6.34,6.34,0,0,1,95.57,134v.08c3.29.42,4.94,2,4.94,4.67a5.07,5.07,0,0,1-2.18,4.33,10.17,10.17,0,0,1-6,1.57,18.15,18.15,0,0,1-3-.22,15.56,15.56,0,0,1-2.93-.84v-4.42a11.7,11.7,0,0,0,2.64,1,10.88,10.88,0,0,0,2.47.32,5,5,0,0,0,2.56-.49,1.69,1.69,0,0,0,.8-1.55,1.72,1.72,0,0,0-.42-1.24,2.55,2.55,0,0,0-1.34-.66,10.75,10.75,0,0,0-2.43-.23H89.47v-4H90.7q4.06,0,4.06-2.08a1.29,1.29,0,0,0-.59-1.16,3.06,3.06,0,0,0-1.62-.37A7.4,7.4,0,0,0,88.64,130l-2.21-3.56a10.81,10.81,0,0,1,3.2-1.54,14.25,14.25,0,0,1,3.76-.45,8.27,8.27,0,0,1,4.8,1.21A3.86,3.86,0,0,1,99.93,129Z"/><path class="cls-12" d="M110.87,131.51a6.07,6.07,0,0,1,3.07.78,5.48,5.48,0,0,1,2.13,2.24,7,7,0,0,1,.77,3.33,6.45,6.45,0,0,1-2,5.07c-1.33,1.18-3.34,1.76-6,1.76a12.88,12.88,0,0,1-5.63-1.06v-4.37a13.71,13.71,0,0,0,2.65.89,10.86,10.86,0,0,0,2.54.35,3.6,3.6,0,0,0,2.28-.63,2.19,2.19,0,0,0,.79-1.85,2.13,2.13,0,0,0-.8-1.77,4,4,0,0,0-2.46-.63,8.94,8.94,0,0,0-2.71.47l-2-1,.74-10.41h11.25v4.44H108.8l-.25,2.6a12.38,12.38,0,0,1,1.5-.22C110.35,131.51,110.62,131.51,110.87,131.51Z"/><path class="cls-12" d="M129,130.59a7,7,0,0,1-1.33,4.59,4.63,4.63,0,0,1-3.81,1.63,4.48,4.48,0,0,1-3.67-1.68,8.41,8.41,0,0,1,0-9.11,5.1,5.1,0,0,1,7.46.06A6.79,6.79,0,0,1,129,130.59Zm-6.11.06a7,7,0,0,0,.26,2.23c.17.46.43.69.77.69s.6-.22.76-.67a10.25,10.25,0,0,0,0-4.5c-.16-.45-.42-.68-.76-.68s-.61.23-.78.7A7.43,7.43,0,0,0,122.93,130.65Zm15.94-5.94-10.93,19.72h-4l10.94-19.72ZM144,138.44A7,7,0,0,1,142.7,143a4.66,4.66,0,0,1-3.8,1.62,4.45,4.45,0,0,1-3.67-1.68,8.38,8.38,0,0,1,0-9.09,4.58,4.58,0,0,1,3.71-1.6,4.64,4.64,0,0,1,3.75,1.67A6.75,6.75,0,0,1,144,138.44Zm-6.11.05a7,7,0,0,0,.26,2.24c.17.46.43.69.77.69s.65-.27.8-.79a10.52,10.52,0,0,0,0-4.28c-.15-.52-.42-.79-.8-.79s-.61.24-.78.71A7.35,7.35,0,0,0,137.93,138.49Z"/><path class="cls-12" d="M98.16,180.52h-5.4V170.08c0-1.27,0-2.43.07-3.48a11.94,11.94,0,0,1-1.23,1.27l-2.24,1.85-2.77-3.4,6.77-5.52h4.8Z"/><path class="cls-12" d="M110.87,167.6a6.07,6.07,0,0,1,3.07.78,5.48,5.48,0,0,1,2.13,2.24,7,7,0,0,1,.77,3.33,6.45,6.45,0,0,1-2,5.07c-1.33,1.18-3.34,1.76-6,1.76a12.88,12.88,0,0,1-5.63-1.06v-4.37a13.71,13.71,0,0,0,2.65.89,10.86,10.86,0,0,0,2.54.35,3.6,3.6,0,0,0,2.28-.63,2.19,2.19,0,0,0,.79-1.85,2.13,2.13,0,0,0-.8-1.77,4,4,0,0,0-2.46-.63,8.94,8.94,0,0,0-2.71.47l-2-1,.74-10.41h11.25v4.44H108.8l-.25,2.6a12.38,12.38,0,0,1,1.5-.22C110.35,167.6,110.62,167.6,110.87,167.6Z"/><path class="cls-12" d="M129,166.68a7,7,0,0,1-1.33,4.59,4.63,4.63,0,0,1-3.81,1.63,4.48,4.48,0,0,1-3.67-1.68,8.39,8.39,0,0,1,0-9.1,4.56,4.56,0,0,1,3.71-1.6,4.63,4.63,0,0,1,3.75,1.65A6.79,6.79,0,0,1,129,166.68Zm-6.11.06a6.92,6.92,0,0,0,.26,2.23c.17.46.43.69.77.69s.6-.22.76-.67a10.25,10.25,0,0,0,0-4.5c-.16-.45-.42-.68-.76-.68s-.61.23-.78.7A7.43,7.43,0,0,0,122.93,166.74Zm15.94-5.94-10.93,19.72h-4l10.94-19.72ZM144,174.53a7,7,0,0,1-1.34,4.58,4.66,4.66,0,0,1-3.8,1.62,4.45,4.45,0,0,1-3.67-1.68,8.38,8.38,0,0,1,0-9.09,4.58,4.58,0,0,1,3.71-1.6,4.64,4.64,0,0,1,3.75,1.67A6.75,6.75,0,0,1,144,174.53Zm-6.11.05a7,7,0,0,0,.26,2.24c.17.46.43.69.77.69s.65-.26.8-.79a10.52,10.52,0,0,0,0-4.28c-.15-.52-.42-.79-.8-.79s-.61.24-.78.71A7.35,7.35,0,0,0,137.93,174.58Z"/><path class="cls-12" d="M100.59,217.81H86.28V214.3l4.81-4.87c1.38-1.44,2.28-2.42,2.7-3a6.55,6.55,0,0,0,.89-1.35,3,3,0,0,0,.24-1.19,1.55,1.55,0,0,0-.49-1.21,2,2,0,0,0-1.41-.44,3.81,3.81,0,0,0-1.88.53A13.46,13.46,0,0,0,89,204.39L86.06,201A15.32,15.32,0,0,1,88.63,199a8.61,8.61,0,0,1,2.26-.9,10.93,10.93,0,0,1,2.74-.31,8.25,8.25,0,0,1,3.42.67,5.35,5.35,0,0,1,2.33,1.92,4.9,4.9,0,0,1,.83,2.8,7.4,7.4,0,0,1-.29,2.15,7.31,7.31,0,0,1-.9,1.93,13.74,13.74,0,0,1-1.6,2c-.68.69-2.1,2-4.29,4v.14h7.46Z"/><path class="cls-12" d="M110.87,204.89a6.07,6.07,0,0,1,3.07.78,5.48,5.48,0,0,1,2.13,2.24,7,7,0,0,1,.77,3.33,6.45,6.45,0,0,1-2,5.07c-1.33,1.18-3.34,1.76-6,1.76a12.88,12.88,0,0,1-5.63-1.06v-4.37a13.71,13.71,0,0,0,2.65.89,10.86,10.86,0,0,0,2.54.35,3.6,3.6,0,0,0,2.28-.63,2.19,2.19,0,0,0,.79-1.85,2.13,2.13,0,0,0-.8-1.77,4,4,0,0,0-2.46-.63,8.94,8.94,0,0,0-2.71.47l-2-1,.74-10.41h11.25v4.44H108.8l-.25,2.6a12.38,12.38,0,0,1,1.5-.22C110.35,204.89,110.62,204.89,110.87,204.89Z"/><path class="cls-12" d="M129,204a7,7,0,0,1-1.33,4.59,4.63,4.63,0,0,1-3.81,1.63,4.48,4.48,0,0,1-3.67-1.68,8.39,8.39,0,0,1,0-9.1,4.56,4.56,0,0,1,3.71-1.6,4.63,4.63,0,0,1,3.75,1.65A6.79,6.79,0,0,1,129,204Zm-6.11.06a6.92,6.92,0,0,0,.26,2.23c.17.46.43.69.77.69s.6-.22.76-.67a10.25,10.25,0,0,0,0-4.5c-.16-.45-.42-.68-.76-.68s-.61.23-.78.7A7.43,7.43,0,0,0,122.93,204Zm15.94-5.94-10.93,19.72h-4l10.94-19.72ZM144,211.82a7,7,0,0,1-1.34,4.58,4.66,4.66,0,0,1-3.8,1.62,4.45,4.45,0,0,1-3.67-1.68,8.38,8.38,0,0,1,0-9.09,4.58,4.58,0,0,1,3.71-1.6,4.64,4.64,0,0,1,3.75,1.67A6.75,6.75,0,0,1,144,211.82Zm-6.11.05a7,7,0,0,0,.26,2.24c.17.46.43.69.77.69s.65-.26.8-.79a10.52,10.52,0,0,0,0-4.28c-.15-.52-.42-.79-.8-.79s-.61.24-.78.71A7.3,7.3,0,0,0,137.93,211.87Z"/><path class="cls-12" d="M98.16,254.49h-5.4V244.06c0-1.27,0-2.43.07-3.48a11.91,11.91,0,0,1-1.23,1.26l-2.24,1.85-2.77-3.4,6.77-5.52h4.8Z"/><path class="cls-12" d="M117.13,244.66c0,3.49-.58,6-1.75,7.67a6.18,6.18,0,0,1-5.37,2.43,6.1,6.1,0,0,1-5.33-2.54q-1.79-2.55-1.79-7.56c0-3.5.59-6.08,1.76-7.71a6.94,6.94,0,0,1,10.68.1Q117.13,239.6,117.13,244.66Zm-8.94,0a16.78,16.78,0,0,0,.42,4.6c.28.83.74,1.25,1.4,1.25s1.14-.43,1.41-1.29a17.37,17.37,0,0,0,.41-4.56,17.7,17.7,0,0,0-.41-4.59c-.29-.88-.75-1.32-1.41-1.32s-1.12.43-1.4,1.27A17.08,17.08,0,0,0,108.19,244.66Z"/><path class="cls-12" d="M129,240.66a7.07,7.07,0,0,1-1.33,4.59,4.66,4.66,0,0,1-3.81,1.62,4.48,4.48,0,0,1-3.67-1.68,8.39,8.39,0,0,1,0-9.1,4.56,4.56,0,0,1,3.71-1.6,4.64,4.64,0,0,1,3.75,1.66A6.79,6.79,0,0,1,129,240.66Zm-6.11.05a7,7,0,0,0,.26,2.24c.17.46.43.69.77.69s.6-.23.76-.68a10.21,10.21,0,0,0,0-4.49c-.16-.46-.42-.69-.76-.69s-.61.24-.78.7A7.43,7.43,0,0,0,122.93,240.71Zm15.94-5.94-10.93,19.72h-4l10.94-19.72ZM144,248.51a7,7,0,0,1-1.34,4.57,4.67,4.67,0,0,1-3.8,1.63,4.45,4.45,0,0,1-3.67-1.68,8.38,8.38,0,0,1,0-9.09,4.58,4.58,0,0,1,3.71-1.6,4.67,4.67,0,0,1,3.75,1.66A6.78,6.78,0,0,1,144,248.51Zm-6.11.05a7,7,0,0,0,.26,2.24c.17.45.43.68.77.68s.65-.26.8-.79a8,8,0,0,0,.22-2.13,8.16,8.16,0,0,0-.22-2.14c-.15-.53-.42-.79-.8-.79s-.61.23-.78.7A7.43,7.43,0,0,0,137.93,248.56Z"/><path class="cls-12" d="M98.16,291.19h-5.4V280.75c0-1.27,0-2.43.07-3.48a11.94,11.94,0,0,1-1.23,1.27l-2.24,1.85L86.59,277l6.77-5.52h4.8Z"/><path class="cls-12" d="M110.87,278.27a6.07,6.07,0,0,1,3.07.78,5.48,5.48,0,0,1,2.13,2.24,7,7,0,0,1,.77,3.33,6.45,6.45,0,0,1-2,5.07q-2,1.77-6,1.77a12.87,12.87,0,0,1-5.63-1.07V286a13.71,13.71,0,0,0,2.65.89,10.86,10.86,0,0,0,2.54.35,3.6,3.6,0,0,0,2.28-.63,2.19,2.19,0,0,0,.79-1.85,2.13,2.13,0,0,0-.8-1.77,4,4,0,0,0-2.46-.63,8.94,8.94,0,0,0-2.71.47l-2-1,.74-10.41h11.25v4.44H108.8l-.25,2.6a12.38,12.38,0,0,1,1.5-.22C110.35,278.27,110.62,278.27,110.87,278.27Z"/><path class="cls-12" d="M129,277.35a7,7,0,0,1-1.33,4.59,4.63,4.63,0,0,1-3.81,1.63,4.48,4.48,0,0,1-3.67-1.68,8.39,8.39,0,0,1,0-9.1,4.56,4.56,0,0,1,3.71-1.6,4.63,4.63,0,0,1,3.75,1.65A6.79,6.79,0,0,1,129,277.35Zm-6.11.06a6.92,6.92,0,0,0,.26,2.23c.17.46.43.69.77.69s.6-.22.76-.67a10.25,10.25,0,0,0,0-4.5c-.16-.45-.42-.68-.76-.68s-.61.23-.78.7A7.43,7.43,0,0,0,122.93,277.41Zm15.94-5.94-10.93,19.72h-4l10.94-19.72ZM144,285.2a7,7,0,0,1-1.34,4.58,4.66,4.66,0,0,1-3.8,1.62,4.45,4.45,0,0,1-3.67-1.68,8.38,8.38,0,0,1,0-9.09,4.58,4.58,0,0,1,3.71-1.6,4.64,4.64,0,0,1,3.75,1.67A6.77,6.77,0,0,1,144,285.2Zm-6.11.05a7,7,0,0,0,.26,2.24c.17.46.43.69.77.69s.65-.26.8-.79a10.52,10.52,0,0,0,0-4.28c-.15-.52-.42-.79-.8-.79s-.61.24-.78.71A7.35,7.35,0,0,0,137.93,285.25Z"/><rect class="cls-6" x="188.01" y="51.61" width="154.97" height="254.62"/><rect class="cls-7" x="209.52" y="134.53" width="111.58" height="35.56" transform="translate(530.62 304.62) rotate(180)"/><rect class="cls-7" x="209.52" y="74.86" width="111.58" height="43.65" transform="translate(530.62 193.38) rotate(180)"/><rect class="cls-7" x="209.52" y="183.46" width="111.58" height="17.78" transform="translate(530.62 384.7) rotate(180)"/><rect class="cls-7" x="209.52" y="217.78" width="111.58" height="59.93" transform="translate(530.62 495.5) rotate(180)"/></g></g></svg>