<svg xmlns="http://www.w3.org/2000/svg" viewBox="0 0 37.28 37.28"><defs><style>.cls-1{fill:#0d3f62;}.cls-2{fill:#f8ac17;}</style></defs><g id="Layer_2" data-name="Layer 2"><g id="Layer_1-2" data-name="Layer 1"><path class="cls-1" d="M37.28,18.64A18.64,18.64,0,1,1,18.64,0,18.63,18.63,0,0,1,37.28,18.64Z"/><path class="cls-2" d="M17.8,22.88a3.83,3.83,0,0,1-1.17,3,5.11,5.11,0,0,1-3.46,1,9.77,9.77,0,0,1-3.46-.55v-2a9,9,0,0,0,3.61.71c1.3,0,1.94-.7,1.94-2.1V22.8l.08-1.14h-.08A2.92,2.92,0,0,1,12.64,23a3,3,0,0,1-2.58-1.29,5.9,5.9,0,0,1-.92-3.49,5.85,5.85,0,0,1,.95-3.55,3.06,3.06,0,0,1,2.61-1.27,3.14,3.14,0,0,1,2.69,1.36h.06l.21-1.19H17.8Zm-4.26-1.83A1.74,1.74,0,0,0,15,20.47a3.26,3.26,0,0,0,.44-1.9v-.3A3.73,3.73,0,0,0,15,16.14a1.65,1.65,0,0,0-1.47-.66c-1.19,0-1.78.93-1.78,2.8a3.86,3.86,0,0,0,.44,2.08A1.53,1.53,0,0,0,13.54,21.05Z"/><path class="cls-2" d="M23.05,17.79H19.84V16h3.21V12.75h1.81V16h3.2v1.81h-3.2V21H23.05Z"/></g></g></svg>