<svg xmlns="http://www.w3.org/2000/svg" viewBox="0 0 244.29 41.89"><defs><style>.cls-1{fill:#0c3f62;}</style></defs><g id="Layer_2" data-name="Layer 2"><g id="Layer_1-2" data-name="Layer 1"><path class="cls-1" d="M10.47,5.31a10.14,10.14,0,0,1,5.28,1.42,10.78,10.78,0,0,1,3.8,3.79A10.17,10.17,0,0,1,21,15.81a10.14,10.14,0,0,1-1.41,5.26,10.78,10.78,0,0,1-3.8,3.79,10.09,10.09,0,0,1-5.26,1.41,10.17,10.17,0,0,1-5.27-1.41,10.59,10.59,0,0,1-3.8-3.81A10.09,10.09,0,0,1,0,15.78V.19L4.27,2.32v3Zm0,16.69a6,6,0,0,0,4.38-1.81,6,6,0,0,0,1.82-4.38,6.2,6.2,0,0,0-6.22-6.22H4.27v6.19A6,6,0,0,0,6.1,20.17,6,6,0,0,0,10.49,22Z"/><path class="cls-1" d="M38.61,17V5.29h4.27V17a8.79,8.79,0,0,1-1.27,4.66A9.54,9.54,0,0,1,38.22,25a9,9,0,0,1-4.68,1.25A9.08,9.08,0,0,1,28.82,25a9.71,9.71,0,0,1-3.39-3.35A8.88,8.88,0,0,1,24.17,17V5.29h4.27V17a4.83,4.83,0,0,0,1.49,3.56,5.11,5.11,0,0,0,7.19,0A4.83,4.83,0,0,0,38.61,17Z"/><path class="cls-1" d="M56.58,22a5.93,5.93,0,0,0,.6-.05,3.08,3.08,0,0,0,.71-.19l1.49,4a6.82,6.82,0,0,1-1.52.4,9.63,9.63,0,0,1-1.28.1,10.17,10.17,0,0,1-5.27-1.41,10.62,10.62,0,0,1-3.81-3.81,10.17,10.17,0,0,1-1.41-5.27V0h4.27V5.13h6.7V9.4h-6.7v6.38A6.25,6.25,0,0,0,56.58,22Z"/><path class="cls-1" d="M76.15,26.27V.13H94.44V4.41h-14v6.67h10v4.27h-10V26.27Z"/><path class="cls-1" d="M101.92.13V26.27H97.65V.13Z"/><path class="cls-1" d="M125,7.74a7.37,7.37,0,0,1-.85,3.53,7.57,7.57,0,0,1-2.32,2.64,11.07,11.07,0,0,1,2.32,3.46,10.72,10.72,0,0,1,.85,4.28v4.62h-4.27V21.65a6.4,6.4,0,0,0-1.57-4.36,5.5,5.5,0,0,0-3.9-2h-5.9V26.27h-4.28V.19h12.34a7.33,7.33,0,0,1,5.35,2.21A7.25,7.25,0,0,1,125,7.74ZM109.4,4.46v6.59h8.06a3.22,3.22,0,0,0,2.34-1,3.16,3.16,0,0,0,1-2.35,3.14,3.14,0,0,0-1-2.32,3.22,3.22,0,0,0-2.34-1Z"/><path class="cls-1" d="M144,11.11a7.56,7.56,0,0,1,7.59,7.58A7.3,7.3,0,0,1,149.34,24,7.29,7.29,0,0,1,144,26.27H129.34V22H144a3.3,3.3,0,0,0,2.34-5.65,3.23,3.23,0,0,0-2.34-1h-8.14a7.27,7.27,0,0,1-5.35-2.23,7.29,7.29,0,0,1-2.23-5.35,7.31,7.31,0,0,1,2.23-5.38A7.27,7.27,0,0,1,135.83.19H150V4.46H135.83a3.19,3.19,0,0,0-2.34,1,3.22,3.22,0,0,0-1,2.37,3.33,3.33,0,0,0,3.31,3.31H144Z"/><path class="cls-1" d="M154.76,4.41V.13h22.11V4.41H168V26.27h-4.27V4.41Z"/><path class="cls-1" d="M214.44.19a8,8,0,0,1,5.91,2.44,8.06,8.06,0,0,1,2.45,5.91V26.27h-4.28V8.54a4.06,4.06,0,0,0-4.08-4.08,3.93,3.93,0,0,0-2.88,1.2,3.9,3.9,0,0,0-1.21,2.88V26.27h-4.27V8.54a3.93,3.93,0,0,0-1.2-2.88,4.07,4.07,0,0,0-5.77,0,3.93,3.93,0,0,0-1.2,2.88V26.27h-4.27V8.54a8,8,0,0,1,2.46-5.91A8,8,0,0,1,202,.19a8.22,8.22,0,0,1,3.45.74,8.53,8.53,0,0,1,2.77,2,8.86,8.86,0,0,1,2.77-2A8.19,8.19,0,0,1,214.44.19Z"/><path class="cls-1" d="M226,26.27V.13h18.29V4.41h-14v6.67h10v4.27h-10V22h14v4.27Z"/><path class="cls-1" d="M31.15,35.05h1.18l1.4,5.51,1.52-5.51H36.5l1.41,5.49,1.42-5.49h1.19l-2,6.77H37.25L35.83,36.7l-1.51,5.12H33.07Z"/><path class="cls-1" d="M46,35.94H43.32v2h2.34v.91H43.32v2.08H46v.9H42.21V35H46Z"/><path class="cls-1" d="M48.09,35.05H49.2v6.77H48.09Z"/><path class="cls-1" d="M52.55,35.05v5.88h2.29v.89h-3.4V35.05Z"/><path class="cls-1" d="M59.85,35.05H61v6.77H59.85Z"/><path class="cls-1" d="M66.29,35a3.22,3.22,0,0,1,3.15,2H68.11a1.91,1.91,0,0,0-1.82-1.07A2.28,2.28,0,0,0,64,38.42a2.29,2.29,0,0,0,2.32,2.5,1.91,1.91,0,0,0,1.82-1.07h1.33a3.21,3.21,0,0,1-3.15,2,3.46,3.46,0,0,1,0-6.92Z"/><path class="cls-1" d="M75.81,38.86H72.62v3H71.51V35.05h1.11V38h3.19v-2.9h1.11v6.77H75.81Z"/><path class="cls-1" d="M82.47,35.05h1.2l2.38,5.31,2.37-5.31h1.19v6.77H88.49V37.18l-2.06,4.64h-.77l-2.08-4.64v4.64H82.47Z"/><path class="cls-1" d="M91.84,35.05H93v6.77H91.84Z"/><path class="cls-1" d="M97.53,35.05c1.61,0,2.4.92,2.4,2A1.94,1.94,0,0,1,98.36,39l1.68,2.8H98.71l-1.56-2.71H96.3v2.71H95.19V35.05Zm0,.9H96.3v2.28h1.23c.87,0,1.26-.48,1.26-1.15S98.4,36,97.53,36Z"/><path class="cls-1" d="M107.67,41.89c-1.35,0-2.4-.74-2.4-1.94h1.19a1.08,1.08,0,0,0,1.21,1c.78,0,1.22-.41,1.22-1,0-1.64-3.6-.57-3.6-3.07,0-1.19.95-1.93,2.33-1.93a2.06,2.06,0,0,1,2.31,1.84H108.7a1,1,0,0,0-1.14-.89c-.64,0-1.14.29-1.14.94,0,1.53,3.59.58,3.59,3A2.1,2.1,0,0,1,107.67,41.89Z"/><path class="cls-1" d="M115.84,35.94h-2.63v2h2.34v.91h-2.34v2.08h2.63v.9H112.1V35h3.74Z"/><path class="cls-1" d="M119.1,35.05v5.88h2.29v.89H118V35.05Z"/><path class="cls-1" d="M125.8,41.82h-2.71V35.05h2.58c1.43,0,2.19.79,2.19,1.74a1.57,1.57,0,0,1-1.15,1.55A1.68,1.68,0,0,1,128,40C128,41,127.18,41.82,125.8,41.82ZM125.57,36H124.2v1.94h1.37c.72,0,1.16-.34,1.16-1S126.29,36,125.57,36Zm.09,2.85H124.2v2.12h1.5c.75,0,1.21-.38,1.21-1A1.1,1.1,0,0,0,125.66,38.8Z"/><path class="cls-1" d="M132.24,41.89c-1.36,0-2.4-.74-2.4-1.94H131a1.08,1.08,0,0,0,1.21,1c.78,0,1.21-.41,1.21-1,0-1.64-3.59-.57-3.59-3.07,0-1.19.94-1.93,2.33-1.93a2.07,2.07,0,0,1,2.31,1.84h-1.23a1.06,1.06,0,0,0-1.14-.89c-.64,0-1.14.29-1.14.94,0,1.53,3.58.58,3.58,3A2.09,2.09,0,0,1,132.24,41.89Z"/><path class="cls-1" d="M136.31,35.05H141V36h-1.8v5.87h-1.11V36h-1.82Z"/><path class="cls-1" d="M145.7,35.05h1.18l1.41,5.51,1.52-5.51h1.25l1.41,5.49,1.41-5.49h1.19l-2,6.77h-1.25l-1.43-5.12-1.51,5.12h-1.25Z"/><path class="cls-1" d="M156.76,35.05h1.11v6.77h-1.11Z"/><path class="cls-1" d="M163.2,35a3.23,3.23,0,0,1,3.15,2H165a1.9,1.9,0,0,0-1.81-1.07,2.28,2.28,0,0,0-2.32,2.49,2.29,2.29,0,0,0,2.32,2.5A1.9,1.9,0,0,0,165,39.85h1.34a3.23,3.23,0,0,1-3.15,2,3.46,3.46,0,1,1,0-6.92Z"/><path class="cls-1" d="M172.72,38.86h-3.19v3h-1.11V35.05h1.11V38h3.19v-2.9h1.11v6.77h-1.11Z"/><path class="cls-1" d="M175.71,35.05h4.73V36h-1.8v5.87h-1.11V36h-1.82Z"/><path class="cls-1" d="M182.34,35.05h1.11v6.77h-1.11Z"/><path class="cls-1" d="M191.93,37h-1.34a1.93,1.93,0,0,0-1.81-1,2.46,2.46,0,0,0,0,4.91A2,2,0,0,0,190.94,39H188.4v-.89h3.73V39a3.33,3.33,0,0,1-3.35,2.9,3.46,3.46,0,0,1,0-6.92A3.23,3.23,0,0,1,191.93,37Z"/><path class="cls-1" d="M200,41.82h-2.71V35.05h2.58c1.44,0,2.2.79,2.2,1.74a1.58,1.58,0,0,1-1.15,1.55,1.69,1.69,0,0,1,1.3,1.66C202.24,41,201.4,41.82,200,41.82ZM199.8,36h-1.38v1.94h1.38c.72,0,1.16-.34,1.16-1S200.52,36,199.8,36Zm.08,2.85h-1.46v2.12h1.5c.75,0,1.21-.38,1.21-1A1.1,1.1,0,0,0,199.88,38.8Z"/><path class="cls-1" d="M204.23,35.05h1.11v6.77h-1.11Z"/><path class="cls-1" d="M213.14,35v6.78H212l-3.34-5.06v5.06h-1.11V35h1.11L212,40.09V35Z"/></g></g></svg>