<svg xmlns="http://www.w3.org/2000/svg" viewBox="0 0 546 155"><defs><style>.cls-1{fill:#ffbd1a;}.cls-2,.cls-3,.cls-4{fill:#fff;}.cls-2,.cls-4{stroke:#010202;}.cls-2,.cls-4,.cls-5{stroke-miterlimit:10;}.cls-2{stroke-width:0.25px;}.cls-4{stroke-width:0.15px;}.cls-5{fill:none;stroke:#fff;}</style></defs><g id="Layer_2" data-name="Layer 2"><g id="Layer_1-2" data-name="Layer 1"><circle class="cls-1" cx="42.82" cy="75.41" r="21.32"/><path class="cls-2" d="M53.86,71.61l0,0Z"/><path class="cls-3" d="M54.89,75H50.64a.63.63,0,0,1-.49-.61.64.64,0,0,1,.31-.54,1.31,1.31,0,1,0-2-1.1,1.29,1.29,0,0,0,.6,1.09.67.67,0,0,1,.31.55.63.63,0,0,1-.48.61H45.4V70a.63.63,0,0,0-1.17-.33,1.3,1.3,0,1,1,0-1.39.63.63,0,0,0,.54.3h0a.63.63,0,0,0,.63-.63V64.53c5.21.06,8.41,4.25,8.46,7.08A5.14,5.14,0,0,0,54.89,75Z"/><path class="cls-3" d="M49,81.77A1.31,1.31,0,0,1,47.78,83a1.34,1.34,0,0,1-1.21-.61.66.66,0,0,0-.54-.3.64.64,0,0,0-.63.59v7.77a3.81,3.81,0,0,1-.92.07c-.61-4.32-2.92-4.57-4.55-4.83a25.06,25.06,0,0,0,.72-2.52c0-.65-.15-.76-1.21-1.83A12.45,12.45,0,0,1,35.72,75h3.41a.63.63,0,0,1,.18,1.16,1.29,1.29,0,0,0-.6,1.2,1.32,1.32,0,0,0,1.22,1.2,1.3,1.3,0,0,0,.78-2.4A.63.63,0,0,1,40.89,75H45.4v5.69a.64.64,0,0,0,.63.59.63.63,0,0,0,.54-.31,1.3,1.3,0,0,1,2.4.77Z"/><path class="cls-3" d="M42.73,61.64l-1.22,3.14a.64.64,0,0,1-.82.36h0a.62.62,0,0,1-.39-.48,1.3,1.3,0,1,0-.51,1.3.63.63,0,0,1,.62-.09.64.64,0,0,1,.36.82l-1.85,4.73-4.21-1.64a.63.63,0,0,0-.59,1A1.3,1.3,0,0,1,34.29,72a1.3,1.3,0,0,1-2.46-.85,1.29,1.29,0,0,1,1-.91.63.63,0,0,0,.24-1.14L29.9,67.9A7.7,7.7,0,0,1,32.78,63a9.92,9.92,0,0,1,9.86-1.41Z"/><path class="cls-4" d="M54.78,78.1c0,.64.45.5.45.91s-.71.48-.71.48c.13.36.48.61.49.79,0,.52-1,.41-1,1.17s.83,2.9-2,2.9c-2.45,0-3,.47-3.07.5-.82.76-1.22,1.69-.22,4.54a18.49,18.49,0,0,1-3.38,1.06V82.68a.64.64,0,0,1,.63-.59.66.66,0,0,1,.54.3,1.34,1.34,0,0,0,1.21.61,1.31,1.31,0,0,0-.11-2.61,1.29,1.29,0,0,0-1.1.61.63.63,0,0,1-.54.31.64.64,0,0,1-.63-.59V75h3.49a.63.63,0,0,0,.48-.61.67.67,0,0,0-.31-.55,1.29,1.29,0,0,1-.6-1.09,1.3,1.3,0,0,1,1.37-1.31,1.31,1.31,0,0,1,.63,2.41.64.64,0,0,0-.31.54.63.63,0,0,0,.49.61h4.25c.69,1,1.46,1.53,1.45,1.91C56.31,77.53,54.78,78.1,54.78,78.1Z"/><rect class="cls-5" x="0.5" y="0.5" width="545" height="154" rx="4.71"/><line class="cls-5" x1="86.8" y1="0.5" x2="86.8" y2="154.47"/></g></g></svg>