<svg xmlns="http://www.w3.org/2000/svg" viewBox="0 0 37.28 37.28"><defs><style>.cls-1{fill:#0d3f62;}.cls-2{fill:#f8ac17;}</style></defs><g id="Layer_2" data-name="Layer 2"><g id="Layer_1-2" data-name="Layer 1"><circle class="cls-1" cx="18.64" cy="18.64" r="18.64"/><path class="cls-2" d="M9.28,22H7.67V15.67H5.59V14.32h5.77v1.35H9.28Z"/><path class="cls-2" d="M16.28,22l-.21-.75H16a1.64,1.64,0,0,1-.72.63,2.44,2.44,0,0,1-1.07.22,2,2,0,0,1-1.55-.55,2.21,2.21,0,0,1-.52-1.58V16.12h1.59v3.41a1.65,1.65,0,0,0,.22.95.82.82,0,0,0,.72.31,1.05,1.05,0,0,0,1-.44,2.78,2.78,0,0,0,.3-1.48V16.12h1.6V22Z"/><path class="cls-2" d="M22.43,16a1.91,1.91,0,0,1,1.62.81A3.74,3.74,0,0,1,24.63,19a3.66,3.66,0,0,1-.6,2.24,2,2,0,0,1-1.65.79,1.93,1.93,0,0,1-1.61-.75h-.11L20.4,22H19.18V13.83h1.59v1.89c0,.24,0,.63-.06,1.15h.06A1.85,1.85,0,0,1,22.43,16Zm-.52,1.28a1,1,0,0,0-.86.36,2,2,0,0,0-.28,1.19V19a2.41,2.41,0,0,0,.28,1.34,1,1,0,0,0,.88.41.88.88,0,0,0,.78-.45A2.38,2.38,0,0,0,23,19a2.24,2.24,0,0,0-.29-1.29A.9.9,0,0,0,21.91,17.29Z"/><path class="cls-2" d="M28.59,22.06a3.06,3.06,0,0,1-2.21-.77,3,3,0,0,1-.79-2.21,3.2,3.2,0,0,1,.74-2.27,2.6,2.6,0,0,1,2-.8,2.57,2.57,0,0,1,1.93.7A2.68,2.68,0,0,1,31,18.66v.78H27.2a1.56,1.56,0,0,0,.4,1.06,1.46,1.46,0,0,0,1.06.38,4.51,4.51,0,0,0,1-.11,5.54,5.54,0,0,0,1-.35v1.23a3.75,3.75,0,0,1-.89.31A5.57,5.57,0,0,1,28.59,22.06Zm-.23-4.92a1,1,0,0,0-.79.33,1.47,1.47,0,0,0-.33.9h2.23a1.25,1.25,0,0,0-.3-.9A1,1,0,0,0,28.36,17.14Z"/></g></g></svg>