<svg xmlns="http://www.w3.org/2000/svg" viewBox="0 0 37.28 37.28"><defs><style>.cls-1{fill:#0d3f62;}.cls-2{fill:#f8ac17;}</style></defs><g id="Layer_2" data-name="Layer 2"><g id="Layer_1-2" data-name="Layer 1"><circle class="cls-1" cx="18.64" cy="18.64" r="18.64"/><path class="cls-2" d="M12.35,22.38a5.61,5.61,0,0,0,1.59-.29V24a5.69,5.69,0,0,1-2.32.42,2.84,2.84,0,0,1-2.2-.77,3.3,3.3,0,0,1-.69-2.3V16.86H7.52V15.79L8.91,15l.73-2h1.61v2h2.59v1.9H11.25v4.46a1,1,0,0,0,.3.8A1.22,1.22,0,0,0,12.35,22.38Z"/><path class="cls-2" d="M23.43,24.22,22.71,21l-.94-4.09h-.08L20,24.22H17.29L14.65,15h2.52l1.07,4.1c.12.49.29,1.5.5,3h.07a16.73,16.73,0,0,1,.29-2l.13-.71L20.38,15h2.78l1.09,4.44c.06.31.14.75.24,1.34a10.57,10.57,0,0,1,.16,1.36h.07c.05-.49.14-1.05.25-1.68s.21-1.07.28-1.36L26.37,15h2.47l-2.66,9.26Z"/></g></g></svg>