<svg xmlns="http://www.w3.org/2000/svg" viewBox="0 0 450.09 93.93"><defs><style>.cls-1{fill:#0c3f62;opacity:0.66;}.cls-2{fill:#fff;}</style></defs><g id="Layer_2" data-name="Layer 2"><g id="Layer_1-2" data-name="Layer 1"><rect class="cls-1" width="450.09" height="93.93" rx="46.96"/><path class="cls-2" d="M243.46,60.41,218.49,46a1.94,1.94,0,0,0-2.91,1.68V76.51a1.94,1.94,0,0,0,2.91,1.68l25-14.41A2,2,0,0,0,243.46,60.41Z"/><path class="cls-2" d="M99.81,68.66,96.91,67a.44.44,0,0,0-.66.38h0a.45.45,0,0,1-.44.44,11.44,11.44,0,0,1-10-5.87,1.45,1.45,0,0,1,.09-1.64c2.66-3.53,5.93-4.39,9.9-4.1a.42.42,0,0,1,.4.44v.18a.45.45,0,0,0,.67.39l2.9-1.68a.44.44,0,0,0,0-.76l-2.9-1.68a.45.45,0,0,0-.67.38v.09a.44.44,0,0,1-.47.44c-3.76-.27-7.2.14-10.64,3.8a1.46,1.46,0,0,1-2.14,0A11.14,11.14,0,0,0,75.07,54a.91.91,0,0,0-1,.9v.44a.93.93,0,0,0,.86.91,9.5,9.5,0,0,1,7.2,4.06,1.46,1.46,0,0,1,.08,1.66,11.51,11.51,0,0,1-7.44,5.61.91.91,0,0,0-.7.89v.45a.91.91,0,0,0,1.1.88A13.42,13.42,0,0,0,82.9,64.9a1.46,1.46,0,0,1,2.28,0A13.37,13.37,0,0,0,95.8,70.07a.45.45,0,0,1,.45.44v.21a.44.44,0,0,0,.66.38l2.9-1.67A.44.44,0,0,0,99.81,68.66Z"/><path class="cls-2" d="M380.15,58.1A1.12,1.12,0,0,0,379,59.22l0,9.48a.67.67,0,0,1-.68.68H363.28v-.56a.43.43,0,0,0-.64-.38l-2.94,1.7a.43.43,0,0,0,0,.74l2.94,1.7a.43.43,0,0,0,.64-.38v-.56h15.05a2.94,2.94,0,0,0,2.94-2.94l0-9.48a1.12,1.12,0,0,0-1.11-1.12Z"/><path class="cls-2" d="M381.11,54.5l-2.93-1.69a.43.43,0,0,0-.65.37v.57H362.37a2.94,2.94,0,0,0-2.94,2.94l0,8.81a1.11,1.11,0,0,0,1.12,1.11h0a1.11,1.11,0,0,0,1.11-1.11V56.69a.69.69,0,0,1,.69-.69h15.16v.57a.43.43,0,0,0,.65.37l2.93-1.69A.43.43,0,0,0,381.11,54.5Z"/><path class="cls-2" d="M149.32,62,171,49.52a.09.09,0,0,1,.12.07v25a.08.08,0,0,1-.12.06L149.32,62.16A.08.08,0,0,1,149.32,62Z"/><rect class="cls-2" x="144.51" y="49.46" width="4.8" height="25.27" rx="2.4" transform="translate(293.82 124.19) rotate(-180)"/><path class="cls-2" d="M310.71,62,289.05,49.52a.08.08,0,0,0-.11.07v25a.07.07,0,0,0,.11.06l21.66-12.51A.08.08,0,0,0,310.71,62Z"/><rect class="cls-2" x="310.72" y="49.46" width="4.8" height="25.27" rx="2.4"/><circle class="cls-2" cx="133.34" cy="20.41" r="6.24" transform="translate(59.08 133.02) rotate(-65.3)"/><path class="cls-2" d="M127.1,20.41a6.16,6.16,0,0,1,.53-2.5h-.08l-57.09,0a1.7,1.7,0,0,0-1.7,1.7v1.58a1.7,1.7,0,0,0,1.7,1.7l57.08,0h.08A6.17,6.17,0,0,1,127.1,20.41Z"/><path class="cls-2" d="M380.28,19l-240.84-.06h0a6.52,6.52,0,0,1,.18,1.48,6.15,6.15,0,0,1-.17,1.43h0l240.83.06a1,1,0,0,0,1.05-1V20A1,1,0,0,0,380.28,19Z"/></g></g></svg>