<svg xmlns="http://www.w3.org/2000/svg" viewBox="0 0 166.93 166.93"><defs><style>.cls-1{fill:#f1f2f2;}.cls-2{fill:#f8ac17;}.cls-3{fill:#265526;}.cls-4{fill:none;stroke:#f8ac17;stroke-miterlimit:10;stroke-width:3px;}</style></defs><g id="Layer_2" data-name="Layer 2"><g id="Layer_1-2" data-name="Layer 1"><path class="cls-1" d="M83.46,166.46h0a83,83,0,0,1-83-83h0a83,83,0,0,1,83-83h0a83,83,0,0,1,83,83h0A83,83,0,0,1,83.46,166.46Z"/><polygon class="cls-2" points="98.77 78.04 123.26 78.04 123.26 108.89 113.07 108.89 113.08 112.05 113.09 113.75 113.12 117.87 110.56 116.29 109.5 115.64 107.14 114.18 106.64 113.88 103.86 112.15 103.64 112.02 101 110.39 100.13 109.85 98.57 108.89 68.16 108.89 68.16 89.14 98.77 78.04"/><path class="cls-3" d="M113.12,119.2a1.29,1.29,0,0,1-.7-.2l-14.23-8.79h-30a1.32,1.32,0,0,1-1.33-1.32V89.14a1.33,1.33,0,1,1,2.65,0v18.42H98.57a1.41,1.41,0,0,1,.7.19l12.51,7.74,0-6.6a1.28,1.28,0,0,1,.38-.94,1.33,1.33,0,0,1,.94-.39h8.87V79.37H98.77a1.33,1.33,0,0,1,0-2.65h24.49a1.32,1.32,0,0,1,1.33,1.33v30.84a1.32,1.32,0,0,1-1.33,1.32h-8.85l0,7.66a1.34,1.34,0,0,1-.68,1.16A1.37,1.37,0,0,1,113.12,119.2Z"/><polygon class="cls-1" points="43.66 58.17 43.66 89.01 53.86 89.01 53.81 98 68.36 89.01 98.77 89.01 98.77 58.17 43.66 58.17"/><path class="cls-3" d="M53.81,99.33a1.34,1.34,0,0,1-.65-.17A1.32,1.32,0,0,1,52.48,98l0-7.66H43.66A1.32,1.32,0,0,1,42.34,89V58.17a1.33,1.33,0,0,1,1.32-1.33H98.77a1.34,1.34,0,0,1,1.33,1.33V89a1.33,1.33,0,0,1-1.33,1.33h-30L54.51,99.13A1.29,1.29,0,0,1,53.81,99.33ZM45,87.69h8.87A1.31,1.31,0,0,1,55.18,89l0,6.6,12.51-7.73a1.23,1.23,0,0,1,.69-.2h29.1V59.5H45Z"/><circle class="cls-4" cx="83.46" cy="83.46" r="81.96"/></g></g></svg>