<svg xmlns="http://www.w3.org/2000/svg" viewBox="0 0 166.93 166.93"><defs><style>.cls-1{fill:#f1f2f2;}.cls-2{fill:none;stroke:#f8ac17;stroke-miterlimit:10;stroke-width:3px;}.cls-3{fill:#f8ac17;}.cls-4{fill:#265526;}</style></defs><g id="Layer_2" data-name="Layer 2"><g id="Layer_1-2" data-name="Layer 1"><path class="cls-1" d="M83.46,166.62h0a82,82,0,0,1-82-82h0a82,82,0,0,1,82-82h0a82,82,0,0,1,82,82h0A82,82,0,0,1,83.46,166.62Z"/><circle class="cls-2" cx="83.46" cy="83.46" r="81.96"/><path class="cls-3" d="M129.09,61.86a11.74,11.74,0,0,1-23.31,2A14.87,14.87,0,0,0,110,53.43a1.11,1.11,0,0,0-.1-.56,11.44,11.44,0,0,1,7.4-2.71A11.73,11.73,0,0,1,129.09,61.86Z"/><path class="cls-3" d="M129.37,85.73v3.46h-19V84.61a14.31,14.31,0,0,0-1.78-7.12,11.89,11.89,0,0,1,8.71-3.74A12,12,0,0,1,129.37,85.73Z"/><path class="cls-4" d="M94.65,70.17a16.79,16.79,0,1,1,16.79-16.78A16.8,16.8,0,0,1,94.65,70.17Zm0-30.68a13.9,13.9,0,1,0,13.89,13.9A13.91,13.91,0,0,0,94.65,39.49Z"/><path class="cls-4" d="M89,90.63H77.55v-6a16.76,16.76,0,0,1,1.75-7.49l2.58,1.3a14,14,0,0,0-1.43,6.19v3.14H89Z"/><path class="cls-4" d="M111.81,90.63H94.63V87.75h14.28V84.61a12.83,12.83,0,0,0-1.59-6.41,14,14,0,0,0-12.69-7.88A13.43,13.43,0,0,0,85.25,74l-.42.4h-.59l0-1.49-1-1a16.28,16.28,0,0,1,11.39-4.53,16.81,16.81,0,0,1,15.25,9.42,15.62,15.62,0,0,1,1.93,7.76Z"/><path class="cls-4" d="M77.15,108c-.45,0-.91,0-1.37-.05a19,19,0,0,1-11.1-33.26,19.19,19.19,0,0,1,13.78-4.6A19,19,0,0,1,77.15,108ZM77.1,73a15.92,15.92,0,0,0-10.52,3.94h0A16.08,16.08,0,1,0,78.26,73C77.87,73,77.48,73,77.1,73Zm0,29.42c-.32,0-.64,0-1,0a13.33,13.33,0,1,1,11-22,13.33,13.33,0,0,1-10,22.08Zm0-23.78a10.44,10.44,0,0,0-.71,20.85A10.24,10.24,0,0,0,84,96.94,10.44,10.44,0,0,0,85,82.22a10.34,10.34,0,0,0-7.15-3.57C77.61,78.63,77.36,78.62,77.1,78.62Z"/><rect class="cls-4" x="54.92" y="102.86" width="9.22" height="2.9" transform="translate(-54.03 65.22) rotate(-41.29)"/><path class="cls-4" d="M42.18,124.16l-.34,0a4.55,4.55,0,0,1-3.15-1.57,4.61,4.61,0,0,1,.46-6.5L50.74,106a4.62,4.62,0,0,1,6.49.46,4.55,4.55,0,0,1,1.12,3.34A4.64,4.64,0,0,1,56.78,113L45.18,123A4.52,4.52,0,0,1,42.18,124.16Zm11.58-16.37a1.65,1.65,0,0,0-1.12.42L41.05,118.26a1.67,1.67,0,0,0-.59,1.17,1.76,1.76,0,0,0,.41,1.24,1.72,1.72,0,0,0,1.18.58,1.46,1.46,0,0,0,1.23-.41l11.59-10.07a1.65,1.65,0,0,0,.59-1.17,1.7,1.7,0,0,0-.41-1.23A1.74,1.74,0,0,0,53.76,107.79Z"/><rect class="cls-4" x="56.46" y="50.13" width="2.9" height="17.57"/><rect class="cls-4" x="49.13" y="57.47" width="17.57" height="2.89"/><rect class="cls-4" x="111.47" y="100.11" width="2.9" height="12.98"/><rect class="cls-4" x="106.43" y="105.15" width="12.99" height="2.89"/><path class="cls-4" d="M111.81,89.19h-2.9V84.61a12.83,12.83,0,0,0-1.59-6.41l2.53-1.42a15.77,15.77,0,0,1,2,7.83Z"/></g></g></svg>