<svg xmlns="http://www.w3.org/2000/svg" viewBox="0 0 166.93 166.93"><defs><style>.cls-1{fill:#f1f2f2;}.cls-2{fill:none;stroke:#f8ac17;stroke-miterlimit:10;stroke-width:3px;}.cls-3{fill:#265526;}.cls-4{fill:#f8ac17;}</style></defs><g id="Layer_2" data-name="Layer 2"><g id="Layer_1-2" data-name="Layer 1"><path class="cls-1" d="M83.46,166.62h0a82,82,0,0,1-82-82h0a82,82,0,0,1,82-82h0a82,82,0,0,1,82,82h0A82,82,0,0,1,83.46,166.62Z"/><circle class="cls-2" cx="83.46" cy="83.46" r="81.96"/><polygon class="cls-3" points="49.67 107.89 36.3 68.8 66.55 58.41 67.49 61.15 39.97 70.59 51.47 104.22 69.17 98.14 70.11 100.88 49.67 107.89"/><polygon class="cls-3" points="53.41 118.83 48.73 105.16 69.17 98.14 70.11 100.88 52.4 106.95 55.2 115.16 94.64 101.69 94.06 99.97 96.81 99.06 98.29 103.5 53.41 118.83"/><polygon class="cls-4" points="67.02 71.47 66.46 71.1 62.25 84.84 57.11 82.04 53.46 93.53 67.02 88.86 67.02 71.47"/><path class="cls-3" d="M113,89.39H65.58V48.1H113ZM68.48,86.5h41.67V51H68.48Z"/><polygon class="cls-3" points="101.14 100.96 65.57 100.96 65.57 86.49 113.06 86.49 113.06 95.78 110.16 95.78 110.16 89.37 68.46 89.37 68.46 98.07 101.14 98.07 101.14 100.96"/><polygon class="cls-4" points="73.78 77.03 80.97 67.32 84.95 71.7 93.4 60 105.29 77.03 73.78 77.03"/><path class="cls-3" d="M113.17,118.45H99v-16a8.11,8.11,0,0,1,8.11-8.11h8.29V88.94l19.29,12.44L115.4,113.84v-5.37h-1.48a.76.76,0,0,0-.75.76Zm-11.28-2.89h8.38v-6.33a3.66,3.66,0,0,1,3.65-3.65h4.37v2.94l11.06-7.14-11.06-7.12V97.2H107.11a5.22,5.22,0,0,0-5.22,5.22Z"/></g></g></svg>