<svg xmlns="http://www.w3.org/2000/svg" viewBox="0 0 166.93 166.93"><defs><style>.cls-1{fill:#f1f2f2;}.cls-2{fill:none;stroke:#f8ac17;stroke-miterlimit:10;stroke-width:3px;}.cls-3{fill:#265526;}.cls-4{fill:#f8ac17;}</style></defs><g id="Layer_2" data-name="Layer 2"><g id="Layer_1-2" data-name="Layer 1"><path class="cls-1" d="M83.46,166.62h0a82,82,0,0,1-82-82h0a82,82,0,0,1,82-82h0a82,82,0,0,1,82,82h0A82,82,0,0,1,83.46,166.62Z"/><circle class="cls-2" cx="83.46" cy="83.46" r="81.96"/><path class="cls-3" d="M121.33,100.68H45.38V42h75.95ZM48.62,97.43h69.46V45.2H48.62Z"/><path class="cls-3" d="M121.33,122.29H45.38V97.43h75.95ZM48.62,119h69.46V100.68H48.62Z"/><rect class="cls-3" x="77.51" y="105.22" width="23.95" height="3.25"/><rect class="cls-3" x="77.51" y="111.35" width="32.71" height="3.25"/><path class="cls-4" d="M93.75,63A11.46,11.46,0,1,1,82.3,51.5,11.45,11.45,0,0,1,93.75,63Z"/><path class="cls-4" d="M94,89.72H70.58V86.27A11.72,11.72,0,0,1,82.3,74.55h0A11.72,11.72,0,0,1,94,86.27Z"/><path class="cls-3" d="M62.74,117.09l-.74-.38c-.07,0-6.85-3.65-6.85-7.92a4.76,4.76,0,0,1,4.73-5.09,5.66,5.66,0,0,1,2.86,1,5.63,5.63,0,0,1,2.86-1,4.76,4.76,0,0,1,4.73,5.09c0,4.29-6.78,7.89-6.85,7.92ZM59.88,107c-1.09,0-1.48,1-1.48,1.84,0,1.31,2.51,3.47,4.34,4.61,1.83-1.14,4.34-3.29,4.34-4.61,0-.3-.07-1.84-1.48-1.84a3.39,3.39,0,0,0-1.69.93l-1.16,1.2-1.17-1.2A3.41,3.41,0,0,0,59.88,107Z"/></g></g></svg>