<svg xmlns="http://www.w3.org/2000/svg" viewBox="0 0 166.93 166.93"><defs><style>.cls-1{fill:#f1f2f2;}.cls-2{fill:none;stroke:#f8ac17;stroke-miterlimit:10;stroke-width:3px;}.cls-3{fill:#265526;}.cls-4{fill:#f8ac17;}</style></defs><g id="Layer_2" data-name="Layer 2"><g id="Layer_1-2" data-name="Layer 1"><path class="cls-1" d="M83.46,166.62h0a82,82,0,0,1-82-82h0a82,82,0,0,1,82-82h0a82,82,0,0,1,82,82h0A82,82,0,0,1,83.46,166.62Z"/><circle class="cls-2" cx="83.46" cy="83.46" r="81.96"/><polygon class="cls-3" points="105.95 105.67 49.28 105.67 49.28 52.42 118.07 52.42 118.07 98.98 115.17 98.98 115.17 55.31 52.18 55.31 52.18 102.78 105.95 102.78 105.95 105.67"/><path class="cls-3" d="M118,66.58H49.27V52.44H118Zm-65.87-2.9h63V55.34h-63Z"/><polygon class="cls-4" points="75.32 72.77 94.94 84.1 75.32 95.44 75.32 72.77"/><path class="cls-3" d="M59.25,59.51a1.6,1.6,0,1,1-1.6-1.6A1.6,1.6,0,0,1,59.25,59.51Z"/><path class="cls-3" d="M64.43,59.51a1.6,1.6,0,1,1-1.6-1.6A1.6,1.6,0,0,1,64.43,59.51Z"/><path class="cls-3" d="M69.61,59.51a1.6,1.6,0,1,1-1.6-1.6A1.6,1.6,0,0,1,69.61,59.51Z"/><path class="cls-3" d="M105.22,114.51a2.19,2.19,0,0,1-1.31-.43,2.23,2.23,0,0,1-.83-2.51l2-6.17-5.25-3.81a2.26,2.26,0,0,1,1.32-4.08h6.49l2-6.16a2.33,2.33,0,0,1,4.27,0l2,6.16h6.49a2.26,2.26,0,0,1,1.32,4.08l-5.25,3.81,2,6.16a2.25,2.25,0,0,1-3.46,2.52l-5.25-3.81-5.25,3.81A2.26,2.26,0,0,1,105.22,114.51Zm6.57-7.29a2.19,2.19,0,0,1,1.32.43l4,2.92-1.53-4.72a2.23,2.23,0,0,1,.81-2.52l4-2.92h-5a2.27,2.27,0,0,1-2.14-1.54l-1.53-4.73-1.54,4.72a2.21,2.21,0,0,1-2.13,1.55h-5l4,2.92a2.27,2.27,0,0,1,.82,2.51l-1.54,4.73,4-2.92A2.22,2.22,0,0,1,111.79,107.22Z"/></g></g></svg>