<svg xmlns="http://www.w3.org/2000/svg" viewBox="0 0 199.1 476.04"><defs><style>.cls-1{fill:#67a1c6;}.cls-2{fill:#a5c8db;}.cls-3{fill:#af4308;}.cls-4{fill:#ffbd1a;}.cls-5{fill:#0d3f62;}.cls-6{fill:#1d1d1b;}</style></defs><g id="Layer_2" data-name="Layer 2"><g id="Layer_1-2" data-name="Layer 1"><rect class="cls-1" width="198.94" height="362.08"/><rect class="cls-2" x="0.16" y="115.48" width="198.94" height="34.1"/><rect class="cls-2" x="0.16" y="186.33" width="198.94" height="23.32"/><rect class="cls-2" x="0.16" y="248.28" width="198.94" height="34.3"/><rect class="cls-2" x="0.16" y="319.06" width="198.94" height="34.3"/><rect class="cls-2" y="39.76" width="198.94" height="34.48"/><polygon class="cls-1" points="98.94 476.04 100 476.04 0 362.08 198.94 362.08 98.94 476.04"/><rect class="cls-3" x="52.41" y="402.78" width="95.12" height="18.53" rx="5.64"/><rect class="cls-4" x="52.41" y="401.53" width="95.12" height="18.53" rx="5.64"/><rect class="cls-4" y="6.12" width="198.94" height="30.73"/><path class="cls-5" d="M53,26.14v-8.4h3.63a4.78,4.78,0,0,1,2,.36,2.76,2.76,0,0,1,1.7,2.67,2.94,2.94,0,0,1-.44,1.63,3,3,0,0,1-1.26,1.05,4.62,4.62,0,0,1-2,.37H54l.89-.87v3.19Zm2-3L54,22.24h2.46a2,2,0,0,0,1.34-.39,1.49,1.49,0,0,0,0-2.15,2.06,2.06,0,0,0-1.34-.38H54l.89-.92Z"/><path class="cls-5" d="M61.61,26.14v-8.4h3.64a4.77,4.77,0,0,1,1.94.36,2.86,2.86,0,0,1,1.26,1,2.9,2.9,0,0,1,.45,1.62,2.86,2.86,0,0,1-.45,1.63,2.7,2.7,0,0,1-1.26,1,4.77,4.77,0,0,1-1.94.36H62.68l.89-.84v3.19Zm2-3-.89-.92h2.46a2.05,2.05,0,0,0,1.35-.39,1.51,1.51,0,0,0,0-2.15,2.11,2.11,0,0,0-1.35-.38H62.68l.89-.92Zm3.4,3-2.12-3.05h2.09l2.11,3.05Z"/><path class="cls-5" d="M70.43,26.14v-8.4h2v8.4Z"/><path class="cls-5" d="M78.39,26.28A4.89,4.89,0,0,1,76.58,26a4.21,4.21,0,0,1-2.4-2.28,4.62,4.62,0,0,1,0-3.48,4.18,4.18,0,0,1,1-1.38,4.45,4.45,0,0,1,1.45-.91,5.1,5.1,0,0,1,1.81-.32,5,5,0,0,1,2,.38,3.82,3.82,0,0,1,1.49,1.11l-1.26,1.15a3,3,0,0,0-1-.74,2.91,2.91,0,0,0-2.24,0,2.45,2.45,0,0,0-.85.55,2.51,2.51,0,0,0-.56.86,2.72,2.72,0,0,0-.2,1.09A2.75,2.75,0,0,0,76,23a2.53,2.53,0,0,0,1.41,1.41,2.88,2.88,0,0,0,1.08.2,2.7,2.7,0,0,0,1.16-.26,2.92,2.92,0,0,0,1-.75l1.26,1.15a3.94,3.94,0,0,1-1.49,1.12A5.08,5.08,0,0,1,78.39,26.28Z"/><path class="cls-5" d="M85.1,24.58h4.57v1.56H83.16v-8.4h6.35V19.3H85.1ZM85,21.11h4v1.52H85Z"/><path class="cls-5" d="M96.35,26.14V19.32H93.66V17.74H101v1.58H98.3v6.82Z"/><path class="cls-5" d="M100.5,26.14l3.74-8.4h1.92l3.76,8.4h-2l-3.08-7.42h.78l-3.08,7.42Zm1.89-1.8.49-1.48h4.34l.51,1.48Z"/><path class="cls-5" d="M110.8,26.14v-8.4h4.11a4,4,0,0,1,2.38.6,1.89,1.89,0,0,1,.79,1.58,2,2,0,0,1-.32,1.15,2.19,2.19,0,0,1-.89.75,3.13,3.13,0,0,1-1.29.26l.22-.5a3.57,3.57,0,0,1,1.4.26,2.23,2.23,0,0,1,1,.77,2.15,2.15,0,0,1,.34,1.24,1.93,1.93,0,0,1-.85,1.68,4.27,4.27,0,0,1-2.51.61Zm1.93-1.47H115a2.1,2.1,0,0,0,1.14-.25,1,1,0,0,0,0-1.57A2.1,2.1,0,0,0,115,22.6h-2.42V21.18h2.07a2,2,0,0,0,1.09-.24.85.85,0,0,0,.38-.75.83.83,0,0,0-.38-.75,2,2,0,0,0-1.09-.24h-1.93Z"/><path class="cls-5" d="M120,26.14v-8.4h2v6.81h4.18v1.59Z"/><path class="cls-5" d="M129.16,24.58h4.57v1.56h-6.5v-8.4h6.35V19.3h-4.42ZM129,21.11h4v1.52h-4Z"/><path class="cls-5" d="M138.68,26.14v-8.4h4.1a3.92,3.92,0,0,1,2.38.6,1.89,1.89,0,0,1,.8,1.58,2.09,2.09,0,0,1-.32,1.15,2.22,2.22,0,0,1-.9.75,3.13,3.13,0,0,1-1.29.26l.23-.5a3.6,3.6,0,0,1,1.4.26,2.2,2.2,0,0,1,.95.77,2.16,2.16,0,0,1,.35,1.24,1.93,1.93,0,0,1-.85,1.68,4.29,4.29,0,0,1-2.51.61Zm1.93-1.47h2.28a2.14,2.14,0,0,0,1.14-.25,1,1,0,0,0,0-1.57,2.14,2.14,0,0,0-1.14-.25h-2.43V21.18h2.08a2.07,2.07,0,0,0,1.09-.24.85.85,0,0,0,.37-.75.82.82,0,0,0-.37-.75,2.07,2.07,0,0,0-1.09-.24h-1.93Z"/><path class="cls-5" d="M86.82,414v-5.87h1.12l2.5,4.14h-.6l2.45-4.14h1.13V414H92.15v-3.92h.25l-2,3.29h-.6l-2-3.29h.27V414Z"/><path class="cls-5" d="M97.67,414.09a3.51,3.51,0,0,1-1.28-.23,2.94,2.94,0,0,1-1-.64,2.82,2.82,0,0,1-.67-1,3,3,0,0,1,.67-3.38,3.13,3.13,0,0,1,1-.63,3.35,3.35,0,0,1,1.28-.23,3.55,3.55,0,0,1,1.28.22,3.08,3.08,0,0,1,1,.63,2.84,2.84,0,0,1,.68,1,3.17,3.17,0,0,1,0,2.42,2.75,2.75,0,0,1-.68,1,2.92,2.92,0,0,1-1,.63A3.5,3.5,0,0,1,97.67,414.09Zm0-1.15a1.89,1.89,0,0,0,.72-.14,1.79,1.79,0,0,0,.59-.39,2.12,2.12,0,0,0,.39-2.12,2.16,2.16,0,0,0-.39-.59,1.79,1.79,0,0,0-.59-.39,1.71,1.71,0,0,0-.72-.14,1.76,1.76,0,0,0-.73.14,1.65,1.65,0,0,0-.58.39,1.79,1.79,0,0,0-.39.59,2.13,2.13,0,0,0,0,1.52,1.73,1.73,0,0,0,.39.6,1.65,1.65,0,0,0,.58.39A1.94,1.94,0,0,0,97.66,412.94Z"/><path class="cls-5" d="M101.89,414v-5.87h2.54a3.18,3.18,0,0,1,1.36.26,2,2,0,0,1,.88.73,2.08,2.08,0,0,1,.31,1.13,2.05,2.05,0,0,1-.31,1.13,2,2,0,0,1-.88.73,3.52,3.52,0,0,1-1.36.24h-1.79l.62-.58V414Zm1.37-2.08-.62-.65h1.71a1.41,1.41,0,0,0,.94-.27.92.92,0,0,0,.32-.75.94.94,0,0,0-.32-.75,1.41,1.41,0,0,0-.94-.26h-1.71l.62-.65Zm2.37,2.08-1.48-2.13h1.46l1.48,2.13Z"/><path class="cls-5" d="M109.4,412.9h3.19V414h-4.54v-5.87h4.43v1.09H109.4Zm-.1-2.43h2.82v1.07H109.3Z"/><path class="cls-5" d="M116.44,414.05a.8.8,0,0,1-.81-.81.82.82,0,1,1,1.63,0,.77.77,0,0,1-.24.58A.76.76,0,0,1,116.44,414.05Z"/><path class="cls-5" d="M118.64,414.05a.75.75,0,0,1-.57-.23.77.77,0,0,1-.24-.58.8.8,0,0,1,.24-.6.78.78,0,0,1,.57-.22.81.81,0,0,1,.58.22.83.83,0,0,1,.23.6.8.8,0,0,1-.23.58A.78.78,0,0,1,118.64,414.05Z"/><path class="cls-5" d="M120.83,414.05a.8.8,0,0,1-.81-.81.82.82,0,1,1,1.63,0,.77.77,0,0,1-.24.58A.76.76,0,0,1,120.83,414.05Z"/><path class="cls-6" d="M75.24,54v-8.4h3.27A4.69,4.69,0,0,1,80.4,46a2.78,2.78,0,0,1,1.2,1,3.14,3.14,0,0,1,0,3.14,2.78,2.78,0,0,1-1.2,1,4.69,4.69,0,0,1-1.89.35H75.9l.54-.56V54Zm1.2-3-.54-.6h2.58A2.71,2.71,0,0,0,80.22,50a1.72,1.72,0,0,0,.6-1.4,1.7,1.7,0,0,0-.6-1.39,2.65,2.65,0,0,0-1.74-.49H75.9l.54-.6Z"/><path class="cls-6" d="M83.37,54V47.67h1.11v1.72L84.37,49a2,2,0,0,1,.88-1,3.16,3.16,0,0,1,1.54-.34v1.11h-.26a2,2,0,0,0-1.47.55,2.2,2.2,0,0,0-.54,1.6V54Z"/><path class="cls-6" d="M90.84,54.1a3.4,3.4,0,0,1-1.7-.42A3.16,3.16,0,0,1,88,52.52a3.48,3.48,0,0,1,0-3.35A3.23,3.23,0,0,1,89.13,48a3.44,3.44,0,0,1,1.71-.42,3.38,3.38,0,0,1,1.69.41,3,3,0,0,1,1.18,1.15,3.28,3.28,0,0,1,.43,1.68,3.33,3.33,0,0,1-.43,1.68,3.1,3.1,0,0,1-1.18,1.15A3.39,3.39,0,0,1,90.84,54.1Zm0-1a2.11,2.11,0,0,0,1.09-.28A1.93,1.93,0,0,0,92.7,52a2.74,2.74,0,0,0,0-2.37,2,2,0,0,0-.77-.77,2.28,2.28,0,0,0-2.19,0,2,2,0,0,0-.76.77A2.57,2.57,0,0,0,89,52a2,2,0,0,0,.76.78A2.12,2.12,0,0,0,90.84,53.09Z"/><path class="cls-6" d="M94.82,48.61v-.94h4.06v.94ZM95.9,54V47.1a2,2,0,0,1,.55-1.49A2.07,2.07,0,0,1,98,45.05a2.71,2.71,0,0,1,.71.09,1.54,1.54,0,0,1,.59.28L99,46.3a1.25,1.25,0,0,0-.41-.22,1.27,1.27,0,0,0-.48-.08,1,1,0,0,0-.77.28,1.21,1.21,0,0,0-.26.83V48l0,.52V54Zm4.64-7.59a.75.75,0,0,1-.55-.21.72.72,0,0,1-.23-.53.71.71,0,0,1,.23-.54.72.72,0,0,1,.55-.22.78.78,0,0,1,.56.21.69.69,0,0,1,.22.52.77.77,0,0,1-.21.55A.75.75,0,0,1,100.54,46.44ZM100,54V47.67h1.15V54Z"/><path class="cls-6" d="M103.31,54V45.12h1.16V54Z"/><path class="cls-6" d="M109.5,54.1a3.74,3.74,0,0,1-1.8-.42,3.16,3.16,0,0,1-1.2-1.15,3.33,3.33,0,0,1-.42-1.68,3.27,3.27,0,0,1,.41-1.68A3.07,3.07,0,0,1,107.63,48a3.5,3.5,0,0,1,3.27,0A3,3,0,0,1,112,49.16a3.52,3.52,0,0,1,.4,1.72v.17c0,.06,0,.12,0,.18H107V50.4h4.81l-.47.29a2.17,2.17,0,0,0-.25-1.09,2,2,0,0,0-.73-.75,2.26,2.26,0,0,0-2.14,0,1.88,1.88,0,0,0-.73.75,2.28,2.28,0,0,0-.27,1.11v.2a2.15,2.15,0,0,0,.3,1.13,2,2,0,0,0,.82.77,2.51,2.51,0,0,0,1.21.28,2.63,2.63,0,0,0,1-.19,2.29,2.29,0,0,0,.81-.58l.63.75a2.75,2.75,0,0,1-1.07.76A3.68,3.68,0,0,1,109.5,54.1Z"/><path class="cls-6" d="M66.84,67.38h4.9v1.05h-6.1V60h5.93v1H66.84Zm-.11-3.73h4.32v1H66.73Z"/><path class="cls-6" d="M72.35,68.43l2.74-3.56,0,.59-2.6-3.39h1.28l2,2.61h-.5l2-2.61h1.26l-2.64,3.42v-.62l2.76,3.56H77.33l-2.1-2.79.47.07-2.07,2.72Z"/><path class="cls-6" d="M78.34,63v-.94h4V63Zm3.09,5.49A2,2,0,0,1,80,68a1.92,1.92,0,0,1-.53-1.47V60.67h1.15v5.79a1.12,1.12,0,0,0,.26.79,1,1,0,0,0,.74.28,1.36,1.36,0,0,0,.9-.3l.36.82a1.61,1.61,0,0,1-.63.34A2.81,2.81,0,0,1,81.43,68.5Z"/><path class="cls-6" d="M86.81,68.5A3.67,3.67,0,0,1,85,68.08a3,3,0,0,1-1.2-1.15,3.23,3.23,0,0,1-.43-1.68,3.37,3.37,0,0,1,.41-1.68,3.07,3.07,0,0,1,1.14-1.15,3.5,3.5,0,0,1,3.27,0,2.86,2.86,0,0,1,1.11,1.15,3.53,3.53,0,0,1,.41,1.72s0,.11,0,.17a1.1,1.1,0,0,1,0,.18H84.29V64.8H89.1l-.47.29A2.07,2.07,0,0,0,88.38,64a1.92,1.92,0,0,0-.72-.75,2.28,2.28,0,0,0-2.15,0,2,2,0,0,0-.73.75,2.39,2.39,0,0,0-.26,1.11v.2a2.24,2.24,0,0,0,.29,1.13,2,2,0,0,0,.82.77,2.55,2.55,0,0,0,1.22.28,2.61,2.61,0,0,0,1-.19,2.2,2.2,0,0,0,.81-.58l.64.75a2.79,2.79,0,0,1-1.08.76A3.61,3.61,0,0,1,86.81,68.5Z"/><path class="cls-6" d="M94.72,62a3,3,0,0,1,1.37.3,2.1,2.1,0,0,1,.93.91,3.12,3.12,0,0,1,.34,1.55v3.66H96.2V64.9a1.92,1.92,0,0,0-.44-1.39A1.68,1.68,0,0,0,94.49,63a2.28,2.28,0,0,0-1.07.24,1.6,1.6,0,0,0-.7.71,2.52,2.52,0,0,0-.25,1.16v3.28H91.32V62.07h1.11v1.71l-.18-.45a2.19,2.19,0,0,1,1-1A3.21,3.21,0,0,1,94.72,62Z"/><path class="cls-6" d="M98.58,63v-.94h4.06V63Zm3.1,5.49a2,2,0,0,1-1.49-.52,2,2,0,0,1-.53-1.47V60.67h1.15v5.79a1.12,1.12,0,0,0,.26.79,1,1,0,0,0,.74.28,1.36,1.36,0,0,0,.9-.3l.36.82a1.61,1.61,0,0,1-.63.34A2.74,2.74,0,0,1,101.68,68.5Z"/><path class="cls-6" d="M105,60.84a.78.78,0,0,1-.56-.21.71.71,0,0,1-.22-.53.7.7,0,0,1,.22-.54.75.75,0,0,1,.56-.22.75.75,0,0,1,.55.21.7.7,0,0,1,.23.52.74.74,0,0,1-.22.55A.73.73,0,0,1,105,60.84Zm-.58,7.59V62.07h1.15v6.36Z"/><path class="cls-6" d="M110.53,68.5a3.39,3.39,0,0,1-1.69-.42,3.16,3.16,0,0,1-1.19-1.16,3.48,3.48,0,0,1,0-3.35,3.15,3.15,0,0,1,1.18-1.14,3.69,3.69,0,0,1,3.4,0,3.1,3.1,0,0,1,1.18,1.15,3.27,3.27,0,0,1,.42,1.68,3.33,3.33,0,0,1-.42,1.68,3.18,3.18,0,0,1-1.18,1.15A3.4,3.4,0,0,1,110.53,68.5Zm0-1a2.12,2.12,0,0,0,1.1-.28,1.85,1.85,0,0,0,.76-.78,2.65,2.65,0,0,0,0-2.37,1.88,1.88,0,0,0-.76-.77,2.28,2.28,0,0,0-2.19,0,2.11,2.11,0,0,0-.77.77,2.65,2.65,0,0,0,0,2.37,2.06,2.06,0,0,0,.77.78A2.11,2.11,0,0,0,110.53,67.49Z"/><path class="cls-6" d="M118.83,62a3,3,0,0,1,1.37.3,2.1,2.1,0,0,1,.93.91,3.23,3.23,0,0,1,.34,1.55v3.66h-1.16V64.9a1.92,1.92,0,0,0-.45-1.39A1.64,1.64,0,0,0,118.6,63a2.25,2.25,0,0,0-1.07.24,1.6,1.6,0,0,0-.7.71,2.4,2.4,0,0,0-.25,1.16v3.28h-1.15V62.07h1.1v1.71l-.18-.45a2.27,2.27,0,0,1,1-1A3.21,3.21,0,0,1,118.83,62Z"/><path class="cls-6" d="M57,91.85v-8.4h3.28a4.64,4.64,0,0,1,1.88.34,2.72,2.72,0,0,1,1.2,1,3.14,3.14,0,0,1,0,3.14,2.72,2.72,0,0,1-1.2,1,4.64,4.64,0,0,1-1.88.35H57.61l.54-.56v3.11Zm1.2-3-.54-.6h2.58a2.74,2.74,0,0,0,1.75-.49,1.74,1.74,0,0,0,.59-1.4A1.72,1.72,0,0,0,61.94,85a2.68,2.68,0,0,0-1.75-.49H57.61l.54-.6Z"/><path class="cls-6" d="M68.11,91.92a3.7,3.7,0,0,1-1.79-.42,3,3,0,0,1-1.2-1.15,3.23,3.23,0,0,1-.43-1.68A3.27,3.27,0,0,1,65.11,87a2.93,2.93,0,0,1,1.14-1.15,3.2,3.2,0,0,1,1.64-.41,3.26,3.26,0,0,1,1.63.4A3,3,0,0,1,70.63,87,3.52,3.52,0,0,1,71,88.7a1,1,0,0,1,0,.17c0,.06,0,.12,0,.18H65.59v-.83h4.82l-.47.29a2.17,2.17,0,0,0-.25-1.09,2,2,0,0,0-.73-.75,2.26,2.26,0,0,0-2.14,0,1.88,1.88,0,0,0-.73.75,2.28,2.28,0,0,0-.27,1.11v.2a2.15,2.15,0,0,0,.3,1.13,1.91,1.91,0,0,0,.82.77,2.49,2.49,0,0,0,1.21.28,2.63,2.63,0,0,0,1-.19,2.38,2.38,0,0,0,.81-.58l.63.75a2.75,2.75,0,0,1-1.07.76A3.7,3.7,0,0,1,68.11,91.92Z"/><path class="cls-6" d="M75.46,91.92a3.74,3.74,0,0,1-1.8-.42,3.16,3.16,0,0,1-1.2-1.15A3.33,3.33,0,0,1,72,88.67,3.27,3.27,0,0,1,72.45,87a3.07,3.07,0,0,1,1.14-1.15,3.5,3.5,0,0,1,3.27,0A3,3,0,0,1,78,87a3.52,3.52,0,0,1,.4,1.72v.17c0,.06,0,.12,0,.18H72.94v-.83h4.81l-.47.29A2.17,2.17,0,0,0,77,87.42a2,2,0,0,0-.73-.75,2,2,0,0,0-1.07-.27,2.1,2.1,0,0,0-1.07.27,2,2,0,0,0-.73.75,2.28,2.28,0,0,0-.27,1.11v.2a2.15,2.15,0,0,0,.3,1.13,2,2,0,0,0,.82.77,2.51,2.51,0,0,0,1.21.28,2.63,2.63,0,0,0,1-.19,2.2,2.2,0,0,0,.81-.58l.63.75a2.68,2.68,0,0,1-1.07.76A3.64,3.64,0,0,1,75.46,91.92Z"/><path class="cls-6" d="M80,91.85V85.49h1.1v1.72L81,86.78a2,2,0,0,1,.89-1,3.16,3.16,0,0,1,1.54-.34v1.11h-.27a2,2,0,0,0-1.46.55,2.2,2.2,0,0,0-.54,1.6v3.17Z"/><path class="cls-6" d="M87.47,91.85V91l3.42-3.3a5.27,5.27,0,0,0,.68-.76,2.44,2.44,0,0,0,.3-.61,2.15,2.15,0,0,0,.08-.55,1.27,1.27,0,0,0-.46-1,2,2,0,0,0-1.33-.37,3.11,3.11,0,0,0-1.21.22,2.37,2.37,0,0,0-.94.69l-.82-.71a3,3,0,0,1,1.29-.94,4.71,4.71,0,0,1,1.79-.33,3.75,3.75,0,0,1,1.52.28,2.25,2.25,0,0,1,1,.81,2.16,2.16,0,0,1,.36,1.25,3.09,3.09,0,0,1-.11.8,2.71,2.71,0,0,1-.41.84,6.92,6.92,0,0,1-.86,1l-3,2.94-.29-.47h5.08v1Z"/><path class="cls-6" d="M98.4,91.85v-8.4h3.28a4.64,4.64,0,0,1,1.88.34,2.72,2.72,0,0,1,1.2,1,3.14,3.14,0,0,1,0,3.14,2.72,2.72,0,0,1-1.2,1,4.64,4.64,0,0,1-1.88.35H99.06l.54-.56v3.11Zm1.2-3-.54-.6h2.58a2.74,2.74,0,0,0,1.75-.49,1.74,1.74,0,0,0,.59-1.4,1.72,1.72,0,0,0-.59-1.39,2.68,2.68,0,0,0-1.75-.49H99.06l.54-.6Z"/><path class="cls-6" d="M109.56,91.92a3.67,3.67,0,0,1-1.79-.42,3,3,0,0,1-1.2-1.15,3.23,3.23,0,0,1-.43-1.68,3.37,3.37,0,0,1,.41-1.68,3.07,3.07,0,0,1,1.14-1.15,3.5,3.5,0,0,1,3.27,0A3,3,0,0,1,112.08,87a3.64,3.64,0,0,1,.4,1.72s0,.11,0,.17a1.1,1.1,0,0,1,0,.18H107v-.83h4.81l-.47.29a2.07,2.07,0,0,0-.25-1.09,1.92,1.92,0,0,0-.72-.75,2.28,2.28,0,0,0-2.15,0,2,2,0,0,0-.73.75,2.39,2.39,0,0,0-.26,1.11v.2a2.24,2.24,0,0,0,.29,1.13,2,2,0,0,0,.82.77,2.55,2.55,0,0,0,1.22.28,2.61,2.61,0,0,0,1-.19,2.2,2.2,0,0,0,.81-.58l.64.75a2.83,2.83,0,0,1-1.07.76A3.7,3.7,0,0,1,109.56,91.92Z"/><path class="cls-6" d="M116.9,91.92a3.7,3.7,0,0,1-1.79-.42,3,3,0,0,1-1.2-1.15,3.33,3.33,0,0,1-.43-1.68A3.27,3.27,0,0,1,113.9,87,2.93,2.93,0,0,1,115,85.84a3.5,3.5,0,0,1,3.27,0A3,3,0,0,1,119.42,87a3.52,3.52,0,0,1,.4,1.72,1,1,0,0,1,0,.17c0,.06,0,.12,0,.18h-5.42v-.83h4.82l-.47.29a2.17,2.17,0,0,0-.25-1.09,2,2,0,0,0-.73-.75,2.26,2.26,0,0,0-2.14,0,1.88,1.88,0,0,0-.73.75,2.28,2.28,0,0,0-.27,1.11v.2a2.15,2.15,0,0,0,.3,1.13,2,2,0,0,0,.82.77,2.49,2.49,0,0,0,1.21.28,2.63,2.63,0,0,0,1-.19,2.38,2.38,0,0,0,.81-.58l.63.75a2.75,2.75,0,0,1-1.07.76A3.7,3.7,0,0,1,116.9,91.92Z"/><path class="cls-6" d="M121.42,91.85V85.49h1.1v1.72l-.11-.43a2,2,0,0,1,.89-1,3.16,3.16,0,0,1,1.54-.34v1.11h-.27a2,2,0,0,0-1.46.55,2.2,2.2,0,0,0-.54,1.6v3.17Z"/><path class="cls-6" d="M128.1,91.92a5,5,0,0,1-1.51-.22,3.44,3.44,0,0,1-1.12-.53l.48-.91a3.79,3.79,0,0,0,1,.47,3.93,3.93,0,0,0,1.22.19,2.12,2.12,0,0,0,1.16-.23.71.71,0,0,0,.36-.63.57.57,0,0,0-.22-.47,1.37,1.37,0,0,0-.57-.25,7.43,7.43,0,0,0-.79-.15c-.28,0-.57-.1-.86-.17a3.22,3.22,0,0,1-.79-.29,1.5,1.5,0,0,1-.58-.51,1.65,1.65,0,0,1-.21-.89,1.58,1.58,0,0,1,.32-1,2.08,2.08,0,0,1,.92-.67,3.72,3.72,0,0,1,1.41-.23,5.49,5.49,0,0,1,1.26.15,3.19,3.19,0,0,1,1,.42l-.49.91a2.74,2.74,0,0,0-.9-.39,4.22,4.22,0,0,0-.93-.11,2,2,0,0,0-1.13.25.72.72,0,0,0-.37.63.57.57,0,0,0,.22.49,1.51,1.51,0,0,0,.57.27,7.23,7.23,0,0,0,.79.17c.29,0,.58.1.86.16a3.69,3.69,0,0,1,.79.29,1.48,1.48,0,0,1,.58.5,1.56,1.56,0,0,1,.22.86,1.52,1.52,0,0,1-.34,1,2.09,2.09,0,0,1-.95.65A4,4,0,0,1,128.1,91.92Z"/><path class="cls-6" d="M76.53,106.34a4.91,4.91,0,0,1-1.79-.31,4.27,4.27,0,0,1-1.42-.91,4,4,0,0,1-.93-1.36,4.5,4.5,0,0,1,0-3.43A4,4,0,0,1,73.33,99a4.1,4.1,0,0,1,1.42-.9,4.93,4.93,0,0,1,1.8-.32,5.08,5.08,0,0,1,1.82.32,3.59,3.59,0,0,1,1.41,1l-.75.74a3.22,3.22,0,0,0-1.12-.74,3.72,3.72,0,0,0-1.31-.23,3.67,3.67,0,0,0-1.34.24,3.18,3.18,0,0,0-1.07.67,2.92,2.92,0,0,0-.69,1,3.4,3.4,0,0,0,0,2.56,3,3,0,0,0,.69,1,3.24,3.24,0,0,0,1.06.67,3.47,3.47,0,0,0,1.34.25,4.35,4.35,0,0,0,1.29-.21,3.29,3.29,0,0,0,1.14-.71l.69.92a4.38,4.38,0,0,1-1.46.79A5.57,5.57,0,0,1,76.53,106.34Zm2-1.22V102h1.16v3.28Z"/><path class="cls-6" d="M81.83,106.25V99.89h1.1v1.72l-.1-.43a2,2,0,0,1,.88-1,3.16,3.16,0,0,1,1.54-.34v1.11H85a2,2,0,0,0-1.47.55,2.2,2.2,0,0,0-.54,1.6v3.17Z"/><path class="cls-6" d="M89.29,106.32a3.39,3.39,0,0,1-1.69-.42,3.16,3.16,0,0,1-1.19-1.16,3.48,3.48,0,0,1,0-3.35,3.15,3.15,0,0,1,1.18-1.14,3.69,3.69,0,0,1,3.4,0,3.1,3.1,0,0,1,1.18,1.15,3.57,3.57,0,0,1,0,3.36A3.1,3.1,0,0,1,91,105.9,3.4,3.4,0,0,1,89.29,106.32Zm0-1a2.12,2.12,0,0,0,1.1-.28,1.85,1.85,0,0,0,.76-.78,2.65,2.65,0,0,0,0-2.37,1.88,1.88,0,0,0-.76-.77,2.28,2.28,0,0,0-2.19,0,2.11,2.11,0,0,0-.77.77,2.65,2.65,0,0,0,0,2.37,2.06,2.06,0,0,0,.77.78A2.11,2.11,0,0,0,89.29,105.31Z"/><path class="cls-6" d="M96.87,106.32a3.25,3.25,0,0,1-1.44-.3,2.19,2.19,0,0,1-1-.92,3.15,3.15,0,0,1-.34-1.55V99.89h1.15v3.52a2,2,0,0,0,.45,1.41,1.68,1.68,0,0,0,1.27.47,2.13,2.13,0,0,0,1-.25,1.6,1.6,0,0,0,.69-.72,2.54,2.54,0,0,0,.24-1.15V99.89h1.15v6.36H99v-1.72l.18.46a2.22,2.22,0,0,1-.94,1A2.85,2.85,0,0,1,96.87,106.32Z"/><path class="cls-6" d="M102.31,108.57V99.89h1.11v1.71l-.08,1.48.12,1.47v4Zm3.37-2.25a2.83,2.83,0,0,1-1.44-.37,2.61,2.61,0,0,1-1-1.08,3.75,3.75,0,0,1-.39-1.8,3.87,3.87,0,0,1,.38-1.8,2.56,2.56,0,0,1,1-1.08,3,3,0,0,1,1.47-.36,3.22,3.22,0,0,1,1.66.41,3,3,0,0,1,1.14,1.13,3.32,3.32,0,0,1,.42,1.7,3.37,3.37,0,0,1-.42,1.7,3,3,0,0,1-1.14,1.14A3.32,3.32,0,0,1,105.68,106.32Zm-.09-1a2.14,2.14,0,0,0,1.1-.28,1.9,1.9,0,0,0,.76-.78,2.57,2.57,0,0,0,0-2.37,1.94,1.94,0,0,0-.76-.77,2.28,2.28,0,0,0-2.19,0,2,2,0,0,0-.77.77,2.65,2.65,0,0,0,0,2.37,2,2,0,0,0,.77.78A2.13,2.13,0,0,0,105.59,105.31Z"/><path class="cls-6" d="M112.32,106.32a4.9,4.9,0,0,1-1.5-.22,3.4,3.4,0,0,1-1.13-.53l.48-.91a4.19,4.19,0,0,0,2.24.66,2.11,2.11,0,0,0,1.15-.23.71.71,0,0,0,.36-.63.55.55,0,0,0-.22-.47,1.37,1.37,0,0,0-.57-.25,7.22,7.22,0,0,0-.78-.15c-.29,0-.58-.1-.87-.17a3.22,3.22,0,0,1-.79-.29,1.5,1.5,0,0,1-.58-.51,1.64,1.64,0,0,1-.21-.88,1.58,1.58,0,0,1,.32-1,2.08,2.08,0,0,1,.92-.67,4,4,0,0,1,1.41-.23,5.64,5.64,0,0,1,1.27.15,3.38,3.38,0,0,1,1.05.42l-.5.92a2.49,2.49,0,0,0-.9-.4,4.22,4.22,0,0,0-.93-.11,2,2,0,0,0-1.13.25.72.72,0,0,0-.37.63.61.61,0,0,0,.22.5,1.67,1.67,0,0,0,.57.26,7.23,7.23,0,0,0,.79.17c.29,0,.58.1.87.16a3.6,3.6,0,0,1,.78.29,1.56,1.56,0,0,1,.58.5,1.7,1.7,0,0,1-.12,1.86,2.11,2.11,0,0,1-.94.65A4,4,0,0,1,112.32,106.32Z"/><path class="cls-6" d="M73.87,130a4.91,4.91,0,0,1-1.79-.31,4.52,4.52,0,0,1-1.42-.9,4.27,4.27,0,0,1,1.43-7.06,5,5,0,0,1,1.8-.32,4.92,4.92,0,0,1,1.83.33,3.53,3.53,0,0,1,1.4,1l-.74.74a3.5,3.5,0,0,0-1.13-.74,3.72,3.72,0,0,0-1.31-.23,3.67,3.67,0,0,0-1.34.24,3.18,3.18,0,0,0-1.07.67,2.92,2.92,0,0,0-.69,1,3.19,3.19,0,0,0-.25,1.29,3.25,3.25,0,0,0,.25,1.28,3,3,0,0,0,.69,1,3.21,3.21,0,0,0,1.07.68,3.58,3.58,0,0,0,1.33.24,4,4,0,0,0,1.29-.21,3.15,3.15,0,0,0,1.14-.71l.69.92a4.29,4.29,0,0,1-1.46.79A5.57,5.57,0,0,1,73.87,130Zm2-1.22v-3.12h1.15v3.28Z"/><path class="cls-6" d="M81,129.94a3,3,0,0,1-1.24-.24A1.83,1.83,0,0,1,79,129a1.67,1.67,0,0,1-.29-1,1.76,1.76,0,0,1,.25-.94,1.69,1.69,0,0,1,.8-.67,3.68,3.68,0,0,1,1.51-.25h2V127h-2a1.73,1.73,0,0,0-1.16.28,1,1,0,0,0-.3.7.89.89,0,0,0,.37.75,1.66,1.66,0,0,0,1,.28,2.13,2.13,0,0,0,1.14-.29,1.62,1.62,0,0,0,.7-.84l.23.8a1.78,1.78,0,0,1-.81.89A2.86,2.86,0,0,1,81,129.94Zm2.09-.07v-1.35l-.06-.25V126a1.44,1.44,0,0,0-.43-1.13,1.78,1.78,0,0,0-1.27-.41,3.5,3.5,0,0,0-1.11.19,2.75,2.75,0,0,0-.91.5l-.48-.87a3.55,3.55,0,0,1,1.18-.6,4.94,4.94,0,0,1,1.45-.21,2.92,2.92,0,0,1,2,.63,2.48,2.48,0,0,1,.71,2v3.84Z"/><path class="cls-6" d="M94.3,123.45a2.93,2.93,0,0,1,1.36.3,2.13,2.13,0,0,1,.92.91,3.24,3.24,0,0,1,.33,1.55v3.66H95.76v-3.53a2,2,0,0,0-.44-1.39,1.56,1.56,0,0,0-1.21-.47,2.07,2.07,0,0,0-1,.24,1.62,1.62,0,0,0-.66.71,2.52,2.52,0,0,0-.24,1.16v3.28H91.05v-3.53a2,2,0,0,0-.42-1.39,1.58,1.58,0,0,0-1.22-.47,2,2,0,0,0-1,.24,1.65,1.65,0,0,0-.67.71,2.52,2.52,0,0,0-.24,1.16v3.28H86.35v-6.36h1.1v1.69l-.18-.43a2.13,2.13,0,0,1,.93-1,2.83,2.83,0,0,1,1.45-.35,2.71,2.71,0,0,1,1.57.45,2.09,2.09,0,0,1,.86,1.36l-.46-.19a2.38,2.38,0,0,1,1-1.18A3.19,3.19,0,0,1,94.3,123.45Z"/><path class="cls-6" d="M99.61,122.28a.78.78,0,0,1-.56-.21.71.71,0,0,1-.22-.53.7.7,0,0,1,.22-.54.79.79,0,0,1,.56-.22.79.79,0,0,1,.56.21.76.76,0,0,1-.56,1.29ZM99,129.87v-6.36h1.15v6.36Z"/><path class="cls-6" d="M105.78,123.45a3,3,0,0,1,1.37.3,2.1,2.1,0,0,1,.93.91,3.23,3.23,0,0,1,.34,1.55v3.66h-1.16v-3.53a1.92,1.92,0,0,0-.45-1.39,1.67,1.67,0,0,0-1.26-.47,2.25,2.25,0,0,0-1.07.24,1.65,1.65,0,0,0-.7.71,2.4,2.4,0,0,0-.25,1.16v3.28h-1.15v-6.36h1.1v1.71l-.18-.45a2.19,2.19,0,0,1,1-1A3.1,3.1,0,0,1,105.78,123.45Z"/><path class="cls-6" d="M113.19,129.6a3.46,3.46,0,0,1-1.65-.39,3,3,0,0,1-1.15-1.08,3.07,3.07,0,0,1-.43-1.61,3,3,0,0,1,.43-1.61,3,3,0,0,1,1.15-1.08,3.58,3.58,0,0,1,1.65-.38,3.33,3.33,0,0,1,1.49.33,2.48,2.48,0,0,1,1.07,1,3.83,3.83,0,0,1,0,3.45,2.56,2.56,0,0,1-1.07,1A3.2,3.2,0,0,1,113.19,129.6Zm.15,2.67a5.69,5.69,0,0,1-1.7-.25,3.47,3.47,0,0,1-1.34-.7l.55-.89a3.29,3.29,0,0,0,1.09.61,4.17,4.17,0,0,0,1.36.22,2.3,2.3,0,0,0,1.66-.53,2.2,2.2,0,0,0,.52-1.61v-1.34l.12-1.26-.06-1.27v-1.74h1.1V129a3.28,3.28,0,0,1-.84,2.48A3.49,3.49,0,0,1,113.34,132.27Zm0-3.67a2.3,2.3,0,0,0,1.13-.27,2,2,0,0,0,.78-.73,2.22,2.22,0,0,0,0-2.16,2,2,0,0,0-.78-.73,2.41,2.41,0,0,0-1.13-.25,2.44,2.44,0,0,0-1.13.25,2.12,2.12,0,0,0-.78,2.89,2,2,0,0,0,.78.73A2.33,2.33,0,0,0,113.32,128.6Z"/><path class="cls-6" d="M65.38,144.27h-1.2v-8.4h5.93v1H65.38Zm-.12-4.43H69.6v1H65.26Z"/><path class="cls-6" d="M74.07,144.34a3.23,3.23,0,0,1-1.43-.3,2.19,2.19,0,0,1-1-.92,3.15,3.15,0,0,1-.34-1.55v-3.66h1.15v3.53a2,2,0,0,0,.45,1.4,1.67,1.67,0,0,0,1.26.47,2.09,2.09,0,0,0,1-.25,1.64,1.64,0,0,0,.68-.72,2.49,2.49,0,0,0,.24-1.14v-3.29h1.15v6.36H76.23v-1.72l.18.46a2.26,2.26,0,0,1-.93,1A2.89,2.89,0,0,1,74.07,144.34Z"/><path class="cls-6" d="M82.92,137.85a3,3,0,0,1,1.37.3,2.1,2.1,0,0,1,.93.91,3.23,3.23,0,0,1,.34,1.55v3.66H84.4v-3.53a1.92,1.92,0,0,0-.45-1.39,1.67,1.67,0,0,0-1.26-.47,2.25,2.25,0,0,0-1.07.24,1.65,1.65,0,0,0-.7.71,2.4,2.4,0,0,0-.25,1.16v3.28H79.52v-6.36h1.1v1.71l-.18-.45a2.19,2.19,0,0,1,1-1A3.1,3.1,0,0,1,82.92,137.85Z"/><path class="cls-6" d="M90.46,144.34a3.54,3.54,0,0,1-1.73-.42,3,3,0,0,1-1.19-1.15,3.43,3.43,0,0,1,0-3.36,3,3,0,0,1,1.19-1.15,3.65,3.65,0,0,1,1.73-.41,3.4,3.4,0,0,1,1.55.34,2.49,2.49,0,0,1,1,1l-.88.57a2,2,0,0,0-.76-.69,2.13,2.13,0,0,0-1-.22,2.25,2.25,0,0,0-1.11.27,2,2,0,0,0-.78.78,2.22,2.22,0,0,0-.29,1.18,2.31,2.31,0,0,0,.29,1.19,2.09,2.09,0,0,0,.78.78,2.25,2.25,0,0,0,1.11.27,2.13,2.13,0,0,0,1-.22,2,2,0,0,0,.76-.69l.88.55a2.58,2.58,0,0,1-1,1A3.4,3.4,0,0,1,90.46,144.34Z"/><path class="cls-6" d="M93.69,138.86v-1h4.06v1Zm3.1,5.48a2,2,0,0,1-1.49-.52,2,2,0,0,1-.53-1.47v-5.83h1.15v5.78a1.12,1.12,0,0,0,.26.79.94.94,0,0,0,.74.28,1.36,1.36,0,0,0,.9-.3l.36.83a1.73,1.73,0,0,1-.63.33A2.74,2.74,0,0,1,96.79,144.34Z"/><path class="cls-6" d="M100.15,136.68a.78.78,0,0,1-.56-.21.71.71,0,0,1-.22-.53.7.7,0,0,1,.22-.54.79.79,0,0,1,.56-.22.79.79,0,0,1,.56.21.76.76,0,0,1-.56,1.29Zm-.58,7.59v-6.36h1.15v6.36Z"/><path class="cls-6" d="M105.64,144.34a3.39,3.39,0,0,1-1.69-.42,3.16,3.16,0,0,1-1.19-1.16,3.48,3.48,0,0,1,0-3.35,3.15,3.15,0,0,1,1.18-1.14,3.4,3.4,0,0,1,1.7-.42,3.5,3.5,0,0,1,1.7.41,3.1,3.1,0,0,1,1.18,1.15,3.57,3.57,0,0,1,0,3.36,3.1,3.1,0,0,1-1.18,1.15A3.4,3.4,0,0,1,105.64,144.34Zm0-1a2.21,2.21,0,0,0,1.1-.27,1.93,1.93,0,0,0,.76-.79,2.37,2.37,0,0,0,.28-1.18,2.32,2.32,0,0,0-.28-1.18,1.9,1.9,0,0,0-.76-.78,2.36,2.36,0,0,0-2.19,0,2.13,2.13,0,0,0-.77.78,2.32,2.32,0,0,0-.28,1.18,2.37,2.37,0,0,0,.28,1.18,2.16,2.16,0,0,0,.77.79A2.2,2.2,0,0,0,105.64,143.33Z"/><path class="cls-6" d="M113.94,137.85a3,3,0,0,1,1.37.3,2.1,2.1,0,0,1,.93.91,3.23,3.23,0,0,1,.34,1.55v3.66h-1.16v-3.53a1.92,1.92,0,0,0-.45-1.39,1.67,1.67,0,0,0-1.26-.47,2.25,2.25,0,0,0-1.07.24,1.65,1.65,0,0,0-.7.71,2.4,2.4,0,0,0-.25,1.16v3.28h-1.15v-6.36h1.1v1.71l-.18-.45a2.19,2.19,0,0,1,1-1A3.1,3.1,0,0,1,113.94,137.85Z"/><path class="cls-6" d="M120.54,144.34a5,5,0,0,1-1.51-.22,3.55,3.55,0,0,1-1.12-.52l.48-.92a3.79,3.79,0,0,0,1,.47,3.89,3.89,0,0,0,1.22.19,2.26,2.26,0,0,0,1.16-.22.74.74,0,0,0,.35-.64.57.57,0,0,0-.21-.47,1.67,1.67,0,0,0-.57-.25,7.43,7.43,0,0,0-.79-.15,8.17,8.17,0,0,1-.86-.17,3.3,3.3,0,0,1-.8-.29,1.41,1.41,0,0,1-.57-.51,1.55,1.55,0,0,1-.22-.88,1.61,1.61,0,0,1,.33-1,2,2,0,0,1,.91-.67,4,4,0,0,1,1.41-.23A5.57,5.57,0,0,1,122,138a3.19,3.19,0,0,1,1,.42l-.49.92a2.57,2.57,0,0,0-.9-.4,4.31,4.31,0,0,0-.94-.11,2,2,0,0,0-1.13.25.74.74,0,0,0-.37.63.64.64,0,0,0,.22.5,1.84,1.84,0,0,0,.58.27c.24.06.5.11.79.16s.57.1.86.17a3.21,3.21,0,0,1,.79.28,1.61,1.61,0,0,1,.57.5,1.52,1.52,0,0,1,.22.87,1.55,1.55,0,0,1-.33,1,2.25,2.25,0,0,1-1,.66A4.26,4.26,0,0,1,120.54,144.34Z"/><path class="cls-6" d="M62.86,165.9a5.63,5.63,0,0,1-1.84-.29,3.77,3.77,0,0,1-1.38-.76l.44-.94a3.82,3.82,0,0,0,1.23.7,4.47,4.47,0,0,0,1.55.27,3.54,3.54,0,0,0,1.18-.16,1.54,1.54,0,0,0,.68-.46,1.13,1.13,0,0,0,.21-.67.91.91,0,0,0-.28-.7,2.06,2.06,0,0,0-.73-.42,7.77,7.77,0,0,0-1-.29c-.36-.08-.72-.17-1.09-.28a4.38,4.38,0,0,1-1-.41,2.07,2.07,0,0,1-.73-.68,2,2,0,0,1-.28-1.1,2.18,2.18,0,0,1,.35-1.19,2.32,2.32,0,0,1,1.05-.88,4.36,4.36,0,0,1,1.82-.33,5.51,5.51,0,0,1,1.45.2,3.86,3.86,0,0,1,1.25.55l-.4,1a3.93,3.93,0,0,0-1.14-.53,4.76,4.76,0,0,0-1.16-.16,3.17,3.17,0,0,0-1.16.18,1.4,1.4,0,0,0-.67.48,1.16,1.16,0,0,0-.21.68.9.9,0,0,0,.28.7,1.92,1.92,0,0,0,.73.42,7.8,7.8,0,0,0,1,.28c.36.09.73.18,1.09.29a5,5,0,0,1,1,.4,2,2,0,0,1,.72.68,1.88,1.88,0,0,1,.28,1.08,2.17,2.17,0,0,1-.35,1.18,2.42,2.42,0,0,1-1.07.87A4.31,4.31,0,0,1,62.86,165.9Z"/><path class="cls-6" d="M67.69,168.14v-8.69H68.8v1.72l-.08,1.47.12,1.48v4Zm3.37-2.26a2.83,2.83,0,0,1-1.44-.37,2.61,2.61,0,0,1-1.05-1.08,3.75,3.75,0,0,1-.39-1.8,3.87,3.87,0,0,1,.38-1.8,2.56,2.56,0,0,1,1-1.08,3,3,0,0,1,1.47-.36,3.22,3.22,0,0,1,1.66.41,3,3,0,0,1,1.14,1.13,3.65,3.65,0,0,1,0,3.4,3,3,0,0,1-1.14,1.14A3.22,3.22,0,0,1,71.06,165.88Zm-.09-1a2.24,2.24,0,0,0,1.1-.27,2,2,0,0,0,.76-.79,2.37,2.37,0,0,0,.29-1.18,2.32,2.32,0,0,0-.29-1.18,2,2,0,0,0-.76-.78,2.36,2.36,0,0,0-2.19,0,2.06,2.06,0,0,0-.77.78,2.42,2.42,0,0,0-.28,1.18,2.48,2.48,0,0,0,.28,1.18,2.09,2.09,0,0,0,.77.79A2.23,2.23,0,0,0,71,164.87Z"/><path class="cls-6" d="M78.71,165.88a3.74,3.74,0,0,1-1.8-.42,3.09,3.09,0,0,1-1.2-1.15,3.33,3.33,0,0,1-.42-1.68A3.43,3.43,0,0,1,75.7,161a3.07,3.07,0,0,1,1.14-1.15,3.33,3.33,0,0,1,1.64-.41,3.11,3.11,0,0,1,1.63.41,2.9,2.9,0,0,1,1.11,1.14,3.54,3.54,0,0,1,.4,1.73v.16c0,.07,0,.13,0,.18H76.19v-.83H81l-.47.29a2.07,2.07,0,0,0-.25-1.09,2,2,0,0,0-.73-.75,2,2,0,0,0-1.07-.27,2.1,2.1,0,0,0-1.07.27,1.91,1.91,0,0,0-.73.76,2.22,2.22,0,0,0-.26,1.11v.19a2.08,2.08,0,0,0,1.11,1.91,2.86,2.86,0,0,0,2.24.08,2.2,2.2,0,0,0,.81-.58l.64.75a2.92,2.92,0,0,1-1.08.77A3.83,3.83,0,0,1,78.71,165.88Z"/><path class="cls-6" d="M86,165.88a3.52,3.52,0,0,1-1.73-.42,3.09,3.09,0,0,1-1.2-1.15,3.5,3.5,0,0,1,0-3.36,3.09,3.09,0,0,1,1.2-1.15,3.62,3.62,0,0,1,1.73-.41,3.32,3.32,0,0,1,1.54.34,2.39,2.39,0,0,1,1,1l-.87.57a2,2,0,0,0-.76-.69,2.15,2.15,0,0,0-1-.22,2.29,2.29,0,0,0-1.12.27,2.16,2.16,0,0,0-.78.78,2.32,2.32,0,0,0-.28,1.18,2.38,2.38,0,0,0,.28,1.19,2.24,2.24,0,0,0,.78.78,2.29,2.29,0,0,0,1.12.27,2.15,2.15,0,0,0,1-.22,2,2,0,0,0,.76-.69l.87.55a2.46,2.46,0,0,1-1,1A3.33,3.33,0,0,1,86,165.88Z"/><path class="cls-6" d="M90.53,158.22A.78.78,0,0,1,90,158a.76.76,0,0,1,0-1.07.79.79,0,0,1,.56-.22.84.84,0,0,1,.56.21.76.76,0,0,1-.56,1.29ZM90,165.81v-6.36H91.1v6.36Z"/><path class="cls-6" d="M95.16,165.88a3,3,0,0,1-1.24-.24,1.83,1.83,0,0,1-.82-.67,1.6,1.6,0,0,1-.29-1,1.88,1.88,0,0,1,.24-.94,1.77,1.77,0,0,1,.81-.67,3.66,3.66,0,0,1,1.5-.25h2V163h-2a1.73,1.73,0,0,0-1.16.28,1,1,0,0,0-.3.7.89.89,0,0,0,.37.75,1.66,1.66,0,0,0,1,.28,2.24,2.24,0,0,0,1.14-.28,1.73,1.73,0,0,0,.7-.85l.23.8a1.83,1.83,0,0,1-.81.89A2.88,2.88,0,0,1,95.16,165.88Zm2.09-.07v-1.34l-.06-.26v-2.29a1.44,1.44,0,0,0-.43-1.13,1.79,1.79,0,0,0-1.28-.41,3.49,3.49,0,0,0-1.1.19,2.75,2.75,0,0,0-.91.5l-.48-.86a3.39,3.39,0,0,1,1.18-.61,4.94,4.94,0,0,1,1.45-.21,2.92,2.92,0,0,1,2,.63,2.52,2.52,0,0,1,.71,1.95v3.84Z"/><path class="cls-6" d="M100.48,165.81V156.9h1.15v8.91Z"/><path class="cls-6" d="M104.4,158.22a.79.79,0,0,1-.56-.21.76.76,0,0,1,0-1.07.8.8,0,0,1,.56-.22.84.84,0,0,1,.56.21.69.69,0,0,1,.22.53.75.75,0,0,1-.78.76Zm-.58,7.59v-6.36H105v6.36Z"/><path class="cls-6" d="M106.56,165.81v-.75l4.08-5.06.23.4h-4.24v-1h5.16v.76l-4.08,5-.26-.4h4.44v.95Z"/><path class="cls-6" d="M116.14,165.88a3.74,3.74,0,0,1-1.8-.42,3.09,3.09,0,0,1-1.2-1.15,3.61,3.61,0,0,1,0-3.36,3.07,3.07,0,0,1,1.14-1.15,3.3,3.3,0,0,1,1.64-.41,3.14,3.14,0,0,1,1.63.41,2.9,2.9,0,0,1,1.11,1.14,3.54,3.54,0,0,1,.4,1.73v.16c0,.07,0,.13,0,.18h-5.41v-.83h4.81l-.47.29a2.17,2.17,0,0,0-.25-1.09,2,2,0,0,0-.73-.75,2.07,2.07,0,0,0-1.07-.27,2.1,2.1,0,0,0-1.07.27,1.85,1.85,0,0,0-.73.76,2.23,2.23,0,0,0-.27,1.11v.19a2.15,2.15,0,0,0,.3,1.13,2.06,2.06,0,0,0,.82.78,2.86,2.86,0,0,0,2.24.08,2.2,2.2,0,0,0,.81-.58l.63.75a2.8,2.8,0,0,1-1.07.77A3.87,3.87,0,0,1,116.14,165.88Z"/><path class="cls-6" d="M123.28,165.88a3.21,3.21,0,0,1-1.65-.41,2.93,2.93,0,0,1-1.15-1.14,3.65,3.65,0,0,1,0-3.4,3,3,0,0,1,1.15-1.13,3.21,3.21,0,0,1,1.65-.41,2.94,2.94,0,0,1,1.45.36,2.65,2.65,0,0,1,1,1.08,3.75,3.75,0,0,1,.39,1.8,3.87,3.87,0,0,1-.38,1.8,2.56,2.56,0,0,1-1,1.08A2.87,2.87,0,0,1,123.28,165.88Zm.09-1a2.23,2.23,0,0,0,1.09-.27,2.09,2.09,0,0,0,.77-.79,2.48,2.48,0,0,0,.28-1.18,2.42,2.42,0,0,0-.28-1.18,2.06,2.06,0,0,0-.77-.78,2.23,2.23,0,0,0-1.09-.27,2.18,2.18,0,0,0-1.09.27,2.06,2.06,0,0,0-.77.78,2.32,2.32,0,0,0-.29,1.18,2.37,2.37,0,0,0,.29,1.18,2.09,2.09,0,0,0,.77.79A2.18,2.18,0,0,0,123.37,164.87Zm2.17.94v-1.72l.08-1.47-.12-1.48V156.9h1.15v8.91Z"/><path class="cls-6" d="M76.54,180.3a4.73,4.73,0,0,1-1.78-.32,4.41,4.41,0,0,1-1.42-.9,4.35,4.35,0,0,1-.94-1.37,4.29,4.29,0,0,1-.33-1.7,4.13,4.13,0,0,1,1.27-3.07,4.15,4.15,0,0,1,1.41-.9,4.75,4.75,0,0,1,1.79-.33,4.94,4.94,0,0,1,1.78.32,4.12,4.12,0,0,1,2.34,2.27,4.6,4.6,0,0,1,0,3.42,4.06,4.06,0,0,1-.93,1.37,4.15,4.15,0,0,1-1.41.9A4.93,4.93,0,0,1,76.54,180.3Zm0-1.06a3.42,3.42,0,0,0,1.3-.24,2.92,2.92,0,0,0,1-.69,3.16,3.16,0,0,0,.69-1,3.3,3.3,0,0,0,.24-1.27,3.44,3.44,0,0,0-.24-1.29,3.12,3.12,0,0,0-.69-1,3,3,0,0,0-1-.68,3.61,3.61,0,0,0-2.59,0,3.18,3.18,0,0,0-1,.68,3.28,3.28,0,0,0-.69,1,3.44,3.44,0,0,0-.24,1.29,3.16,3.16,0,0,0,.93,2.3,3.05,3.05,0,0,0,1,.69A3.44,3.44,0,0,0,76.53,179.24ZM79.29,182a3,3,0,0,1-.8-.1,3.4,3.4,0,0,1-.77-.32,4.81,4.81,0,0,1-.79-.58,11.82,11.82,0,0,1-.89-.87l1.28-.34a5.5,5.5,0,0,0,.69.73,2.38,2.38,0,0,0,.66.41,1.81,1.81,0,0,0,.64.12,2,2,0,0,0,1.53-.72l.56.69A2.63,2.63,0,0,1,79.29,182Z"/><path class="cls-6" d="M85.34,180.28a3.28,3.28,0,0,1-1.44-.3,2.13,2.13,0,0,1-1-.92,3.26,3.26,0,0,1-.34-1.55v-3.66h1.15v3.53a2,2,0,0,0,.45,1.4,1.7,1.7,0,0,0,1.27.47,2,2,0,0,0,1-.25,1.6,1.6,0,0,0,.69-.72,2.46,2.46,0,0,0,.24-1.14v-3.29h1.15v6.36H87.5v-1.72l.18.46a2.22,2.22,0,0,1-.94,1A2.72,2.72,0,0,1,85.34,180.28Z"/><path class="cls-6" d="M93.51,180.28a3.43,3.43,0,0,1-1.7-.42,3.06,3.06,0,0,1-1.18-1.16A3.22,3.22,0,0,1,90.2,177a3.17,3.17,0,0,1,.43-1.67,3.1,3.1,0,0,1,1.18-1.15,3.37,3.37,0,0,1,1.7-.42,3.53,3.53,0,0,1,1.7.41,3,3,0,0,1,1.17,1.15,3.5,3.5,0,0,1,0,3.36,3,3,0,0,1-1.17,1.15A3.43,3.43,0,0,1,93.51,180.28Zm0-1a2.24,2.24,0,0,0,1.1-.27,2,2,0,0,0,.76-.79,2.48,2.48,0,0,0,.28-1.18,2.42,2.42,0,0,0-.28-1.18,2,2,0,0,0-.76-.78,2.24,2.24,0,0,0-1.1-.27,2.18,2.18,0,0,0-1.09.27,2.06,2.06,0,0,0-.77.78,2.32,2.32,0,0,0-.29,1.18,2.37,2.37,0,0,0,.29,1.18,2.09,2.09,0,0,0,.77.79A2.18,2.18,0,0,0,93.51,179.27Z"/><path class="cls-6" d="M97.49,174.8v-1h4.06v1Zm3.1,5.48a2,2,0,0,1-1.49-.52,2,2,0,0,1-.53-1.47v-5.83h1.16v5.78a1.1,1.1,0,0,0,.25.79,1,1,0,0,0,.74.28,1.36,1.36,0,0,0,.9-.3l.36.83a1.58,1.58,0,0,1-.63.33A2.41,2.41,0,0,1,100.59,180.28Z"/><path class="cls-6" d="M106,180.28a3.74,3.74,0,0,1-1.8-.42,3.09,3.09,0,0,1-1.2-1.15,3.61,3.61,0,0,1,0-3.36,3.07,3.07,0,0,1,1.14-1.15,3.3,3.3,0,0,1,1.64-.41,3.23,3.23,0,0,1,1.63.41,2.9,2.9,0,0,1,1.11,1.14,3.56,3.56,0,0,1,.4,1.73v.16c0,.07,0,.13,0,.18h-5.41v-.82h4.81l-.47.28a2.19,2.19,0,0,0-.25-1.09,2,2,0,0,0-.73-.75,2.07,2.07,0,0,0-1.07-.27,2.1,2.1,0,0,0-1.07.27,1.85,1.85,0,0,0-.73.76,2.23,2.23,0,0,0-.27,1.11v.19a2.15,2.15,0,0,0,.3,1.13,2.06,2.06,0,0,0,.82.78,2.86,2.86,0,0,0,2.24.08,2.3,2.3,0,0,0,.81-.57l.63.74a2.7,2.7,0,0,1-1.07.77A3.87,3.87,0,0,1,106,180.28Z"/><path class="cls-6" d="M112.3,180.28a5.23,5.23,0,0,1-1.5-.21,3.72,3.72,0,0,1-1.13-.53l.48-.91a4.44,4.44,0,0,0,2.24.66,2.2,2.2,0,0,0,1.15-.23.72.72,0,0,0,.36-.64.56.56,0,0,0-.22-.47,1.51,1.51,0,0,0-.57-.25c-.23,0-.5-.11-.78-.15s-.58-.1-.87-.17a2.86,2.86,0,0,1-.79-.29,1.5,1.5,0,0,1-.58-.51,1.61,1.61,0,0,1-.21-.88,1.67,1.67,0,0,1,.32-1,2.08,2.08,0,0,1,.92-.67,4,4,0,0,1,1.41-.23,5.57,5.57,0,0,1,1.27.15,3.16,3.16,0,0,1,1,.43l-.5.91a2.59,2.59,0,0,0-.9-.4,4.22,4.22,0,0,0-.93-.11,2.1,2.1,0,0,0-1.13.25.72.72,0,0,0-.37.63.59.59,0,0,0,.22.5,1.84,1.84,0,0,0,.58.27,6.67,6.67,0,0,0,.78.16c.29,0,.58.1.87.17a3.59,3.59,0,0,1,.78.28,1.56,1.56,0,0,1,.58.5,1.7,1.7,0,0,1-.12,1.86,2.21,2.21,0,0,1-.94.66A4.28,4.28,0,0,1,112.3,180.28Z"/><path class="cls-6" d="M53.4,202.68v-8.4h1l3.77,6.35h-.53l3.72-6.35h1l0,8.4H61.18v-6.59h.28l-3.31,5.57h-.56l-3.33-5.57h.3v6.59Z"/><path class="cls-6" d="M67.41,202.75a3.43,3.43,0,0,1-1.7-.42,3.06,3.06,0,0,1-1.18-1.16,3.22,3.22,0,0,1-.43-1.67,3.17,3.17,0,0,1,.43-1.67,3.1,3.1,0,0,1,1.18-1.15,3.37,3.37,0,0,1,1.7-.42,3.53,3.53,0,0,1,1.7.41,3.1,3.1,0,0,1,1.18,1.15,3.57,3.57,0,0,1,0,3.36,3.1,3.1,0,0,1-1.18,1.15A3.43,3.43,0,0,1,67.41,202.75Zm0-1a2.21,2.21,0,0,0,1.1-.27,2,2,0,0,0,.76-.79,2.37,2.37,0,0,0,.28-1.18,2.32,2.32,0,0,0-.28-1.18,2,2,0,0,0-.76-.78,2.21,2.21,0,0,0-1.1-.27,2.18,2.18,0,0,0-1.09.27,2.13,2.13,0,0,0-.77.78,2.32,2.32,0,0,0-.29,1.18,2.37,2.37,0,0,0,.29,1.18,2.09,2.09,0,0,0,.77.79A2.18,2.18,0,0,0,67.41,201.74Z"/><path class="cls-6" d="M75,202.75a3.43,3.43,0,0,1-1.7-.42,3.06,3.06,0,0,1-1.18-1.16,3.22,3.22,0,0,1-.43-1.67,3.17,3.17,0,0,1,.43-1.67,3.1,3.1,0,0,1,1.18-1.15,3.37,3.37,0,0,1,1.7-.42,3.53,3.53,0,0,1,1.7.41,3.1,3.1,0,0,1,1.18,1.15,3.57,3.57,0,0,1,0,3.36,3.1,3.1,0,0,1-1.18,1.15A3.43,3.43,0,0,1,75,202.75Zm0-1a2.21,2.21,0,0,0,1.1-.27,2,2,0,0,0,.76-.79,2.37,2.37,0,0,0,.28-1.18,2.32,2.32,0,0,0-.28-1.18,2,2,0,0,0-.76-.78,2.21,2.21,0,0,0-1.1-.27,2.18,2.18,0,0,0-1.09.27,2.13,2.13,0,0,0-.77.78,2.32,2.32,0,0,0-.29,1.18,2.37,2.37,0,0,0,.29,1.18,2.09,2.09,0,0,0,.77.79A2.18,2.18,0,0,0,75,201.74Z"/><path class="cls-6" d="M82.56,202.75a3.21,3.21,0,0,1-1.65-.41,2.93,2.93,0,0,1-1.15-1.14,3.65,3.65,0,0,1,0-3.4,3,3,0,0,1,1.15-1.13,3.31,3.31,0,0,1,1.65-.41,2.94,2.94,0,0,1,1.45.36,2.65,2.65,0,0,1,1,1.08,3.75,3.75,0,0,1,.39,1.8,3.87,3.87,0,0,1-.38,1.8,2.65,2.65,0,0,1-1,1.09A3,3,0,0,1,82.56,202.75Zm.09-1a2.23,2.23,0,0,0,1.09-.27,2.09,2.09,0,0,0,.77-.79,2.48,2.48,0,0,0,.28-1.18,2.42,2.42,0,0,0-.28-1.18,2.13,2.13,0,0,0-.77-.78,2.23,2.23,0,0,0-1.09-.27,2.18,2.18,0,0,0-1.09.27,2.13,2.13,0,0,0-.77.78,2.32,2.32,0,0,0-.29,1.18,2.37,2.37,0,0,0,.29,1.18,2.09,2.09,0,0,0,.77.79A2.18,2.18,0,0,0,82.65,201.74Zm2.17.94V201l.08-1.47L84.78,198v-4.23h1.15v8.9Z"/><path class="cls-6" d="M93.17,202.68v-7.36H90.29v-1h6.95v1H94.36v7.36Z"/><path class="cls-6" d="M98.2,202.68v-6.36h1.11v1.73l-.11-.43a1.91,1.91,0,0,1,.89-1,3.12,3.12,0,0,1,1.53-.35v1.12l-.13,0h-.13a1.92,1.92,0,0,0-1.46.56,2.17,2.17,0,0,0-.54,1.59v3.17Z"/><path class="cls-6" d="M104.38,202.75a3,3,0,0,1-1.24-.24,1.94,1.94,0,0,1-.82-.66,1.73,1.73,0,0,1-.29-1,1.79,1.79,0,0,1,.25-.94,1.69,1.69,0,0,1,.8-.67,3.71,3.71,0,0,1,1.51-.25h2v.83h-2a1.69,1.69,0,0,0-1.17.29.94.94,0,0,0,.07,1.44,1.69,1.69,0,0,0,1,.28,2.18,2.18,0,0,0,1.13-.28,1.7,1.7,0,0,0,.7-.84l.23.79a1.81,1.81,0,0,1-.8.89A2.92,2.92,0,0,1,104.38,202.75Zm2.09-.07v-1.34l-.06-.26v-2.29a1.49,1.49,0,0,0-.42-1.13,1.8,1.8,0,0,0-1.28-.4,3.49,3.49,0,0,0-1.11.18,2.94,2.94,0,0,0-.91.5l-.48-.86a3.39,3.39,0,0,1,1.18-.61,5,5,0,0,1,1.45-.21,2.92,2.92,0,0,1,2,.64,2.48,2.48,0,0,1,.7,1.94v3.84Z"/><path class="cls-6" d="M112.47,202.75a3.52,3.52,0,0,1-1.73-.42,3.09,3.09,0,0,1-1.2-1.15,3.5,3.5,0,0,1,0-3.36,3.09,3.09,0,0,1,1.2-1.15,3.62,3.62,0,0,1,1.73-.41,3.32,3.32,0,0,1,1.54.34,2.41,2.41,0,0,1,1,1l-.87.56a2,2,0,0,0-.76-.69,2.19,2.19,0,0,0-1-.22,2.29,2.29,0,0,0-1.12.27,2.24,2.24,0,0,0-.78.78,2.32,2.32,0,0,0-.28,1.18,2.38,2.38,0,0,0,.28,1.19,2.24,2.24,0,0,0,.78.78,2.29,2.29,0,0,0,1.12.27,2.19,2.19,0,0,0,1-.22,2,2,0,0,0,.76-.69l.87.55a2.52,2.52,0,0,1-1,1A3.33,3.33,0,0,1,112.47,202.75Z"/><path class="cls-6" d="M116.43,202.68v-8.9h1.15v8.9Zm.94-1.54,0-1.47,3.66-3.35h1.39l-2.81,2.76-.62.53Zm3.92,1.54-2.5-3.1.75-.92,3.17,4Z"/><path class="cls-6" d="M126.41,202.75a3.73,3.73,0,0,1-1.79-.42,3,3,0,0,1-1.2-1.15,3.61,3.61,0,0,1,0-3.36,3.07,3.07,0,0,1,1.14-1.15,3.3,3.3,0,0,1,1.64-.41,3.23,3.23,0,0,1,1.63.41,2.9,2.9,0,0,1,1.11,1.14,3.56,3.56,0,0,1,.4,1.73v.16c0,.07,0,.13,0,.18H123.9v-.82h4.81l-.47.28a2.19,2.19,0,0,0-.25-1.09,2,2,0,0,0-.73-.75,2.26,2.26,0,0,0-2.14,0,1.85,1.85,0,0,0-.73.76,2.23,2.23,0,0,0-.27,1.11v.19a2.15,2.15,0,0,0,.3,1.13,2,2,0,0,0,.82.78,2.86,2.86,0,0,0,2.24.08,2.39,2.39,0,0,0,.81-.57l.63.74a2.78,2.78,0,0,1-1.07.77A3.89,3.89,0,0,1,126.41,202.75Z"/><path class="cls-6" d="M130.93,202.68v-6.36H132v1.73l-.11-.43a2,2,0,0,1,.89-1,3.16,3.16,0,0,1,1.54-.35v1.12l-.14,0h-.13a2,2,0,0,0-1.46.56,2.17,2.17,0,0,0-.54,1.59v3.17Z"/><path class="cls-6" d="M66.82,227.62v-.82l3.42-3.3a4.79,4.79,0,0,0,.68-.76,2.63,2.63,0,0,0,.3-.61,2.13,2.13,0,0,0,.07-.55,1.22,1.22,0,0,0-.45-1,2.07,2.07,0,0,0-1.33-.38,3.36,3.36,0,0,0-1.22.22,2.34,2.34,0,0,0-.93.7l-.82-.71a3.07,3.07,0,0,1,1.29-1,4.9,4.9,0,0,1,1.78-.33,3.76,3.76,0,0,1,1.53.29,2.18,2.18,0,0,1,1,.81,2.15,2.15,0,0,1,.35,1.24,3.15,3.15,0,0,1-.1.81,3.23,3.23,0,0,1-.41.84,6.47,6.47,0,0,1-.87,1l-3,2.93-.29-.46h5.07v1Z"/><path class="cls-6" d="M73.36,225.56v-.84l4.29-5.5H79l-4.26,5.5-.61-.19h6.71v1ZM78,227.62v-2.06l0-1V222.7h1.13v4.92Z"/><path class="cls-6" d="M86.62,227.62h-1.2v-8.4h1.2Zm4.93-3.74h-5v-1h5Zm-.11-4.66h1.2v8.4h-1.2Z"/><path class="cls-6" d="M97.72,227.69a3.4,3.4,0,0,1-1.7-.42,3,3,0,0,1-1.18-1.16,3.46,3.46,0,0,1,0-3.34A3.08,3.08,0,0,1,96,221.62a3.44,3.44,0,0,1,1.71-.42,3.49,3.49,0,0,1,1.69.41,3,3,0,0,1,1.18,1.15,3.5,3.5,0,0,1,0,3.36,3,3,0,0,1-1.18,1.15A3.39,3.39,0,0,1,97.72,227.69Zm0-1a2.28,2.28,0,0,0,1.1-.28,2,2,0,0,0,.76-.79,2.48,2.48,0,0,0,.27-1.18,2.45,2.45,0,0,0-.27-1.18,2,2,0,0,0-.76-.77,2.17,2.17,0,0,0-1.1-.28,2.14,2.14,0,0,0-1.1.28,2.08,2.08,0,0,0-.76.77,2.25,2.25,0,0,0-.29,1.18,2.27,2.27,0,0,0,.29,1.18,2.07,2.07,0,0,0,.76.79A2.25,2.25,0,0,0,97.72,226.69Z"/><path class="cls-6" d="M105.29,227.69a3.23,3.23,0,0,1-1.43-.3,2,2,0,0,1-1-.92,3.15,3.15,0,0,1-.35-1.55v-3.66h1.15v3.53a2,2,0,0,0,.46,1.4,1.66,1.66,0,0,0,1.26.47,2.09,2.09,0,0,0,1-.25,1.67,1.67,0,0,0,.68-.71,2.54,2.54,0,0,0,.24-1.15v-3.29h1.15v6.36h-1.09v-1.71l.18.45a2.22,2.22,0,0,1-.94,1A2.72,2.72,0,0,1,105.29,227.69Z"/><path class="cls-6" d="M110.74,227.62v-6.36h1.1V223l-.11-.43a2,2,0,0,1,.89-1,3.16,3.16,0,0,1,1.54-.35v1.12l-.14,0h-.13a2,2,0,0,0-1.46.56,2.19,2.19,0,0,0-.54,1.59v3.17Z"/><path class="cls-6" d="M117.42,227.69a5.23,5.23,0,0,1-1.5-.21,3.72,3.72,0,0,1-1.13-.53l.48-.91a4.44,4.44,0,0,0,2.24.66,2.2,2.2,0,0,0,1.15-.23.71.71,0,0,0,.36-.64.56.56,0,0,0-.22-.47,1.51,1.51,0,0,0-.57-.25l-.78-.15c-.29,0-.58-.1-.87-.17a3.21,3.21,0,0,1-.79-.28,1.41,1.41,0,0,1-.79-1.4,1.67,1.67,0,0,1,.32-1,2,2,0,0,1,.92-.66,3.78,3.78,0,0,1,1.41-.24,5.57,5.57,0,0,1,1.27.15,3.16,3.16,0,0,1,1,.43l-.5.91a2.59,2.59,0,0,0-.9-.4,4.2,4.2,0,0,0-.93-.1,2.11,2.11,0,0,0-1.13.24.72.72,0,0,0-.37.63.59.59,0,0,0,.22.5,1.65,1.65,0,0,0,.58.27,6.67,6.67,0,0,0,.78.16c.29,0,.58.1.87.17a3.59,3.59,0,0,1,.78.28,1.5,1.5,0,0,1,.58.51,1.46,1.46,0,0,1,.22.86,1.49,1.49,0,0,1-.34,1,2.21,2.21,0,0,1-.94.66A4.28,4.28,0,0,1,117.42,227.69Z"/><path class="cls-6" d="M51.09,242v-8.4h3.28a4.64,4.64,0,0,1,1.88.35,2.66,2.66,0,0,1,1.2,1,2.85,2.85,0,0,1,.42,1.57,2.8,2.8,0,0,1-.42,1.56,2.66,2.66,0,0,1-1.2,1,4.47,4.47,0,0,1-1.88.36H51.75l.54-.57V242Zm1.2-3-.54-.6h2.58a2.68,2.68,0,0,0,1.75-.49,1.93,1.93,0,0,0,0-2.78,2.68,2.68,0,0,0-1.75-.5H51.75l.54-.59Z"/><path class="cls-6" d="M63,235.6a3,3,0,0,1,1.38.3,2.26,2.26,0,0,1,.93.91,3.26,3.26,0,0,1,.33,1.55V242H64.47v-3.53A1.94,1.94,0,0,0,64,237.1a1.67,1.67,0,0,0-1.26-.47,2.25,2.25,0,0,0-1.07.24,1.6,1.6,0,0,0-.7.71,2.4,2.4,0,0,0-.25,1.16V242H59.59v-8.9h1.15v4.26l-.23-.46a2.25,2.25,0,0,1,1-1A3.18,3.18,0,0,1,63,235.6Z"/><path class="cls-6" d="M70.48,242.09a3.39,3.39,0,0,1-1.69-.42,3.13,3.13,0,0,1-1.19-1.15,3.36,3.36,0,0,1-.43-1.68,3.27,3.27,0,0,1,.43-1.67A3.1,3.1,0,0,1,68.78,236a3.65,3.65,0,0,1,3.4,0,3,3,0,0,1,1.18,1.14,3.57,3.57,0,0,1,0,3.36,3.1,3.1,0,0,1-1.18,1.15A3.4,3.4,0,0,1,70.48,242.09Zm0-1a2.22,2.22,0,0,0,1.1-.28,1.87,1.87,0,0,0,.76-.79,2.37,2.37,0,0,0,.28-1.18,2.34,2.34,0,0,0-.28-1.18,1.88,1.88,0,0,0-.76-.77,2.16,2.16,0,0,0-3,.77,2.34,2.34,0,0,0-.28,1.18,2.37,2.37,0,0,0,.28,1.18,2.09,2.09,0,0,0,.77.79A2.21,2.21,0,0,0,70.48,241.09Z"/><path class="cls-6" d="M78.78,235.6a3,3,0,0,1,1.37.3,2.15,2.15,0,0,1,.93.91,3.26,3.26,0,0,1,.34,1.55V242H80.26v-3.53a1.94,1.94,0,0,0-.45-1.39,1.67,1.67,0,0,0-1.26-.47,2.25,2.25,0,0,0-1.07.24,1.65,1.65,0,0,0-.7.71,2.4,2.4,0,0,0-.25,1.16V242H75.38v-6.36h1.1v1.72l-.18-.46a2.25,2.25,0,0,1,1-1A3.22,3.22,0,0,1,78.78,235.6Z"/><path class="cls-6" d="M86.38,242.09a3.7,3.7,0,0,1-1.79-.42,3,3,0,0,1-1.2-1.15,3.53,3.53,0,0,1,0-3.36A2.84,2.84,0,0,1,84.52,236a3.43,3.43,0,0,1,3.27,0,2.86,2.86,0,0,1,1.11,1.15,3.5,3.5,0,0,1,.4,1.72,1.09,1.09,0,0,1,0,.17c0,.06,0,.12,0,.18H83.86v-.83h4.82l-.47.29a2.2,2.2,0,0,0-.25-1.1,2,2,0,0,0-.73-.75,2.26,2.26,0,0,0-2.14,0,1.91,1.91,0,0,0-.73.76,2.23,2.23,0,0,0-.27,1.11v.19a2.15,2.15,0,0,0,.3,1.13,1.93,1.93,0,0,0,.82.78,2.75,2.75,0,0,0,2.24.08,2.35,2.35,0,0,0,.81-.57l.63.74a2.78,2.78,0,0,1-1.07.77A3.69,3.69,0,0,1,86.38,242.09Z"/><path class="cls-6" d="M96.74,242.12a5.68,5.68,0,0,1-1.84-.3,3.77,3.77,0,0,1-1.38-.76l.45-.94a3.69,3.69,0,0,0,1.22.7,4.3,4.3,0,0,0,1.55.28,3.57,3.57,0,0,0,1.19-.17,1.48,1.48,0,0,0,.67-.46,1.14,1.14,0,0,0,.22-.67.88.88,0,0,0-.29-.69,2.08,2.08,0,0,0-.73-.43,7.8,7.8,0,0,0-1-.28c-.36-.08-.72-.18-1.08-.29a4.28,4.28,0,0,1-1-.41A2.07,2.07,0,0,1,94,237a2,2,0,0,1-.27-1.09,2.2,2.2,0,0,1,.34-1.2,2.35,2.35,0,0,1,1.05-.87,4.39,4.39,0,0,1,1.82-.33,5.63,5.63,0,0,1,1.46.19,4.13,4.13,0,0,1,1.24.55l-.39,1a3.9,3.9,0,0,0-1.14-.52,4.39,4.39,0,0,0-1.17-.16,3.17,3.17,0,0,0-1.16.18,1.51,1.51,0,0,0-.67.47,1.19,1.19,0,0,0-.21.68.94.94,0,0,0,.29.71,2.13,2.13,0,0,0,.73.42c.3.1.63.19,1,.28s.72.18,1.08.28a4.28,4.28,0,0,1,1,.41,2,2,0,0,1,.72.67,1.88,1.88,0,0,1,.28,1.08,2.17,2.17,0,0,1-.35,1.18,2.37,2.37,0,0,1-1.07.88A4.44,4.44,0,0,1,96.74,242.12Z"/><path class="cls-6" d="M104.41,242.09a3.74,3.74,0,0,1-1.8-.42,3.09,3.09,0,0,1-1.2-1.15,3.61,3.61,0,0,1,0-3.36,3,3,0,0,1,1.14-1.14,3.43,3.43,0,0,1,3.27,0,2.86,2.86,0,0,1,1.11,1.15,3.5,3.5,0,0,1,.4,1.72v.17c0,.06,0,.12,0,.18h-5.41v-.83h4.81l-.47.29a2.1,2.1,0,0,0-.25-1.1,2,2,0,0,0-.73-.75,2,2,0,0,0-1.07-.27,2.1,2.1,0,0,0-1.07.27,2,2,0,0,0-.73.76,2.22,2.22,0,0,0-.26,1.11v.19a2.14,2.14,0,0,0,.29,1.13,2,2,0,0,0,.82.78,2.75,2.75,0,0,0,2.24.08,2.17,2.17,0,0,0,.81-.57l.63.74a2.7,2.7,0,0,1-1.07.77A3.64,3.64,0,0,1,104.41,242.09Z"/><path class="cls-6" d="M108.92,242v-6.36H110v1.73l-.11-.43a2,2,0,0,1,.89-1,3.16,3.16,0,0,1,1.54-.35v1.12l-.14,0h-.12a2,2,0,0,0-1.47.56,2.19,2.19,0,0,0-.54,1.59V242Z"/><path class="cls-6" d="M115.69,242l-2.79-6.36h1.2l2.48,5.76H116l2.52-5.76h1.13L116.86,242Z"/><path class="cls-6" d="M121.3,234.44a.76.76,0,0,1-.55-.22.7.7,0,0,1-.23-.53.74.74,0,0,1,.23-.54.75.75,0,0,1,.55-.21.78.78,0,0,1,.56.21.67.67,0,0,1,.22.52.77.77,0,0,1-.21.55A.79.79,0,0,1,121.3,234.44Zm-.57,7.58v-6.36h1.15V242Z"/><path class="cls-6" d="M126.85,242.09a3.56,3.56,0,0,1-1.74-.42,3.13,3.13,0,0,1-1.19-1.15,3.5,3.5,0,0,1,0-3.36,3,3,0,0,1,1.19-1.14,3.56,3.56,0,0,1,1.74-.42,3.49,3.49,0,0,1,1.54.34,2.46,2.46,0,0,1,1.05,1l-.88.56a1.93,1.93,0,0,0-.76-.69,2.13,2.13,0,0,0-1-.22,2.18,2.18,0,0,0-1.11.28,2,2,0,0,0-.78.77,2.34,2.34,0,0,0-.29,1.18,2.38,2.38,0,0,0,.29,1.19,2,2,0,0,0,.78.78,2.29,2.29,0,0,0,1.11.28,2.13,2.13,0,0,0,1-.23,1.79,1.79,0,0,0,.76-.69l.88.56a2.55,2.55,0,0,1-1.05,1A3.24,3.24,0,0,1,126.85,242.09Z"/><path class="cls-6" d="M133.64,242.09a3.74,3.74,0,0,1-1.8-.42,3.09,3.09,0,0,1-1.2-1.15,3.33,3.33,0,0,1-.42-1.68,3.43,3.43,0,0,1,.41-1.68,3,3,0,0,1,1.14-1.14,3.43,3.43,0,0,1,3.27,0,2.86,2.86,0,0,1,1.11,1.15,3.5,3.5,0,0,1,.4,1.72v.17c0,.06,0,.12,0,.18h-5.41v-.83h4.81l-.47.29a2.1,2.1,0,0,0-.25-1.1,1.88,1.88,0,0,0-.73-.75,2,2,0,0,0-1.07-.27,2.13,2.13,0,0,0-1.07.27,2,2,0,0,0-.73.76,2.22,2.22,0,0,0-.26,1.11v.19a2.14,2.14,0,0,0,.29,1.13,2,2,0,0,0,.82.78,2.75,2.75,0,0,0,2.24.08,2.17,2.17,0,0,0,.81-.57l.64.74a2.81,2.81,0,0,1-1.08.77A3.64,3.64,0,0,1,133.64,242.09Z"/><path class="cls-6" d="M81.54,262.53v-8.4h1l3.76,6.34h-.52l3.72-6.34h1v8.4H89.33v-6.59h.27l-3.31,5.57h-.55l-3.34-5.57h.3v6.59Z"/><path class="cls-6" d="M93.41,254.94a.79.79,0,0,1-.56-.21.71.71,0,0,1-.22-.53.7.7,0,0,1,.22-.54.76.76,0,0,1,.56-.22.79.79,0,0,1,.56.21.69.69,0,0,1,.22.52.74.74,0,0,1-.22.55A.73.73,0,0,1,93.41,254.94Zm-.58,7.59v-6.36H94v6.36Z"/><path class="cls-6" d="M99.58,256.11a3,3,0,0,1,1.37.3,2.1,2.1,0,0,1,.93.91,3.23,3.23,0,0,1,.34,1.55v3.66h-1.16V259a2,2,0,0,0-.44-1.39,1.68,1.68,0,0,0-1.27-.47,2.25,2.25,0,0,0-1.07.24,1.6,1.6,0,0,0-.7.71,2.4,2.4,0,0,0-.25,1.16v3.28H96.18v-6.36h1.11v1.71l-.19-.45a2.27,2.27,0,0,1,1-1A3.21,3.21,0,0,1,99.58,256.11Z"/><path class="cls-6" d="M104.93,254.94a.78.78,0,0,1-.56-.21.71.71,0,0,1-.22-.53.7.7,0,0,1,.22-.54.75.75,0,0,1,.56-.22.79.79,0,0,1,.56.21.73.73,0,0,1,.22.52.74.74,0,0,1-.22.55A.73.73,0,0,1,104.93,254.94Zm-.58,7.59v-6.36h1.15v6.36Z"/><path class="cls-6" d="M74.29,277a4.64,4.64,0,0,1-1.77-.32,4.15,4.15,0,0,1-1.41-.9,4.3,4.3,0,0,1,0-6.15,4.15,4.15,0,0,1,1.41-.9,4.84,4.84,0,0,1,1.77-.32,4.71,4.71,0,0,1,1.79.33,3.66,3.66,0,0,1,1.4,1l-.78.75a3.29,3.29,0,0,0-1.08-.75,3.43,3.43,0,0,0-1.28-.24,3.56,3.56,0,0,0-1.32.24,3,3,0,0,0-1.74,1.7,3.37,3.37,0,0,0-.24,1.29,3.44,3.44,0,0,0,.24,1.29,3.28,3.28,0,0,0,.69,1,3.2,3.2,0,0,0,1,.67,3.56,3.56,0,0,0,1.32.24,3.43,3.43,0,0,0,1.28-.24,3.17,3.17,0,0,0,1.08-.76l.78.75a3.8,3.8,0,0,1-1.4,1A4.77,4.77,0,0,1,74.29,277Z"/><path class="cls-6" d="M81.46,277a3.39,3.39,0,0,1-1.69-.42,3.16,3.16,0,0,1-1.19-1.16,3.48,3.48,0,0,1,0-3.35,3.15,3.15,0,0,1,1.18-1.14,3.69,3.69,0,0,1,3.4,0,3.1,3.1,0,0,1,1.18,1.15,3.27,3.27,0,0,1,.42,1.68,3.33,3.33,0,0,1-.42,1.68,3.18,3.18,0,0,1-1.18,1.15A3.4,3.4,0,0,1,81.46,277Zm0-1a2.12,2.12,0,0,0,1.1-.28,1.85,1.85,0,0,0,.76-.78,2.65,2.65,0,0,0,0-2.37,1.88,1.88,0,0,0-.76-.77,2.28,2.28,0,0,0-2.19,0,2.11,2.11,0,0,0-.77.77,2.65,2.65,0,0,0,0,2.37,2.06,2.06,0,0,0,.77.78A2.11,2.11,0,0,0,81.46,276Z"/><path class="cls-6" d="M89,277a3.25,3.25,0,0,1-1.44-.3,2.19,2.19,0,0,1-1-.92,3.15,3.15,0,0,1-.34-1.55v-3.66h1.15v3.52a2,2,0,0,0,.45,1.41,1.68,1.68,0,0,0,1.27.47,2.16,2.16,0,0,0,1-.25,1.6,1.6,0,0,0,.69-.72,2.54,2.54,0,0,0,.24-1.15v-3.28h1.15v6.36H91.2v-1.72l.18.46a2.22,2.22,0,0,1-.94,1A2.85,2.85,0,0,1,89,277Z"/><path class="cls-6" d="M94.48,276.93v-6.36h1.11v1.72l-.11-.43a2,2,0,0,1,.89-1,3.12,3.12,0,0,1,1.53-.34v1.11h-.26a1.93,1.93,0,0,0-1.46.55,2.2,2.2,0,0,0-.54,1.6v3.17Z"/><path class="cls-6" d="M101.17,277a5,5,0,0,1-1.51-.22,3.34,3.34,0,0,1-1.12-.53l.48-.91a3.79,3.79,0,0,0,1,.47,3.89,3.89,0,0,0,1.22.19,2.15,2.15,0,0,0,1.16-.23.72.72,0,0,0,.35-.63.57.57,0,0,0-.21-.47,1.49,1.49,0,0,0-.57-.25,7.43,7.43,0,0,0-.79-.15c-.29,0-.57-.1-.86-.17a3.22,3.22,0,0,1-.79-.29,1.37,1.37,0,0,1-.58-.51,1.65,1.65,0,0,1-.22-.89,1.58,1.58,0,0,1,.33-1,2,2,0,0,1,.92-.67,3.7,3.7,0,0,1,1.4-.23,5.57,5.57,0,0,1,1.27.15,3.19,3.19,0,0,1,1,.42l-.49.91a2.74,2.74,0,0,0-.9-.39,4.24,4.24,0,0,0-.94-.11,2,2,0,0,0-1.13.25.74.74,0,0,0-.37.63.6.6,0,0,0,.22.49,1.56,1.56,0,0,0,.58.27,7.23,7.23,0,0,0,.79.17c.28,0,.57.1.86.16a3.69,3.69,0,0,1,.79.29,1.52,1.52,0,0,1,.57.5,1.48,1.48,0,0,1,.22.86,1.56,1.56,0,0,1-.33,1,2.15,2.15,0,0,1-1,.65A4,4,0,0,1,101.17,277Z"/><path class="cls-6" d="M108.19,277a3.74,3.74,0,0,1-1.8-.42,3.16,3.16,0,0,1-1.2-1.15,3.33,3.33,0,0,1-.42-1.68,3.27,3.27,0,0,1,.41-1.68,3.07,3.07,0,0,1,1.14-1.15,3.5,3.5,0,0,1,3.27,0,3,3,0,0,1,1.11,1.15,3.52,3.52,0,0,1,.4,1.72V274c0,.06,0,.12,0,.18h-5.41v-.83h4.81l-.47.29a2.17,2.17,0,0,0-.25-1.09,2,2,0,0,0-.73-.75,2.07,2.07,0,0,0-1.07-.27,2.1,2.1,0,0,0-1.07.27,1.88,1.88,0,0,0-.73.75,2.28,2.28,0,0,0-.27,1.11v.2a2.15,2.15,0,0,0,.3,1.13,2,2,0,0,0,.82.77,2.51,2.51,0,0,0,1.21.28,2.63,2.63,0,0,0,1-.19,2.2,2.2,0,0,0,.81-.58l.63.75a2.68,2.68,0,0,1-1.07.76A3.68,3.68,0,0,1,108.19,277Z"/><path class="cls-6" d="M114.52,277a5,5,0,0,1-1.5-.22,3.34,3.34,0,0,1-1.12-.53l.47-.91a4.19,4.19,0,0,0,2.24.66,2.17,2.17,0,0,0,1.16-.23.72.72,0,0,0,.35-.63.55.55,0,0,0-.22-.47,1.37,1.37,0,0,0-.57-.25,7.22,7.22,0,0,0-.78-.15c-.29,0-.58-.1-.87-.17a3.38,3.38,0,0,1-.79-.29,1.41,1.41,0,0,1-.57-.51,1.56,1.56,0,0,1-.22-.89,1.64,1.64,0,0,1,.32-1,2.14,2.14,0,0,1,.92-.67,3.79,3.79,0,0,1,1.41-.23,5.57,5.57,0,0,1,1.27.15,3.29,3.29,0,0,1,1,.42l-.49.91a2.74,2.74,0,0,0-.9-.39,4.38,4.38,0,0,0-.94-.11,2,2,0,0,0-1.13.25.72.72,0,0,0-.37.63.57.57,0,0,0,.22.49,1.49,1.49,0,0,0,.58.27,7,7,0,0,0,.78.17c.29,0,.58.1.87.16a3.41,3.41,0,0,1,.78.29,1.38,1.38,0,0,1,.8,1.36,1.56,1.56,0,0,1-.33,1,2.15,2.15,0,0,1-1,.65A4,4,0,0,1,114.52,277Z"/><path class="cls-6" d="M65.55,297.49a4.84,4.84,0,0,1-1.77-.31,4.29,4.29,0,0,1-1.4-7.06,4.15,4.15,0,0,1,1.41-.9,4.84,4.84,0,0,1,1.77-.32,4.75,4.75,0,0,1,1.79.33,3.66,3.66,0,0,1,1.4,1L68,291a3,3,0,0,0-1.08-.75,3.25,3.25,0,0,0-1.28-.25,3.56,3.56,0,0,0-1.32.24,3,3,0,0,0-1.74,1.7,3.37,3.37,0,0,0-.24,1.29,3.44,3.44,0,0,0,.24,1.29,3.28,3.28,0,0,0,.69,1,3.2,3.2,0,0,0,1.05.67,3.56,3.56,0,0,0,1.32.25,3.43,3.43,0,0,0,1.28-.25,3.17,3.17,0,0,0,1.08-.76l.78.75a3.8,3.8,0,0,1-1.4,1A4.8,4.8,0,0,1,65.55,297.49Z"/><path class="cls-6" d="M72.73,297.47a3.23,3.23,0,0,1-1.43-.3,2.19,2.19,0,0,1-1-.92A3.15,3.15,0,0,1,70,294.7V291h1.15v3.52A2,2,0,0,0,71.6,296a1.68,1.68,0,0,0,1.27.47,2.16,2.16,0,0,0,1-.25,1.58,1.58,0,0,0,.68-.72,2.54,2.54,0,0,0,.24-1.15V291H76v6.36h-1.1v-1.72l.18.46a2.2,2.2,0,0,1-.93,1A2.89,2.89,0,0,1,72.73,297.47Z"/><path class="cls-6" d="M80,297.47a5,5,0,0,1-1.51-.22,3.34,3.34,0,0,1-1.12-.53l.48-.91a3.79,3.79,0,0,0,1,.47,3.89,3.89,0,0,0,1.22.19,2.15,2.15,0,0,0,1.16-.23.72.72,0,0,0,.35-.63.57.57,0,0,0-.21-.47,1.49,1.49,0,0,0-.57-.25,7.43,7.43,0,0,0-.79-.15c-.29-.05-.58-.1-.86-.17a3.3,3.3,0,0,1-.8-.29,1.41,1.41,0,0,1-.57-.51,1.56,1.56,0,0,1-.22-.89,1.58,1.58,0,0,1,.33-1,2,2,0,0,1,.91-.67,3.79,3.79,0,0,1,1.41-.23,5.57,5.57,0,0,1,1.27.15,3.19,3.19,0,0,1,1,.42l-.49.92a2.57,2.57,0,0,0-.9-.4,4.31,4.31,0,0,0-.94-.11,2,2,0,0,0-1.13.25.74.74,0,0,0-.37.63.64.64,0,0,0,.22.5,1.64,1.64,0,0,0,.58.26,7.23,7.23,0,0,0,.79.17c.28,0,.57.1.86.16a3.69,3.69,0,0,1,.79.29,1.61,1.61,0,0,1,.57.5,1.5,1.5,0,0,1,.22.87,1.55,1.55,0,0,1-.33,1,2.15,2.15,0,0,1-1,.65A4,4,0,0,1,80,297.47Z"/><path class="cls-6" d="M83.28,292V291h4.06V292Zm3.1,5.49a2,2,0,0,1-1.49-.52,2,2,0,0,1-.53-1.47v-5.84h1.15v5.79a1.12,1.12,0,0,0,.26.79,1,1,0,0,0,.74.28,1.36,1.36,0,0,0,.9-.3l.36.82a1.61,1.61,0,0,1-.63.34A2.74,2.74,0,0,1,86.38,297.47Z"/><path class="cls-6" d="M91.65,297.47a3.4,3.4,0,0,1-1.7-.42,3.06,3.06,0,0,1-1.18-1.16,3.41,3.41,0,0,1,0-3.35,3.12,3.12,0,0,1,1.17-1.14,3.44,3.44,0,0,1,1.71-.42,3.38,3.38,0,0,1,1.69.41,3,3,0,0,1,1.18,1.15,3.5,3.5,0,0,1,0,3.36,3.1,3.1,0,0,1-1.18,1.15A3.39,3.39,0,0,1,91.65,297.47Zm0-1a2.11,2.11,0,0,0,1.09-.28,1.93,1.93,0,0,0,.77-.78,2.74,2.74,0,0,0,0-2.37,2,2,0,0,0-.77-.77,2.28,2.28,0,0,0-2.19,0,2,2,0,0,0-.76.77,2.57,2.57,0,0,0,0,2.37,2,2,0,0,0,.76.78A2.12,2.12,0,0,0,91.65,296.46Z"/><path class="cls-6" d="M104.5,291a2.92,2.92,0,0,1,1.35.3,2.07,2.07,0,0,1,.92.91,3.24,3.24,0,0,1,.33,1.55v3.66H106v-3.53a2,2,0,0,0-.43-1.39,1.54,1.54,0,0,0-1.21-.47,2,2,0,0,0-1,.24,1.59,1.59,0,0,0-.67.71,2.66,2.66,0,0,0-.23,1.16v3.28h-1.15v-3.53a2,2,0,0,0-.43-1.39A1.53,1.53,0,0,0,99.6,292a2,2,0,0,0-1,.24,1.61,1.61,0,0,0-.68.71,2.52,2.52,0,0,0-.24,1.16v3.28H96.54V291h1.11v1.69l-.18-.43a2.18,2.18,0,0,1,.92-1,3,3,0,0,1,1.45-.34,2.71,2.71,0,0,1,1.57.45,2.14,2.14,0,0,1,.87,1.36l-.47-.19a2.4,2.4,0,0,1,1-1.18A3.19,3.19,0,0,1,104.5,291Z"/><path class="cls-6" d="M112.06,297.47a3.74,3.74,0,0,1-1.8-.42,3.16,3.16,0,0,1-1.2-1.15,3.33,3.33,0,0,1-.42-1.68,3.4,3.4,0,0,1,.41-1.68,3.07,3.07,0,0,1,1.14-1.15,3.5,3.5,0,0,1,3.27,0,3,3,0,0,1,1.11,1.15,3.52,3.52,0,0,1,.4,1.72v.17c0,.06,0,.13,0,.18h-5.41v-.83h4.81l-.47.29a2.07,2.07,0,0,0-.25-1.09,2,2,0,0,0-.73-.75,2,2,0,0,0-1.07-.27,2.1,2.1,0,0,0-1.07.27,2,2,0,0,0-.73.75,2.29,2.29,0,0,0-.26,1.12v.19a2.14,2.14,0,0,0,.29,1.13,2,2,0,0,0,.82.77,2.51,2.51,0,0,0,1.21.28,2.63,2.63,0,0,0,1-.19,2.2,2.2,0,0,0,.81-.58l.64.75a2.79,2.79,0,0,1-1.08.76A3.64,3.64,0,0,1,112.06,297.47Z"/><path class="cls-6" d="M116.57,297.4V291h1.1v1.72l-.1-.43a2,2,0,0,1,.88-1A3.16,3.16,0,0,1,120,291v1.11h-.26a2,2,0,0,0-1.47.55,2.2,2.2,0,0,0-.54,1.6v3.17Z"/><path class="cls-6" d="M123.25,297.47a5,5,0,0,1-1.5-.22,3.34,3.34,0,0,1-1.12-.53l.48-.91a3.72,3.72,0,0,0,1,.47,4,4,0,0,0,1.23.19,2.17,2.17,0,0,0,1.16-.23.72.72,0,0,0,.35-.63.55.55,0,0,0-.22-.47,1.37,1.37,0,0,0-.57-.25,6.78,6.78,0,0,0-.78-.15c-.29-.05-.58-.1-.87-.17a3.38,3.38,0,0,1-.79-.29,1.41,1.41,0,0,1-.57-.51,1.56,1.56,0,0,1-.22-.89,1.64,1.64,0,0,1,.32-1,2.14,2.14,0,0,1,.92-.67,3.79,3.79,0,0,1,1.41-.23,5.57,5.57,0,0,1,1.27.15,3.19,3.19,0,0,1,1,.42l-.49.92a2.57,2.57,0,0,0-.9-.4,4.38,4.38,0,0,0-.94-.11,2,2,0,0,0-1.13.25.72.72,0,0,0-.37.63.61.61,0,0,0,.22.5,1.64,1.64,0,0,0,.58.26,7,7,0,0,0,.78.17c.29,0,.58.1.87.16a3.41,3.41,0,0,1,.78.29,1.56,1.56,0,0,1,.58.5,1.5,1.5,0,0,1,.22.87,1.55,1.55,0,0,1-.33,1,2.15,2.15,0,0,1-1,.65A4,4,0,0,1,123.25,297.47Z"/><path class="cls-6" d="M72.91,311.8l3.8-8.4H77.9l3.82,8.4H80.46l-3.4-7.73h.48l-3.4,7.73Zm1.62-2.1.32-1h4.73l.35,1Z"/><path class="cls-6" d="M85.36,311.87a3.36,3.36,0,0,1-1.65-.41,3,3,0,0,1-1.14-1.14,3.37,3.37,0,0,1-.42-1.7,3.32,3.32,0,0,1,.42-1.7,3,3,0,0,1,1.14-1.13,3.26,3.26,0,0,1,1.65-.41,3,3,0,0,1,1.46.36,2.62,2.62,0,0,1,1,1.08,3.75,3.75,0,0,1,.39,1.8,3.87,3.87,0,0,1-.37,1.8,2.62,2.62,0,0,1-1,1.08A2.88,2.88,0,0,1,85.36,311.87Zm.1-1a2.23,2.23,0,0,0,1.09-.27,2,2,0,0,0,.76-.79,2.57,2.57,0,0,0,0-2.37,1.94,1.94,0,0,0-.76-.77,2.24,2.24,0,0,0-1.09-.28,2.18,2.18,0,0,0-1.09.28,2,2,0,0,0-.77.77,2.57,2.57,0,0,0,0,2.37,2.09,2.09,0,0,0,.77.79A2.18,2.18,0,0,0,85.46,310.86Zm2.17.94v-1.72l.07-1.48-.12-1.47v-4.24h1.16v8.91Z"/><path class="cls-6" d="M92.59,311.8l-2.79-6.36H91l2.48,5.76H92.9l2.52-5.76h1.13l-2.79,6.36Z"/><path class="cls-6" d="M98.2,304.21a.75.75,0,0,1-.55-.21.72.72,0,0,1-.23-.53.71.71,0,0,1,.23-.54.82.82,0,0,1,1.11,0,.7.7,0,0,1,.23.53.77.77,0,0,1-.22.54A.75.75,0,0,1,98.2,304.21Zm-.57,7.59v-6.36h1.15v6.36Z"/><path class="cls-6" d="M103.75,311.87a3.56,3.56,0,0,1-1.74-.42,3.13,3.13,0,0,1-1.19-1.15,3.5,3.5,0,0,1,0-3.36,3.13,3.13,0,0,1,1.19-1.15,3.55,3.55,0,0,1,1.74-.41,3.32,3.32,0,0,1,1.54.34,2.49,2.49,0,0,1,1,1l-.88.57a1.93,1.93,0,0,0-.76-.69,2.12,2.12,0,0,0-1-.23,2.3,2.3,0,0,0-1.12.28,2,2,0,0,0-.78.77,2.38,2.38,0,0,0-.29,1.19,2.34,2.34,0,0,0,.29,1.18,2,2,0,0,0,.78.79,2.29,2.29,0,0,0,1.12.27,2.11,2.11,0,0,0,1-.22,1.93,1.93,0,0,0,.76-.69l.88.55a2.49,2.49,0,0,1-1,1A3.21,3.21,0,0,1,103.75,311.87Z"/><path class="cls-6" d="M110.54,311.87a3.67,3.67,0,0,1-1.79-.42,3,3,0,0,1-1.2-1.15,3.23,3.23,0,0,1-.43-1.68,3.43,3.43,0,0,1,.41-1.68,3.07,3.07,0,0,1,1.14-1.15,3.22,3.22,0,0,1,1.64-.41,3.11,3.11,0,0,1,1.63.41,2.77,2.77,0,0,1,1.11,1.14,3.53,3.53,0,0,1,.41,1.72c0,.05,0,.11,0,.17a1,1,0,0,1,0,.18H108v-.83h4.81l-.47.29a2.07,2.07,0,0,0-.25-1.09,1.92,1.92,0,0,0-.72-.75,2.28,2.28,0,0,0-2.15,0,1.91,1.91,0,0,0-.73.76,2.33,2.33,0,0,0-.26,1.11v.19a2.24,2.24,0,0,0,.29,1.13,2.12,2.12,0,0,0,.82.78,2.67,2.67,0,0,0,1.22.27,2.61,2.61,0,0,0,1-.19,2.2,2.2,0,0,0,.81-.58l.64.75a2.79,2.79,0,0,1-1.08.76A3.61,3.61,0,0,1,110.54,311.87Z"/><path class="cls-6" d="M79.72,332.4a4.84,4.84,0,0,1-1.77-.32,4.17,4.17,0,0,1-2.33-2.26,4.5,4.5,0,0,1,0-3.43,4.32,4.32,0,0,1,.93-1.37,4.48,4.48,0,0,1,1.41-.9,4.86,4.86,0,0,1,1.78-.31,4.79,4.79,0,0,1,1.79.33,3.72,3.72,0,0,1,1.4,1l-.78.76a3,3,0,0,0-1.08-.75,3.45,3.45,0,0,0-1.29-.25,3.51,3.51,0,0,0-1.31.24,3.12,3.12,0,0,0-1,.68,2.88,2.88,0,0,0-.69,1,3.45,3.45,0,0,0-.25,1.29,3.37,3.37,0,0,0,.25,1.29,2.92,2.92,0,0,0,.69,1,3.1,3.1,0,0,0,1,.67,3.51,3.51,0,0,0,1.31.24,3.26,3.26,0,0,0,1.29-.25,2.92,2.92,0,0,0,1.08-.76l.78.76a3.74,3.74,0,0,1-1.4,1A4.63,4.63,0,0,1,79.72,332.4Z"/><path class="cls-6" d="M86.9,332.37a3.43,3.43,0,0,1-1.7-.42A3.1,3.1,0,0,1,84,330.8a3.26,3.26,0,0,1-.43-1.68,3.17,3.17,0,0,1,.43-1.67,3.1,3.1,0,0,1,1.18-1.15,3.37,3.37,0,0,1,1.7-.42,3.43,3.43,0,0,1,1.7.42,2.92,2.92,0,0,1,1.17,1.14,3.5,3.5,0,0,1,0,3.36A3,3,0,0,1,88.6,332,3.43,3.43,0,0,1,86.9,332.37Zm0-1a2.25,2.25,0,0,0,1.1-.28,1.93,1.93,0,0,0,.76-.79,2.48,2.48,0,0,0,.28-1.18,2.45,2.45,0,0,0-.28-1.18,1.94,1.94,0,0,0-.76-.77,2.14,2.14,0,0,0-1.1-.28,2.08,2.08,0,0,0-1.09.28,2,2,0,0,0-.77.77,2.34,2.34,0,0,0-.29,1.18A2.37,2.37,0,0,0,85,330.3a2,2,0,0,0,.77.79A2.18,2.18,0,0,0,86.9,331.37Z"/><path class="cls-6" d="M94.47,332.37a3.23,3.23,0,0,1-1.43-.3,2.07,2.07,0,0,1-1-.91,3.19,3.19,0,0,1-.34-1.56v-3.66h1.15v3.53a2,2,0,0,0,.45,1.4,1.64,1.64,0,0,0,1.26.47,2.2,2.2,0,0,0,1.05-.24,1.75,1.75,0,0,0,.68-.72,2.54,2.54,0,0,0,.24-1.15v-3.29h1.15v6.36H96.63v-1.71l.18.45a2.25,2.25,0,0,1-.94,1A2.82,2.82,0,0,1,94.47,332.37Z"/><path class="cls-6" d="M101.74,332.37a5.23,5.23,0,0,1-1.5-.21,3.54,3.54,0,0,1-1.12-.53l.47-.91a4.31,4.31,0,0,0,1,.47,4.27,4.27,0,0,0,1.23.19,2.27,2.27,0,0,0,1.16-.23.72.72,0,0,0,.35-.64.53.53,0,0,0-.22-.46,1.37,1.37,0,0,0-.57-.26l-.78-.15c-.29,0-.58-.1-.87-.16a3.9,3.9,0,0,1-.79-.29,1.51,1.51,0,0,1-.57-.52,1.53,1.53,0,0,1-.22-.88,1.69,1.69,0,0,1,.32-1,2,2,0,0,1,.92-.66,3.78,3.78,0,0,1,1.41-.24,5.57,5.57,0,0,1,1.27.15,3.16,3.16,0,0,1,1.05.43l-.5.91a2.84,2.84,0,0,0-.89-.4,4.36,4.36,0,0,0-.94-.1,2.11,2.11,0,0,0-1.13.24.74.74,0,0,0-.37.63.59.59,0,0,0,.22.5,1.49,1.49,0,0,0,.58.27,6.67,6.67,0,0,0,.78.16c.29.05.58.1.87.17a3.41,3.41,0,0,1,.78.28,1.5,1.5,0,0,1,.58.51,1.46,1.46,0,0,1,.22.86,1.58,1.58,0,0,1-.33,1,2.23,2.23,0,0,1-1,.65A4.05,4.05,0,0,1,101.74,332.37Z"/><path class="cls-6" d="M108.76,332.37A3.7,3.7,0,0,1,107,332a3,3,0,0,1-1.2-1.15,3.23,3.23,0,0,1-.43-1.68,3.33,3.33,0,0,1,.42-1.68,2.84,2.84,0,0,1,1.14-1.14,3.2,3.2,0,0,1,1.64-.42,3.26,3.26,0,0,1,1.63.41,2.86,2.86,0,0,1,1.11,1.15,3.61,3.61,0,0,1,.4,1.72,1.09,1.09,0,0,1,0,.17c0,.06,0,.12,0,.18h-5.42v-.83h4.81l-.46.29a2.21,2.21,0,0,0-.26-1.1,1.86,1.86,0,0,0-.72-.75,2.1,2.1,0,0,0-1.07-.27,2.07,2.07,0,0,0-1.07.27,1.91,1.91,0,0,0-.73.76,2.23,2.23,0,0,0-.27,1.11v.19a2.27,2.27,0,0,0,.29,1.14,2,2,0,0,0,.83.77,2.6,2.6,0,0,0,1.21.28,2.66,2.66,0,0,0,1-.2,2.22,2.22,0,0,0,.8-.57l.64.74a2.85,2.85,0,0,1-1.07.77A3.69,3.69,0,0,1,108.76,332.37Z"/><path class="cls-6" d="M70.16,346.7v-8.4H73.7a5.18,5.18,0,0,1,2.38.53,3.85,3.85,0,0,1,1.59,1.48,4.51,4.51,0,0,1,0,4.39,3.9,3.9,0,0,1-1.59,1.47,5.06,5.06,0,0,1-2.38.53Zm1.21-1h2.26a3.81,3.81,0,0,0,1.81-.4,2.81,2.81,0,0,0,1.18-1.11,3.45,3.45,0,0,0,0-3.3,2.87,2.87,0,0,0-1.18-1.11,3.93,3.93,0,0,0-1.81-.39H71.37Z"/><path class="cls-6" d="M82.74,346.78a3.79,3.79,0,0,1-1.79-.42,3,3,0,0,1-1.2-1.16,3.21,3.21,0,0,1-.43-1.68,3.33,3.33,0,0,1,.42-1.68,3,3,0,0,1,1.13-1.14,3.45,3.45,0,0,1,3.28,0,2.86,2.86,0,0,1,1.11,1.15,3.61,3.61,0,0,1,.4,1.72,1.09,1.09,0,0,1,0,.17,1.1,1.1,0,0,1,0,.18H80.22v-.83H85l-.46.29a2.15,2.15,0,0,0-.26-1.09,1.74,1.74,0,0,0-.72-.75,2,2,0,0,0-1.08-.28,2,2,0,0,0-1.06.28,1.84,1.84,0,0,0-.74.75,2.39,2.39,0,0,0-.26,1.11v.19a2.27,2.27,0,0,0,.29,1.14,2,2,0,0,0,.83.77,2.73,2.73,0,0,0,2.23.08,2.17,2.17,0,0,0,.81-.57l.64.74a2.85,2.85,0,0,1-1.07.77A3.7,3.7,0,0,1,82.74,346.78Z"/><path class="cls-6" d="M89.08,346.78a5.35,5.35,0,0,1-1.51-.22,3.54,3.54,0,0,1-1.12-.53l.48-.91a4.13,4.13,0,0,0,1,.47,4.25,4.25,0,0,0,1.22.19,2.25,2.25,0,0,0,1.16-.23.72.72,0,0,0,.35-.64.55.55,0,0,0-.21-.46,1.36,1.36,0,0,0-.57-.25c-.24-.06-.5-.11-.79-.16a8.65,8.65,0,0,1-.86-.16,3.69,3.69,0,0,1-.79-.29,1.47,1.47,0,0,1-.58-.52,1.61,1.61,0,0,1-.22-.88,1.63,1.63,0,0,1,.33-1,2,2,0,0,1,.92-.66,3.69,3.69,0,0,1,1.4-.24,5.57,5.57,0,0,1,1.27.15,3,3,0,0,1,1.05.43l-.49.91a3,3,0,0,0-.9-.4,4.23,4.23,0,0,0-.94-.1,2.13,2.13,0,0,0-1.13.24.76.76,0,0,0-.37.63.61.61,0,0,0,.22.5,1.56,1.56,0,0,0,.58.27,5.51,5.51,0,0,0,.79.16c.28.05.57.1.86.17a3.68,3.68,0,0,1,.79.28,1.55,1.55,0,0,1,.57.51,1.46,1.46,0,0,1,.23.86,1.57,1.57,0,0,1-.34,1,2.23,2.23,0,0,1-.95.65A4,4,0,0,1,89.08,346.78Z"/><path class="cls-6" d="M93.84,339.12a.76.76,0,0,1-.56-.22.69.69,0,0,1-.22-.53.73.73,0,0,1,.22-.54.85.85,0,0,1,1.12,0,.67.67,0,0,1,.22.52.77.77,0,0,1-.21.55A.81.81,0,0,1,93.84,339.12Zm-.58,7.58v-6.36h1.16v6.36Z"/><path class="cls-6" d="M99.25,346.44a3.46,3.46,0,0,1-1.65-.39A2.94,2.94,0,0,1,96.45,345a3.23,3.23,0,0,1,0-3.22,2.89,2.89,0,0,1,1.15-1.07,3.46,3.46,0,0,1,1.65-.39,3.33,3.33,0,0,1,1.49.33,2.45,2.45,0,0,1,1.07,1,3.81,3.81,0,0,1,0,3.44,2.53,2.53,0,0,1-1.07,1A3.33,3.33,0,0,1,99.25,346.44Zm.15,2.66a6,6,0,0,1-1.7-.24,3.61,3.61,0,0,1-1.34-.7l.55-.89a3.46,3.46,0,0,0,1.09.6,4.17,4.17,0,0,0,1.36.22,2.3,2.3,0,0,0,1.66-.52,2.21,2.21,0,0,0,.52-1.61v-1.35l.12-1.25-.06-1.28v-1.74h1.1v5.5a3.25,3.25,0,0,1-.84,2.47A3.45,3.45,0,0,1,99.4,349.1Zm0-3.67a2.41,2.41,0,0,0,1.13-.26,2,2,0,0,0,.78-.73,2.17,2.17,0,0,0,.28-1.08,2.12,2.12,0,0,0-.28-1.08,1.89,1.89,0,0,0-.78-.73,2.41,2.41,0,0,0-1.13-.26,2.44,2.44,0,0,0-1.13.26,1.89,1.89,0,0,0-.78.73,2,2,0,0,0-.28,1.08,2.07,2.07,0,0,0,.28,1.08,2,2,0,0,0,.78.73A2.44,2.44,0,0,0,99.38,345.43Z"/><path class="cls-6" d="M108.29,340.28a3,3,0,0,1,1.37.3,2.15,2.15,0,0,1,.93.91,3.15,3.15,0,0,1,.34,1.55v3.66h-1.15v-3.53a1.94,1.94,0,0,0-.45-1.39,1.69,1.69,0,0,0-1.27-.46,2.41,2.41,0,0,0-1.07.23,1.65,1.65,0,0,0-.7.71,2.53,2.53,0,0,0-.25,1.17v3.27h-1.15v-6.36H106v1.72l-.18-.46a2.14,2.14,0,0,1,1-1A3.15,3.15,0,0,1,108.29,340.28Z"/><path class="cls-6" d="M114.89,346.78a5.35,5.35,0,0,1-1.51-.22,3.66,3.66,0,0,1-1.12-.53l.48-.91a4.13,4.13,0,0,0,1,.47,4.25,4.25,0,0,0,1.22.19,2.25,2.25,0,0,0,1.16-.23.7.7,0,0,0,.35-.64.55.55,0,0,0-.21-.46,1.36,1.36,0,0,0-.57-.25c-.24-.06-.5-.11-.79-.16a8.65,8.65,0,0,1-.86-.16,3.69,3.69,0,0,1-.79-.29,1.54,1.54,0,0,1-.58-.52,1.61,1.61,0,0,1-.22-.88,1.63,1.63,0,0,1,.33-1,2,2,0,0,1,.92-.66,3.71,3.71,0,0,1,1.41-.24,5.55,5.55,0,0,1,1.26.15,3,3,0,0,1,1.05.43l-.49.91a3,3,0,0,0-.9-.4,4.23,4.23,0,0,0-.94-.1,2.07,2.07,0,0,0-1.12.24.75.75,0,0,0-.38.63.59.59,0,0,0,.23.5,1.44,1.44,0,0,0,.57.27,5.51,5.51,0,0,0,.79.16c.29.05.57.1.86.17a3.68,3.68,0,0,1,.79.28,1.45,1.45,0,0,1,.8,1.37,1.57,1.57,0,0,1-.34,1,2.17,2.17,0,0,1-1,.65A4,4,0,0,1,114.89,346.78Z"/><path class="cls-6" d="M74.41,368.2h4.9v1h-6.1v-8.4h5.93v1.05H74.41Zm-.11-3.73h4.32v1H74.3Z"/><path class="cls-6" d="M84.48,369.24v-8.4h3.77a3.66,3.66,0,0,1,2.23.59,1.86,1.86,0,0,1,.78,1.59,2,2,0,0,1-.31,1.15,2,2,0,0,1-.82.72,2.44,2.44,0,0,1-1.11.25l.21-.36a3,3,0,0,1,1.27.25,2.12,2.12,0,0,1,.88.74A2.1,2.1,0,0,1,91.7,367a2,2,0,0,1-.81,1.67,4,4,0,0,1-2.4.59Zm1.2-1h2.76a2.88,2.88,0,0,0,1.52-.33,1.34,1.34,0,0,0,0-2.13,2.88,2.88,0,0,0-1.52-.33H85.57v-1h2.57a2.59,2.59,0,0,0,1.42-.33,1.27,1.27,0,0,0,0-2,2.59,2.59,0,0,0-1.42-.33H85.68Z"/><path class="cls-6" d="M96.12,369.32a3.43,3.43,0,0,1-1.7-.42,3.13,3.13,0,0,1-1.18-1.16,3.23,3.23,0,0,1-.43-1.68,3.13,3.13,0,0,1,1.61-2.82,3.37,3.37,0,0,1,1.7-.42,3.43,3.43,0,0,1,1.7.42A3.08,3.08,0,0,1,99,364.38a3.33,3.33,0,0,1,.42,1.68,3.27,3.27,0,0,1-.42,1.68,3.13,3.13,0,0,1-1.18,1.16A3.43,3.43,0,0,1,96.12,369.32Zm0-1a2.14,2.14,0,0,0,1.1-.28,1.9,1.9,0,0,0,.76-.78,2.52,2.52,0,0,0,.28-1.19,2.45,2.45,0,0,0-.28-1.18,1.94,1.94,0,0,0-.76-.77,2.14,2.14,0,0,0-1.1-.28,2.08,2.08,0,0,0-1.09.28,2,2,0,0,0-.77.77,2.34,2.34,0,0,0-.29,1.18,2.41,2.41,0,0,0,.29,1.19A2,2,0,0,0,95,368,2.08,2.08,0,0,0,96.12,368.31Z"/><path class="cls-6" d="M103.74,369.32a3.43,3.43,0,0,1-1.7-.42,3.13,3.13,0,0,1-1.18-1.16,3.23,3.23,0,0,1-.43-1.68,3.13,3.13,0,0,1,1.61-2.82,3.37,3.37,0,0,1,1.7-.42,3.43,3.43,0,0,1,1.7.42,3.08,3.08,0,0,1,1.18,1.14,3.33,3.33,0,0,1,.42,1.68,3.27,3.27,0,0,1-.42,1.68,3.13,3.13,0,0,1-1.18,1.16A3.43,3.43,0,0,1,103.74,369.32Zm0-1a2.14,2.14,0,0,0,1.1-.28,1.9,1.9,0,0,0,.76-.78,2.41,2.41,0,0,0,.28-1.19,2.34,2.34,0,0,0-.28-1.18,1.94,1.94,0,0,0-.76-.77,2.14,2.14,0,0,0-1.1-.28,2.08,2.08,0,0,0-1.09.28,2,2,0,0,0-.77.77,2.34,2.34,0,0,0-.29,1.18,2.41,2.41,0,0,0,.29,1.19,2,2,0,0,0,.77.78A2.08,2.08,0,0,0,103.74,368.31Z"/><path class="cls-6" d="M108.64,369.24v-8.9h1.15v8.9Zm.93-1.53,0-1.48,3.66-3.35h1.39l-2.81,2.76-.62.53Zm3.93,1.53-2.5-3.09.75-.93,3.16,4Z"/></g></g></svg>