<svg xmlns="http://www.w3.org/2000/svg" viewBox="0 0 198.94 476.04"><defs><style>.cls-1{fill:#67a1c6;}.cls-2{fill:#a5c8db;}.cls-3{fill:#af4308;}.cls-4{fill:#ffbd1a;}.cls-5{fill:#0d3f62;}.cls-6{fill:#1d1d1b;}</style></defs><g id="Layer_2" data-name="Layer 2"><g id="Layer_1-2" data-name="Layer 1"><rect class="cls-1" width="198.94" height="362.08"/><rect class="cls-2" y="108.52" width="198.94" height="34.48"/><rect class="cls-2" y="40.76" width="198.94" height="34.48"/><rect class="cls-2" y="173.04" width="198.94" height="34.48"/><rect class="cls-2" y="243.08" width="198.94" height="24.42"/><rect class="cls-2" y="307.33" width="198.94" height="34.48"/><polygon class="cls-1" points="98.94 476.04 100 476.04 0 362.08 198.94 362.08 98.94 476.04"/><rect class="cls-3" x="52.41" y="402.78" width="95.12" height="18.53" rx="5.64"/><rect class="cls-4" x="52.41" y="401.53" width="95.12" height="18.53" rx="5.64"/><rect class="cls-4" y="6.12" width="198.94" height="30.73"/><path class="cls-5" d="M52.58,26.14v-8.4h3.64a4.77,4.77,0,0,1,1.94.36,2.86,2.86,0,0,1,1.26,1,2.9,2.9,0,0,1,.45,1.62,2.79,2.79,0,0,1-1.71,2.68,4.6,4.6,0,0,1-1.94.37H53.65l.89-.87v3.19Zm2-3-.89-.92h2.46a2.05,2.05,0,0,0,1.35-.39,1.51,1.51,0,0,0,0-2.15,2.11,2.11,0,0,0-1.35-.38H53.65l.89-.92Z"/><path class="cls-5" d="M61.25,26.14v-8.4h3.63a4.81,4.81,0,0,1,2,.36,2.76,2.76,0,0,1,1.7,2.67,2.94,2.94,0,0,1-.44,1.63,2.8,2.8,0,0,1-1.26,1,4.81,4.81,0,0,1-2,.36H62.32L63.2,23v3.19Zm2-3-.88-.92h2.46a2,2,0,0,0,1.34-.39,1.49,1.49,0,0,0,0-2.15,2.06,2.06,0,0,0-1.34-.38H62.32l.88-.92Zm3.4,3-2.11-3.05h2.09l2.11,3.05Z"/><path class="cls-5" d="M70.07,26.14v-8.4h2v8.4Z"/><path class="cls-5" d="M78,26.28a4.84,4.84,0,0,1-1.8-.32,4.23,4.23,0,0,1-1.45-.9,4.15,4.15,0,0,1-1-1.38,4.62,4.62,0,0,1,0-3.48,4.18,4.18,0,0,1,1-1.38,4.25,4.25,0,0,1,1.45-.91A5.32,5.32,0,0,1,80,18a3.79,3.79,0,0,1,1.48,1.11l-1.26,1.15a3,3,0,0,0-.95-.74,2.66,2.66,0,0,0-1.16-.25,2.73,2.73,0,0,0-1.08.2,2.45,2.45,0,0,0-.85.55,2.51,2.51,0,0,0-.56.86,2.9,2.9,0,0,0-.2,1.09,2.94,2.94,0,0,0,.2,1.09,2.53,2.53,0,0,0,1.41,1.41,2.92,2.92,0,0,0,1.08.2,2.66,2.66,0,0,0,1.16-.26,2.92,2.92,0,0,0,.95-.75l1.26,1.15A3.91,3.91,0,0,1,80,25.9,5.13,5.13,0,0,1,78,26.28Z"/><path class="cls-5" d="M84.73,24.58H89.3v1.56H82.8v-8.4h6.35V19.3H84.73Zm-.14-3.47h4v1.52h-4Z"/><path class="cls-5" d="M96,26.14V19.32H93.3V17.74h7.32v1.58H97.93v6.82Z"/><path class="cls-5" d="M100.14,26.14l3.73-8.4h1.92l3.77,8.4h-2l-3.08-7.42h.77l-3.08,7.42Zm1.88-1.8.5-1.48h4.34l.5,1.48Z"/><path class="cls-5" d="M110.44,26.14v-8.4h4.1a3.94,3.94,0,0,1,2.38.6,1.89,1.89,0,0,1,.8,1.58,2,2,0,0,1-.33,1.15,2.12,2.12,0,0,1-.89.75,3.13,3.13,0,0,1-1.29.26l.23-.5a3.6,3.6,0,0,1,1.4.26,2.2,2.2,0,0,1,1,.77,2.16,2.16,0,0,1,.35,1.24,2,2,0,0,1-.85,1.68,4.29,4.29,0,0,1-2.51.61Zm1.93-1.47h2.28a2.14,2.14,0,0,0,1.14-.25,1,1,0,0,0,0-1.57,2.14,2.14,0,0,0-1.14-.25h-2.43V21.18h2.08a2,2,0,0,0,1.08-.24.83.83,0,0,0,.38-.75.81.81,0,0,0-.38-.75,2,2,0,0,0-1.08-.24h-1.93Z"/><path class="cls-5" d="M119.61,26.14v-8.4h2v6.81h4.19v1.59Z"/><path class="cls-5" d="M128.8,24.58h4.57v1.56h-6.51v-8.4h6.35V19.3H128.8Zm-.15-3.47h4v1.52h-4Z"/><path class="cls-5" d="M138.31,26.14v-8.4h3.82a5.31,5.31,0,0,1,2.41.52,4.05,4.05,0,0,1,1.63,1.46,4.45,4.45,0,0,1,0,4.43,3.91,3.91,0,0,1-1.63,1.46,5.31,5.31,0,0,1-2.41.53Zm2-1.59H142a3.17,3.17,0,0,0,1.46-.31,2.36,2.36,0,0,0,1-.92,3,3,0,0,0,0-2.77,2.28,2.28,0,0,0-1-.91,3.18,3.18,0,0,0-1.46-.32h-1.76Z"/><path class="cls-5" d="M86.82,414v-5.87h1.12l2.5,4.14h-.6l2.45-4.14h1.13V414H92.15v-3.92h.25l-2,3.29h-.6l-2-3.29h.27V414Z"/><path class="cls-5" d="M97.67,414.09a3.51,3.51,0,0,1-1.28-.23,2.94,2.94,0,0,1-1-.64,2.82,2.82,0,0,1-.67-1,3,3,0,0,1,.67-3.38,3.13,3.13,0,0,1,1-.63,3.35,3.35,0,0,1,1.28-.23,3.55,3.55,0,0,1,1.28.22,3.19,3.19,0,0,1,1,.63,2.84,2.84,0,0,1,.68,1,3.17,3.17,0,0,1,0,2.42,2.75,2.75,0,0,1-.68,1,3,3,0,0,1-1,.63A3.5,3.5,0,0,1,97.67,414.09Zm0-1.15a1.89,1.89,0,0,0,.72-.14,1.79,1.79,0,0,0,.59-.39,2.12,2.12,0,0,0,.39-2.12,2.16,2.16,0,0,0-.39-.59,1.79,1.79,0,0,0-.59-.39,1.71,1.71,0,0,0-.72-.14,1.76,1.76,0,0,0-.73.14,1.65,1.65,0,0,0-.58.39,1.79,1.79,0,0,0-.39.59,2.13,2.13,0,0,0,0,1.52,1.73,1.73,0,0,0,.39.6,1.65,1.65,0,0,0,.58.39A1.94,1.94,0,0,0,97.66,412.94Z"/><path class="cls-5" d="M101.89,414v-5.87h2.54a3.18,3.18,0,0,1,1.36.26,2,2,0,0,1,.88.73,2.08,2.08,0,0,1,.31,1.13,2.05,2.05,0,0,1-.31,1.13,2,2,0,0,1-.88.73,3.52,3.52,0,0,1-1.36.24h-1.79l.62-.58V414Zm1.37-2.08-.62-.65h1.71a1.41,1.41,0,0,0,.94-.27.92.92,0,0,0,.32-.75.94.94,0,0,0-.32-.75,1.41,1.41,0,0,0-.94-.26h-1.71l.62-.65Zm2.37,2.08-1.48-2.13h1.46l1.48,2.13Z"/><path class="cls-5" d="M109.4,412.9h3.19V414h-4.54v-5.87h4.43v1.09H109.4Zm-.1-2.43h2.82v1.07H109.3Z"/><path class="cls-5" d="M116.44,414.05a.8.8,0,0,1-.81-.81.82.82,0,1,1,1.63,0,.77.77,0,0,1-.24.58A.76.76,0,0,1,116.44,414.05Z"/><path class="cls-5" d="M118.64,414.05a.8.8,0,0,1-.81-.81.79.79,0,0,1,.81-.82.81.81,0,0,1,.58.22.83.83,0,0,1,.23.6.8.8,0,0,1-.23.58A.78.78,0,0,1,118.64,414.05Z"/><path class="cls-5" d="M120.83,414.05a.8.8,0,0,1-.81-.81.82.82,0,1,1,1.63,0,.77.77,0,0,1-.24.58A.76.76,0,0,1,120.83,414.05Z"/><path class="cls-6" d="M54.82,63.41v-.82l3.42-3.3a4.22,4.22,0,0,0,.67-.76,2,2,0,0,0,.3-.61,1.79,1.79,0,0,0,.08-.55,1.22,1.22,0,0,0-.45-1A2.08,2.08,0,0,0,57.5,56a3.34,3.34,0,0,0-1.21.22,2.34,2.34,0,0,0-.93.7l-.82-.71a3.07,3.07,0,0,1,1.29-.95,4.86,4.86,0,0,1,1.78-.33,3.8,3.8,0,0,1,1.53.29,2.13,2.13,0,0,1,1.35,2,2.78,2.78,0,0,1-.11.81,2.88,2.88,0,0,1-.4.84,6.47,6.47,0,0,1-.87,1l-3,2.93-.28-.46h5.07v1Z"/><path class="cls-6" d="M61.36,61.35v-.84L65.65,55H67l-4.26,5.5-.61-.19h6.7v1ZM66,63.41V61.35l0-1V58.49h1.13v4.92Z"/><path class="cls-6" d="M74.62,63.41h-1.2V55h1.2Zm4.93-3.74h-5V58.62h5ZM79.44,55h1.2v8.4h-1.2Z"/><path class="cls-6" d="M85.72,63.48a3.4,3.4,0,0,1-1.7-.42,3,3,0,0,1-1.18-1.15,3.26,3.26,0,0,1-.44-1.68,3.18,3.18,0,0,1,.44-1.67A3.08,3.08,0,0,1,84,57.41,3.44,3.44,0,0,1,85.72,57a3.39,3.39,0,0,1,1.69.42,2.94,2.94,0,0,1,1.18,1.14,3.5,3.5,0,0,1,0,3.36,3,3,0,0,1-1.18,1.15A3.39,3.39,0,0,1,85.72,63.48Zm0-1a2.21,2.21,0,0,0,1.09-.28,2,2,0,0,0,.77-.79,2.48,2.48,0,0,0,.27-1.18,2.45,2.45,0,0,0-.27-1.18,2,2,0,0,0-.77-.77,2.16,2.16,0,0,0-3,.77,2.34,2.34,0,0,0-.28,1.18,2.37,2.37,0,0,0,.28,1.18,2.09,2.09,0,0,0,.77.79A2.22,2.22,0,0,0,85.72,62.48Z"/><path class="cls-6" d="M93.29,63.48a3.28,3.28,0,0,1-1.44-.3,2.13,2.13,0,0,1-1-.92,3.26,3.26,0,0,1-.34-1.55V57.05H91.7v3.53a2,2,0,0,0,.45,1.4,1.68,1.68,0,0,0,1.27.47,2,2,0,0,0,1-.25,1.63,1.63,0,0,0,.69-.71,2.54,2.54,0,0,0,.24-1.15V57.05h1.15v6.36H95.45V61.7l.18.45a2.22,2.22,0,0,1-.94,1A2.75,2.75,0,0,1,93.29,63.48Z"/><path class="cls-6" d="M98.74,63.41V57.05h1.1v1.73l-.11-.43a2,2,0,0,1,.89-1,3.13,3.13,0,0,1,1.54-.35v1.12l-.14,0h-.13a1.94,1.94,0,0,0-1.46.56,2.19,2.19,0,0,0-.54,1.59v3.17Z"/><path class="cls-6" d="M110.81,63.51a4.84,4.84,0,0,1-1.77-.32,4.15,4.15,0,0,1-1.41-.9,4.44,4.44,0,0,1-.93-1.36,4.3,4.3,0,0,1,.94-4.8,4.31,4.31,0,0,1,1.41-.9,4.84,4.84,0,0,1,1.77-.32,4.91,4.91,0,0,1,1.79.33,3.66,3.66,0,0,1,1.4,1l-.78.76a3,3,0,0,0-1.08-.75,3.43,3.43,0,0,0-1.28-.25,3.56,3.56,0,0,0-1.32.24,3.22,3.22,0,0,0-1,.68,3.17,3.17,0,0,0-.69,1,3.44,3.44,0,0,0-.24,1.29,3.4,3.4,0,0,0,.24,1.29,3,3,0,0,0,1.74,1.7,3.56,3.56,0,0,0,1.32.24,3.25,3.25,0,0,0,1.28-.25,2.92,2.92,0,0,0,1.08-.76l.78.76a3.66,3.66,0,0,1-1.4,1A4.58,4.58,0,0,1,110.81,63.51Z"/><path class="cls-6" d="M119,57a3,3,0,0,1,1.37.3,2.1,2.1,0,0,1,.93.91,3.26,3.26,0,0,1,.34,1.55v3.66h-1.16V59.88a1.94,1.94,0,0,0-.45-1.39,1.67,1.67,0,0,0-1.26-.47,2.25,2.25,0,0,0-1.07.24,1.6,1.6,0,0,0-.7.71,2.4,2.4,0,0,0-.25,1.16v3.28h-1.15v-8.9h1.15v4.26l-.23-.46a2.25,2.25,0,0,1,1-1A3.22,3.22,0,0,1,119,57Z"/><path class="cls-6" d="M125.59,63.48a3,3,0,0,1-1.24-.24,1.88,1.88,0,0,1-.82-.66,1.73,1.73,0,0,1-.29-1,1.79,1.79,0,0,1,.25-.94,1.75,1.75,0,0,1,.8-.67,3.68,3.68,0,0,1,1.51-.25h2v.83h-2a1.67,1.67,0,0,0-1.16.29.92.92,0,0,0-.3.69.89.89,0,0,0,.37.75,1.66,1.66,0,0,0,1,.28,2.22,2.22,0,0,0,1.14-.28,1.7,1.7,0,0,0,.7-.84l.23.79a1.79,1.79,0,0,1-.81.89A2.86,2.86,0,0,1,125.59,63.48Zm2.09-.07V62.07l-.06-.25v-2.3a1.46,1.46,0,0,0-.43-1.13,1.78,1.78,0,0,0-1.27-.4,3.49,3.49,0,0,0-1.11.18,2.94,2.94,0,0,0-.91.5l-.48-.86a3.39,3.39,0,0,1,1.18-.61,4.94,4.94,0,0,1,1.45-.21,2.87,2.87,0,0,1,2,.64,2.48,2.48,0,0,1,.71,1.94v3.84Z"/><path class="cls-6" d="M130,58v-1h4.05v1Zm3.09,5.48A2.06,2.06,0,0,1,131.6,63a2,2,0,0,1-.52-1.48V55.66h1.15v5.78a1.1,1.1,0,0,0,.26.8,1,1,0,0,0,.73.27,1.36,1.36,0,0,0,.9-.3l.36.83a1.58,1.58,0,0,1-.63.33A2.41,2.41,0,0,1,133.09,63.48Z"/><path class="cls-6" d="M57.24,95.23v-8.4H61a3.75,3.75,0,0,1,2.23.58A1.88,1.88,0,0,1,64,89a2,2,0,0,1-1.13,1.88,2.59,2.59,0,0,1-1.12.25l.22-.36a3,3,0,0,1,1.27.25,2.05,2.05,0,0,1,.88.74,2.14,2.14,0,0,1,.32,1.2,2,2,0,0,1-.81,1.68,4.08,4.08,0,0,1-2.4.59Zm1.2-1H61.2a2.78,2.78,0,0,0,1.52-.34,1.15,1.15,0,0,0,.53-1,1.17,1.17,0,0,0-.53-1.07,2.88,2.88,0,0,0-1.52-.34H58.33v-1H60.9a2.53,2.53,0,0,0,1.41-.33,1.26,1.26,0,0,0,0-2,2.53,2.53,0,0,0-1.41-.34H58.44Z"/><path class="cls-6" d="M66.15,95.23v-8.9h1.16v8.9Z"/><path class="cls-6" d="M72.23,95.3a3.4,3.4,0,0,1-1.7-.42,3,3,0,0,1-1.18-1.15,3.26,3.26,0,0,1-.44-1.68,3.18,3.18,0,0,1,.44-1.67,3.08,3.08,0,0,1,1.17-1.15,3.44,3.44,0,0,1,1.71-.42,3.39,3.39,0,0,1,1.69.42,2.94,2.94,0,0,1,1.18,1.14,3.5,3.5,0,0,1,0,3.36,3,3,0,0,1-1.18,1.15A3.39,3.39,0,0,1,72.23,95.3Zm0-1A2.21,2.21,0,0,0,73.32,94a2,2,0,0,0,.77-.79,2.48,2.48,0,0,0,.27-1.18,2.45,2.45,0,0,0-.27-1.18,2,2,0,0,0-.77-.77,2.28,2.28,0,0,0-2.19,0,2,2,0,0,0-.76.77,2.25,2.25,0,0,0-.29,1.18,2.27,2.27,0,0,0,.29,1.18,2,2,0,0,0,.76.79A2.22,2.22,0,0,0,72.23,94.3Z"/><path class="cls-6" d="M79.76,95a3.46,3.46,0,0,1-1.65-.39A2.94,2.94,0,0,1,77,93.49a3.23,3.23,0,0,1,0-3.22,2.89,2.89,0,0,1,1.15-1.07,3.46,3.46,0,0,1,1.65-.39,3.33,3.33,0,0,1,1.49.33,2.45,2.45,0,0,1,1.07,1,3.81,3.81,0,0,1,0,3.44,2.53,2.53,0,0,1-1.07,1A3.33,3.33,0,0,1,79.76,95Zm.15,2.66a6,6,0,0,1-1.7-.24,3.48,3.48,0,0,1-1.34-.71l.55-.88a3.4,3.4,0,0,0,1.1.6,4.07,4.07,0,0,0,1.35.22,2.3,2.3,0,0,0,1.66-.52,2.21,2.21,0,0,0,.52-1.61V93.14l.12-1.26-.06-1.27V88.87h1.1v5.5a3.25,3.25,0,0,1-.84,2.47A3.45,3.45,0,0,1,79.91,97.63Zm0-3.67A2.41,2.41,0,0,0,81,93.7,2,2,0,0,0,81.8,93a2.12,2.12,0,0,0,.28-1.08,2.17,2.17,0,0,0-.28-1.08,1.94,1.94,0,0,0-.78-.72,2.41,2.41,0,0,0-1.13-.26,2.44,2.44,0,0,0-1.13.26,1.94,1.94,0,0,0-.78.72,2.07,2.07,0,0,0-.28,1.08A2,2,0,0,0,78,93a2,2,0,0,0,.78.74A2.44,2.44,0,0,0,79.89,94Z"/><path class="cls-6" d="M87.53,95.23l3.8-8.4h1.19l3.81,8.4H95.07L91.68,87.5h.48l-3.4,7.73Zm1.62-2.1.32-1H94.2l.35,1Z"/><path class="cls-6" d="M97.41,95.23V88.87h1.11V90.6l-.11-.43a2,2,0,0,1,.89-1,3.12,3.12,0,0,1,1.53-.35v1.12h-.26a1.93,1.93,0,0,0-1.46.55,2.19,2.19,0,0,0-.54,1.59v3.17Z"/><path class="cls-6" d="M101.6,89.82v-.95h4.06v.95Zm3.1,5.48a2.06,2.06,0,0,1-1.49-.51,2,2,0,0,1-.53-1.48V87.48h1.15v5.78a1.15,1.15,0,0,0,.26.8,1,1,0,0,0,.74.27,1.36,1.36,0,0,0,.9-.3l.36.83a1.91,1.91,0,0,1-.63.34A2.73,2.73,0,0,1,104.7,95.3Z"/><path class="cls-6" d="M108.06,87.65a.75.75,0,0,1-.56-.22.69.69,0,0,1-.22-.53.73.73,0,0,1,.22-.54.78.78,0,0,1,.56-.21.75.75,0,0,1,.55.21.68.68,0,0,1,.23.52.74.74,0,0,1-.22.55A.77.77,0,0,1,108.06,87.65Zm-.58,7.58V88.87h1.15v6.36Z"/><path class="cls-6" d="M113.6,95.3a3.49,3.49,0,0,1-1.73-.42,3.09,3.09,0,0,1-1.2-1.15,3.5,3.5,0,0,1,0-3.36,3,3,0,0,1,1.2-1.14,3.49,3.49,0,0,1,1.73-.42,3.45,3.45,0,0,1,1.54.34,2.41,2.41,0,0,1,1,1l-.87.56a2.07,2.07,0,0,0-.76-.69,2.15,2.15,0,0,0-1-.22,2.19,2.19,0,0,0-1.12.28,2.13,2.13,0,0,0-.78.77,2.34,2.34,0,0,0-.28,1.18,2.38,2.38,0,0,0,.28,1.19,2.08,2.08,0,0,0,.78.78,2.3,2.3,0,0,0,1.12.28,2.16,2.16,0,0,0,1-.23,1.91,1.91,0,0,0,.76-.69l.87.56a2.5,2.5,0,0,1-1,1A3.21,3.21,0,0,1,113.6,95.3Z"/><path class="cls-6" d="M117.56,95.23v-8.9h1.15v8.9Z"/><path class="cls-6" d="M123.74,95.3a3.67,3.67,0,0,1-1.79-.42,3,3,0,0,1-1.2-1.15,3.23,3.23,0,0,1-.43-1.68,3.33,3.33,0,0,1,.42-1.68,2.88,2.88,0,0,1,1.13-1.14,3.45,3.45,0,0,1,3.28,0,2.86,2.86,0,0,1,1.11,1.15,3.61,3.61,0,0,1,.4,1.72,1.09,1.09,0,0,1,0,.17,1.1,1.1,0,0,1,0,.18h-5.41v-.83H126l-.46.29a2.21,2.21,0,0,0-.26-1.1,1.86,1.86,0,0,0-.72-.75,2.28,2.28,0,0,0-2.15,0,2,2,0,0,0-.73.76,2.33,2.33,0,0,0-.26,1.11v.19a2.27,2.27,0,0,0,.29,1.14,2,2,0,0,0,.83.77,2.73,2.73,0,0,0,2.23.08,2.17,2.17,0,0,0,.81-.57l.64.74a2.85,2.85,0,0,1-1.07.77A3.69,3.69,0,0,1,123.74,95.3Z"/><path class="cls-6" d="M130.08,95.3a5.35,5.35,0,0,1-1.51-.21,3.66,3.66,0,0,1-1.12-.53l.48-.91a4.13,4.13,0,0,0,1,.47,4.25,4.25,0,0,0,1.22.19,2.25,2.25,0,0,0,1.16-.23.72.72,0,0,0,.35-.64.55.55,0,0,0-.21-.46,1.5,1.5,0,0,0-.57-.26l-.79-.15c-.29,0-.58-.1-.86-.16a4,4,0,0,1-.8-.29,1.51,1.51,0,0,1-.57-.52,1.61,1.61,0,0,1-.22-.88,1.63,1.63,0,0,1,.33-1,1.94,1.94,0,0,1,.92-.66,3.69,3.69,0,0,1,1.4-.24,5.57,5.57,0,0,1,1.27.15,3,3,0,0,1,1.05.43l-.49.91a3,3,0,0,0-.9-.4,4.29,4.29,0,0,0-.94-.1,2.07,2.07,0,0,0-1.12.24.75.75,0,0,0-.38.63.6.6,0,0,0,.23.5,1.38,1.38,0,0,0,.57.27,7.33,7.33,0,0,0,.79.16c.29.05.57.1.86.17a3.68,3.68,0,0,1,.79.28,1.55,1.55,0,0,1,.57.51,1.46,1.46,0,0,1,.23.86,1.59,1.59,0,0,1-.34,1,2.17,2.17,0,0,1-1,.65A4,4,0,0,1,130.08,95.3Z"/><path class="cls-6" d="M56.45,122.35a4.75,4.75,0,0,1-1.76-.32,4.06,4.06,0,0,1-1.41-.9,4.12,4.12,0,0,1-.93-1.36,4.62,4.62,0,0,1,0-3.43,4.19,4.19,0,0,1,.94-1.37,4.48,4.48,0,0,1,1.41-.9,4.84,4.84,0,0,1,1.77-.31,4.79,4.79,0,0,1,1.79.33,3.72,3.72,0,0,1,1.4,1l-.78.76a3.29,3.29,0,0,0-1.08-.75,3.43,3.43,0,0,0-1.28-.25,3.73,3.73,0,0,0-1.32.24,3.22,3.22,0,0,0-1.05.68,3,3,0,0,0-.69,1,3.45,3.45,0,0,0-.25,1.29,3.37,3.37,0,0,0,.25,1.29,2.92,2.92,0,0,0,.69,1,3.2,3.2,0,0,0,1.05.67,3.52,3.52,0,0,0,1.32.24A3.25,3.25,0,0,0,57.8,121a2.92,2.92,0,0,0,1.08-.76l.78.76a3.74,3.74,0,0,1-1.4,1A4.63,4.63,0,0,1,56.45,122.35Z"/><path class="cls-6" d="M61.21,122.25v-6.36h1.1v1.73l-.11-.43a2,2,0,0,1,.89-1,3.16,3.16,0,0,1,1.54-.35V117h-.27a2,2,0,0,0-1.46.55,2.19,2.19,0,0,0-.54,1.59v3.17Z"/><path class="cls-6" d="M68.78,122.32a3.85,3.85,0,0,1-1.8-.41,3.18,3.18,0,0,1-1.2-1.16,3.33,3.33,0,0,1-.42-1.68,3.43,3.43,0,0,1,.41-1.68,3,3,0,0,1,1.14-1.14,3.43,3.43,0,0,1,3.27,0,2.86,2.86,0,0,1,1.11,1.15,3.5,3.5,0,0,1,.4,1.72v.17a1.1,1.1,0,0,1,0,.18H66.26v-.83h4.81l-.47.29a2.1,2.1,0,0,0-.25-1.1,1.88,1.88,0,0,0-.73-.75,2,2,0,0,0-1.07-.27,2.1,2.1,0,0,0-1.07.27,2,2,0,0,0-.73.76,2.27,2.27,0,0,0-.26,1.11v.19a2.17,2.17,0,0,0,.29,1.14,2,2,0,0,0,.82.77,2.75,2.75,0,0,0,2.24.08,2.17,2.17,0,0,0,.81-.57l.64.74a2.81,2.81,0,0,1-1.08.77A3.64,3.64,0,0,1,68.78,122.32Z"/><path class="cls-6" d="M75,122.32a3,3,0,0,1-1.24-.24,1.88,1.88,0,0,1-.82-.66,1.65,1.65,0,0,1-.29-1,1.84,1.84,0,0,1,.24-.93,1.79,1.79,0,0,1,.81-.68,3.85,3.85,0,0,1,1.51-.25h2v.83h-2a1.73,1.73,0,0,0-1.16.29.92.92,0,0,0-.3.7.89.89,0,0,0,.37.75,1.73,1.73,0,0,0,1,.28,2.22,2.22,0,0,0,1.14-.29,1.67,1.67,0,0,0,.7-.84l.23.79a1.75,1.75,0,0,1-.81.89A2.88,2.88,0,0,1,75,122.32Zm2.09-.07v-1.34l-.06-.25v-2.3a1.47,1.47,0,0,0-.43-1.13,1.79,1.79,0,0,0-1.28-.4,3.47,3.47,0,0,0-1.1.18,2.94,2.94,0,0,0-.91.5l-.48-.86A3.39,3.39,0,0,1,74,116a4.94,4.94,0,0,1,1.45-.21,2.87,2.87,0,0,1,2,.64,2.48,2.48,0,0,1,.71,1.94v3.84Z"/><path class="cls-6" d="M79.37,116.84v-1h4.06v1Zm3.1,5.48a2.06,2.06,0,0,1-1.49-.51,2,2,0,0,1-.53-1.48V114.5h1.16v5.78a1.15,1.15,0,0,0,.25.8,1,1,0,0,0,.74.27,1.36,1.36,0,0,0,.9-.3l.36.83a1.73,1.73,0,0,1-.63.34A2.73,2.73,0,0,1,82.47,122.32Z"/><path class="cls-6" d="M87.85,122.32a3.85,3.85,0,0,1-1.8-.41,3.18,3.18,0,0,1-1.2-1.16,3.61,3.61,0,0,1,0-3.36A3,3,0,0,1,86,116.25a3.43,3.43,0,0,1,3.27,0,2.86,2.86,0,0,1,1.11,1.15,3.5,3.5,0,0,1,.4,1.72v.17c0,.06,0,.12,0,.18H85.33v-.83h4.81l-.47.29a2.2,2.2,0,0,0-.25-1.1,2,2,0,0,0-.73-.75,2.26,2.26,0,0,0-2.14,0,1.91,1.91,0,0,0-.73.76,2.28,2.28,0,0,0-.27,1.11v.19a2.18,2.18,0,0,0,.3,1.14,2,2,0,0,0,.82.77,2.75,2.75,0,0,0,2.24.08,2.17,2.17,0,0,0,.81-.57l.63.74a2.7,2.7,0,0,1-1.07.77A3.68,3.68,0,0,1,87.85,122.32Z"/><path class="cls-6" d="M95.75,122.25v-8.4H99a4.61,4.61,0,0,1,1.88.35,2.66,2.66,0,0,1,1.2,1,3.14,3.14,0,0,1,0,3.14,2.7,2.7,0,0,1-1.2,1,4.44,4.44,0,0,1-1.88.36H96.41l.54-.57v3.11Zm1.2-3-.54-.6H99a2.68,2.68,0,0,0,1.75-.49,1.93,1.93,0,0,0,0-2.78A2.68,2.68,0,0,0,99,114.9H96.41l.54-.6Z"/><path class="cls-6" d="M103.89,122.25v-6.36H105v1.73l-.1-.43a1.94,1.94,0,0,1,.88-1,3.16,3.16,0,0,1,1.54-.35V117h-.26a2,2,0,0,0-1.47.55,2.19,2.19,0,0,0-.54,1.59v3.17Z"/><path class="cls-6" d="M111.46,122.32a3.81,3.81,0,0,1-1.79-.41,3,3,0,0,1-1.2-1.16,3.23,3.23,0,0,1-.43-1.68,3.33,3.33,0,0,1,.42-1.68,2.91,2.91,0,0,1,1.14-1.14,3.19,3.19,0,0,1,1.63-.42,3.27,3.27,0,0,1,1.64.41,2.86,2.86,0,0,1,1.11,1.15,3.61,3.61,0,0,1,.4,1.72,1.09,1.09,0,0,1,0,.17,1.1,1.1,0,0,1,0,.18h-5.41v-.83h4.81l-.46.29a2.21,2.21,0,0,0-.26-1.1,1.86,1.86,0,0,0-.72-.75,2.11,2.11,0,0,0-1.08-.27,2.06,2.06,0,0,0-1.06.27,1.84,1.84,0,0,0-.73.76,2.28,2.28,0,0,0-.27,1.11v.19a2.27,2.27,0,0,0,.29,1.14,2,2,0,0,0,.83.77,2.73,2.73,0,0,0,2.23.08,2.17,2.17,0,0,0,.81-.57l.64.74a2.85,2.85,0,0,1-1.07.77A3.69,3.69,0,0,1,111.46,122.32Z"/><path class="cls-6" d="M115.06,116.84v-1h4.06v1Zm1.08,5.41v-6.92a2,2,0,0,1,.55-1.5,2.07,2.07,0,0,1,1.55-.55,2.84,2.84,0,0,1,.72.09,1.57,1.57,0,0,1,.58.28l-.35.88a1.39,1.39,0,0,0-.89-.31,1,1,0,0,0-.77.29,1.2,1.2,0,0,0-.26.83v.85l0,.53v5.53Zm4.65-7.58a.75.75,0,0,1-.56-.22.69.69,0,0,1-.22-.53.73.73,0,0,1,.22-.54.84.84,0,0,1,1.11,0,.68.68,0,0,1,.23.52.78.78,0,0,1-.22.55A.77.77,0,0,1,120.79,114.67Zm-.58,7.58v-6.36h1.15v6.36Z"/><path class="cls-6" d="M123.56,122.25v-8.9h1.15v8.9Z"/><path class="cls-6" d="M129.74,122.32a3.85,3.85,0,0,1-1.8-.41,3.18,3.18,0,0,1-1.2-1.16,3.61,3.61,0,0,1,0-3.36,3,3,0,0,1,1.14-1.14,3.43,3.43,0,0,1,3.27,0,2.86,2.86,0,0,1,1.11,1.15,3.5,3.5,0,0,1,.4,1.72v.17c0,.06,0,.12,0,.18h-5.41v-.83H132l-.47.29a2.1,2.1,0,0,0-.25-1.1,2,2,0,0,0-.73-.75,2.07,2.07,0,0,0-1.07-.27,2.1,2.1,0,0,0-1.07.27,2,2,0,0,0-.73.76,2.28,2.28,0,0,0-.27,1.11v.19a2.18,2.18,0,0,0,.3,1.14,2,2,0,0,0,.82.77,2.75,2.75,0,0,0,2.24.08,2.17,2.17,0,0,0,.81-.57l.64.74a2.81,2.81,0,0,1-1.08.77A3.64,3.64,0,0,1,129.74,122.32Z"/><path class="cls-6" d="M132.82,123.45l4-11.3h1.05l-4,11.3Z"/><path class="cls-6" d="M62.39,136.65v-8.4h3.28a4.64,4.64,0,0,1,1.88.35,2.66,2.66,0,0,1,1.2,1,3.14,3.14,0,0,1,0,3.14,2.7,2.7,0,0,1-1.2,1,4.47,4.47,0,0,1-1.88.36H63.05l.54-.57v3.11Zm1.2-3-.54-.59h2.58a2.64,2.64,0,0,0,1.74-.5,1.91,1.91,0,0,0,0-2.78,2.64,2.64,0,0,0-1.74-.49H63.05l.54-.6Z"/><path class="cls-6" d="M70.52,136.65v-6.36h1.11V132l-.11-.43a2,2,0,0,1,.89-1,3.12,3.12,0,0,1,1.53-.35v1.12h-.26a1.93,1.93,0,0,0-1.46.55,2.2,2.2,0,0,0-.54,1.6v3.16Z"/><path class="cls-6" d="M78,136.73a3.54,3.54,0,0,1-1.7-.42,3.13,3.13,0,0,1-1.18-1.16,3.23,3.23,0,0,1-.43-1.68,3.17,3.17,0,0,1,.43-1.67,3.22,3.22,0,0,1,1.17-1.15,3.67,3.67,0,0,1,3.41,0,3,3,0,0,1,1.17,1.14,3.5,3.5,0,0,1,0,3.36,3,3,0,0,1-1.17,1.16A3.54,3.54,0,0,1,78,136.73Zm0-1a2.25,2.25,0,0,0,1.1-.28,2,2,0,0,0,.76-.78,2.52,2.52,0,0,0,.27-1.19,2.45,2.45,0,0,0-.27-1.18,1.94,1.94,0,0,0-.76-.77,2.14,2.14,0,0,0-1.1-.28,2.08,2.08,0,0,0-1.09.28,2,2,0,0,0-.77.77,2.34,2.34,0,0,0-.29,1.18,2.41,2.41,0,0,0,.29,1.19,2.06,2.06,0,0,0,.77.78A2.18,2.18,0,0,0,78,135.72Z"/><path class="cls-6" d="M85.66,136.73a3.67,3.67,0,0,1-1.74-.42,3.16,3.16,0,0,1-1.19-1.16,3.5,3.5,0,0,1,0-3.36,3.1,3.1,0,0,1,1.19-1.14,3.56,3.56,0,0,1,1.74-.42,3.49,3.49,0,0,1,1.54.34,2.46,2.46,0,0,1,1,1l-.88.56a1.93,1.93,0,0,0-.76-.69,2.26,2.26,0,0,0-1-.22,2.18,2.18,0,0,0-1.11.28,2,2,0,0,0-.78.77,2.34,2.34,0,0,0-.29,1.18,2.38,2.38,0,0,0,.29,1.19,2,2,0,0,0,.78.78,2.29,2.29,0,0,0,1.11.28,2.13,2.13,0,0,0,1-.23,1.83,1.83,0,0,0,.76-.68l.88.55a2.49,2.49,0,0,1-1,1A3.24,3.24,0,0,1,85.66,136.73Z"/><path class="cls-6" d="M92.45,136.73a3.86,3.86,0,0,1-1.8-.42,3.11,3.11,0,0,1-1.2-1.16,3.3,3.3,0,0,1-.42-1.68,3.43,3.43,0,0,1,.41-1.68,3,3,0,0,1,1.14-1.14,3.43,3.43,0,0,1,3.27,0A2.86,2.86,0,0,1,95,131.79a3.5,3.5,0,0,1,.4,1.72v.17c0,.06,0,.12,0,.18H89.93V133h4.81l-.47.29a2,2,0,0,0-.25-1.09,1.88,1.88,0,0,0-.73-.75,2,2,0,0,0-1.07-.28,2,2,0,0,0-1.07.28,2,2,0,0,0-.73.75,2.27,2.27,0,0,0-.26,1.11v.19a2.17,2.17,0,0,0,.29,1.14,2,2,0,0,0,.82.77,2.63,2.63,0,0,0,1.21.28,2.82,2.82,0,0,0,1-.19,2.32,2.32,0,0,0,.81-.58l.64.74a2.81,2.81,0,0,1-1.08.77A3.64,3.64,0,0,1,92.45,136.73Z"/><path class="cls-6" d="M98.78,136.73a5.28,5.28,0,0,1-1.5-.22,3.54,3.54,0,0,1-1.12-.53l.48-.91a4,4,0,0,0,1,.47,4.27,4.27,0,0,0,1.23.19,2.27,2.27,0,0,0,1.16-.23.72.72,0,0,0,.35-.64.53.53,0,0,0-.22-.46,1.25,1.25,0,0,0-.57-.25c-.23-.06-.49-.11-.78-.16a8.85,8.85,0,0,1-.87-.16,3.9,3.9,0,0,1-.79-.29,1.51,1.51,0,0,1-.57-.52,1.53,1.53,0,0,1-.22-.88,1.63,1.63,0,0,1,.33-1,2,2,0,0,1,.91-.66,3.78,3.78,0,0,1,1.41-.24,5.57,5.57,0,0,1,1.27.15,3,3,0,0,1,1,.43l-.49.91a3,3,0,0,0-.9-.4,4.36,4.36,0,0,0-.94-.1,2.13,2.13,0,0,0-1.13.24.74.74,0,0,0-.37.63.58.58,0,0,0,.22.5,1.49,1.49,0,0,0,.58.27,5.36,5.36,0,0,0,.78.16c.29,0,.58.1.87.17a3.41,3.41,0,0,1,.78.28,1.5,1.5,0,0,1,.58.51,1.46,1.46,0,0,1,.22.86,1.56,1.56,0,0,1-.33,1,2.23,2.23,0,0,1-1,.65A4,4,0,0,1,98.78,136.73Z"/><path class="cls-6" d="M104.8,136.73a5.35,5.35,0,0,1-1.51-.22,3.54,3.54,0,0,1-1.12-.53l.48-.91a4.13,4.13,0,0,0,1,.47,4.2,4.2,0,0,0,1.22.19,2.25,2.25,0,0,0,1.16-.23.72.72,0,0,0,.35-.64.55.55,0,0,0-.21-.46,1.36,1.36,0,0,0-.57-.25c-.24-.06-.5-.11-.79-.16a8.65,8.65,0,0,1-.86-.16,3.69,3.69,0,0,1-.79-.29,1.44,1.44,0,0,1-.8-1.4,1.63,1.63,0,0,1,.33-1,2,2,0,0,1,.91-.66,3.78,3.78,0,0,1,1.41-.24,5.57,5.57,0,0,1,1.27.15,3,3,0,0,1,1,.43l-.49.91a3,3,0,0,0-.9-.4,4.23,4.23,0,0,0-.94-.1,2.13,2.13,0,0,0-1.13.24.76.76,0,0,0-.37.63.61.61,0,0,0,.22.5,1.56,1.56,0,0,0,.58.27,5.51,5.51,0,0,0,.79.16c.28,0,.57.1.86.17a3.68,3.68,0,0,1,.79.28,1.42,1.42,0,0,1,.79,1.37,1.56,1.56,0,0,1-.33,1,2.23,2.23,0,0,1-.95.65A4,4,0,0,1,104.8,136.73Z"/><path class="cls-6" d="M109.56,129.07a.76.76,0,0,1-.56-.22.69.69,0,0,1-.22-.53.73.73,0,0,1,.22-.54.85.85,0,0,1,1.12,0,.67.67,0,0,1,.22.52.74.74,0,0,1-.22.55A.77.77,0,0,1,109.56,129.07Zm-.58,7.58v-6.36h1.16v6.36Z"/><path class="cls-6" d="M115.73,130.23a3,3,0,0,1,1.37.3,2.12,2.12,0,0,1,.93.92,3.08,3.08,0,0,1,.34,1.54v3.66h-1.15v-3.53a1.94,1.94,0,0,0-.45-1.39,1.69,1.69,0,0,0-1.27-.46,2.41,2.41,0,0,0-1.07.23,1.65,1.65,0,0,0-.7.71,2.56,2.56,0,0,0-.25,1.17v3.27h-1.15v-6.36h1.11V132l-.18-.46a2.14,2.14,0,0,1,1-1A3.15,3.15,0,0,1,115.73,130.23Z"/><path class="cls-6" d="M123.14,136.39a3.46,3.46,0,0,1-1.65-.39,3,3,0,0,1-1.57-2.69,3.05,3.05,0,0,1,.42-1.62,3,3,0,0,1,1.15-1.07,3.46,3.46,0,0,1,1.65-.39,3.33,3.33,0,0,1,1.49.33,2.52,2.52,0,0,1,1.08,1,3.9,3.9,0,0,1,0,3.44,2.61,2.61,0,0,1-1.08,1A3.2,3.2,0,0,1,123.14,136.39Zm.15,2.66a6,6,0,0,1-1.7-.24,3.69,3.69,0,0,1-1.34-.7l.55-.89a3.4,3.4,0,0,0,1.1.6,4.07,4.07,0,0,0,1.35.22,2.28,2.28,0,0,0,1.66-.52,2.21,2.21,0,0,0,.53-1.61v-1.34l.12-1.26L125.5,132v-1.74h1.09v5.5a3.25,3.25,0,0,1-.84,2.47A3.45,3.45,0,0,1,123.29,139.05Zm0-3.67a2.37,2.37,0,0,0,1.12-.26,2,2,0,0,0,.78-.73,2.07,2.07,0,0,0,.28-1.08,2,2,0,0,0-.28-1.08,1.89,1.89,0,0,0-.78-.73,2.37,2.37,0,0,0-1.12-.26,2.46,2.46,0,0,0-1.14.26,1.89,1.89,0,0,0-.78.73,2,2,0,0,0-.28,1.08,2.07,2.07,0,0,0,.28,1.08,2,2,0,0,0,.78.73A2.46,2.46,0,0,0,123.28,135.38Z"/><path class="cls-6" d="M61.58,160.19h-1.2v-8.4h5.93v1.05H61.58Zm-.12-4.42h4.33v1H61.46Z"/><path class="cls-6" d="M67.71,160.19v-6.36h1.11v1.73l-.11-.43a2,2,0,0,1,.89-1,3.12,3.12,0,0,1,1.53-.35v1.12h-.26a1.93,1.93,0,0,0-1.46.55,2.2,2.2,0,0,0-.54,1.6v3.16Z"/><path class="cls-6" d="M75.29,160.27a3.74,3.74,0,0,1-1.8-.42,3.11,3.11,0,0,1-1.2-1.16,3.27,3.27,0,0,1-.42-1.68,3.32,3.32,0,0,1,.41-1.68,3,3,0,0,1,1.14-1.14,3.43,3.43,0,0,1,3.27,0,2.93,2.93,0,0,1,1.11,1.15,3.5,3.5,0,0,1,.4,1.72v.17c0,.06,0,.12,0,.18H72.77v-.83h4.81l-.47.29a2.17,2.17,0,0,0-.25-1.09,2,2,0,0,0-.73-.75,2.07,2.07,0,0,0-1.07-.27A2.1,2.1,0,0,0,74,155a2,2,0,0,0-.73.75,2.28,2.28,0,0,0-.27,1.11v.19a2.16,2.16,0,0,0,.3,1.14,2,2,0,0,0,.82.77,2.51,2.51,0,0,0,1.21.28,2.82,2.82,0,0,0,1-.19,2.2,2.2,0,0,0,.81-.58l.63.74a2.61,2.61,0,0,1-1.07.77A3.68,3.68,0,0,1,75.29,160.27Z"/><path class="cls-6" d="M82.63,160.27a3.67,3.67,0,0,1-1.79-.42,3,3,0,0,1-1.2-1.16,3.18,3.18,0,0,1-.43-1.68,3.43,3.43,0,0,1,.41-1.68,3,3,0,0,1,1.14-1.14,3.43,3.43,0,0,1,3.27,0,2.8,2.8,0,0,1,1.11,1.15,3.5,3.5,0,0,1,.41,1.72s0,.1,0,.17a1.1,1.1,0,0,1,0,.18H80.11v-.83h4.81l-.47.29a2.07,2.07,0,0,0-.25-1.09,1.92,1.92,0,0,0-.72-.75,2.28,2.28,0,0,0-2.15,0,2,2,0,0,0-.73.75,2.39,2.39,0,0,0-.26,1.11v.19a2.25,2.25,0,0,0,.29,1.14,2,2,0,0,0,.82.77,2.55,2.55,0,0,0,1.22.28,2.8,2.8,0,0,0,1-.19,2.2,2.2,0,0,0,.81-.58l.64.74a2.71,2.71,0,0,1-1.08.77A3.61,3.61,0,0,1,82.63,160.27Z"/><path class="cls-6" d="M93,160.19l-3.69-8.4h1.29l3.4,7.76h-.75l3.42-7.76h1.2l-3.68,8.4Z"/><path class="cls-6" d="M99.19,152.61a.76.76,0,0,1-.56-.22.69.69,0,0,1-.22-.52.7.7,0,0,1,.22-.54.76.76,0,0,1,.56-.22.79.79,0,0,1,.56.21.67.67,0,0,1,.22.52.74.74,0,0,1-.22.55A.73.73,0,0,1,99.19,152.61Zm-.58,7.58v-6.36h1.16v6.36Z"/><path class="cls-6" d="M104.59,160.27a3.31,3.31,0,0,1-1.65-.41,3,3,0,0,1-1.15-1.14,3.39,3.39,0,0,1-.42-1.71,3.31,3.31,0,0,1,.42-1.69,3,3,0,0,1,1.15-1.14,3.31,3.31,0,0,1,1.65-.41,2.91,2.91,0,0,1,1.45.36,2.65,2.65,0,0,1,1,1.08,3.75,3.75,0,0,1,.39,1.8,3.87,3.87,0,0,1-.38,1.8,2.57,2.57,0,0,1-1,1.09A3,3,0,0,1,104.59,160.27Zm.1-1a2.07,2.07,0,0,0,1.08-.28,1.93,1.93,0,0,0,.77-.78,2.41,2.41,0,0,0,.28-1.19,2.34,2.34,0,0,0-.28-1.18,2,2,0,0,0-.77-.77,2.07,2.07,0,0,0-1.08-.28,2.12,2.12,0,0,0-1.1.28,2,2,0,0,0-.76.77,2.25,2.25,0,0,0-.29,1.18,2.31,2.31,0,0,0,.29,1.19,2,2,0,0,0,.76.78A2.12,2.12,0,0,0,104.69,159.26Zm2.17.93v-1.71l.07-1.48-.12-1.47v-4.24H108v8.9Z"/><path class="cls-6" d="M113,160.27a3.74,3.74,0,0,1-1.8-.42,3.11,3.11,0,0,1-1.2-1.16,3.27,3.27,0,0,1-.42-1.68,3.32,3.32,0,0,1,.41-1.68,3,3,0,0,1,1.14-1.14,3.43,3.43,0,0,1,3.27,0,2.93,2.93,0,0,1,1.11,1.15,3.5,3.5,0,0,1,.4,1.72v.17c0,.06,0,.12,0,.18h-5.41v-.83h4.81l-.47.29a2.07,2.07,0,0,0-.25-1.09,2,2,0,0,0-.73-.75,2,2,0,0,0-1.07-.27,2.1,2.1,0,0,0-1.07.27,2,2,0,0,0-.73.75,2.27,2.27,0,0,0-.26,1.11v.19a2.15,2.15,0,0,0,.29,1.14,2,2,0,0,0,.82.77,2.51,2.51,0,0,0,1.21.28,2.82,2.82,0,0,0,1-.19,2.2,2.2,0,0,0,.81-.58l.64.74a2.71,2.71,0,0,1-1.08.77A3.64,3.64,0,0,1,113,160.27Z"/><path class="cls-6" d="M120.21,160.27a3.39,3.39,0,0,1-1.69-.42,3.16,3.16,0,0,1-1.19-1.16,3.33,3.33,0,0,1-.43-1.68,3.27,3.27,0,0,1,.43-1.67,3.18,3.18,0,0,1,1.18-1.15,3.65,3.65,0,0,1,3.4,0,3.08,3.08,0,0,1,1.18,1.14,3.33,3.33,0,0,1,.42,1.68,3.27,3.27,0,0,1-.42,1.68,3.13,3.13,0,0,1-1.18,1.16A3.4,3.4,0,0,1,120.21,160.27Zm0-1a2.12,2.12,0,0,0,1.1-.28,1.85,1.85,0,0,0,.76-.78,2.41,2.41,0,0,0,.28-1.19,2.34,2.34,0,0,0-.28-1.18,1.88,1.88,0,0,0-.76-.77,2.16,2.16,0,0,0-3,.77,2.34,2.34,0,0,0-.28,1.18,2.41,2.41,0,0,0,.28,1.19,2.06,2.06,0,0,0,.77.78A2.11,2.11,0,0,0,120.21,159.26Z"/><path class="cls-6" d="M126.93,160.27a5.28,5.28,0,0,1-1.5-.22,3.34,3.34,0,0,1-1.12-.53l.47-.91a4.31,4.31,0,0,0,1,.47,4,4,0,0,0,1.23.19,2.27,2.27,0,0,0,1.16-.23.72.72,0,0,0,.35-.63.55.55,0,0,0-.22-.47,1.37,1.37,0,0,0-.57-.25,6.78,6.78,0,0,0-.78-.15c-.29,0-.58-.1-.87-.17a3.9,3.9,0,0,1-.79-.29,1.43,1.43,0,0,1-.57-.52,1.53,1.53,0,0,1-.22-.88,1.69,1.69,0,0,1,.32-1,2.06,2.06,0,0,1,.92-.66,3.78,3.78,0,0,1,1.41-.24,5.57,5.57,0,0,1,1.27.15,3.39,3.39,0,0,1,1,.43l-.49.91a2.74,2.74,0,0,0-.9-.39,3.83,3.83,0,0,0-.94-.11A2.13,2.13,0,0,0,126,155a.74.74,0,0,0-.37.63.58.58,0,0,0,.22.5,1.49,1.49,0,0,0,.58.27,5.09,5.09,0,0,0,.78.16c.29.05.58.1.87.17a3.41,3.41,0,0,1,.78.28,1.5,1.5,0,0,1,.58.51,1.46,1.46,0,0,1,.22.86,1.56,1.56,0,0,1-.33,1,2.15,2.15,0,0,1-.95.65A4,4,0,0,1,126.93,160.27Z"/><path class="cls-6" d="M64.85,187.07h-1.2v-8.41h5.93v1.05H64.85Zm-.12-4.43h4.34v1H64.73Z"/><path class="cls-6" d="M71,187.07V180.7h1.1v1.73L72,182a2,2,0,0,1,.89-1,3.13,3.13,0,0,1,1.54-.34v1.11h-.27a1.93,1.93,0,0,0-1.46.55,2.2,2.2,0,0,0-.54,1.6v3.17Z"/><path class="cls-6" d="M78.56,187.14a3.74,3.74,0,0,1-1.8-.42,3.16,3.16,0,0,1-1.2-1.15,3.63,3.63,0,0,1,0-3.37,3,3,0,0,1,1.14-1.14,3.5,3.5,0,0,1,3.27,0,2.93,2.93,0,0,1,1.11,1.15,3.52,3.52,0,0,1,.4,1.72v.17c0,.06,0,.12,0,.18H76v-.83h4.81l-.47.29a2.07,2.07,0,0,0-.25-1.09,2,2,0,0,0-.73-.75,2,2,0,0,0-1.07-.27,2.1,2.1,0,0,0-1.07.27,2,2,0,0,0-.73.75,2.27,2.27,0,0,0-.26,1.11v.2a2.14,2.14,0,0,0,.29,1.13,2,2,0,0,0,.82.77,2.51,2.51,0,0,0,1.21.28,2.63,2.63,0,0,0,1-.19,2.2,2.2,0,0,0,.81-.58l.64.75a2.79,2.79,0,0,1-1.08.76A3.64,3.64,0,0,1,78.56,187.14Z"/><path class="cls-6" d="M85.9,187.14a3.67,3.67,0,0,1-1.79-.42,3,3,0,0,1-1.2-1.15,3.23,3.23,0,0,1-.43-1.68,3.34,3.34,0,0,1,.42-1.69A3,3,0,0,1,84,181.06a3.52,3.52,0,0,1,3.28,0,2.93,2.93,0,0,1,1.11,1.15,3.64,3.64,0,0,1,.4,1.72,1,1,0,0,1,0,.17,1.1,1.1,0,0,1,0,.18H83.38v-.83h4.81l-.46.29a2.17,2.17,0,0,0-.26-1.09,1.86,1.86,0,0,0-.72-.75,2.28,2.28,0,0,0-2.15,0,2,2,0,0,0-.73.75,2.39,2.39,0,0,0-.26,1.11v.2a2.24,2.24,0,0,0,.29,1.13,2,2,0,0,0,.83.77,2.49,2.49,0,0,0,1.21.28,2.58,2.58,0,0,0,1-.19,2.2,2.2,0,0,0,.81-.58l.64.75a2.83,2.83,0,0,1-1.07.76A3.7,3.7,0,0,1,85.9,187.14Z"/><path class="cls-6" d="M95.48,187.07v-7.36H92.6v-1.05h7v1.05H96.67v7.36Z"/><path class="cls-6" d="M102.75,187.14a3.43,3.43,0,0,1-1.7-.42,3.13,3.13,0,0,1-1.18-1.16,3.48,3.48,0,0,1,0-3.35,3.15,3.15,0,0,1,1.18-1.14,3.28,3.28,0,0,1,1.7-.42,3.42,3.42,0,0,1,1.7.41,3,3,0,0,1,1.17,1.14,3.52,3.52,0,0,1,0,3.37,3.08,3.08,0,0,1-1.17,1.15A3.43,3.43,0,0,1,102.75,187.14Zm0-1a2.14,2.14,0,0,0,1.1-.28,1.9,1.9,0,0,0,.76-.78,2.51,2.51,0,0,0,.28-1.18,2.46,2.46,0,0,0-.28-1.19,1.94,1.94,0,0,0-.76-.77,2.14,2.14,0,0,0-1.1-.28,2.08,2.08,0,0,0-1.09.28,2,2,0,0,0-.77.77,2.36,2.36,0,0,0-.29,1.19,2.4,2.4,0,0,0,.29,1.18,2,2,0,0,0,.77.78A2.08,2.08,0,0,0,102.75,186.13Z"/><path class="cls-6" d="M110.37,187.14a3.43,3.43,0,0,1-1.7-.42,3.13,3.13,0,0,1-1.18-1.16,3.48,3.48,0,0,1,0-3.35,3.15,3.15,0,0,1,1.18-1.14,3.28,3.28,0,0,1,1.7-.42,3.42,3.42,0,0,1,1.7.41,3,3,0,0,1,1.17,1.14,3.52,3.52,0,0,1,0,3.37,3.08,3.08,0,0,1-1.17,1.15A3.43,3.43,0,0,1,110.37,187.14Zm0-1a2.14,2.14,0,0,0,1.1-.28,1.9,1.9,0,0,0,.76-.78,2.51,2.51,0,0,0,.28-1.18,2.46,2.46,0,0,0-.28-1.19,1.94,1.94,0,0,0-.76-.77,2.14,2.14,0,0,0-1.1-.28,2.08,2.08,0,0,0-1.09.28,2,2,0,0,0-.77.77,2.36,2.36,0,0,0-.29,1.19,2.4,2.4,0,0,0,.29,1.18,2,2,0,0,0,.77.78A2.08,2.08,0,0,0,110.37,186.13Z"/><path class="cls-6" d="M115.27,187.07v-8.91h1.15v8.91Z"/><path class="cls-6" d="M120.44,187.14a5,5,0,0,1-1.51-.22,3.34,3.34,0,0,1-1.12-.53l.48-.91a3.79,3.79,0,0,0,1,.47,3.89,3.89,0,0,0,1.22.19,2.15,2.15,0,0,0,1.16-.23.7.7,0,0,0,.35-.63.57.57,0,0,0-.21-.47,1.49,1.49,0,0,0-.57-.25,7.43,7.43,0,0,0-.79-.15c-.29,0-.57-.1-.86-.17a3.69,3.69,0,0,1-.79-.29,1.44,1.44,0,0,1-.58-.51,1.65,1.65,0,0,1-.22-.89,1.58,1.58,0,0,1,.33-1,2,2,0,0,1,.92-.67,3.72,3.72,0,0,1,1.41-.23,5.55,5.55,0,0,1,1.26.15,3.19,3.19,0,0,1,1,.42l-.49.91a2.74,2.74,0,0,0-.9-.39,3.72,3.72,0,0,0-.94-.11,2.13,2.13,0,0,0-1.13.24.77.77,0,0,0-.37.64.6.6,0,0,0,.22.49,1.56,1.56,0,0,0,.58.27,7.23,7.23,0,0,0,.79.17c.28,0,.57.09.86.16a3.69,3.69,0,0,1,.79.29,1.45,1.45,0,0,1,.57.5,1.48,1.48,0,0,1,.23.86,1.57,1.57,0,0,1-.34,1,2.15,2.15,0,0,1-.95.65A4,4,0,0,1,120.44,187.14Z"/><path class="cls-6" d="M58.35,201.47h-1.2v-8.4h5.93v1H58.35ZM58.23,197h4.33v1H58.23Z"/><path class="cls-6" d="M67.09,201.54a3.4,3.4,0,0,1-1.7-.42A3.16,3.16,0,0,1,64.2,200a3.48,3.48,0,0,1,0-3.35,3.23,3.23,0,0,1,1.18-1.14,3.69,3.69,0,0,1,3.4,0A3,3,0,0,1,70,196.61a3.28,3.28,0,0,1,.43,1.68A3.33,3.33,0,0,1,70,200a3.1,3.1,0,0,1-1.18,1.15A3.39,3.39,0,0,1,67.09,201.54Zm0-1a2.11,2.11,0,0,0,1.09-.28,1.85,1.85,0,0,0,.76-.78,2.65,2.65,0,0,0,0-2.37,1.88,1.88,0,0,0-.76-.77,2.28,2.28,0,0,0-2.19,0,2,2,0,0,0-.76.77,2.57,2.57,0,0,0,0,2.37,2,2,0,0,0,.76.78A2.12,2.12,0,0,0,67.09,200.53Z"/><path class="cls-6" d="M72,201.47v-6.36h1.11v1.72L73,196.4a2,2,0,0,1,.88-1,3.16,3.16,0,0,1,1.54-.34v1.11h-.26a2,2,0,0,0-1.47.55,2.2,2.2,0,0,0-.54,1.6v3.17Z"/><path class="cls-6" d="M82.75,201.56a5.86,5.86,0,0,1-1.84-.29,3.83,3.83,0,0,1-1.38-.76l.44-.94a4,4,0,0,0,1.23.7,4.47,4.47,0,0,0,1.55.27,3.27,3.27,0,0,0,1.18-.17,1.32,1.32,0,0,0,.67-.46,1.05,1.05,0,0,0,.22-.66.91.91,0,0,0-.28-.7,2.08,2.08,0,0,0-.73-.43,9.91,9.91,0,0,0-1-.28c-.36-.08-.72-.17-1.09-.28a5.25,5.25,0,0,1-1-.41,2.07,2.07,0,0,1-.73-.68,2,2,0,0,1-.28-1.1,2.18,2.18,0,0,1,.35-1.19,2.32,2.32,0,0,1,1-.88A4.36,4.36,0,0,1,83,193a5.5,5.5,0,0,1,1.45.19,4.08,4.08,0,0,1,1.25.55l-.4,1a3.9,3.9,0,0,0-1.14-.52A4.32,4.32,0,0,0,83,194a3.27,3.27,0,0,0-1.17.18,1.42,1.42,0,0,0-.66.48,1.13,1.13,0,0,0-.21.67.92.92,0,0,0,.28.71,1.92,1.92,0,0,0,.73.42,9.91,9.91,0,0,0,1,.28L84,197a5.24,5.24,0,0,1,1,.41,2.1,2.1,0,0,1,.72.67,1.88,1.88,0,0,1,.28,1.08,2.2,2.2,0,0,1-.35,1.19,2.42,2.42,0,0,1-1.07.87A4.47,4.47,0,0,1,82.75,201.56Z"/><path class="cls-6" d="M90.41,201.54a3.7,3.7,0,0,1-1.79-.42,3,3,0,0,1-1.2-1.15,3.23,3.23,0,0,1-.43-1.68,3.27,3.27,0,0,1,.42-1.68,2.93,2.93,0,0,1,1.14-1.15,3.5,3.5,0,0,1,3.27,0,3,3,0,0,1,1.11,1.15,3.64,3.64,0,0,1,.4,1.72,1,1,0,0,1,0,.17c0,.06,0,.12,0,.18H87.89v-.83H92.7l-.46.29A2.17,2.17,0,0,0,92,197a2,2,0,0,0-.73-.75,2.1,2.1,0,0,0-1.07-.27,2.07,2.07,0,0,0-1.07.27,1.88,1.88,0,0,0-.73.75,2.28,2.28,0,0,0-.27,1.11v.2a2.15,2.15,0,0,0,.3,1.13,1.91,1.91,0,0,0,.82.77,2.49,2.49,0,0,0,1.21.28,2.63,2.63,0,0,0,1-.19,2.25,2.25,0,0,0,.8-.58l.64.75a2.83,2.83,0,0,1-1.07.76A3.7,3.7,0,0,1,90.41,201.54Z"/><path class="cls-6" d="M94.93,201.47v-8.91h1.15v8.91Z"/><path class="cls-6" d="M97.36,196.05v-.94h4.06v.94Zm1.08,5.42v-6.93a2,2,0,0,1,.55-1.49,2.07,2.07,0,0,1,1.55-.56,2.84,2.84,0,0,1,.72.09,1.57,1.57,0,0,1,.58.28l-.35.88a1.25,1.25,0,0,0-.41-.22,1.27,1.27,0,0,0-.48-.08,1,1,0,0,0-.77.28,1.21,1.21,0,0,0-.26.83v.86l0,.52v5.54Z"/><path class="cls-6" d="M107.1,201.47h-1.19v-8.4h1.19Zm4.94-3.75H107v-1H112Zm-.11-4.65h1.2v8.4h-1.2Z"/><path class="cls-6" d="M118.31,201.54a3.67,3.67,0,0,1-1.79-.42,3,3,0,0,1-1.2-1.15,3.23,3.23,0,0,1-.43-1.68,3.27,3.27,0,0,1,.42-1.68,2.93,2.93,0,0,1,1.14-1.15,3.2,3.2,0,0,1,1.64-.41,3.26,3.26,0,0,1,1.63.4,3,3,0,0,1,1.11,1.15,3.52,3.52,0,0,1,.4,1.72,1,1,0,0,1,0,.17,1.1,1.1,0,0,1,0,.18h-5.41v-.83h4.81l-.46.29a2.17,2.17,0,0,0-.26-1.09,1.86,1.86,0,0,0-.72-.75,2.26,2.26,0,0,0-2.14,0,1.91,1.91,0,0,0-.74.75,2.39,2.39,0,0,0-.26,1.11v.2a2.24,2.24,0,0,0,.29,1.13,2,2,0,0,0,.83.77,2.49,2.49,0,0,0,1.21.28,2.58,2.58,0,0,0,1-.19,2.32,2.32,0,0,0,.82-.58l.63.75a2.75,2.75,0,0,1-1.07.76A3.7,3.7,0,0,1,118.31,201.54Z"/><path class="cls-6" d="M122.83,201.47v-8.91H124v8.91Z"/><path class="cls-6" d="M126.17,203.79v-8.68h1.11v1.71l-.08,1.48.13,1.47v4Zm3.37-2.25a2.83,2.83,0,0,1-1.44-.37,2.61,2.61,0,0,1-1-1.08,3.75,3.75,0,0,1-.38-1.8,3.87,3.87,0,0,1,.37-1.8,2.53,2.53,0,0,1,1-1.08,3,3,0,0,1,1.46-.36,3.32,3.32,0,0,1,1.66.4,3,3,0,0,1,1.14,1.14,3.32,3.32,0,0,1,.42,1.7,3.37,3.37,0,0,1-.42,1.7,3,3,0,0,1-1.14,1.14A3.32,3.32,0,0,1,129.54,201.54Zm-.09-1a2.14,2.14,0,0,0,1.1-.28,2,2,0,0,0,.77-.78,2.65,2.65,0,0,0,0-2.37,2,2,0,0,0-.77-.77,2.28,2.28,0,0,0-2.19,0,1.94,1.94,0,0,0-.76.77,2.57,2.57,0,0,0,0,2.37,1.9,1.9,0,0,0,.76.78A2.13,2.13,0,0,0,129.45,200.53Z"/><path class="cls-6" d="M73.13,225.1a6,6,0,0,1-1.84-.29,3.92,3.92,0,0,1-1.38-.76l.44-.94a4.13,4.13,0,0,0,1.23.7,4.51,4.51,0,0,0,1.55.27,3.33,3.33,0,0,0,1.19-.17,1.41,1.41,0,0,0,.67-.46,1.1,1.1,0,0,0,.21-.66.91.91,0,0,0-.28-.7,2.08,2.08,0,0,0-.73-.43,9.91,9.91,0,0,0-1-.28c-.36-.08-.72-.17-1.09-.28a5.54,5.54,0,0,1-1-.41,2.16,2.16,0,0,1-.73-.68,2,2,0,0,1-.27-1.1,2.17,2.17,0,0,1,.34-1.19,2.37,2.37,0,0,1,1.05-.88,4.39,4.39,0,0,1,1.82-.33,5.5,5.5,0,0,1,1.45.19,4.08,4.08,0,0,1,1.25.55l-.39,1a3.9,3.9,0,0,0-1.14-.52,4.39,4.39,0,0,0-1.17-.16,3.17,3.17,0,0,0-1.16.18,1.4,1.4,0,0,0-.67.48,1.13,1.13,0,0,0-.21.67,1,1,0,0,0,.28.71,2,2,0,0,0,.74.42,9.2,9.2,0,0,0,1,.28l1.08.28a4.76,4.76,0,0,1,1,.41,2,2,0,0,1,.72.67,1.88,1.88,0,0,1,.28,1.08A2.2,2.2,0,0,1,76,223.9a2.42,2.42,0,0,1-1.07.87A4.47,4.47,0,0,1,73.13,225.1Z"/><path class="cls-6" d="M80.8,225.08a3.74,3.74,0,0,1-1.8-.42,3.16,3.16,0,0,1-1.2-1.15,3.33,3.33,0,0,1-.42-1.68,3.27,3.27,0,0,1,.41-1.68A3.07,3.07,0,0,1,78.93,219a3.5,3.5,0,0,1,3.27,0,3,3,0,0,1,1.11,1.15,3.52,3.52,0,0,1,.4,1.72V222c0,.06,0,.12,0,.18H78.28v-.83h4.81l-.47.29a2.17,2.17,0,0,0-.25-1.09,2,2,0,0,0-.73-.75,2.07,2.07,0,0,0-1.07-.27,2.1,2.1,0,0,0-1.07.27,1.88,1.88,0,0,0-.73.75,2.28,2.28,0,0,0-.27,1.11v.2a2.15,2.15,0,0,0,.3,1.13,2,2,0,0,0,.82.77,2.51,2.51,0,0,0,1.21.28,2.63,2.63,0,0,0,1-.19,2.2,2.2,0,0,0,.81-.58l.63.75a2.68,2.68,0,0,1-1.07.76A3.68,3.68,0,0,1,80.8,225.08Z"/><path class="cls-6" d="M85.31,225V216.1h1.15V225Z"/><path class="cls-6" d="M87.74,219.59v-.94H91.8v.94ZM88.82,225v-6.93a1.92,1.92,0,0,1,2.1-2.05,2.84,2.84,0,0,1,.72.09,1.57,1.57,0,0,1,.58.28l-.35.88a1.25,1.25,0,0,0-.41-.22A1.27,1.27,0,0,0,91,217a1,1,0,0,0-.76.28,1.17,1.17,0,0,0-.27.83V219l0,.52V225Z"/><path class="cls-6" d="M98,225v-7.36H95.08v-1H102v1H99.14V225Z"/><path class="cls-6" d="M105.34,225.08a3.74,3.74,0,0,1-1.8-.42,3,3,0,0,1-1.2-1.15,3.33,3.33,0,0,1-.42-1.68,3.27,3.27,0,0,1,.41-1.68,3,3,0,0,1,1.14-1.15,3.5,3.5,0,0,1,3.27,0,3,3,0,0,1,1.11,1.15,3.52,3.52,0,0,1,.4,1.72V222c0,.06,0,.12,0,.18h-5.41v-.83h4.81l-.47.29a2.17,2.17,0,0,0-.25-1.09,2,2,0,0,0-.73-.75,2.07,2.07,0,0,0-1.07-.27,2.1,2.1,0,0,0-1.07.27,1.88,1.88,0,0,0-.73.75,2.28,2.28,0,0,0-.27,1.11v.2a2.15,2.15,0,0,0,.3,1.13,2,2,0,0,0,.82.77,2.51,2.51,0,0,0,1.21.28,2.63,2.63,0,0,0,1-.19,2.38,2.38,0,0,0,.81-.58l.63.75a2.75,2.75,0,0,1-1.07.76A3.68,3.68,0,0,1,105.34,225.08Z"/><path class="cls-6" d="M111.67,225.08a4.9,4.9,0,0,1-1.5-.22,3.5,3.5,0,0,1-1.13-.53l.48-.91a4.19,4.19,0,0,0,2.24.66,2.11,2.11,0,0,0,1.15-.23.71.71,0,0,0,.36-.63.55.55,0,0,0-.22-.47,1.37,1.37,0,0,0-.57-.25,7.22,7.22,0,0,0-.78-.15c-.29,0-.58-.1-.87-.17a3.22,3.22,0,0,1-.79-.29,1.5,1.5,0,0,1-.58-.51,1.65,1.65,0,0,1-.21-.89,1.58,1.58,0,0,1,.32-1,2.08,2.08,0,0,1,.92-.67,3.76,3.76,0,0,1,1.41-.23,5.57,5.57,0,0,1,1.27.15,3.38,3.38,0,0,1,1,.42l-.5.91a2.57,2.57,0,0,0-.9-.39,4.22,4.22,0,0,0-.93-.11,2,2,0,0,0-1.13.25.72.72,0,0,0-.37.63.57.57,0,0,0,.22.49,1.49,1.49,0,0,0,.58.27,6.56,6.56,0,0,0,.78.17c.29,0,.58.1.87.16a3.6,3.6,0,0,1,.78.29,1.38,1.38,0,0,1,.8,1.36,1.52,1.52,0,0,1-.34,1,2.11,2.11,0,0,1-.94.65A4,4,0,0,1,111.67,225.08Z"/><path class="cls-6" d="M115,219.59v-.94h4v.94Zm3.09,5.49a2,2,0,0,1-1.48-.52,1.92,1.92,0,0,1-.53-1.47v-5.84h1.15V223a1.12,1.12,0,0,0,.26.79,1,1,0,0,0,.74.28,1.38,1.38,0,0,0,.9-.3l.36.82a1.61,1.61,0,0,1-.63.34A2.81,2.81,0,0,1,118,225.08Z"/><path class="cls-6" d="M71.17,260.24v-8.69h1.1v1.72l-.07,1.47.12,1.48v4ZM74.54,258a2.93,2.93,0,0,1-1.44-.36,2.69,2.69,0,0,1-1-1.09,3.75,3.75,0,0,1-.39-1.8,3.87,3.87,0,0,1,.38-1.8,2.56,2.56,0,0,1,1-1.08,3,3,0,0,1,1.47-.36,3.32,3.32,0,0,1,1.66.41A3,3,0,0,1,77.34,253a3.35,3.35,0,0,1,.42,1.7,3.39,3.39,0,0,1-.42,1.71,3.12,3.12,0,0,1-1.14,1.14A3.32,3.32,0,0,1,74.54,258Zm-.09-1a2.21,2.21,0,0,0,1.09-.28,2,2,0,0,0,.77-.79,2.37,2.37,0,0,0,.29-1.18,2.34,2.34,0,0,0-.29-1.18,2,2,0,0,0-.77-.77,2.11,2.11,0,0,0-1.09-.28,2.13,2.13,0,0,0-1.09.28,2,2,0,0,0-.77.77,2.45,2.45,0,0,0-.28,1.18,2.48,2.48,0,0,0,.28,1.18,2,2,0,0,0,.77.79A2.24,2.24,0,0,0,74.45,257Z"/><path class="cls-6" d="M82.08,258a3.43,3.43,0,0,1-1.7-.42,3.1,3.1,0,0,1-1.18-1.15,3.26,3.26,0,0,1-.43-1.68,3.14,3.14,0,0,1,1.6-2.82,3.67,3.67,0,0,1,3.41,0A2.92,2.92,0,0,1,85,253.05a3.5,3.5,0,0,1,0,3.36,3,3,0,0,1-1.17,1.15A3.43,3.43,0,0,1,82.08,258Zm0-1a2.25,2.25,0,0,0,1.1-.28,1.93,1.93,0,0,0,.76-.79,2.48,2.48,0,0,0,.27-1.18,2.45,2.45,0,0,0-.27-1.18,1.94,1.94,0,0,0-.76-.77,2.14,2.14,0,0,0-1.1-.28,2.08,2.08,0,0,0-1.09.28,2,2,0,0,0-.77.77,2.34,2.34,0,0,0-.29,1.18,2.37,2.37,0,0,0,.29,1.18,2,2,0,0,0,.77.79A2.18,2.18,0,0,0,82.08,257Z"/><path class="cls-6" d="M89.6,258a3.36,3.36,0,0,1-1.65-.4,3.12,3.12,0,0,1-1.14-1.14,3.39,3.39,0,0,1-.42-1.71,3.35,3.35,0,0,1,.42-1.7A3,3,0,0,1,88,251.9a3.36,3.36,0,0,1,1.65-.41,2.91,2.91,0,0,1,1.45.36,2.58,2.58,0,0,1,1,1.08,4.4,4.4,0,0,1,0,3.6,2.63,2.63,0,0,1-1,1.09A3,3,0,0,1,89.6,258Zm.1-1a2.17,2.17,0,0,0,1.08-.28,2,2,0,0,0,.77-.79,2.37,2.37,0,0,0,.29-1.18,2.34,2.34,0,0,0-.29-1.18,2,2,0,0,0-.77-.77,2.24,2.24,0,0,0-2.17,0,2,2,0,0,0-.77.77,2.34,2.34,0,0,0-.29,1.18,2.37,2.37,0,0,0,.29,1.18,2,2,0,0,0,.77.79A2.18,2.18,0,0,0,89.7,257Zm2.17.93V256.2l.07-1.48-.12-1.48V249H93v8.9Z"/><path class="cls-6" d="M97.93,258a3.49,3.49,0,0,1-1.73-.42,3.09,3.09,0,0,1-1.2-1.15,3.5,3.5,0,0,1,0-3.36,3,3,0,0,1,1.2-1.14,3.49,3.49,0,0,1,1.73-.42,3.45,3.45,0,0,1,1.54.34,2.46,2.46,0,0,1,1,1l-.87.56a2,2,0,0,0-.77-.69,2.11,2.11,0,0,0-1-.22,2.19,2.19,0,0,0-1.12.28,2,2,0,0,0-.78.77,2.34,2.34,0,0,0-.29,1.18,2.38,2.38,0,0,0,.29,1.19,2,2,0,0,0,.78.78,2.3,2.3,0,0,0,1.12.28,2.12,2.12,0,0,0,1-.23,1.81,1.81,0,0,0,.77-.69l.87.56a2.55,2.55,0,0,1-1,1A3.21,3.21,0,0,1,97.93,258Z"/><path class="cls-6" d="M103.87,258a3,3,0,0,1-1.24-.24,1.88,1.88,0,0,1-.82-.66,1.65,1.65,0,0,1-.29-1,1.75,1.75,0,0,1,.25-.93,1.71,1.71,0,0,1,.8-.68,3.85,3.85,0,0,1,1.51-.25h2v.83h-2a1.73,1.73,0,0,0-1.16.29.92.92,0,0,0-.3.69.87.87,0,0,0,.37.75,1.66,1.66,0,0,0,1,.28,2.22,2.22,0,0,0,1.14-.28,1.62,1.62,0,0,0,.7-.84l.23.79a1.79,1.79,0,0,1-.81.89A2.88,2.88,0,0,1,103.87,258Zm2.09-.07v-1.34l-.06-.25V254a1.47,1.47,0,0,0-.43-1.13,1.79,1.79,0,0,0-1.28-.4,3.47,3.47,0,0,0-1.1.18,2.94,2.94,0,0,0-.91.5l-.48-.86a3.39,3.39,0,0,1,1.18-.61,4.94,4.94,0,0,1,1.45-.21,2.87,2.87,0,0,1,2,.64,2.48,2.48,0,0,1,.71,1.94v3.84Z"/><path class="cls-6" d="M111,258a5.23,5.23,0,0,1-1.5-.21,3.61,3.61,0,0,1-1.13-.53l.48-.91a4.13,4.13,0,0,0,1,.47,4.27,4.27,0,0,0,1.23.19,2.2,2.2,0,0,0,1.15-.23.71.71,0,0,0,.36-.64.56.56,0,0,0-.22-.46,1.37,1.37,0,0,0-.57-.26l-.79-.15c-.28,0-.57-.1-.86-.16a3.69,3.69,0,0,1-.79-.29,1.68,1.68,0,0,1-.47-2.41,2,2,0,0,1,.92-.66,3.71,3.71,0,0,1,1.41-.24,5.64,5.64,0,0,1,1.27.15,3,3,0,0,1,1,.43l-.49.91a3,3,0,0,0-.9-.4,4.2,4.2,0,0,0-.93-.1,2.11,2.11,0,0,0-1.13.24.72.72,0,0,0-.37.63.59.59,0,0,0,.22.5,1.51,1.51,0,0,0,.57.27,7.33,7.33,0,0,0,.79.16c.29.05.58.1.87.17a3.79,3.79,0,0,1,.78.28,1.5,1.5,0,0,1,.58.51,1.46,1.46,0,0,1,.22.86,1.49,1.49,0,0,1-.34,1,2.11,2.11,0,0,1-1,.66A4,4,0,0,1,111,258Z"/><path class="cls-6" d="M114.29,252.5v-.95h4v.95Zm3.09,5.48a2.07,2.07,0,0,1-1.49-.51,2,2,0,0,1-.52-1.48v-5.83h1.15v5.78a1.1,1.1,0,0,0,.26.8,1,1,0,0,0,.74.27,1.33,1.33,0,0,0,.89-.3l.36.83a1.73,1.73,0,0,1-.63.34A2.68,2.68,0,0,1,117.38,258Z"/><path class="cls-6" d="M76.33,283.78v-8.4h1.2v8.4Z"/><path class="cls-6" d="M83.28,277.36a3,3,0,0,1,1.37.3,2.15,2.15,0,0,1,.93.91,3.15,3.15,0,0,1,.34,1.55v3.66H84.77v-3.53a1.94,1.94,0,0,0-.45-1.39,1.68,1.68,0,0,0-1.27-.47,2.28,2.28,0,0,0-1.07.24,1.71,1.71,0,0,0-.7.71,2.54,2.54,0,0,0-.24,1.17v3.27H79.88v-6.36H81v1.72l-.18-.46a2.25,2.25,0,0,1,1-1A3.15,3.15,0,0,1,83.28,277.36Z"/><path class="cls-6" d="M87.14,278.37v-.95H91.2v.95Zm1.08,5.41v-6.92a1.91,1.91,0,0,1,2.1-2.05,2.84,2.84,0,0,1,.72.09,1.49,1.49,0,0,1,.58.28l-.35.87a1.34,1.34,0,0,0-.41-.22,1.51,1.51,0,0,0-.48-.08,1,1,0,0,0-.76.29,1.14,1.14,0,0,0-.27.83v.85l0,.53v5.53Z"/><path class="cls-6" d="M94.9,283.85a3.4,3.4,0,0,1-1.7-.42A3,3,0,0,1,92,282.28a3.26,3.26,0,0,1-.44-1.68,3.18,3.18,0,0,1,.44-1.67,3.08,3.08,0,0,1,1.17-1.15,3.44,3.44,0,0,1,1.71-.42,3.39,3.39,0,0,1,1.69.42,2.94,2.94,0,0,1,1.18,1.14,3.5,3.5,0,0,1,0,3.36,3,3,0,0,1-1.18,1.15A3.39,3.39,0,0,1,94.9,283.85Zm0-1a2.21,2.21,0,0,0,1.09-.28,2,2,0,0,0,.77-.79A2.48,2.48,0,0,0,97,280.6a2.45,2.45,0,0,0-.27-1.18,2,2,0,0,0-.77-.77,2.28,2.28,0,0,0-2.19,0,2,2,0,0,0-.76.77,2.25,2.25,0,0,0-.29,1.18,2.27,2.27,0,0,0,.29,1.18,2,2,0,0,0,.76.79A2.22,2.22,0,0,0,94.9,282.85Z"/><path class="cls-6" d="M104.88,283.85a3,3,0,0,1-1.24-.24,1.88,1.88,0,0,1-.82-.66,1.65,1.65,0,0,1-.29-1,1.84,1.84,0,0,1,.24-.93,1.79,1.79,0,0,1,.81-.68,3.83,3.83,0,0,1,1.5-.25h2V281h-2a1.73,1.73,0,0,0-1.16.29.92.92,0,0,0-.3.69.87.87,0,0,0,.37.75,1.66,1.66,0,0,0,1,.29,2.25,2.25,0,0,0,1.14-.29,1.67,1.67,0,0,0,.7-.84l.23.79a1.79,1.79,0,0,1-.81.89A2.88,2.88,0,0,1,104.88,283.85Zm2.09-.07v-1.34l-.06-.25v-2.3a1.47,1.47,0,0,0-.43-1.13,1.79,1.79,0,0,0-1.28-.4,3.47,3.47,0,0,0-1.1.18,2.94,2.94,0,0,0-.91.5l-.48-.86a3.39,3.39,0,0,1,1.18-.61,4.94,4.94,0,0,1,1.45-.21,2.87,2.87,0,0,1,2,.64,2.48,2.48,0,0,1,.71,1.94v3.84Z"/><path class="cls-6" d="M109.28,278.37v-.95h4.06v.95Zm3.1,5.48a2.06,2.06,0,0,1-1.49-.51,2,2,0,0,1-.53-1.48V276h1.16v5.78a1.15,1.15,0,0,0,.25.8,1,1,0,0,0,.74.27,1.36,1.36,0,0,0,.9-.3l.36.83a1.73,1.73,0,0,1-.63.34A2.73,2.73,0,0,1,112.38,283.85Z"/><path class="cls-6" d="M62,297.14h4.9v1h-6.1v-8.4h5.93v1.05H62Zm-.11-3.73h4.32v1H61.9Z"/><path class="cls-6" d="M76.64,291.76a3,3,0,0,1,1.36.3,2.16,2.16,0,0,1,.91.91,3.26,3.26,0,0,1,.33,1.55v3.66H78.09v-3.53a2,2,0,0,0-.43-1.39,1.57,1.57,0,0,0-1.21-.47,2,2,0,0,0-1,.24,1.65,1.65,0,0,0-.67.71,2.68,2.68,0,0,0-.23,1.17v3.27H73.39v-3.53a2,2,0,0,0-.43-1.39,1.57,1.57,0,0,0-1.22-.47,2,2,0,0,0-1,.24,1.59,1.59,0,0,0-.67.71,2.54,2.54,0,0,0-.24,1.17v3.27H68.68v-6.36h1.11v1.69l-.18-.43a2.15,2.15,0,0,1,.92-1,3,3,0,0,1,1.45-.35,2.71,2.71,0,0,1,1.57.45,2.13,2.13,0,0,1,.87,1.36l-.47-.19a2.34,2.34,0,0,1,1-1.17A3.1,3.1,0,0,1,76.64,291.76Z"/><path class="cls-6" d="M84.2,298.25a3.74,3.74,0,0,1-1.8-.42,3.09,3.09,0,0,1-1.2-1.15,3.33,3.33,0,0,1-.42-1.68,3.43,3.43,0,0,1,.41-1.68,3,3,0,0,1,1.14-1.14,3.43,3.43,0,0,1,3.27,0,2.86,2.86,0,0,1,1.11,1.15,3.5,3.5,0,0,1,.4,1.72v.17c0,.06,0,.12,0,.18H81.68v-.83h4.81l-.47.29a2.1,2.1,0,0,0-.25-1.1A1.88,1.88,0,0,0,85,293a2,2,0,0,0-1.07-.27,2.1,2.1,0,0,0-1.07.27,2,2,0,0,0-.73.76,2.22,2.22,0,0,0-.26,1.11v.19a2.17,2.17,0,0,0,.29,1.14A2,2,0,0,0,83,297a2.75,2.75,0,0,0,2.24.08,2.17,2.17,0,0,0,.81-.57l.64.74a2.81,2.81,0,0,1-1.08.77A3.64,3.64,0,0,1,84.2,298.25Z"/><path class="cls-6" d="M88.71,298.18v-6.36h1.11v1.73l-.11-.43a1.91,1.91,0,0,1,.89-1,3.09,3.09,0,0,1,1.53-.35v1.12h-.26a2,2,0,0,0-1.47.55,2.19,2.19,0,0,0-.54,1.59v3.17Z"/><path class="cls-6" d="M96.09,297.92a3.44,3.44,0,0,1-1.65-.39,3.14,3.14,0,0,1-1.15-4.31,2.89,2.89,0,0,1,1.15-1.07,3.44,3.44,0,0,1,1.65-.39,3.36,3.36,0,0,1,1.49.33,2.5,2.5,0,0,1,1.07,1,3.9,3.9,0,0,1,0,3.44,2.58,2.58,0,0,1-1.07,1A3.36,3.36,0,0,1,96.09,297.92Zm.14,2.66a6,6,0,0,1-1.69-.24,3.48,3.48,0,0,1-1.34-.71l.55-.88a3.46,3.46,0,0,0,1.09.6,4.12,4.12,0,0,0,1.36.22,2.25,2.25,0,0,0,1.65-.52,2.17,2.17,0,0,0,.53-1.61v-1.35l.12-1.26-.06-1.27v-1.74h1.09v5.5a3.25,3.25,0,0,1-.84,2.47A3.45,3.45,0,0,1,96.23,300.58Zm0-3.67a2.41,2.41,0,0,0,1.13-.26,1.89,1.89,0,0,0,.77-.74,2,2,0,0,0,.29-1.08,2.08,2.08,0,0,0-.29-1.08,1.85,1.85,0,0,0-.77-.72,2.41,2.41,0,0,0-1.13-.26,2.44,2.44,0,0,0-1.13.26,1.94,1.94,0,0,0-.78.72,2.07,2.07,0,0,0-.28,1.08,2,2,0,0,0,.28,1.08,2,2,0,0,0,.78.74A2.44,2.44,0,0,0,96.22,296.91Z"/><path class="cls-6" d="M104.56,298.25a3.67,3.67,0,0,1-1.79-.42,3,3,0,0,1-1.2-1.15,3.23,3.23,0,0,1-.43-1.68,3.33,3.33,0,0,1,.42-1.68,2.84,2.84,0,0,1,1.14-1.14,3.2,3.2,0,0,1,1.64-.42,3.26,3.26,0,0,1,1.63.41,2.86,2.86,0,0,1,1.11,1.15,3.5,3.5,0,0,1,.4,1.72,1.09,1.09,0,0,1,0,.17,1.1,1.1,0,0,1,0,.18H102v-.83h4.81l-.46.29a2.21,2.21,0,0,0-.26-1.1,1.86,1.86,0,0,0-.72-.75,2.26,2.26,0,0,0-2.14,0,1.93,1.93,0,0,0-.74.76,2.33,2.33,0,0,0-.26,1.11v.19a2.27,2.27,0,0,0,.29,1.14,2,2,0,0,0,.83.77,2.73,2.73,0,0,0,2.23.08,2.29,2.29,0,0,0,.82-.57l.63.74A2.78,2.78,0,0,1,106,298,3.69,3.69,0,0,1,104.56,298.25Z"/><path class="cls-6" d="M112.47,291.76a3,3,0,0,1,1.38.3,2.18,2.18,0,0,1,.92.91,3.15,3.15,0,0,1,.34,1.55v3.66H114v-3.53a1.94,1.94,0,0,0-.45-1.39,1.68,1.68,0,0,0-1.27-.47,2.21,2.21,0,0,0-1.06.24,1.68,1.68,0,0,0-.71.71,2.54,2.54,0,0,0-.24,1.17v3.27h-1.16v-6.36h1.11v1.72l-.18-.46a2.25,2.25,0,0,1,1-1A3.15,3.15,0,0,1,112.47,291.76Z"/><path class="cls-6" d="M120,298.25a3.56,3.56,0,0,1-1.74-.42,3.13,3.13,0,0,1-1.19-1.15,3.5,3.5,0,0,1,0-3.36,3,3,0,0,1,1.19-1.14,3.56,3.56,0,0,1,1.74-.42,3.45,3.45,0,0,1,1.54.34,2.46,2.46,0,0,1,1,1l-.88.56A1.93,1.93,0,0,0,121,293a2.11,2.11,0,0,0-1-.22,2.19,2.19,0,0,0-1.12.28,2,2,0,0,0-.78.77,2.34,2.34,0,0,0-.29,1.18,2.38,2.38,0,0,0,.29,1.19,2,2,0,0,0,.78.78,2.3,2.3,0,0,0,1.12.28,2.12,2.12,0,0,0,1-.23,1.79,1.79,0,0,0,.76-.69l.88.56a2.55,2.55,0,0,1-1,1A3.21,3.21,0,0,1,120,298.25Z"/><path class="cls-6" d="M124.26,300.58a2.64,2.64,0,0,1-.89-.15,2,2,0,0,1-.75-.44l.49-.86a1.81,1.81,0,0,0,.53.35,1.63,1.63,0,0,0,.62.12,1.06,1.06,0,0,0,.69-.22,2,2,0,0,0,.52-.77l.39-.87.12-.15,2.5-5.77h1.13l-3.09,7a3.42,3.42,0,0,1-.62,1.05,1.87,1.87,0,0,1-.75.55A2.35,2.35,0,0,1,124.26,300.58Zm1.51-2.19-2.91-6.57h1.2l2.47,5.67Z"/><path class="cls-6" d="M71.79,320.78a4.77,4.77,0,0,1-1.78-.32,4.27,4.27,0,0,1-1.42-.91,4,4,0,0,1-.93-1.36,4.45,4.45,0,0,1,0-3.41A4.13,4.13,0,0,1,70,312.52a4.7,4.7,0,0,1,1.78-.33,4.86,4.86,0,0,1,1.78.32,4.19,4.19,0,0,1,1.42.9,4.06,4.06,0,0,1,.93,1.37,4.6,4.6,0,0,1,0,3.42,4.16,4.16,0,0,1-.93,1.37,4.52,4.52,0,0,1-1.42.9A4.86,4.86,0,0,1,71.79,320.78Zm0-1.06a3.47,3.47,0,0,0,1.31-.24,3,3,0,0,0,1-.69,3.13,3.13,0,0,0,.68-1,3.34,3.34,0,0,0,.25-1.27,3.41,3.41,0,0,0-.25-1.29,3.09,3.09,0,0,0-.68-1,3.13,3.13,0,0,0-1-.68,3.64,3.64,0,0,0-2.6,0,3.29,3.29,0,0,0-1,.68,3.09,3.09,0,0,0-.68,1,3.23,3.23,0,0,0-.25,1.29,3.17,3.17,0,0,0,2,3A3.44,3.44,0,0,0,71.78,319.72Zm2.76,2.72a3,3,0,0,1-.8-.1A3.19,3.19,0,0,1,73,322a5.36,5.36,0,0,1-.79-.57c-.27-.24-.57-.53-.89-.87l1.29-.34a4.92,4.92,0,0,0,.69.73,2.08,2.08,0,0,0,.65.4,1.64,1.64,0,0,0,.65.13,2,2,0,0,0,1.52-.72l.57.68A2.63,2.63,0,0,1,74.54,322.44Z"/><path class="cls-6" d="M80.59,320.76a3.23,3.23,0,0,1-1.43-.3,2.19,2.19,0,0,1-1-.92,3.15,3.15,0,0,1-.35-1.55v-3.66H79v3.53a2,2,0,0,0,.45,1.4,1.67,1.67,0,0,0,1.26.47,2.09,2.09,0,0,0,1-.25,1.64,1.64,0,0,0,.68-.72,2.51,2.51,0,0,0,.24-1.15v-3.28h1.15v6.36H82.75V319l.18.46a2.26,2.26,0,0,1-.93,1A2.89,2.89,0,0,1,80.59,320.76Z"/><path class="cls-6" d="M88.87,320.76a3.67,3.67,0,0,1-1.79-.42,3,3,0,0,1-1.2-1.15,3.23,3.23,0,0,1-.43-1.68,3.43,3.43,0,0,1,.41-1.68A3,3,0,0,1,87,314.68a3.26,3.26,0,0,1,1.63-.41,3.11,3.11,0,0,1,1.63.41,2.86,2.86,0,0,1,1.12,1.14,3.64,3.64,0,0,1,.4,1.72s0,.11,0,.17a.9.9,0,0,1,0,.18H86.35v-.83h4.81l-.47.29a2.07,2.07,0,0,0-.25-1.09,1.92,1.92,0,0,0-.72-.75,2.11,2.11,0,0,0-1.08-.27,2.06,2.06,0,0,0-1.06.27,1.87,1.87,0,0,0-.74.76,2.33,2.33,0,0,0-.26,1.11v.19a2.24,2.24,0,0,0,.29,1.13,2.12,2.12,0,0,0,.82.78,2.67,2.67,0,0,0,1.22.27,2.61,2.61,0,0,0,1-.19,2.2,2.2,0,0,0,.81-.58l.64.75a2.83,2.83,0,0,1-1.07.76A3.7,3.7,0,0,1,88.87,320.76Z"/><path class="cls-6" d="M95.21,320.76a5,5,0,0,1-1.51-.22,3.55,3.55,0,0,1-1.12-.52l.48-.92a3.79,3.79,0,0,0,1,.47,3.89,3.89,0,0,0,1.22.19,2.15,2.15,0,0,0,1.16-.23.7.7,0,0,0,.35-.63.57.57,0,0,0-.21-.47,1.67,1.67,0,0,0-.57-.25,7.43,7.43,0,0,0-.79-.15,8.71,8.71,0,0,1-.86-.17,3.22,3.22,0,0,1-.79-.29,1.44,1.44,0,0,1-.58-.51,1.55,1.55,0,0,1-.22-.88,1.59,1.59,0,0,1,.33-1,2,2,0,0,1,.91-.67,4,4,0,0,1,1.42-.23,5.55,5.55,0,0,1,1.26.15,3.19,3.19,0,0,1,1,.42l-.49.92a2.57,2.57,0,0,0-.9-.4,4.24,4.24,0,0,0-.94-.11,2,2,0,0,0-1.13.25.74.74,0,0,0-.37.63.64.64,0,0,0,.22.5,2,2,0,0,0,.58.27c.24.06.5.11.79.16s.57.1.86.17a3.21,3.21,0,0,1,.79.28,1.39,1.39,0,0,1,.79,1.37,1.55,1.55,0,0,1-.33,1,2.25,2.25,0,0,1-1,.66A4.26,4.26,0,0,1,95.21,320.76Z"/><path class="cls-6" d="M98.48,315.28v-.95h4.06v.95Zm3.1,5.48a2,2,0,0,1-1.49-.52,2,2,0,0,1-.53-1.47v-5.83h1.15v5.78a1.12,1.12,0,0,0,.26.79.94.94,0,0,0,.74.28,1.36,1.36,0,0,0,.9-.3l.36.83a1.65,1.65,0,0,1-.63.33A2.74,2.74,0,0,1,101.58,320.76Z"/><path class="cls-6" d="M104.94,313.1a.78.78,0,0,1-.56-.21.71.71,0,0,1-.22-.53.7.7,0,0,1,.22-.54.79.79,0,0,1,.56-.22.79.79,0,0,1,.56.21.76.76,0,0,1-.56,1.29Zm-.58,7.59v-6.36h1.16v6.36Z"/><path class="cls-6" d="M110.44,320.76a3.4,3.4,0,0,1-1.7-.42,3.16,3.16,0,0,1-1.19-1.16,3.48,3.48,0,0,1,0-3.35,3.15,3.15,0,0,1,1.18-1.14,3.41,3.41,0,0,1,1.71-.42,3.49,3.49,0,0,1,1.69.41,3.1,3.1,0,0,1,1.18,1.15,3.57,3.57,0,0,1,0,3.36,3.1,3.1,0,0,1-1.18,1.15A3.39,3.39,0,0,1,110.44,320.76Zm0-1a2.2,2.2,0,0,0,1.09-.27,1.93,1.93,0,0,0,.76-.79,2.65,2.65,0,0,0,0-2.37,1.94,1.94,0,0,0-.76-.77,2.16,2.16,0,0,0-3,.77,2.65,2.65,0,0,0,0,2.37,2.16,2.16,0,0,0,.77.79A2.21,2.21,0,0,0,110.44,319.75Z"/><path class="cls-6" d="M118.73,314.27a3,3,0,0,1,1.37.3,2.1,2.1,0,0,1,.93.91,3.23,3.23,0,0,1,.34,1.55v3.66h-1.16v-3.53a2,2,0,0,0-.44-1.39,1.68,1.68,0,0,0-1.27-.47,2.25,2.25,0,0,0-1.07.24,1.65,1.65,0,0,0-.7.71,2.4,2.4,0,0,0-.25,1.16v3.28h-1.15v-6.36h1.11V316l-.19-.45a2.27,2.27,0,0,1,1-1A3.21,3.21,0,0,1,118.73,314.27Z"/><path class="cls-6" d="M68.3,335.18a4.84,4.84,0,0,1-1.77-.31,4.12,4.12,0,0,1-2.34-2.27,4.29,4.29,0,0,1,.94-4.79,4.15,4.15,0,0,1,1.41-.9,4.84,4.84,0,0,1,1.77-.32,4.71,4.71,0,0,1,1.79.33,3.66,3.66,0,0,1,1.4,1l-.78.76a3,3,0,0,0-1.08-.75,3.25,3.25,0,0,0-1.28-.25,3.56,3.56,0,0,0-1.32.24,3,3,0,0,0-1.74,1.7,3.37,3.37,0,0,0-.24,1.29,3.44,3.44,0,0,0,.24,1.29,3.17,3.17,0,0,0,.69,1,3.22,3.22,0,0,0,1.05.68,3.56,3.56,0,0,0,1.32.24,3.43,3.43,0,0,0,1.28-.25,3,3,0,0,0,1.08-.76l.78.75a3.69,3.69,0,0,1-1.4,1A4.77,4.77,0,0,1,68.3,335.18Z"/><path class="cls-6" d="M74.79,335.16a3,3,0,0,1-1.24-.24,1.92,1.92,0,0,1-.83-.67,1.67,1.67,0,0,1-.28-1,1.85,1.85,0,0,1,.24-.94,1.72,1.72,0,0,1,.81-.67,3.66,3.66,0,0,1,1.5-.25h2v.83H75a1.72,1.72,0,0,0-1.16.28,1,1,0,0,0-.3.7A.89.89,0,0,0,74,334a1.66,1.66,0,0,0,1,.28,2.09,2.09,0,0,0,1.13-.29,1.64,1.64,0,0,0,.71-.84l.22.8a1.81,1.81,0,0,1-.8.89A2.88,2.88,0,0,1,74.79,335.16Zm2.09-.07v-1.35l-.06-.25V331.2a1.44,1.44,0,0,0-.43-1.13,1.79,1.79,0,0,0-1.28-.41,3.49,3.49,0,0,0-1.1.19,2.75,2.75,0,0,0-.91.5l-.48-.87a3.45,3.45,0,0,1,1.18-.6,4.94,4.94,0,0,1,1.45-.21,2.92,2.92,0,0,1,2,.63,2.52,2.52,0,0,1,.71,1.95v3.84Z"/><path class="cls-6" d="M79.19,329.68v-.95h4.06v.95Zm3.1,5.48a2,2,0,0,1-1.49-.52,2,2,0,0,1-.53-1.47v-5.83h1.16v5.78a1.12,1.12,0,0,0,.25.79.94.94,0,0,0,.74.28,1.36,1.36,0,0,0,.9-.3l.36.83a1.65,1.65,0,0,1-.63.33A2.74,2.74,0,0,1,82.29,335.16Z"/><path class="cls-6" d="M86.93,335.16a3,3,0,0,1-1.24-.24,1.89,1.89,0,0,1-.82-.67,1.67,1.67,0,0,1-.29-1,1.76,1.76,0,0,1,.25-.94,1.69,1.69,0,0,1,.8-.67,3.71,3.71,0,0,1,1.51-.25h2v.83h-2a1.75,1.75,0,0,0-1.17.28,1,1,0,0,0-.3.7.92.92,0,0,0,.37.75,1.68,1.68,0,0,0,1,.28,2.1,2.1,0,0,0,1.14-.29,1.62,1.62,0,0,0,.7-.84l.23.8a1.81,1.81,0,0,1-.8.89A2.92,2.92,0,0,1,86.93,335.16Zm2.09-.07v-1.35l-.06-.25V331.2a1.44,1.44,0,0,0-.43-1.13,1.76,1.76,0,0,0-1.27-.41,3.5,3.5,0,0,0-1.11.19,2.75,2.75,0,0,0-.91.5l-.48-.87a3.55,3.55,0,0,1,1.18-.6,5,5,0,0,1,1.45-.21,3,3,0,0,1,2,.63,2.51,2.51,0,0,1,.7,1.95v3.84Z"/><path class="cls-6" d="M92.25,335.09v-8.91H93.4v8.91Z"/><path class="cls-6" d="M98.32,335.16a3.43,3.43,0,0,1-1.7-.42,3.13,3.13,0,0,1-1.18-1.16,3.48,3.48,0,0,1,0-3.35,3.15,3.15,0,0,1,1.18-1.14,3.37,3.37,0,0,1,1.7-.42,3.53,3.53,0,0,1,1.7.41,3,3,0,0,1,1.17,1.15,3.5,3.5,0,0,1,0,3.36,3,3,0,0,1-1.17,1.15A3.43,3.43,0,0,1,98.32,335.16Zm0-1a2.21,2.21,0,0,0,1.1-.27,2,2,0,0,0,.76-.79,2.48,2.48,0,0,0,.28-1.18,2.42,2.42,0,0,0-.28-1.18,2,2,0,0,0-.76-.78,2.21,2.21,0,0,0-1.1-.27,2.18,2.18,0,0,0-1.09.27,2.06,2.06,0,0,0-.77.78,2.32,2.32,0,0,0-.29,1.18,2.37,2.37,0,0,0,.29,1.18,2.09,2.09,0,0,0,.77.79A2.18,2.18,0,0,0,98.32,334.15Z"/><path class="cls-6" d="M105.86,334.82a3.41,3.41,0,0,1-1.65-.39,3,3,0,0,1-1.16-1.08,3.07,3.07,0,0,1-.42-1.61,2.91,2.91,0,0,1,1.58-2.69,3.52,3.52,0,0,1,1.65-.38,3.36,3.36,0,0,1,1.49.33,2.59,2.59,0,0,1,1.07,1,3.92,3.92,0,0,1,0,3.45,2.69,2.69,0,0,1-1.07,1A3.23,3.23,0,0,1,105.86,334.82Zm.14,2.67a5.74,5.74,0,0,1-1.7-.25,3.62,3.62,0,0,1-1.34-.7l.56-.89a3.19,3.19,0,0,0,1.09.61,4.07,4.07,0,0,0,1.35.22,2.26,2.26,0,0,0,1.66-.53,2.2,2.2,0,0,0,.53-1.61V333l.12-1.26-.06-1.27v-1.74h1.09v5.49a3.28,3.28,0,0,1-.84,2.48A3.49,3.49,0,0,1,106,337.49Zm0-3.67a2.33,2.33,0,0,0,1.13-.27,2,2,0,0,0,.77-.73,2.22,2.22,0,0,0,0-2.16,2.08,2.08,0,0,0-.77-.73,2.44,2.44,0,0,0-1.13-.25,2.48,2.48,0,0,0-1.14.25,1.94,1.94,0,0,0-.77.73,2.16,2.16,0,0,0,0,2.16,1.87,1.87,0,0,0,.77.73A2.37,2.37,0,0,0,106,333.82Z"/><path class="cls-6" d="M114.17,335.16a3.23,3.23,0,0,1-1.43-.3,2.19,2.19,0,0,1-1-.92,3.15,3.15,0,0,1-.34-1.55v-3.66h1.15v3.53a2,2,0,0,0,.45,1.4,1.67,1.67,0,0,0,1.26.47,2.09,2.09,0,0,0,1-.25,1.64,1.64,0,0,0,.68-.72,2.49,2.49,0,0,0,.24-1.14v-3.29h1.15v6.36h-1.09v-1.72l.18.46a2.26,2.26,0,0,1-.93,1A2.89,2.89,0,0,1,114.17,335.16Z"/><path class="cls-6" d="M122.45,335.16a3.7,3.7,0,0,1-1.79-.42,3,3,0,0,1-1.2-1.15,3.23,3.23,0,0,1-.43-1.68,3.33,3.33,0,0,1,.42-1.68,2.93,2.93,0,0,1,1.14-1.15,3.29,3.29,0,0,1,1.63-.41,3.17,3.17,0,0,1,1.64.41,2.9,2.9,0,0,1,1.11,1.14,3.64,3.64,0,0,1,.4,1.72,1,1,0,0,1,0,.17c0,.07,0,.13,0,.18h-5.42v-.83h4.81l-.46.29a2.17,2.17,0,0,0-.26-1.09,1.86,1.86,0,0,0-.72-.75,2.11,2.11,0,0,0-1.08-.27,2.06,2.06,0,0,0-1.06.27,1.85,1.85,0,0,0-.73.76,2.23,2.23,0,0,0-.27,1.11V332a2.24,2.24,0,0,0,.29,1.13,2.08,2.08,0,0,0,.83.78,2.6,2.6,0,0,0,1.21.27,2.66,2.66,0,0,0,1-.19,2.25,2.25,0,0,0,.8-.58l.64.75a3,3,0,0,1-1.07.77A3.89,3.89,0,0,1,122.45,335.16Z"/><path class="cls-6" d="M76,358.72a4.73,4.73,0,0,1-1.78-.32,4.41,4.41,0,0,1-1.42-.9,4.35,4.35,0,0,1-.94-1.37,4.29,4.29,0,0,1-.33-1.7,4.13,4.13,0,0,1,1.27-3.07,4.15,4.15,0,0,1,1.41-.9,4.79,4.79,0,0,1,1.79-.33,4.9,4.9,0,0,1,1.78.32,4.29,4.29,0,0,1,1.42.9,4,4,0,0,1,.92,1.37,4.47,4.47,0,0,1,0,3.42,3.89,3.89,0,0,1-.92,1.37,4.29,4.29,0,0,1-1.42.9A4.9,4.9,0,0,1,76,358.72Zm0-1.06a3.42,3.42,0,0,0,1.3-.24,3.05,3.05,0,0,0,1-.69,3.13,3.13,0,0,0,.68-1,3.34,3.34,0,0,0,.25-1.27,3.45,3.45,0,0,0-.25-1.29,3.09,3.09,0,0,0-.68-1,3.18,3.18,0,0,0-1-.68,3.61,3.61,0,0,0-2.59,0,3.18,3.18,0,0,0-1,.68,3.28,3.28,0,0,0-.69,1,3.44,3.44,0,0,0-.24,1.29,3.16,3.16,0,0,0,.93,2.3,3.05,3.05,0,0,0,1,.69A3.44,3.44,0,0,0,76,357.66Zm2.76,2.72a3,3,0,0,1-.8-.1,3.6,3.6,0,0,1-.77-.32,4.81,4.81,0,0,1-.79-.58c-.27-.24-.57-.53-.89-.87l1.28-.34a5.5,5.5,0,0,0,.69.73,2.38,2.38,0,0,0,.66.41,1.82,1.82,0,0,0,.65.12,2,2,0,0,0,1.52-.72l.56.69A2.61,2.61,0,0,1,78.73,360.38Z"/><path class="cls-6" d="M84.78,358.7a3.23,3.23,0,0,1-1.43-.3,2,2,0,0,1-1-.92,3.15,3.15,0,0,1-.35-1.55v-3.66h1.15v3.53a2,2,0,0,0,.46,1.4,1.66,1.66,0,0,0,1.26.47,2.09,2.09,0,0,0,1-.25,1.64,1.64,0,0,0,.68-.72,2.46,2.46,0,0,0,.24-1.14v-3.29H88v6.36H86.94v-1.72l.18.46a2.22,2.22,0,0,1-.94,1A2.72,2.72,0,0,1,84.78,358.7Z"/><path class="cls-6" d="M90.8,351.05a.76.76,0,0,1-.55-.22.72.72,0,0,1-.23-.53.74.74,0,0,1,.23-.54.75.75,0,0,1,.55-.21.78.78,0,0,1,.56.21.66.66,0,0,1,.22.52.75.75,0,0,1-.21.54A.76.76,0,0,1,90.8,351.05Zm-.57,7.58v-6.36h1.15v6.36Z"/><path class="cls-6" d="M93,358.63v-.75L97,352.82l.23.4H93v-1h5.16V353l-4.08,5.05-.26-.4h4.44v.95Z"/><path class="cls-6" d="M99.22,358.63v-.75l4.07-5.06.23.4H99.29v-1h5.16V353l-4.08,5.05-.27-.4h4.44v.95Z"/><path class="cls-6" d="M108.79,358.7a3.67,3.67,0,0,1-1.79-.42,3,3,0,0,1-1.2-1.15,3.23,3.23,0,0,1-.43-1.68,3.43,3.43,0,0,1,.41-1.68,3,3,0,0,1,1.15-1.15,3.26,3.26,0,0,1,1.63-.41,3.11,3.11,0,0,1,1.63.41,2.86,2.86,0,0,1,1.12,1.14,3.68,3.68,0,0,1,.4,1.73s0,.1,0,.16a.9.9,0,0,1,0,.18h-5.41V355h4.81l-.47.28a2.07,2.07,0,0,0-.25-1.09,1.92,1.92,0,0,0-.72-.75,2.11,2.11,0,0,0-1.08-.27,2.06,2.06,0,0,0-1.06.27,1.87,1.87,0,0,0-.74.76,2.33,2.33,0,0,0-.26,1.11v.19a2.24,2.24,0,0,0,.29,1.13,2.12,2.12,0,0,0,.82.78,2.67,2.67,0,0,0,1.22.27,2.61,2.61,0,0,0,1-.19,2.3,2.3,0,0,0,.81-.57l.64.74a2.85,2.85,0,0,1-1.07.77A3.89,3.89,0,0,1,108.79,358.7Z"/><path class="cls-6" d="M115.13,358.7a5.35,5.35,0,0,1-1.51-.21,3.54,3.54,0,0,1-1.12-.53l.48-.91a4.13,4.13,0,0,0,1,.46,3.9,3.9,0,0,0,1.22.2,2.25,2.25,0,0,0,1.16-.23.73.73,0,0,0,.35-.64.58.58,0,0,0-.21-.47,1.67,1.67,0,0,0-.57-.25c-.24-.05-.5-.11-.79-.15a8.71,8.71,0,0,1-.86-.17,2.86,2.86,0,0,1-.79-.29,1.44,1.44,0,0,1-.58-.51,1.53,1.53,0,0,1-.22-.88,1.61,1.61,0,0,1,.33-1,2,2,0,0,1,.91-.67,4,4,0,0,1,1.41-.23,5.57,5.57,0,0,1,1.27.15,3,3,0,0,1,1,.43l-.49.91a2.77,2.77,0,0,0-.9-.4,4.24,4.24,0,0,0-.94-.11,2.13,2.13,0,0,0-1.13.25.74.74,0,0,0-.37.63.62.62,0,0,0,.22.5,2,2,0,0,0,.58.27,7.33,7.33,0,0,0,.79.16c.28,0,.57.1.86.17a3.68,3.68,0,0,1,.79.28,1.39,1.39,0,0,1,.79,1.37,1.55,1.55,0,0,1-.33,1,2.25,2.25,0,0,1-1,.66A4.26,4.26,0,0,1,115.13,358.7Z"/></g></g></svg>