<svg xmlns="http://www.w3.org/2000/svg" viewBox="0 0 199.1 476.04"><defs><style>.cls-1{fill:#67a1c6;}.cls-2{fill:#a5c8db;}.cls-3{fill:#af4308;}.cls-4{fill:#ffbd1a;}.cls-5{fill:#0d3f62;}.cls-6{fill:#1d1d1b;}</style></defs><g id="Layer_2" data-name="Layer 2"><g id="Layer_1-2" data-name="Layer 1"><rect class="cls-1" width="198.94" height="362.08"/><rect class="cls-2" x="0.16" y="98.21" width="198.94" height="23.32"/><rect class="cls-2" x="0.16" y="162.39" width="198.94" height="23.32"/><rect class="cls-2" x="0.16" y="223.17" width="198.94" height="34.3"/><rect class="cls-2" x="0.16" y="289.37" width="198.94" height="34.3"/><rect class="cls-2" y="39.76" width="198.94" height="34.48"/><polygon class="cls-1" points="98.94 476.04 100 476.04 0 362.08 198.94 362.08 98.94 476.04"/><rect class="cls-3" x="52.41" y="402.78" width="95.12" height="18.53" rx="5.64"/><rect class="cls-4" x="52.41" y="401.53" width="95.12" height="18.53" rx="5.64"/><rect class="cls-4" y="6.12" width="198.94" height="30.73"/><path class="cls-5" d="M53,26.14v-8.4h3.64a4.8,4.8,0,0,1,1.94.36,3,3,0,0,1,1.26,1,2.89,2.89,0,0,1,.44,1.62,2.86,2.86,0,0,1-.44,1.63,3,3,0,0,1-1.26,1.05,4.63,4.63,0,0,1-1.94.37H54l.89-.87v3.19Zm2-3L54,22.24h2.46a2,2,0,0,0,1.34-.39,1.49,1.49,0,0,0,0-2.15,2.06,2.06,0,0,0-1.34-.38H54l.89-.92Z"/><path class="cls-5" d="M61.61,26.14v-8.4h3.64a4.77,4.77,0,0,1,1.94.36,2.86,2.86,0,0,1,1.26,1,2.9,2.9,0,0,1,.45,1.62,2.86,2.86,0,0,1-.45,1.63,2.7,2.7,0,0,1-1.26,1,4.77,4.77,0,0,1-1.94.36H62.68l.89-.84v3.19Zm2-3-.89-.92h2.46a2.05,2.05,0,0,0,1.35-.39,1.51,1.51,0,0,0,0-2.15,2.11,2.11,0,0,0-1.35-.38H62.68l.89-.92Zm3.4,3-2.12-3.05h2.09l2.11,3.05Z"/><path class="cls-5" d="M70.43,26.14v-8.4h2v8.4Z"/><path class="cls-5" d="M78.39,26.28A4.89,4.89,0,0,1,76.58,26a4.21,4.21,0,0,1-2.4-2.28,4.62,4.62,0,0,1,0-3.48,4.18,4.18,0,0,1,1-1.38,4.39,4.39,0,0,1,1.46-.91,5.29,5.29,0,0,1,3.78.06,3.82,3.82,0,0,1,1.49,1.11l-1.26,1.15a3,3,0,0,0-1-.74,2.61,2.61,0,0,0-1.15-.25,2.67,2.67,0,0,0-1.08.2,2.58,2.58,0,0,0-.86.55,2.49,2.49,0,0,0-.55.86,2.72,2.72,0,0,0-.2,1.09A2.75,2.75,0,0,0,76,23a2.45,2.45,0,0,0,.55.85,2.61,2.61,0,0,0,.86.56,2.85,2.85,0,0,0,1.08.2,2.62,2.62,0,0,0,1.15-.26,2.85,2.85,0,0,0,1-.75l1.26,1.15a3.94,3.94,0,0,1-1.49,1.12A5.08,5.08,0,0,1,78.39,26.28Z"/><path class="cls-5" d="M85.1,24.58h4.57v1.56H83.16v-8.4h6.35V19.3H85.1ZM85,21.11h4v1.52H85Z"/><path class="cls-5" d="M96.35,26.14V19.32H93.66V17.74H101v1.58H98.3v6.82Z"/><path class="cls-5" d="M100.5,26.14l3.74-8.4h1.92l3.76,8.4h-2l-3.08-7.42h.78l-3.08,7.42Zm1.89-1.8.49-1.48h4.34l.51,1.48Z"/><path class="cls-5" d="M110.8,26.14v-8.4h4.1a4,4,0,0,1,2.39.6,1.89,1.89,0,0,1,.79,1.58,2,2,0,0,1-.32,1.15,2.19,2.19,0,0,1-.89.75,3.13,3.13,0,0,1-1.29.26l.22-.5a3.57,3.57,0,0,1,1.4.26,2.23,2.23,0,0,1,1,.77,2.15,2.15,0,0,1,.34,1.24,1.93,1.93,0,0,1-.85,1.68,4.27,4.27,0,0,1-2.51.61Zm1.93-1.47H115a2.1,2.1,0,0,0,1.14-.25,1,1,0,0,0,0-1.57A2.1,2.1,0,0,0,115,22.6h-2.42V21.18h2.07a2,2,0,0,0,1.09-.24.85.85,0,0,0,.38-.75.83.83,0,0,0-.38-.75,2,2,0,0,0-1.09-.24h-1.93Z"/><path class="cls-5" d="M120,26.14v-8.4h2v6.81h4.18v1.59Z"/><path class="cls-5" d="M129.16,24.58h4.57v1.56h-6.5v-8.4h6.35V19.3h-4.42ZM129,21.11h4v1.52h-4Z"/><path class="cls-5" d="M138.68,26.14v-8.4h4.1a3.92,3.92,0,0,1,2.38.6,1.89,1.89,0,0,1,.8,1.58,2.09,2.09,0,0,1-.32,1.15,2.22,2.22,0,0,1-.9.75,3.13,3.13,0,0,1-1.29.26l.23-.5a3.6,3.6,0,0,1,1.4.26,2.2,2.2,0,0,1,.95.77,2.16,2.16,0,0,1,.35,1.24,1.93,1.93,0,0,1-.85,1.68,4.29,4.29,0,0,1-2.51.61Zm1.93-1.47h2.28a2.14,2.14,0,0,0,1.14-.25,1,1,0,0,0,0-1.57,2.14,2.14,0,0,0-1.14-.25h-2.43V21.18h2.08a2.07,2.07,0,0,0,1.09-.24.85.85,0,0,0,.37-.75.82.82,0,0,0-.37-.75,2.07,2.07,0,0,0-1.09-.24h-1.93Z"/><path class="cls-5" d="M86.82,414v-5.87h1.12l2.5,4.14h-.6l2.45-4.14h1.13V414H92.15v-3.92h.25l-2,3.29h-.6l-2-3.29h.27V414Z"/><path class="cls-5" d="M97.67,414.09a3.51,3.51,0,0,1-1.28-.23,2.94,2.94,0,0,1-1-.64,2.82,2.82,0,0,1-.67-1,3,3,0,0,1,.67-3.38,3.13,3.13,0,0,1,1-.63,3.35,3.35,0,0,1,1.28-.23,3.55,3.55,0,0,1,1.28.22,3.19,3.19,0,0,1,1,.63,2.84,2.84,0,0,1,.68,1,3.17,3.17,0,0,1,0,2.42,2.75,2.75,0,0,1-.68,1,3,3,0,0,1-1,.63A3.5,3.5,0,0,1,97.67,414.09Zm0-1.15a1.89,1.89,0,0,0,.72-.14,1.79,1.79,0,0,0,.59-.39,2.12,2.12,0,0,0,.39-2.12,2.16,2.16,0,0,0-.39-.59,1.79,1.79,0,0,0-.59-.39,1.71,1.71,0,0,0-.72-.14,1.76,1.76,0,0,0-.73.14,1.65,1.65,0,0,0-.58.39,1.79,1.79,0,0,0-.39.59,2.13,2.13,0,0,0,0,1.52,1.73,1.73,0,0,0,.39.6,1.65,1.65,0,0,0,.58.39A1.94,1.94,0,0,0,97.66,412.94Z"/><path class="cls-5" d="M101.89,414v-5.87h2.54a3.18,3.18,0,0,1,1.36.26,2,2,0,0,1,.88.73,2.08,2.08,0,0,1,.31,1.13,2.05,2.05,0,0,1-.31,1.13,2,2,0,0,1-.88.73,3.52,3.52,0,0,1-1.36.24h-1.79l.62-.58V414Zm1.37-2.08-.62-.65h1.71a1.41,1.41,0,0,0,.94-.27.92.92,0,0,0,.32-.75.94.94,0,0,0-.32-.75,1.41,1.41,0,0,0-.94-.26h-1.71l.62-.65Zm2.37,2.08-1.48-2.13h1.46l1.48,2.13Z"/><path class="cls-5" d="M109.4,412.9h3.19V414h-4.54v-5.87h4.43v1.09H109.4Zm-.1-2.43h2.82v1.07H109.3Z"/><path class="cls-5" d="M116.44,414.05a.8.8,0,0,1-.81-.81.82.82,0,1,1,1.63,0,.77.77,0,0,1-.24.58A.76.76,0,0,1,116.44,414.05Z"/><path class="cls-5" d="M118.64,414.05a.75.75,0,0,1-.57-.23.77.77,0,0,1-.24-.58.8.8,0,0,1,.24-.6.78.78,0,0,1,.57-.22.81.81,0,0,1,.58.22.83.83,0,0,1,.23.6.8.8,0,0,1-.23.58A.78.78,0,0,1,118.64,414.05Z"/><path class="cls-5" d="M120.83,414.05a.8.8,0,0,1-.81-.81.82.82,0,1,1,1.63,0,.77.77,0,0,1-.24.58A.76.76,0,0,1,120.83,414.05Z"/><polygon class="cls-2" points="32.94 399.73 165.99 399.73 192.76 369.43 6.3 369.43 32.94 399.73"/><path class="cls-6" d="M49.79,53.92l3.8-8.4h1.19l3.81,8.4H57.33l-3.39-7.73h.48L51,53.92Zm1.62-2.1.32-1h4.73l.35,1Z"/><path class="cls-6" d="M62.39,54a3.56,3.56,0,0,1-1.74-.42,3,3,0,0,1-1.19-1.15,3.43,3.43,0,0,1,0-3.36,3,3,0,0,1,1.19-1.15,3.66,3.66,0,0,1,1.74-.41,3.38,3.38,0,0,1,1.54.34,2.46,2.46,0,0,1,1.05,1l-.88.56a2,2,0,0,0-.76-.69,2.13,2.13,0,0,0-1-.22,2.25,2.25,0,0,0-1.11.27,2.09,2.09,0,0,0-.78.78,2.22,2.22,0,0,0-.29,1.18,2.28,2.28,0,0,0,.29,1.19,2.09,2.09,0,0,0,.78.78,2.25,2.25,0,0,0,1.11.27,2.13,2.13,0,0,0,1-.22,2,2,0,0,0,.76-.69l.88.55a2.58,2.58,0,0,1-1.05,1A3.39,3.39,0,0,1,62.39,54Z"/><path class="cls-6" d="M65.61,48.51v-.95h4.06v.95ZM68.71,54a2.06,2.06,0,0,1-1.49-.51A2,2,0,0,1,66.69,52V46.17h1.16V52a1.1,1.1,0,0,0,.25.79.94.94,0,0,0,.74.28,1.36,1.36,0,0,0,.9-.3l.36.83a1.58,1.58,0,0,1-.63.33A2.41,2.41,0,0,1,68.71,54Z"/><path class="cls-6" d="M72.07,46.34a.8.8,0,0,1-.56-.22.69.69,0,0,1-.22-.53.73.73,0,0,1,.22-.54.85.85,0,0,1,1.12,0,.75.75,0,0,1,0,1.06A.74.74,0,0,1,72.07,46.34Zm-.58,7.58V47.56h1.15v6.36Z"/><path class="cls-6" d="M76.51,53.92l-2.79-6.36h1.21l2.47,5.76h-.58l2.52-5.76h1.13l-2.79,6.36Z"/><path class="cls-6" d="M82.12,46.34a.76.76,0,0,1-.55-.22.7.7,0,0,1-.23-.53.74.74,0,0,1,.23-.54.75.75,0,0,1,.55-.21.78.78,0,0,1,.56.21.67.67,0,0,1,.22.52.75.75,0,0,1-.21.54A.76.76,0,0,1,82.12,46.34Zm-.57,7.58V47.56H82.7v6.36Z"/><path class="cls-6" d="M84,48.51v-.95H88v.95ZM87.08,54a2.06,2.06,0,0,1-1.49-.51A2,2,0,0,1,85.06,52V46.17h1.16V52a1.1,1.1,0,0,0,.25.79,1,1,0,0,0,.74.28,1.36,1.36,0,0,0,.9-.3l.36.83a1.58,1.58,0,0,1-.63.33A2.37,2.37,0,0,1,87.08,54Z"/><path class="cls-6" d="M90,56.32a2.73,2.73,0,0,1-.89-.15,2.2,2.2,0,0,1-.74-.44l.49-.86a1.81,1.81,0,0,0,.53.35,1.58,1.58,0,0,0,.61.12,1.15,1.15,0,0,0,.7-.22,2,2,0,0,0,.51-.77l.4-.87.12-.15,2.49-5.77h1.13l-3.08,7a3.78,3.78,0,0,1-.62,1,2,2,0,0,1-.75.55A2.36,2.36,0,0,1,90,56.32Zm1.51-2.2-2.9-6.56h1.2l2.47,5.66Z"/><path class="cls-6" d="M102.07,54a4,4,0,0,1-1.51-.28,2.53,2.53,0,0,1-1-.77,1.84,1.84,0,0,1-.38-1.14,2.12,2.12,0,0,1,.25-1,3.29,3.29,0,0,1,.8-.91,9.4,9.4,0,0,1,1.46-.9,12.47,12.47,0,0,0,1.14-.67,2.46,2.46,0,0,0,.59-.55,1,1,0,0,0,.17-.56.84.84,0,0,0-.28-.66,1.18,1.18,0,0,0-.83-.26,1.26,1.26,0,0,0-.88.28.91.91,0,0,0-.32.74,1.11,1.11,0,0,0,.08.44,1.57,1.57,0,0,0,.28.46c.14.18.35.39.61.66l4.44,4.41-.65.77-4.71-4.69a6.55,6.55,0,0,1-.66-.75,2.4,2.4,0,0,1-.35-.64,2,2,0,0,1-.11-.64,1.76,1.76,0,0,1,.28-1,1.91,1.91,0,0,1,.79-.66,3,3,0,0,1,1.2-.23,2.67,2.67,0,0,1,1.1.21,1.59,1.59,0,0,1,1,1.54,1.72,1.72,0,0,1-.24.89,2.61,2.61,0,0,1-.75.79,9.76,9.76,0,0,1-1.39.83,7.67,7.67,0,0,0-1.13.69,2.22,2.22,0,0,0-.58.63,1.32,1.32,0,0,0-.17.68,1.07,1.07,0,0,0,.23.7,1.49,1.49,0,0,0,.66.48,2.7,2.7,0,0,0,1,.17,3,3,0,0,0,1.45-.35,2.88,2.88,0,0,0,1.09-1.05,5.19,5.19,0,0,0,.64-1.72l.92.3a5.41,5.41,0,0,1-.82,2A3.88,3.88,0,0,1,104,53.57,4.06,4.06,0,0,1,102.07,54Z"/><path class="cls-6" d="M112.51,53.92h-1.2v-8.4h1.2Zm4.93-3.74h-5v-1h5Zm-.11-4.66h1.2v8.4h-1.2Z"/><path class="cls-6" d="M122.74,54a3,3,0,0,1-1.24-.24,1.94,1.94,0,0,1-.82-.66,1.73,1.73,0,0,1-.29-1,1.79,1.79,0,0,1,.25-.94,1.69,1.69,0,0,1,.8-.67,3.71,3.71,0,0,1,1.51-.25h2v.83h-2a1.69,1.69,0,0,0-1.17.29.94.94,0,0,0,.07,1.44,1.69,1.69,0,0,0,1,.28,2.18,2.18,0,0,0,1.13-.28,1.7,1.7,0,0,0,.7-.84l.23.79a1.81,1.81,0,0,1-.8.89A2.92,2.92,0,0,1,122.74,54Zm2.09-.07V52.58l-.06-.26V50a1.49,1.49,0,0,0-.42-1.13,1.8,1.8,0,0,0-1.28-.4,3.49,3.49,0,0,0-1.11.18,2.94,2.94,0,0,0-.91.5l-.48-.86a3.39,3.39,0,0,1,1.18-.61,5,5,0,0,1,1.45-.21,2.92,2.92,0,0,1,2,.64,2.48,2.48,0,0,1,.7,1.94v3.84Z"/><path class="cls-6" d="M128.06,53.92V45h1.15v4.23l-.12,1.48.07,1.47v1.72Zm3.37.07a3,3,0,0,1-1.47-.36,2.65,2.65,0,0,1-1-1.09,3.87,3.87,0,0,1-.38-1.8,3.75,3.75,0,0,1,.39-1.8A2.61,2.61,0,0,1,130,47.86a2.9,2.9,0,0,1,1.44-.36,3.32,3.32,0,0,1,1.66.41A3,3,0,0,1,134.23,49a3.65,3.65,0,0,1,0,3.4,3,3,0,0,1-1.14,1.14A3.22,3.22,0,0,1,131.43,54Zm-.09-1a2.2,2.2,0,0,0,1.09-.27,2,2,0,0,0,.77-.79,2.37,2.37,0,0,0,.28-1.18,2.32,2.32,0,0,0-.28-1.18,2.06,2.06,0,0,0-.77-.78,2.34,2.34,0,0,0-2.18,0,2.13,2.13,0,0,0-.77.78,2.32,2.32,0,0,0-.28,1.18,2.37,2.37,0,0,0,.28,1.18,2.09,2.09,0,0,0,.77.79A2.2,2.2,0,0,0,131.34,53Z"/><path class="cls-6" d="M136.82,46.34a.8.8,0,0,1-.56-.22.69.69,0,0,1-.22-.53.73.73,0,0,1,.22-.54.85.85,0,0,1,1.12,0,.67.67,0,0,1,.22.52.72.72,0,0,1-.22.54A.74.74,0,0,1,136.82,46.34Zm-.58,7.58V47.56h1.16v6.36Z"/><path class="cls-6" d="M138.68,48.51v-.95h4.06v.95Zm3.1,5.48a2.06,2.06,0,0,1-1.49-.51,2,2,0,0,1-.53-1.48V46.17h1.15V52a1.11,1.11,0,0,0,.26.79.94.94,0,0,0,.74.28,1.36,1.36,0,0,0,.9-.3l.36.83a1.73,1.73,0,0,1-.63.33A2.45,2.45,0,0,1,141.78,54Z"/><path class="cls-6" d="M77.31,68.32V61H74.43v-1h6.94v1H78.49v7.36Z"/><path class="cls-6" d="M82.33,68.32V62h1.11v1.73l-.11-.43a2,2,0,0,1,.89-1,3.12,3.12,0,0,1,1.53-.35V63l-.13,0h-.13a1.94,1.94,0,0,0-1.46.56,2.17,2.17,0,0,0-.54,1.59v3.17Z"/><path class="cls-6" d="M88.51,68.39a3,3,0,0,1-1.24-.24,1.94,1.94,0,0,1-.82-.66,1.73,1.73,0,0,1-.29-1,1.79,1.79,0,0,1,.25-.94,1.69,1.69,0,0,1,.8-.67,3.71,3.71,0,0,1,1.51-.25h2v.83h-2a1.69,1.69,0,0,0-1.17.29.94.94,0,0,0,.07,1.44,1.69,1.69,0,0,0,1,.28,2.18,2.18,0,0,0,1.13-.28,1.7,1.7,0,0,0,.7-.84l.23.79a1.81,1.81,0,0,1-.8.89A2.92,2.92,0,0,1,88.51,68.39Zm2.09-.07V67l-.06-.26V64.43a1.49,1.49,0,0,0-.42-1.13,1.8,1.8,0,0,0-1.28-.4,3.49,3.49,0,0,0-1.11.18,2.94,2.94,0,0,0-.91.5l-.48-.86a3.39,3.39,0,0,1,1.18-.61A5,5,0,0,1,89,61.9a2.92,2.92,0,0,1,2,.64,2.48,2.48,0,0,1,.7,1.94v3.84Z"/><path class="cls-6" d="M96.6,68.39A3.52,3.52,0,0,1,94.87,68a3.09,3.09,0,0,1-1.2-1.15,3.5,3.5,0,0,1,0-3.36,3.09,3.09,0,0,1,1.2-1.15,3.62,3.62,0,0,1,1.73-.41,3.32,3.32,0,0,1,1.54.34,2.35,2.35,0,0,1,1,1l-.87.56a2,2,0,0,0-.76-.69,2.15,2.15,0,0,0-1-.22,2.29,2.29,0,0,0-1.12.27,2.24,2.24,0,0,0-.78.78,2.32,2.32,0,0,0-.28,1.18,2.38,2.38,0,0,0,.28,1.19,2.24,2.24,0,0,0,.78.78,2.29,2.29,0,0,0,1.12.27,2.15,2.15,0,0,0,1-.22,2,2,0,0,0,.76-.69l.87.55a2.46,2.46,0,0,1-1,1A3.33,3.33,0,0,1,96.6,68.39Z"/><path class="cls-6" d="M100.56,68.32v-8.9h1.15v8.9Zm.94-1.54,0-1.47L105.18,62h1.39l-2.8,2.76-.63.53Zm3.92,1.54-2.49-3.1.74-.92,3.17,4Z"/><path class="cls-6" d="M110.55,68.39a3.74,3.74,0,0,1-1.8-.42,3.09,3.09,0,0,1-1.2-1.15,3.61,3.61,0,0,1,0-3.36,3.07,3.07,0,0,1,1.14-1.15,3.3,3.3,0,0,1,1.64-.41,3.23,3.23,0,0,1,1.63.41,2.9,2.9,0,0,1,1.11,1.14,3.56,3.56,0,0,1,.4,1.73v.16c0,.07,0,.13,0,.18H108V64.7h4.81l-.47.28a2.19,2.19,0,0,0-.25-1.09,2,2,0,0,0-.73-.75,2.07,2.07,0,0,0-1.07-.27,2.1,2.1,0,0,0-1.07.27,1.85,1.85,0,0,0-.73.76,2.23,2.23,0,0,0-.27,1.11v.19a2.15,2.15,0,0,0,.3,1.13,2,2,0,0,0,.82.78,2.86,2.86,0,0,0,2.24.08,2.3,2.3,0,0,0,.81-.57l.63.74a2.7,2.7,0,0,1-1.07.77A3.87,3.87,0,0,1,110.55,68.39Z"/><path class="cls-6" d="M115.06,68.32V62h1.1v1.73l-.11-.43a2,2,0,0,1,.89-1,3.16,3.16,0,0,1,1.54-.35V63l-.14,0h-.13a2,2,0,0,0-1.46.56,2.17,2.17,0,0,0-.54,1.59v3.17Z"/><path class="cls-6" d="M77.22,91.38a4.75,4.75,0,0,1-1.79-.32,4.15,4.15,0,0,1-1.41-.9,4.19,4.19,0,0,1-.94-1.36,4.62,4.62,0,0,1,0-3.43A4.3,4.3,0,0,1,74,84a4.24,4.24,0,0,1,1.43-.9,4.93,4.93,0,0,1,1.8-.32,5.08,5.08,0,0,1,1.82.32,3.64,3.64,0,0,1,1.4,1l-.74.75a3.31,3.31,0,0,0-1.12-.74,3.77,3.77,0,0,0-1.32-.23A3.61,3.61,0,0,0,76,84.1a3.09,3.09,0,0,0-1.07.67,3,3,0,0,0-.7,1A3.44,3.44,0,0,0,74,87.08a3.35,3.35,0,0,0,.24,1.28,3.08,3.08,0,0,0,.7,1,3.14,3.14,0,0,0,1.06.67,3.61,3.61,0,0,0,1.33.24,4,4,0,0,0,1.29-.21,3.16,3.16,0,0,0,1.15-.7l.68.91a4.22,4.22,0,0,1-1.46.8A5.53,5.53,0,0,1,77.22,91.38Zm2-1.22V87H80.4v3.27Z"/><path class="cls-6" d="M84.39,91.36a3,3,0,0,1-1.25-.24,1.89,1.89,0,0,1-.82-.67,1.7,1.7,0,0,1-.29-1,1.76,1.76,0,0,1,.25-.94,1.64,1.64,0,0,1,.8-.67,3.73,3.73,0,0,1,1.51-.26h2v.83h-2a1.74,1.74,0,0,0-1.17.29.92.92,0,0,0-.3.7.9.9,0,0,0,.38.75,1.7,1.7,0,0,0,1,.28,2.18,2.18,0,0,0,1.13-.29,1.62,1.62,0,0,0,.7-.84l.23.79a1.79,1.79,0,0,1-.8.9A2.91,2.91,0,0,1,84.39,91.36Zm2.08-.08V89.94l-.06-.25V87.4A1.51,1.51,0,0,0,86,86.26a1.8,1.8,0,0,0-1.28-.4,3.28,3.28,0,0,0-1.11.19,2.92,2.92,0,0,0-.91.49l-.48-.86a3.56,3.56,0,0,1,1.18-.61,5.35,5.35,0,0,1,1.45-.21,3,3,0,0,1,2,.64,2.48,2.48,0,0,1,.7,2v3.83Z"/><path class="cls-6" d="M97.66,84.86a2.92,2.92,0,0,1,1.35.3,2.15,2.15,0,0,1,.92.92,3.22,3.22,0,0,1,.33,1.54v3.66H99.11V87.76a2,2,0,0,0-.43-1.4,1.58,1.58,0,0,0-1.21-.46,2,2,0,0,0-1,.24,1.62,1.62,0,0,0-.67.7A2.71,2.71,0,0,0,95.56,88v3.27H94.4V87.76a2.05,2.05,0,0,0-.42-1.4,1.58,1.58,0,0,0-1.22-.46,2,2,0,0,0-1,.24,1.64,1.64,0,0,0-.68.7A2.57,2.57,0,0,0,90.85,88v3.27H89.7V84.92h1.11v1.7l-.19-.43a2.2,2.2,0,0,1,.93-1A2.94,2.94,0,0,1,93,84.86a2.72,2.72,0,0,1,1.57.46,2.12,2.12,0,0,1,.87,1.36L95,86.49a2.4,2.4,0,0,1,1-1.18A3.1,3.1,0,0,1,97.66,84.86Z"/><path class="cls-6" d="M103,83.7a.79.79,0,0,1-.56-.21.77.77,0,0,1-.22-.53.74.74,0,0,1,.22-.54.76.76,0,0,1,.56-.22.79.79,0,0,1,.56.21.69.69,0,0,1,.22.52.74.74,0,0,1-.78.77Zm-.57,7.58V84.92h1.15v6.36Z"/><path class="cls-6" d="M109.13,84.86a3,3,0,0,1,1.37.3,2.12,2.12,0,0,1,.93.92,3.11,3.11,0,0,1,.34,1.54v3.66h-1.15V87.76a2,2,0,0,0-.45-1.4,1.69,1.69,0,0,0-1.27-.46,2.28,2.28,0,0,0-1.07.24,1.69,1.69,0,0,0-.7.7,2.57,2.57,0,0,0-.24,1.17v3.27h-1.16V84.92h1.11v1.72l-.18-.45a2.16,2.16,0,0,1,1-1A3.15,3.15,0,0,1,109.13,84.86Z"/><path class="cls-6" d="M116.55,91a3.48,3.48,0,0,1-1.66-.39,3,3,0,0,1-1.57-2.69,3.05,3.05,0,0,1,.42-1.62,3,3,0,0,1,1.15-1.07,3.48,3.48,0,0,1,1.66-.39,3.32,3.32,0,0,1,1.48.34,2.44,2.44,0,0,1,1.08,1,3.9,3.9,0,0,1,0,3.44,2.61,2.61,0,0,1-1.08,1A3.19,3.19,0,0,1,116.55,91Zm.14,2.67a6,6,0,0,1-1.7-.25,3.55,3.55,0,0,1-1.34-.7l.55-.89a3.06,3.06,0,0,0,1.1.6,4.07,4.07,0,0,0,1.35.23,2.28,2.28,0,0,0,1.66-.53,2.2,2.2,0,0,0,.53-1.61V89.2l.12-1.26-.06-1.28V84.92H120v5.5a3.25,3.25,0,0,1-.84,2.47A3.45,3.45,0,0,1,116.69,93.69Zm0-3.68a2.44,2.44,0,0,0,1.13-.26,2,2,0,0,0,1-1.81,2,2,0,0,0-.28-1.08,1.93,1.93,0,0,0-.77-.73,2.61,2.61,0,0,0-2.27,0,1.89,1.89,0,0,0-.78.73,2,2,0,0,0-.28,1.08,2.07,2.07,0,0,0,.28,1.08,2,2,0,0,0,.78.73A2.46,2.46,0,0,0,116.68,90Z"/><path class="cls-6" d="M79.56,113.55a4.74,4.74,0,0,1-1.78-.33,4.1,4.1,0,0,1-1.42-.9,4.41,4.41,0,0,1-.94-4.77,4.19,4.19,0,0,1,.94-1.36,4.33,4.33,0,0,1,1.41-.91,4.78,4.78,0,0,1,1.79-.32,4.9,4.9,0,0,1,1.78.31,4.64,4.64,0,0,1,1.42.9,4.13,4.13,0,0,1,.92,1.37,4.5,4.5,0,0,1,0,3.43,4.09,4.09,0,0,1-.92,1.36,4.29,4.29,0,0,1-1.42.9A4.9,4.9,0,0,1,79.56,113.55Zm0-1.07a3.42,3.42,0,0,0,1.3-.24,3.05,3.05,0,0,0,1-.69,3.19,3.19,0,0,0,.68-1,3.3,3.3,0,0,0,.24-1.27,3.35,3.35,0,0,0-.24-1.28,3.3,3.3,0,0,0-.68-1,3.18,3.18,0,0,0-1-.68,3.61,3.61,0,0,0-2.59,0,3.18,3.18,0,0,0-1,.68,3.38,3.38,0,0,0-.69,3.58,3.21,3.21,0,0,0,.69,1,3.05,3.05,0,0,0,1,.69A3.44,3.44,0,0,0,79.55,112.48Zm2.76,2.72a3,3,0,0,1-.8-.1,3.15,3.15,0,0,1-.77-.32,4.81,4.81,0,0,1-.79-.58,10.11,10.11,0,0,1-.89-.87l1.28-.33a6,6,0,0,0,.69.72,2.16,2.16,0,0,0,.66.41,1.84,1.84,0,0,0,.65.13,2,2,0,0,0,1.52-.72l.56.68A2.58,2.58,0,0,1,82.31,115.2Z"/><path class="cls-6" d="M88.36,113.52a3.2,3.2,0,0,1-1.43-.3,2,2,0,0,1-1-.92,3.12,3.12,0,0,1-.35-1.55v-3.66h1.15v3.53a2,2,0,0,0,.45,1.4,1.66,1.66,0,0,0,1.27.47,2.2,2.2,0,0,0,1.05-.24,1.75,1.75,0,0,0,.68-.72,2.54,2.54,0,0,0,.24-1.15v-3.29h1.15v6.36H90.52v-1.71l.18.45a2.25,2.25,0,0,1-.94,1A2.82,2.82,0,0,1,88.36,113.52Z"/><path class="cls-6" d="M96.53,113.52a3.43,3.43,0,0,1-1.7-.42A3.1,3.1,0,0,1,93.65,112a3.26,3.26,0,0,1-.43-1.68,3.17,3.17,0,0,1,.43-1.67,3.1,3.1,0,0,1,1.18-1.15,3.37,3.37,0,0,1,1.7-.42,3.43,3.43,0,0,1,1.7.42,3,3,0,0,1,1.18,1.14,3.57,3.57,0,0,1,0,3.36,3.1,3.1,0,0,1-1.18,1.15A3.43,3.43,0,0,1,96.53,113.52Zm0-1a2.22,2.22,0,0,0,1.1-.28,1.93,1.93,0,0,0,.76-.79,2.37,2.37,0,0,0,.28-1.18,2.34,2.34,0,0,0-.28-1.18,1.94,1.94,0,0,0-.76-.77,2.12,2.12,0,0,0-1.1-.28,2.08,2.08,0,0,0-1.09.28,2,2,0,0,0-.77.77,2.34,2.34,0,0,0-.29,1.18,2.37,2.37,0,0,0,.29,1.18,2,2,0,0,0,.77.79A2.18,2.18,0,0,0,96.53,112.52Z"/><path class="cls-6" d="M100.51,108v-1h4.06v1Zm3.1,5.48a2.06,2.06,0,0,1-1.49-.51,2,2,0,0,1-.53-1.48V105.7h1.16v5.78a1.15,1.15,0,0,0,.25.8,1,1,0,0,0,.74.27,1.36,1.36,0,0,0,.9-.3l.36.83a1.73,1.73,0,0,1-.63.34A2.73,2.73,0,0,1,103.61,113.52Z"/><path class="cls-6" d="M109,113.52a3.74,3.74,0,0,1-1.8-.42A3.09,3.09,0,0,1,106,112a3.61,3.61,0,0,1,0-3.36,3,3,0,0,1,1.14-1.14,3.43,3.43,0,0,1,3.27,0,2.86,2.86,0,0,1,1.11,1.15,3.5,3.5,0,0,1,.4,1.72v.17c0,.06,0,.12,0,.18h-5.41v-.83h4.81l-.47.29a2.2,2.2,0,0,0-.25-1.1,2,2,0,0,0-.73-.75,2.07,2.07,0,0,0-1.07-.27,2.1,2.1,0,0,0-1.07.27,2,2,0,0,0-.73.76,2.23,2.23,0,0,0-.27,1.11v.19a2.18,2.18,0,0,0,.3,1.14,2,2,0,0,0,.82.77,2.75,2.75,0,0,0,2.24.08,2.17,2.17,0,0,0,.81-.57l.63.74a2.7,2.7,0,0,1-1.07.77A3.64,3.64,0,0,1,109,113.52Z"/><path class="cls-6" d="M115.32,113.52a5.23,5.23,0,0,1-1.5-.21,3.72,3.72,0,0,1-1.13-.53l.48-.91a4.31,4.31,0,0,0,1,.47,4.27,4.27,0,0,0,1.23.19,2.2,2.2,0,0,0,1.15-.23.71.71,0,0,0,.36-.64.53.53,0,0,0-.22-.46,1.37,1.37,0,0,0-.57-.26l-.78-.15c-.29,0-.58-.1-.87-.16a3.69,3.69,0,0,1-.79-.29,1.41,1.41,0,0,1-.79-1.4,1.67,1.67,0,0,1,.32-1,2,2,0,0,1,.92-.66,3.78,3.78,0,0,1,1.41-.24,5.57,5.57,0,0,1,1.27.15,3.16,3.16,0,0,1,1.05.43l-.5.91a2.79,2.79,0,0,0-.9-.4,4.2,4.2,0,0,0-.93-.1,2.11,2.11,0,0,0-1.13.24.73.73,0,0,0-.37.63.59.59,0,0,0,.22.5,1.49,1.49,0,0,0,.58.27,6.67,6.67,0,0,0,.78.16c.29.05.58.1.87.17a3.59,3.59,0,0,1,.78.28,1.5,1.5,0,0,1,.58.51,1.46,1.46,0,0,1,.22.86,1.49,1.49,0,0,1-.34,1,2.13,2.13,0,0,1-.94.66A4.05,4.05,0,0,1,115.32,113.52Z"/><path class="cls-6" d="M65.37,138.51a4.84,4.84,0,0,1-1.77-.31,4.29,4.29,0,0,1-1.4-7.06,4.15,4.15,0,0,1,1.41-.9,4.84,4.84,0,0,1,1.77-.32,4.75,4.75,0,0,1,1.79.33,3.66,3.66,0,0,1,1.4,1l-.78.76a3,3,0,0,0-1.08-.75,3.25,3.25,0,0,0-1.28-.25,3.56,3.56,0,0,0-1.32.24,3,3,0,0,0-1.74,1.7,3.37,3.37,0,0,0-.24,1.29,3.44,3.44,0,0,0,.24,1.29,3.28,3.28,0,0,0,.69,1,3.2,3.2,0,0,0,1,.67,3.56,3.56,0,0,0,1.32.25,3.43,3.43,0,0,0,1.28-.25,3.17,3.17,0,0,0,1.08-.76l.78.75a3.8,3.8,0,0,1-1.4,1A4.8,4.8,0,0,1,65.37,138.51Z"/><path class="cls-6" d="M72.54,138.49a3.43,3.43,0,0,1-1.7-.42,3.13,3.13,0,0,1-1.18-1.16,3.48,3.48,0,0,1,0-3.35,3.15,3.15,0,0,1,1.18-1.14,3.37,3.37,0,0,1,1.7-.42,3.42,3.42,0,0,1,1.7.41,3.1,3.1,0,0,1,1.18,1.15,3.57,3.57,0,0,1,0,3.36,3.1,3.1,0,0,1-1.18,1.15A3.43,3.43,0,0,1,72.54,138.49Zm0-1a2.12,2.12,0,0,0,1.1-.28,1.9,1.9,0,0,0,.76-.78,2.65,2.65,0,0,0,0-2.37,1.94,1.94,0,0,0-.76-.77,2.22,2.22,0,0,0-1.1-.28,2.18,2.18,0,0,0-1.09.28,2,2,0,0,0-.77.77,2.57,2.57,0,0,0,0,2.37,2,2,0,0,0,.77.78A2.08,2.08,0,0,0,72.54,137.48Z"/><path class="cls-6" d="M85.39,132a2.93,2.93,0,0,1,1.36.3,2.13,2.13,0,0,1,.92.91,3.24,3.24,0,0,1,.33,1.55v3.66H86.85v-3.53a2,2,0,0,0-.44-1.39A1.53,1.53,0,0,0,85.2,133a2.07,2.07,0,0,0-1,.24,1.57,1.57,0,0,0-.66.71,2.52,2.52,0,0,0-.24,1.16v3.28H82.14v-3.53a2,2,0,0,0-.42-1.39A1.55,1.55,0,0,0,80.5,133a2,2,0,0,0-1,.24,1.59,1.59,0,0,0-.67.71,2.52,2.52,0,0,0-.24,1.16v3.28H77.44v-6.36h1.1v1.69l-.18-.43a2.2,2.2,0,0,1,.93-1,2.93,2.93,0,0,1,1.45-.34,2.71,2.71,0,0,1,1.57.45,2.09,2.09,0,0,1,.86,1.36l-.46-.19a2.38,2.38,0,0,1,1-1.18A3.19,3.19,0,0,1,85.39,132Z"/><path class="cls-6" d="M98.08,132a2.92,2.92,0,0,1,1.35.3,2.07,2.07,0,0,1,.92.91,3.24,3.24,0,0,1,.33,1.55v3.66H99.53v-3.53a2,2,0,0,0-.43-1.39,1.54,1.54,0,0,0-1.21-.47,2,2,0,0,0-1,.24,1.59,1.59,0,0,0-.67.71,2.66,2.66,0,0,0-.23,1.16v3.28H94.83v-3.53a2,2,0,0,0-.43-1.39,1.53,1.53,0,0,0-1.22-.47,2,2,0,0,0-1,.24,1.61,1.61,0,0,0-.68.71,2.52,2.52,0,0,0-.24,1.16v3.28H90.12v-6.36h1.11v1.69l-.18-.43a2.18,2.18,0,0,1,.92-1,3,3,0,0,1,1.45-.34,2.71,2.71,0,0,1,1.57.45,2.14,2.14,0,0,1,.87,1.36l-.47-.19a2.4,2.4,0,0,1,1-1.18A3.19,3.19,0,0,1,98.08,132Z"/><path class="cls-6" d="M105.48,138.49a3.23,3.23,0,0,1-1.43-.3,2.13,2.13,0,0,1-1-.92,3.15,3.15,0,0,1-.34-1.55v-3.66h1.15v3.52a2,2,0,0,0,.45,1.41,1.67,1.67,0,0,0,1.26.47,2.2,2.2,0,0,0,1-.25,1.64,1.64,0,0,0,.68-.72,2.54,2.54,0,0,0,.24-1.15v-3.28h1.15v6.36h-1.09V136.7l.18.46a2.26,2.26,0,0,1-.93,1A2.89,2.89,0,0,1,105.48,138.49Z"/><path class="cls-6" d="M114.33,132a3,3,0,0,1,1.37.3,2.1,2.1,0,0,1,.93.91,3.23,3.23,0,0,1,.34,1.55v3.66h-1.16v-3.53a1.92,1.92,0,0,0-.45-1.39,1.64,1.64,0,0,0-1.26-.47,2.25,2.25,0,0,0-1.07.24,1.55,1.55,0,0,0-.7.71,2.4,2.4,0,0,0-.25,1.16v3.28h-1.15v-6.36H112v1.71l-.18-.45a2.27,2.27,0,0,1,1-1A3.21,3.21,0,0,1,114.33,132Z"/><path class="cls-6" d="M119.68,130.83a.78.78,0,0,1-.56-.21.71.71,0,0,1-.22-.53.7.7,0,0,1,.22-.54.79.79,0,0,1,.56-.22.75.75,0,0,1,.55.21.7.7,0,0,1,.23.53.75.75,0,0,1-.78.76Zm-.58,7.59v-6.36h1.15v6.36Z"/><path class="cls-6" d="M121.54,133v-.94h4V133Zm3.09,5.49a2,2,0,0,1-1.48-.52,1.92,1.92,0,0,1-.53-1.47v-5.84h1.15v5.79a1.12,1.12,0,0,0,.26.79,1,1,0,0,0,.74.28,1.36,1.36,0,0,0,.9-.3l.36.82a1.61,1.61,0,0,1-.63.34A2.81,2.81,0,0,1,124.63,138.49Z"/><path class="cls-6" d="M127.57,140.82a2.62,2.62,0,0,1-.88-.15,2.16,2.16,0,0,1-.75-.44l.49-.87a1.63,1.63,0,0,0,.53.35,1.58,1.58,0,0,0,.61.12,1.12,1.12,0,0,0,.7-.21,2,2,0,0,0,.52-.77l.39-.88.12-.14,2.5-5.77h1.13l-3.09,7a3.61,3.61,0,0,1-.62,1.06,2,2,0,0,1-.75.55A2.57,2.57,0,0,1,127.57,140.82Zm1.52-2.2-2.91-6.56h1.2l2.47,5.66Z"/><path class="cls-6" d="M75.84,152.82l3.8-8.4h1.19l3.82,8.4H83.39L80,145.09h.48l-3.39,7.73Zm1.62-2.1.32-1h4.73l.35,1Z"/><path class="cls-6" d="M88.44,152.89a3.49,3.49,0,0,1-1.73-.42,3.09,3.09,0,0,1-1.2-1.15,3.5,3.5,0,0,1,0-3.36,3.09,3.09,0,0,1,1.2-1.15,3.49,3.49,0,0,1,1.73-.41,3.32,3.32,0,0,1,1.54.34,2.49,2.49,0,0,1,1,1l-.87.57a2,2,0,0,0-.77-.69,2.11,2.11,0,0,0-1-.22,2.29,2.29,0,0,0-1.12.27,2,2,0,0,0-.78.77,2.38,2.38,0,0,0-.29,1.19,2.34,2.34,0,0,0,.29,1.18,2,2,0,0,0,.78.79,2.29,2.29,0,0,0,1.12.27,2.11,2.11,0,0,0,1-.22,2,2,0,0,0,.77-.69l.87.55a2.49,2.49,0,0,1-1,1A3.21,3.21,0,0,1,88.44,152.89Z"/><path class="cls-6" d="M95.17,152.89a3.52,3.52,0,0,1-1.73-.42,3.09,3.09,0,0,1-1.2-1.15,3.5,3.5,0,0,1,0-3.36,3.09,3.09,0,0,1,1.2-1.15,3.51,3.51,0,0,1,1.73-.41,3.4,3.4,0,0,1,1.55.34,2.49,2.49,0,0,1,1,1l-.88.57a2,2,0,0,0-.76-.69,2.13,2.13,0,0,0-1-.22,2.23,2.23,0,0,0-1.11.27,2,2,0,0,0-.78.77,2.28,2.28,0,0,0-.29,1.19,2.25,2.25,0,0,0,.29,1.18,2,2,0,0,0,.78.79,2.23,2.23,0,0,0,1.11.27,2.13,2.13,0,0,0,1-.22,2,2,0,0,0,.76-.69l.88.55a2.49,2.49,0,0,1-1,1A3.28,3.28,0,0,1,95.17,152.89Z"/><path class="cls-6" d="M102,152.89a3.74,3.74,0,0,1-1.8-.42,3.09,3.09,0,0,1-1.2-1.15A3.61,3.61,0,0,1,99,148a3.07,3.07,0,0,1,1.14-1.15,3.2,3.2,0,0,1,1.64-.41,3.14,3.14,0,0,1,1.63.41,2.9,2.9,0,0,1,1.11,1.14,3.52,3.52,0,0,1,.4,1.72v.17c0,.07,0,.13,0,.18H99.45v-.83h4.81l-.47.29a2.17,2.17,0,0,0-.25-1.09,2,2,0,0,0-.73-.75,2.26,2.26,0,0,0-2.14,0,1.85,1.85,0,0,0-.73.76,2.23,2.23,0,0,0-.27,1.11v.19a2.15,2.15,0,0,0,.3,1.13,2.06,2.06,0,0,0,.82.78,2.86,2.86,0,0,0,2.24.08,2.29,2.29,0,0,0,.81-.58l.63.75a2.75,2.75,0,0,1-1.07.76A3.68,3.68,0,0,1,102,152.89Z"/><path class="cls-6" d="M108.3,152.89a4.9,4.9,0,0,1-1.5-.22,3.62,3.62,0,0,1-1.13-.52l.48-.92a4.19,4.19,0,0,0,2.24.66,2.11,2.11,0,0,0,1.15-.23.71.71,0,0,0,.36-.63.55.55,0,0,0-.22-.47,1.37,1.37,0,0,0-.57-.25,7.22,7.22,0,0,0-.78-.15c-.29,0-.58-.1-.87-.17a3.22,3.22,0,0,1-.79-.29,1.5,1.5,0,0,1-.58-.51,1.64,1.64,0,0,1-.21-.88,1.58,1.58,0,0,1,.32-1,2.08,2.08,0,0,1,.92-.67,4,4,0,0,1,1.41-.23,5.64,5.64,0,0,1,1.27.15,3.38,3.38,0,0,1,1,.42l-.5.92a2.49,2.49,0,0,0-.9-.4,4.22,4.22,0,0,0-.93-.11,2,2,0,0,0-1.13.25.72.72,0,0,0-.37.63.61.61,0,0,0,.22.5,1.89,1.89,0,0,0,.57.27c.24.06.5.11.79.16s.58.1.87.17a3.13,3.13,0,0,1,.78.28,1.56,1.56,0,0,1,.58.5,1.6,1.6,0,0,1,.22.87,1.51,1.51,0,0,1-.34,1,2.21,2.21,0,0,1-.94.66A4.28,4.28,0,0,1,108.3,152.89Z"/><path class="cls-6" d="M114.31,152.89a4.9,4.9,0,0,1-1.5-.22,3.73,3.73,0,0,1-1.13-.52l.48-.92a4.19,4.19,0,0,0,2.24.66,2.17,2.17,0,0,0,1.16-.23.72.72,0,0,0,.35-.63.55.55,0,0,0-.22-.47,1.37,1.37,0,0,0-.57-.25,7.22,7.22,0,0,0-.78-.15c-.29,0-.58-.1-.87-.17a3.22,3.22,0,0,1-.79-.29,1.5,1.5,0,0,1-.58-.51,1.84,1.84,0,0,1,.11-1.89,2.08,2.08,0,0,1,.92-.67,4,4,0,0,1,1.41-.23,5.57,5.57,0,0,1,1.27.15,3.38,3.38,0,0,1,1,.42l-.5.92a2.45,2.45,0,0,0-.89-.4,4.38,4.38,0,0,0-.94-.11,2,2,0,0,0-1.13.25.72.72,0,0,0-.37.63.61.61,0,0,0,.22.5,1.84,1.84,0,0,0,.58.27c.23.06.49.11.78.16s.58.1.87.17a3,3,0,0,1,.78.28,1.56,1.56,0,0,1,.58.5,1.7,1.7,0,0,1-.12,1.86,2.21,2.21,0,0,1-.94.66A4.28,4.28,0,0,1,114.31,152.89Z"/><path class="cls-6" d="M67.71,177.88a4.84,4.84,0,0,1-1.77-.32,4,4,0,0,1-1.4-.9,4.12,4.12,0,0,1-.93-1.36,4.35,4.35,0,0,1,.93-4.8,4.28,4.28,0,0,1,1.41-.89,4.64,4.64,0,0,1,1.77-.32,4.8,4.8,0,0,1,1.8.33,3.72,3.72,0,0,1,1.4,1l-.78.76a3.29,3.29,0,0,0-1.08-.75,3.44,3.44,0,0,0-1.29-.24,3.72,3.72,0,0,0-1.31.23,3.12,3.12,0,0,0-1,.68,3,3,0,0,0-.69,1,3.45,3.45,0,0,0-.25,1.29,3.37,3.37,0,0,0,.25,1.29,2.92,2.92,0,0,0,.69,1,3.1,3.1,0,0,0,1,.67,3.51,3.51,0,0,0,1.31.24,3.44,3.44,0,0,0,1.29-.24,3.07,3.07,0,0,0,1.08-.77l.78.76a3.74,3.74,0,0,1-1.4,1A4.63,4.63,0,0,1,67.71,177.88Z"/><path class="cls-6" d="M75.86,171.36a3,3,0,0,1,1.37.3,2.15,2.15,0,0,1,.93.91,3.15,3.15,0,0,1,.34,1.55v3.66H77.35v-3.53a1.94,1.94,0,0,0-.45-1.39,1.68,1.68,0,0,0-1.27-.46,2.41,2.41,0,0,0-1.07.23,1.71,1.71,0,0,0-.7.71,2.57,2.57,0,0,0-.24,1.17v3.27H72.46v-8.9h1.16v4.26l-.23-.46a2.25,2.25,0,0,1,1-1A3.15,3.15,0,0,1,75.86,171.36Z"/><path class="cls-6" d="M82.5,177.86a2.88,2.88,0,0,1-1.25-.25,1.94,1.94,0,0,1-.82-.66,1.73,1.73,0,0,1-.29-1,1.85,1.85,0,0,1,.25-.93,1.71,1.71,0,0,1,.8-.68,3.92,3.92,0,0,1,1.51-.25h2V175h-2a1.74,1.74,0,0,0-1.17.29.92.92,0,0,0-.3.7.9.9,0,0,0,.38.75,1.7,1.7,0,0,0,1,.28,2.18,2.18,0,0,0,1.13-.29,1.57,1.57,0,0,0,.7-.84l.23.79a1.79,1.79,0,0,1-.8.9A3,3,0,0,1,82.5,177.86Zm2.08-.08v-1.34l-.06-.25V173.9a1.51,1.51,0,0,0-.42-1.14,1.8,1.8,0,0,0-1.28-.4,3.43,3.43,0,0,0-1.1.18,3,3,0,0,0-.92.5l-.48-.86a3.44,3.44,0,0,1,1.19-.61,4.92,4.92,0,0,1,1.44-.21,2.9,2.9,0,0,1,2,.64,2.48,2.48,0,0,1,.71,1.94v3.84Z"/><path class="cls-6" d="M87.81,177.78v-8.9H89v8.9Z"/><path class="cls-6" d="M91.16,177.78v-8.9h1.15v8.9Z"/><path class="cls-6" d="M97.34,177.86a3.79,3.79,0,0,1-1.79-.42,3,3,0,0,1-1.2-1.16,3.21,3.21,0,0,1-.43-1.68,3.43,3.43,0,0,1,.41-1.68,3,3,0,0,1,1.14-1.14,3.43,3.43,0,0,1,3.27,0,2.74,2.74,0,0,1,1.11,1.15,3.5,3.5,0,0,1,.41,1.72c0,.05,0,.1,0,.17a1.1,1.1,0,0,1,0,.18H94.82v-.83h4.81l-.47.29a2,2,0,0,0-.25-1.09,1.8,1.8,0,0,0-.72-.75,2.2,2.2,0,0,0-2.15,0,1.88,1.88,0,0,0-.73.75,2.39,2.39,0,0,0-.26,1.11v.19a2.27,2.27,0,0,0,.29,1.14,2,2,0,0,0,.82.77,2.67,2.67,0,0,0,1.22.28,2.8,2.8,0,0,0,1-.19,2.32,2.32,0,0,0,.81-.58l.64.74a2.81,2.81,0,0,1-1.08.77A3.61,3.61,0,0,1,97.34,177.86Z"/><path class="cls-6" d="M105.25,171.36a3,3,0,0,1,1.37.3,2.15,2.15,0,0,1,.93.91,3.15,3.15,0,0,1,.34,1.55v3.66h-1.15v-3.53a1.94,1.94,0,0,0-.45-1.39,1.69,1.69,0,0,0-1.27-.46,2.41,2.41,0,0,0-1.07.23,1.65,1.65,0,0,0-.7.71,2.56,2.56,0,0,0-.25,1.17v3.27h-1.15v-6.36H103v1.72l-.18-.46a2.14,2.14,0,0,1,1-1A3.15,3.15,0,0,1,105.25,171.36Z"/><path class="cls-6" d="M112.66,177.52a3.46,3.46,0,0,1-1.65-.39,3,3,0,0,1-1.57-2.69,3.05,3.05,0,0,1,.42-1.62,3,3,0,0,1,1.15-1.07,3.46,3.46,0,0,1,1.65-.39,3.33,3.33,0,0,1,1.49.33,2.52,2.52,0,0,1,1.08,1,3.9,3.9,0,0,1,0,3.44,2.61,2.61,0,0,1-1.08,1A3.2,3.2,0,0,1,112.66,177.52Zm.15,2.66a6,6,0,0,1-1.7-.24,3.69,3.69,0,0,1-1.34-.7l.55-.89a3.4,3.4,0,0,0,1.1.6,4.07,4.07,0,0,0,1.35.22,2.28,2.28,0,0,0,1.66-.52A2.21,2.21,0,0,0,115,177V175.7l.12-1.26-.06-1.28v-1.74h1.09v5.5a3.25,3.25,0,0,1-.84,2.47A3.45,3.45,0,0,1,112.81,180.18Zm0-3.67a2.37,2.37,0,0,0,1.12-.26,2,2,0,0,0,.78-.73,2.07,2.07,0,0,0,.28-1.08,2,2,0,0,0-.28-1.08,1.89,1.89,0,0,0-.78-.73,2.37,2.37,0,0,0-1.12-.26,2.46,2.46,0,0,0-1.14.26,1.89,1.89,0,0,0-.78.73,2,2,0,0,0-.28,1.08,2.07,2.07,0,0,0,.28,1.08,2,2,0,0,0,.78.73A2.46,2.46,0,0,0,112.8,176.51Z"/><path class="cls-6" d="M121.14,177.86a3.86,3.86,0,0,1-1.8-.42,3.11,3.11,0,0,1-1.2-1.16,3.61,3.61,0,0,1,0-3.36,3,3,0,0,1,1.14-1.14,3.43,3.43,0,0,1,3.27,0,2.86,2.86,0,0,1,1.11,1.15,3.5,3.5,0,0,1,.4,1.72v.17c0,.06,0,.12,0,.18h-5.41v-.83h4.81l-.47.29a2.14,2.14,0,0,0-.25-1.09,1.82,1.82,0,0,0-.73-.75,2,2,0,0,0-1.07-.28,2,2,0,0,0-1.07.28,1.82,1.82,0,0,0-.73.75,2.28,2.28,0,0,0-.27,1.11v.19a2.18,2.18,0,0,0,.3,1.14,2,2,0,0,0,.82.77,2.63,2.63,0,0,0,1.21.28,2.82,2.82,0,0,0,1-.19,2.32,2.32,0,0,0,.81-.58l.63.74a2.7,2.7,0,0,1-1.07.77A3.68,3.68,0,0,1,121.14,177.86Z"/><path class="cls-6" d="M127.47,177.86a5.23,5.23,0,0,1-1.5-.22,3.72,3.72,0,0,1-1.13-.53l.48-.91a4.31,4.31,0,0,0,1,.47,4.27,4.27,0,0,0,1.23.19,2.2,2.2,0,0,0,1.15-.23.71.71,0,0,0,.36-.64.53.53,0,0,0-.22-.46,1.25,1.25,0,0,0-.57-.25c-.23-.06-.5-.11-.78-.16a8.85,8.85,0,0,1-.87-.16,3.69,3.69,0,0,1-.79-.29,1.41,1.41,0,0,1-.79-1.4,1.69,1.69,0,0,1,.32-1,2.06,2.06,0,0,1,.92-.66,3.78,3.78,0,0,1,1.41-.24,5.57,5.57,0,0,1,1.27.15,3.16,3.16,0,0,1,1.05.43l-.5.91a2.79,2.79,0,0,0-.9-.4,4.2,4.2,0,0,0-.93-.1,2.11,2.11,0,0,0-1.13.24.74.74,0,0,0-.37.63.58.58,0,0,0,.22.5,1.49,1.49,0,0,0,.58.27,5.09,5.09,0,0,0,.78.16c.29,0,.58.1.87.17a3.59,3.59,0,0,1,.78.28,1.5,1.5,0,0,1,.58.51,1.46,1.46,0,0,1,.22.86,1.52,1.52,0,0,1-.34,1,2.2,2.2,0,0,1-.94.65A4,4,0,0,1,127.47,177.86Z"/><path class="cls-6" d="M73.63,202.84a5.67,5.67,0,0,1-1.84-.29,3.77,3.77,0,0,1-1.38-.76l.45-.94a4,4,0,0,0,1.22.7,4.51,4.51,0,0,0,1.55.27,3.6,3.6,0,0,0,1.19-.16,1.56,1.56,0,0,0,.67-.46,1.13,1.13,0,0,0,.21-.67.91.91,0,0,0-.28-.7,2.06,2.06,0,0,0-.73-.42,7.77,7.77,0,0,0-1-.29c-.36-.08-.72-.17-1.09-.28a4.38,4.38,0,0,1-1-.41,2.16,2.16,0,0,1-.73-.68,2,2,0,0,1-.27-1.1,2.17,2.17,0,0,1,.34-1.19,2.37,2.37,0,0,1,1.05-.88,4.39,4.39,0,0,1,1.82-.33,5.51,5.51,0,0,1,1.45.2,3.86,3.86,0,0,1,1.25.55l-.39,1a3.93,3.93,0,0,0-1.14-.53,4.84,4.84,0,0,0-1.17-.16,3.17,3.17,0,0,0-1.16.18,1.4,1.4,0,0,0-.67.48,1.16,1.16,0,0,0-.21.68.93.93,0,0,0,.28.7,2,2,0,0,0,.74.42,7.8,7.8,0,0,0,1,.28c.36.09.72.18,1.08.29a4.74,4.74,0,0,1,1,.4,2,2,0,0,1,.72.68,1.88,1.88,0,0,1,.28,1.08,2.17,2.17,0,0,1-.35,1.18,2.42,2.42,0,0,1-1.07.87A4.31,4.31,0,0,1,73.63,202.84Z"/><path class="cls-6" d="M81.3,202.82a3.74,3.74,0,0,1-1.8-.42,3.09,3.09,0,0,1-1.2-1.15,3.61,3.61,0,0,1,0-3.36,3.07,3.07,0,0,1,1.14-1.15,3.3,3.3,0,0,1,1.64-.41,3.14,3.14,0,0,1,1.63.41,2.9,2.9,0,0,1,1.11,1.14,3.54,3.54,0,0,1,.4,1.73v.16c0,.07,0,.13,0,.18H78.78v-.83h4.81l-.47.29a2.17,2.17,0,0,0-.25-1.09,2,2,0,0,0-.73-.75,2.07,2.07,0,0,0-1.07-.27,2.1,2.1,0,0,0-1.07.27,1.85,1.85,0,0,0-.73.76,2.23,2.23,0,0,0-.27,1.11v.19a2.15,2.15,0,0,0,.3,1.13,2.06,2.06,0,0,0,.82.78,2.86,2.86,0,0,0,2.24.08,2.2,2.2,0,0,0,.81-.58l.63.75a2.8,2.8,0,0,1-1.07.77A3.87,3.87,0,0,1,81.3,202.82Z"/><path class="cls-6" d="M85.81,202.75v-8.91H87v8.91Z"/><path class="cls-6" d="M88.24,197.34v-1H92.3v1Zm1.08,5.41v-6.93a1.92,1.92,0,0,1,2.1-2,2.84,2.84,0,0,1,.72.09,1.51,1.51,0,0,1,.58.29l-.35.87a1.16,1.16,0,0,0-.41-.22,1.51,1.51,0,0,0-.48-.08,1,1,0,0,0-.76.28,1.18,1.18,0,0,0-.27.84v.85l0,.53v5.53Z"/><path class="cls-6" d="M100.54,202.84a4.84,4.84,0,0,1-1.77-.31,4.11,4.11,0,0,1-1.4-.9,4.16,4.16,0,0,1-.93-1.37,4.5,4.5,0,0,1,0-3.43,4.21,4.21,0,0,1,2.35-2.26,4.84,4.84,0,0,1,1.77-.32,4.79,4.79,0,0,1,1.79.33,3.74,3.74,0,0,1,1.4,1l-.78.76a3,3,0,0,0-1.08-.75,3.26,3.26,0,0,0-1.29-.25,3.51,3.51,0,0,0-1.31.24,3.37,3.37,0,0,0-1.05.67,2.92,2.92,0,0,0-.69,1,3.41,3.41,0,0,0-.25,1.29,3.45,3.45,0,0,0,.25,1.29,2.79,2.79,0,0,0,.69,1,3.22,3.22,0,0,0,1.05.68,3.51,3.51,0,0,0,1.31.24,3.26,3.26,0,0,0,1.29-.25,3,3,0,0,0,1.08-.76l.78.76a3.86,3.86,0,0,1-1.4,1A4.82,4.82,0,0,1,100.54,202.84Z"/><path class="cls-6" d="M107,202.82a3,3,0,0,1-1.25-.24,1.89,1.89,0,0,1-.82-.67,1.67,1.67,0,0,1-.29-1,1.89,1.89,0,0,1,.25-.94,1.69,1.69,0,0,1,.8-.67,3.74,3.74,0,0,1,1.51-.25h2v.83h-2a1.75,1.75,0,0,0-1.17.28,1,1,0,0,0-.3.7.9.9,0,0,0,.38.75,1.64,1.64,0,0,0,1,.28,2.18,2.18,0,0,0,1.13-.28,1.63,1.63,0,0,0,.7-.85l.23.8a1.81,1.81,0,0,1-.8.89A2.91,2.91,0,0,1,107,202.82Zm2.08-.07v-1.34l-.06-.26v-2.29a1.47,1.47,0,0,0-.42-1.13,1.8,1.8,0,0,0-1.28-.41,3.44,3.44,0,0,0-1.1.19,2.8,2.8,0,0,0-.92.5l-.48-.86a3.44,3.44,0,0,1,1.19-.61,4.92,4.92,0,0,1,1.44-.21,3,3,0,0,1,2,.63,2.52,2.52,0,0,1,.71,1.95v3.84Z"/><path class="cls-6" d="M112.35,202.75v-6.36h1.11v1.73l-.11-.44a1.89,1.89,0,0,1,.89-1,3.09,3.09,0,0,1,1.53-.35v1.12l-.14,0h-.12A2,2,0,0,0,114,198a2.16,2.16,0,0,0-.54,1.59v3.17Z"/><path class="cls-6" d="M119.92,202.82a3.7,3.7,0,0,1-1.79-.42,3,3,0,0,1-1.2-1.15,3.23,3.23,0,0,1-.43-1.68,3.33,3.33,0,0,1,.42-1.68,2.93,2.93,0,0,1,1.14-1.15,3.3,3.3,0,0,1,1.64-.41,3.16,3.16,0,0,1,1.63.41,2.9,2.9,0,0,1,1.11,1.14,3.54,3.54,0,0,1,.4,1.73,1,1,0,0,1,0,.16c0,.07,0,.13,0,.18H117.4v-.83h4.82l-.47.29a2.17,2.17,0,0,0-.25-1.09,2,2,0,0,0-.73-.75,2.26,2.26,0,0,0-2.14,0,1.85,1.85,0,0,0-.73.76,2.23,2.23,0,0,0-.27,1.11v.19a2.15,2.15,0,0,0,.3,1.13,2,2,0,0,0,.82.78,2.86,2.86,0,0,0,2.24.08,2.38,2.38,0,0,0,.81-.58l.63.75a2.88,2.88,0,0,1-1.07.77A3.89,3.89,0,0,1,119.92,202.82Z"/><path class="cls-6" d="M66.57,217.15v-8.4h3.27a4.49,4.49,0,0,1,1.89.35,2.66,2.66,0,0,1,1.2,1,2.85,2.85,0,0,1,.42,1.57,2.82,2.82,0,0,1-.42,1.56,2.64,2.64,0,0,1-1.2,1,4.49,4.49,0,0,1-1.89.35H67.23l.54-.55v3.11Zm1.2-3-.54-.59h2.58a2.6,2.6,0,0,0,1.74-.5,1.7,1.7,0,0,0,.6-1.39,1.72,1.72,0,0,0-.6-1.4,2.71,2.71,0,0,0-1.74-.49H67.23l.54-.6Zm4.41,3-2.13-3.05h1.28l2.16,3.05Z"/><path class="cls-6" d="M78,217.22a3.7,3.7,0,0,1-1.79-.42,3,3,0,0,1-1.2-1.15,3.53,3.53,0,0,1,0-3.36,2.93,2.93,0,0,1,1.14-1.15,3.3,3.3,0,0,1,1.64-.41,3.14,3.14,0,0,1,1.63.41,2.9,2.9,0,0,1,1.11,1.14,3.56,3.56,0,0,1,.4,1.73,1,1,0,0,1,0,.16c0,.07,0,.13,0,.18H75.43v-.82h4.82l-.47.28a2.19,2.19,0,0,0-.25-1.09,2,2,0,0,0-.73-.75,2.26,2.26,0,0,0-2.14,0,1.85,1.85,0,0,0-.73.76,2.23,2.23,0,0,0-.27,1.11V214a2.15,2.15,0,0,0,.3,1.13,2.06,2.06,0,0,0,.82.78A2.86,2.86,0,0,0,79,216a2.49,2.49,0,0,0,.81-.57l.63.74a2.78,2.78,0,0,1-1.07.77A3.89,3.89,0,0,1,78,217.22Z"/><path class="cls-6" d="M84.29,217.22a5.35,5.35,0,0,1-1.51-.21,3.66,3.66,0,0,1-1.12-.53l.48-.91a3.79,3.79,0,0,0,1,.46,4,4,0,0,0,1.22.2,2.22,2.22,0,0,0,1.16-.23.72.72,0,0,0,.36-.64.59.59,0,0,0-.22-.47,1.51,1.51,0,0,0-.57-.25c-.24,0-.5-.11-.79-.15s-.57-.1-.86-.17a2.86,2.86,0,0,1-.79-.29,1.5,1.5,0,0,1-.58-.51,1.84,1.84,0,0,1,.11-1.89,2.08,2.08,0,0,1,.92-.67,3.93,3.93,0,0,1,1.41-.23,5.49,5.49,0,0,1,1.26.15,3,3,0,0,1,1,.43l-.49.91a2.77,2.77,0,0,0-.9-.4,4.22,4.22,0,0,0-.93-.11,2.1,2.1,0,0,0-1.13.25.72.72,0,0,0-.37.63.59.59,0,0,0,.22.5,1.89,1.89,0,0,0,.57.27,7.33,7.33,0,0,0,.79.16,8.17,8.17,0,0,1,.86.17,3.68,3.68,0,0,1,.79.28,1.56,1.56,0,0,1,.58.5,1.6,1.6,0,0,1,.22.87,1.51,1.51,0,0,1-.34,1,2.19,2.19,0,0,1-1,.66A4.18,4.18,0,0,1,84.29,217.22Z"/><path class="cls-6" d="M91.2,217.22a3.43,3.43,0,0,1-1.7-.42,3.06,3.06,0,0,1-1.18-1.16,3.22,3.22,0,0,1-.43-1.67,3.17,3.17,0,0,1,.43-1.67,3.1,3.1,0,0,1,1.18-1.15,3.37,3.37,0,0,1,1.7-.42,3.53,3.53,0,0,1,1.7.41,3.1,3.1,0,0,1,1.18,1.15,3.57,3.57,0,0,1,0,3.36,3.1,3.1,0,0,1-1.18,1.15A3.43,3.43,0,0,1,91.2,217.22Zm0-1a2.21,2.21,0,0,0,1.1-.27,2,2,0,0,0,.76-.79,2.37,2.37,0,0,0,.28-1.18,2.32,2.32,0,0,0-.28-1.18,2,2,0,0,0-.76-.78,2.21,2.21,0,0,0-1.1-.27,2.18,2.18,0,0,0-1.09.27,2.06,2.06,0,0,0-.77.78,2.32,2.32,0,0,0-.29,1.18,2.37,2.37,0,0,0,.29,1.18,2.09,2.09,0,0,0,.77.79A2.18,2.18,0,0,0,91.2,216.21Z"/><path class="cls-6" d="M98.77,217.22a3.23,3.23,0,0,1-1.43-.3,2.13,2.13,0,0,1-1-.92,3.15,3.15,0,0,1-.34-1.55v-3.66h1.15v3.53a2,2,0,0,0,.45,1.4,1.68,1.68,0,0,0,1.27.47,2.05,2.05,0,0,0,1-.25,1.58,1.58,0,0,0,.68-.72,2.46,2.46,0,0,0,.24-1.14v-3.29H102v6.36h-1.09v-1.72l.18.46a2.26,2.26,0,0,1-.93,1A2.78,2.78,0,0,1,98.77,217.22Z"/><path class="cls-6" d="M104.22,217.15v-6.36h1.11v1.73l-.11-.44a2,2,0,0,1,.88-1,3.16,3.16,0,0,1,1.54-.35v1.12l-.14,0h-.12a2,2,0,0,0-1.47.56,2.16,2.16,0,0,0-.54,1.59v3.17Z"/><path class="cls-6" d="M111.73,217.22a3.54,3.54,0,0,1-1.73-.42,3,3,0,0,1-1.19-1.15,3.43,3.43,0,0,1,0-3.36,3,3,0,0,1,1.19-1.15,3.65,3.65,0,0,1,1.73-.41,3.4,3.4,0,0,1,1.55.34,2.49,2.49,0,0,1,1,1l-.88.57a2,2,0,0,0-.76-.69,2.13,2.13,0,0,0-1-.22,2.25,2.25,0,0,0-1.11.27,2,2,0,0,0-.78.78,2.22,2.22,0,0,0-.29,1.18,2.28,2.28,0,0,0,.29,1.19,2.09,2.09,0,0,0,.78.78,2.25,2.25,0,0,0,1.11.27,2.13,2.13,0,0,0,1-.22,2,2,0,0,0,.76-.69l.88.55a2.58,2.58,0,0,1-1,1A3.4,3.4,0,0,1,111.73,217.22Z"/><path class="cls-6" d="M118.53,217.22a3.74,3.74,0,0,1-1.8-.42,3.09,3.09,0,0,1-1.2-1.15,3.61,3.61,0,0,1,0-3.36,3.07,3.07,0,0,1,1.14-1.15,3.3,3.3,0,0,1,1.64-.41,3.14,3.14,0,0,1,1.63.41,2.9,2.9,0,0,1,1.11,1.14,3.56,3.56,0,0,1,.4,1.73v.16c0,.07,0,.13,0,.18H116v-.82h4.81l-.47.28a2.19,2.19,0,0,0-.25-1.09,2,2,0,0,0-.73-.75,2.07,2.07,0,0,0-1.07-.27,2.1,2.1,0,0,0-1.07.27,1.85,1.85,0,0,0-.73.76,2.23,2.23,0,0,0-.27,1.11V214a2.15,2.15,0,0,0,.3,1.13,2.06,2.06,0,0,0,.82.78,2.86,2.86,0,0,0,2.24.08,2.3,2.3,0,0,0,.81-.57l.63.74A2.7,2.7,0,0,1,120,217,3.87,3.87,0,0,1,118.53,217.22Z"/><path class="cls-6" d="M124.86,217.22a5.23,5.23,0,0,1-1.5-.21,3.72,3.72,0,0,1-1.13-.53l.48-.91a4.44,4.44,0,0,0,2.24.66,2.2,2.2,0,0,0,1.15-.23.72.72,0,0,0,.36-.64.56.56,0,0,0-.22-.47,1.51,1.51,0,0,0-.57-.25c-.23,0-.5-.11-.78-.15s-.58-.1-.87-.17a2.86,2.86,0,0,1-.79-.29,1.5,1.5,0,0,1-.58-.51,1.61,1.61,0,0,1-.21-.88,1.67,1.67,0,0,1,.32-1,2.08,2.08,0,0,1,.92-.67,4,4,0,0,1,1.41-.23,5.57,5.57,0,0,1,1.27.15,3.16,3.16,0,0,1,1,.43l-.5.91a2.59,2.59,0,0,0-.9-.4,4.22,4.22,0,0,0-.93-.11A2.1,2.1,0,0,0,124,212a.72.72,0,0,0-.37.63.59.59,0,0,0,.22.5,1.84,1.84,0,0,0,.58.27,6.67,6.67,0,0,0,.78.16c.29,0,.58.1.87.17a3.59,3.59,0,0,1,.78.28,1.56,1.56,0,0,1,.58.5,1.7,1.7,0,0,1-.12,1.86,2.21,2.21,0,0,1-.94.66A4.28,4.28,0,0,1,124.86,217.22Z"/><path class="cls-6" d="M67.71,238a4.84,4.84,0,0,1-1.77-.32,4,4,0,0,1-1.4-.9,4.12,4.12,0,0,1-.93-1.36,4.5,4.5,0,0,1,0-3.43,4,4,0,0,1,.93-1.36,4.15,4.15,0,0,1,1.41-.9,4.64,4.64,0,0,1,1.77-.32,4.8,4.8,0,0,1,1.8.33,3.63,3.63,0,0,1,1.4,1l-.78.75a3.29,3.29,0,0,0-1.08-.75,3.44,3.44,0,0,0-1.29-.24,3.51,3.51,0,0,0-1.31.24,3.1,3.1,0,0,0-1,.67,3,3,0,0,0-.69,1,3.45,3.45,0,0,0-.25,1.29,3.37,3.37,0,0,0,.25,1.29,2.92,2.92,0,0,0,.69,1,3.1,3.1,0,0,0,1,.67,3.51,3.51,0,0,0,1.31.24,3.44,3.44,0,0,0,1.29-.24,3.07,3.07,0,0,0,1.08-.77l.78.76a3.74,3.74,0,0,1-1.4,1A4.63,4.63,0,0,1,67.71,238Z"/><path class="cls-6" d="M75.86,231.49a3,3,0,0,1,1.37.3,2.12,2.12,0,0,1,.93.92,3.08,3.08,0,0,1,.34,1.54v3.66H77.35v-3.52a2,2,0,0,0-.45-1.4,1.68,1.68,0,0,0-1.27-.46,2.28,2.28,0,0,0-1.07.24,1.69,1.69,0,0,0-.7.7,2.57,2.57,0,0,0-.24,1.17v3.27H72.46V229h1.16v4.26l-.23-.46a2.25,2.25,0,0,1,1-1A3.15,3.15,0,0,1,75.86,231.49Z"/><path class="cls-6" d="M82.5,238a3,3,0,0,1-1.25-.24,2,2,0,0,1-.82-.67,1.71,1.71,0,0,1-.29-1,1.85,1.85,0,0,1,.25-.93,1.64,1.64,0,0,1,.8-.67,3.73,3.73,0,0,1,1.51-.26h2v.83h-2a1.74,1.74,0,0,0-1.17.29.92.92,0,0,0-.3.7.9.9,0,0,0,.38.75,1.7,1.7,0,0,0,1,.28,2.18,2.18,0,0,0,1.13-.29,1.57,1.57,0,0,0,.7-.84l.23.79a1.79,1.79,0,0,1-.8.9A2.91,2.91,0,0,1,82.5,238Zm2.08-.08v-1.34l-.06-.25V234a1.51,1.51,0,0,0-.42-1.14,1.8,1.8,0,0,0-1.28-.4,3.18,3.18,0,0,0-1.1.19,3,3,0,0,0-.92.49l-.48-.86a3.62,3.62,0,0,1,1.19-.61,4.92,4.92,0,0,1,1.44-.21,3,3,0,0,1,2,.64,2.48,2.48,0,0,1,.71,1.94v3.84Z"/><path class="cls-6" d="M87.81,237.91V229H89v8.9Z"/><path class="cls-6" d="M91.16,237.91V229h1.15v8.9Z"/><path class="cls-6" d="M97.34,238a3.67,3.67,0,0,1-1.79-.42,3,3,0,0,1-1.2-1.16,3.18,3.18,0,0,1-.43-1.68,3.43,3.43,0,0,1,.41-1.68,3,3,0,0,1,1.14-1.14,3.43,3.43,0,0,1,3.27,0,2.8,2.8,0,0,1,1.11,1.15,3.5,3.5,0,0,1,.41,1.72s0,.1,0,.17a1.1,1.1,0,0,1,0,.18H94.82v-.83h4.81l-.47.29a2.07,2.07,0,0,0-.25-1.09,1.92,1.92,0,0,0-.72-.75,2.28,2.28,0,0,0-2.15,0,2,2,0,0,0-.73.75,2.39,2.39,0,0,0-.26,1.11v.19a2.25,2.25,0,0,0,.29,1.14,2,2,0,0,0,.82.77,2.55,2.55,0,0,0,1.22.28,2.8,2.8,0,0,0,1-.19,2.2,2.2,0,0,0,.81-.58l.64.74a2.71,2.71,0,0,1-1.08.77A3.61,3.61,0,0,1,97.34,238Z"/><path class="cls-6" d="M105.25,231.49a3,3,0,0,1,1.37.3,2.12,2.12,0,0,1,.93.92,3.08,3.08,0,0,1,.34,1.54v3.66h-1.15v-3.52a2,2,0,0,0-.45-1.4,1.69,1.69,0,0,0-1.27-.46,2.28,2.28,0,0,0-1.07.24,1.63,1.63,0,0,0-.7.7,2.56,2.56,0,0,0-.25,1.17v3.27h-1.15v-6.36H103v1.72l-.18-.46a2.14,2.14,0,0,1,1-1A3.15,3.15,0,0,1,105.25,231.49Z"/><path class="cls-6" d="M112.66,237.65a3.46,3.46,0,0,1-1.65-.39,3,3,0,0,1-1.57-2.69,3.05,3.05,0,0,1,.42-1.62,3,3,0,0,1,1.15-1.07,3.46,3.46,0,0,1,1.65-.39,3.33,3.33,0,0,1,1.49.33,2.52,2.52,0,0,1,1.08,1,3.9,3.9,0,0,1,0,3.44,2.61,2.61,0,0,1-1.08,1A3.2,3.2,0,0,1,112.66,237.65Zm.15,2.66a6,6,0,0,1-1.7-.24,3.69,3.69,0,0,1-1.34-.7l.55-.89a3.22,3.22,0,0,0,1.1.6,4.07,4.07,0,0,0,1.35.23,2.28,2.28,0,0,0,1.66-.53,2.2,2.2,0,0,0,.53-1.61v-1.34l.12-1.26-.06-1.28v-1.74h1.09v5.5a3.25,3.25,0,0,1-.84,2.47A3.45,3.45,0,0,1,112.81,240.31Zm0-3.67a2.37,2.37,0,0,0,1.12-.26,2,2,0,0,0,.78-.73,2.07,2.07,0,0,0,.28-1.08,2,2,0,0,0-.28-1.08,1.89,1.89,0,0,0-.78-.73,2.37,2.37,0,0,0-1.12-.26,2.46,2.46,0,0,0-1.14.26,1.89,1.89,0,0,0-.78.73,2,2,0,0,0-.28,1.08,2.07,2.07,0,0,0,.28,1.08,2,2,0,0,0,.78.73A2.46,2.46,0,0,0,112.8,236.64Z"/><path class="cls-6" d="M121.14,238a3.74,3.74,0,0,1-1.8-.42,3.11,3.11,0,0,1-1.2-1.16,3.27,3.27,0,0,1-.42-1.68,3.32,3.32,0,0,1,.41-1.68,3,3,0,0,1,1.14-1.14,3.43,3.43,0,0,1,3.27,0,2.93,2.93,0,0,1,1.11,1.15,3.5,3.5,0,0,1,.4,1.72v.17c0,.06,0,.12,0,.18h-5.41v-.83h4.81l-.47.29a2.17,2.17,0,0,0-.25-1.09,2,2,0,0,0-.73-.75,2.07,2.07,0,0,0-1.07-.27,2.1,2.1,0,0,0-1.07.27,1.88,1.88,0,0,0-.73.75,2.28,2.28,0,0,0-.27,1.11v.19a2.16,2.16,0,0,0,.3,1.14,2,2,0,0,0,.82.77,2.51,2.51,0,0,0,1.21.28,2.82,2.82,0,0,0,1-.19,2.2,2.2,0,0,0,.81-.58l.63.74a2.61,2.61,0,0,1-1.07.77A3.68,3.68,0,0,1,121.14,238Z"/><path class="cls-6" d="M127.47,238a5.23,5.23,0,0,1-1.5-.22,3.5,3.5,0,0,1-1.13-.53l.48-.91a4.31,4.31,0,0,0,1,.47,4,4,0,0,0,1.23.19,2.2,2.2,0,0,0,1.15-.23.71.71,0,0,0,.36-.63.55.55,0,0,0-.22-.47,1.37,1.37,0,0,0-.57-.25,7.22,7.22,0,0,0-.78-.15c-.29,0-.58-.1-.87-.17a3.69,3.69,0,0,1-.79-.29,1.53,1.53,0,0,1-.58-.52,1.61,1.61,0,0,1-.21-.88,1.69,1.69,0,0,1,.32-1,2.06,2.06,0,0,1,.92-.66,3.78,3.78,0,0,1,1.41-.24,5.57,5.57,0,0,1,1.27.15,3.39,3.39,0,0,1,1.05.43l-.5.91a2.57,2.57,0,0,0-.9-.39,3.69,3.69,0,0,0-.93-.11,2.11,2.11,0,0,0-1.13.24.74.74,0,0,0-.37.63.58.58,0,0,0,.22.5,1.49,1.49,0,0,0,.58.27,5.09,5.09,0,0,0,.78.16c.29.05.58.1.87.17a3.59,3.59,0,0,1,.78.28,1.5,1.5,0,0,1,.58.51,1.46,1.46,0,0,1,.22.86,1.52,1.52,0,0,1-.34,1,2.11,2.11,0,0,1-.94.65A4,4,0,0,1,127.47,238Z"/><path class="cls-6" d="M79.71,252.41a5,5,0,0,1-1.79-.32,4.15,4.15,0,0,1-1.41-.9,4.3,4.3,0,0,1-.94-1.36,4.62,4.62,0,0,1,0-3.43,4.3,4.3,0,0,1,.94-1.36,4.24,4.24,0,0,1,1.43-.9,4.93,4.93,0,0,1,1.8-.32,5.08,5.08,0,0,1,1.82.32,3.64,3.64,0,0,1,1.4,1l-.74.75a3.31,3.31,0,0,0-1.12-.74,3.77,3.77,0,0,0-1.32-.23,3.61,3.61,0,0,0-1.33.24,3.09,3.09,0,0,0-1.07.67,3.15,3.15,0,0,0-.7,1,3.44,3.44,0,0,0-.24,1.29,3.35,3.35,0,0,0,.24,1.28,3.23,3.23,0,0,0,.7,1,3.14,3.14,0,0,0,1.06.67,3.61,3.61,0,0,0,1.33.24,4,4,0,0,0,1.29-.21,3.16,3.16,0,0,0,1.15-.7l.68.91a4.22,4.22,0,0,1-1.46.8A5.53,5.53,0,0,1,79.71,252.41Zm2-1.22v-3.12h1.15v3.27Z"/><path class="cls-6" d="M85,252.31V246h1.1v1.73l-.11-.43a2,2,0,0,1,.89-1,3.16,3.16,0,0,1,1.54-.35V247h-.27a2,2,0,0,0-1.46.55,2.2,2.2,0,0,0-.54,1.6v3.16Z"/><path class="cls-6" d="M92.48,252.39a3.43,3.43,0,0,1-1.7-.42,3.13,3.13,0,0,1-1.18-1.16,3.23,3.23,0,0,1-.43-1.68,3.13,3.13,0,0,1,1.61-2.82,3.37,3.37,0,0,1,1.7-.42,3.43,3.43,0,0,1,1.7.42,3,3,0,0,1,1.17,1.14,3.23,3.23,0,0,1,.43,1.68,3.18,3.18,0,0,1-.43,1.68A3,3,0,0,1,94.18,252,3.43,3.43,0,0,1,92.48,252.39Zm0-1a2.14,2.14,0,0,0,1.1-.28,1.9,1.9,0,0,0,.76-.78,2.52,2.52,0,0,0,.28-1.19,2.45,2.45,0,0,0-.28-1.18,1.94,1.94,0,0,0-.76-.77,2.14,2.14,0,0,0-1.1-.28,2.08,2.08,0,0,0-1.09.28,2,2,0,0,0-.77.77,2.34,2.34,0,0,0-.29,1.18,2.41,2.41,0,0,0,.29,1.19,2,2,0,0,0,.77.78A2.08,2.08,0,0,0,92.48,251.38Z"/><path class="cls-6" d="M100.05,252.39a3.23,3.23,0,0,1-1.43-.3,2.19,2.19,0,0,1-1-.92,3.16,3.16,0,0,1-.34-1.56V246h1.15v3.53a2,2,0,0,0,.45,1.41,1.67,1.67,0,0,0,1.26.46,2.2,2.2,0,0,0,1-.24,1.75,1.75,0,0,0,.68-.72,2.54,2.54,0,0,0,.24-1.15V246h1.15v6.36h-1.09V250.6l.18.45a2.23,2.23,0,0,1-.93,1A2.89,2.89,0,0,1,100.05,252.39Z"/><path class="cls-6" d="M105.5,254.64V246h1.1v1.72l-.07,1.48.12,1.47v4Zm3.37-2.25a2.91,2.91,0,0,1-1.44-.37,2.63,2.63,0,0,1-1.05-1.09,3.75,3.75,0,0,1-.39-1.8,3.87,3.87,0,0,1,.38-1.8,2.48,2.48,0,0,1,1-1.07,2.92,2.92,0,0,1,1.47-.37,3.32,3.32,0,0,1,1.66.41,3,3,0,0,1,1.14,1.14,3.31,3.31,0,0,1,.42,1.69,3.39,3.39,0,0,1-.42,1.71,3,3,0,0,1-1.14,1.14A3.32,3.32,0,0,1,108.87,252.39Zm-.09-1a2.11,2.11,0,0,0,1.09-.28,1.93,1.93,0,0,0,.77-.78,2.41,2.41,0,0,0,.28-1.19,2.34,2.34,0,0,0-.28-1.18,2,2,0,0,0-.77-.77,2.26,2.26,0,0,0-2.18,0,2,2,0,0,0-.77.77,2.34,2.34,0,0,0-.28,1.18,2.41,2.41,0,0,0,.28,1.19,2,2,0,0,0,.77.78A2.11,2.11,0,0,0,108.78,251.38Z"/><path class="cls-6" d="M115.51,252.39a5.35,5.35,0,0,1-1.51-.22,3.44,3.44,0,0,1-1.12-.53l.48-.91a3.79,3.79,0,0,0,1,.47,3.93,3.93,0,0,0,1.22.19,2.25,2.25,0,0,0,1.16-.23.7.7,0,0,0,.35-.63.57.57,0,0,0-.21-.47,1.49,1.49,0,0,0-.57-.25,7.43,7.43,0,0,0-.79-.15c-.29,0-.57-.1-.86-.17a3.69,3.69,0,0,1-.79-.29,1.46,1.46,0,0,1-.58-.52,1.76,1.76,0,0,1,.11-1.88,2,2,0,0,1,.92-.67,3.71,3.71,0,0,1,1.41-.24,5.06,5.06,0,0,1,1.26.16,3,3,0,0,1,1,.42l-.49.91a2.74,2.74,0,0,0-.9-.39,3.72,3.72,0,0,0-.94-.11,2.07,2.07,0,0,0-1.12.24.76.76,0,0,0-.38.64.58.58,0,0,0,.23.49,1.44,1.44,0,0,0,.57.27,5.51,5.51,0,0,0,.79.16c.29,0,.57.1.86.17a3.68,3.68,0,0,1,.79.28,1.56,1.56,0,0,1,.57.51,1.46,1.46,0,0,1,.23.86,1.57,1.57,0,0,1-.34,1,2.09,2.09,0,0,1-1,.65A4,4,0,0,1,115.51,252.39Z"/><path class="cls-6" d="M54.24,271.08v-8.4H58a3.66,3.66,0,0,1,2.23.58,1.88,1.88,0,0,1,.78,1.59,2.07,2.07,0,0,1-.3,1.15,2,2,0,0,1-.82.72,2.52,2.52,0,0,1-1.12.26l.22-.36a3,3,0,0,1,1.27.25,2,2,0,0,1,.87.74,2.07,2.07,0,0,1,.33,1.2,2,2,0,0,1-.81,1.68,4.1,4.1,0,0,1-2.41.59Zm1.2-1H58.2a2.8,2.8,0,0,0,1.53-.34,1.15,1.15,0,0,0,.53-1,1.17,1.17,0,0,0-.53-1.07,2.8,2.8,0,0,0-1.53-.34H55.34v-1H57.9a2.51,2.51,0,0,0,1.42-.34,1.26,1.26,0,0,0,0-2,2.51,2.51,0,0,0-1.42-.34H55.44Z"/><path class="cls-6" d="M65.88,271.15a3.39,3.39,0,0,1-1.69-.42A3.08,3.08,0,0,1,63,269.57a3.32,3.32,0,0,1-.43-1.67,3.27,3.27,0,0,1,.43-1.67,3.1,3.1,0,0,1,1.18-1.15,3.4,3.4,0,0,1,1.7-.42,3.5,3.5,0,0,1,1.7.41,3.1,3.1,0,0,1,1.18,1.15,3.57,3.57,0,0,1,0,3.36,3.1,3.1,0,0,1-1.18,1.15A3.4,3.4,0,0,1,65.88,271.15Zm0-1a2.21,2.21,0,0,0,1.1-.27,1.93,1.93,0,0,0,.76-.79A2.37,2.37,0,0,0,68,267.9a2.32,2.32,0,0,0-.28-1.18,2,2,0,0,0-.76-.78,2.15,2.15,0,0,0-3,.78,2.32,2.32,0,0,0-.28,1.18,2.37,2.37,0,0,0,.28,1.18,2.16,2.16,0,0,0,.77.79A2.2,2.2,0,0,0,65.88,270.14Z"/><path class="cls-6" d="M73.5,271.15a3.39,3.39,0,0,1-1.69-.42,3.08,3.08,0,0,1-1.19-1.16,3.32,3.32,0,0,1-.43-1.67,3.27,3.27,0,0,1,.43-1.67,3.1,3.1,0,0,1,1.18-1.15,3.4,3.4,0,0,1,1.7-.42,3.5,3.5,0,0,1,1.7.41,3.1,3.1,0,0,1,1.18,1.15,3.57,3.57,0,0,1,0,3.36,3.1,3.1,0,0,1-1.18,1.15A3.4,3.4,0,0,1,73.5,271.15Zm0-1a2.21,2.21,0,0,0,1.1-.27,1.93,1.93,0,0,0,.76-.79,2.37,2.37,0,0,0,.28-1.18,2.32,2.32,0,0,0-.28-1.18,2,2,0,0,0-.76-.78,2.15,2.15,0,0,0-3,.78,2.32,2.32,0,0,0-.28,1.18,2.37,2.37,0,0,0,.28,1.18,2.16,2.16,0,0,0,.77.79A2.2,2.2,0,0,0,73.5,270.14Z"/><path class="cls-6" d="M78.4,271.08v-8.9h1.15v8.9Zm.94-1.54,0-1.47L83,264.72h1.39l-2.81,2.76L81,268Zm3.92,1.54-2.5-3.1.75-.92,3.17,4Z"/><path class="cls-6" d="M86.37,263.5a.79.79,0,0,1-.56-.22.69.69,0,0,1-.22-.53.73.73,0,0,1,.22-.54.78.78,0,0,1,.56-.21.79.79,0,0,1,.56.21.75.75,0,0,1,0,1.06A.74.74,0,0,1,86.37,263.5Zm-.58,7.58v-6.36h1.15v6.36Z"/><path class="cls-6" d="M92.54,264.66a3,3,0,0,1,1.37.3,2.1,2.1,0,0,1,.93.91,3.26,3.26,0,0,1,.34,1.55v3.66H94v-3.53a1.94,1.94,0,0,0-.45-1.39,1.67,1.67,0,0,0-1.26-.47,2.25,2.25,0,0,0-1.07.24,1.6,1.6,0,0,0-.7.71,2.4,2.4,0,0,0-.25,1.16v3.28H89.14v-6.36h1.1v1.72l-.18-.46a2.19,2.19,0,0,1,1-1A3.22,3.22,0,0,1,92.54,264.66Z"/><path class="cls-6" d="M100,270.82a3.46,3.46,0,0,1-1.65-.39,3,3,0,0,1-1.15-1.09A3.05,3.05,0,0,1,98.3,265a3.58,3.58,0,0,1,1.65-.38,3.33,3.33,0,0,1,1.49.33,2.54,2.54,0,0,1,1.07,1,3.38,3.38,0,0,1,.41,1.73,3.34,3.34,0,0,1-.41,1.72,2.56,2.56,0,0,1-1.07,1A3.21,3.21,0,0,1,100,270.82Zm.15,2.66a5.64,5.64,0,0,1-1.7-.25,3.34,3.34,0,0,1-1.34-.7l.55-.89a3.29,3.29,0,0,0,1.09.61,4.17,4.17,0,0,0,1.36.22,2.25,2.25,0,0,0,1.66-.53,2.17,2.17,0,0,0,.52-1.6V269l.12-1.26-.06-1.27v-1.74h1.09v5.5a3.29,3.29,0,0,1-.83,2.47A3.45,3.45,0,0,1,100.1,273.48Zm0-3.67a2.3,2.3,0,0,0,1.13-.27,1.87,1.87,0,0,0,.77-.73,2.16,2.16,0,0,0,0-2.16,1.85,1.85,0,0,0-.77-.72,2.3,2.3,0,0,0-1.13-.26,2.33,2.33,0,0,0-1.13.26,1.94,1.94,0,0,0-.78.72,2.22,2.22,0,0,0,0,2.16,2,2,0,0,0,.78.73A2.33,2.33,0,0,0,100.08,269.81Z"/><path class="cls-6" d="M110.19,271.08H109v-8.4h5.93v1h-4.73Zm-.12-4.43h4.33v1h-4.33Z"/><path class="cls-6" d="M116.32,271.08v-6.36h1.1v1.73l-.11-.43a2,2,0,0,1,.89-1,3.16,3.16,0,0,1,1.54-.35v1.12l-.14,0h-.13a2,2,0,0,0-1.46.56,2.17,2.17,0,0,0-.54,1.59v3.17Z"/><path class="cls-6" d="M123.78,271.15a3.39,3.39,0,0,1-1.69-.42,3.08,3.08,0,0,1-1.19-1.16,3.32,3.32,0,0,1-.43-1.67,3.27,3.27,0,0,1,.43-1.67,3.1,3.1,0,0,1,1.18-1.15,3.4,3.4,0,0,1,1.7-.42,3.5,3.5,0,0,1,1.7.41,3.1,3.1,0,0,1,1.18,1.15,3.57,3.57,0,0,1,0,3.36,3.1,3.1,0,0,1-1.18,1.15A3.4,3.4,0,0,1,123.78,271.15Zm0-1a2.21,2.21,0,0,0,1.1-.27,1.93,1.93,0,0,0,.76-.79,2.37,2.37,0,0,0,.28-1.18,2.32,2.32,0,0,0-.28-1.18,2,2,0,0,0-.76-.78,2.15,2.15,0,0,0-3,.78,2.32,2.32,0,0,0-.28,1.18,2.37,2.37,0,0,0,.28,1.18,2.16,2.16,0,0,0,.77.79A2.2,2.2,0,0,0,123.78,270.14Z"/><path class="cls-6" d="M136.64,264.66a2.92,2.92,0,0,1,1.35.3,2.13,2.13,0,0,1,.92.91,3.26,3.26,0,0,1,.33,1.55v3.66h-1.15v-3.53a2,2,0,0,0-.43-1.39,1.6,1.6,0,0,0-1.22-.47,2.07,2.07,0,0,0-1,.24,1.68,1.68,0,0,0-.66.71,2.53,2.53,0,0,0-.23,1.16v3.28h-1.16v-3.53a2,2,0,0,0-.42-1.39,1.58,1.58,0,0,0-1.22-.47,2,2,0,0,0-1,.24,1.7,1.7,0,0,0-.67.71,2.52,2.52,0,0,0-.24,1.16v3.28h-1.15v-6.36h1.1v1.69l-.18-.43a2.13,2.13,0,0,1,.93-1,2.94,2.94,0,0,1,1.45-.35,2.71,2.71,0,0,1,1.57.45,2.14,2.14,0,0,1,.87,1.36l-.47-.19a2.35,2.35,0,0,1,1-1.18A3.16,3.16,0,0,1,136.64,264.66Z"/><path class="cls-6" d="M58,285.48v-8.4h3.27a4.66,4.66,0,0,1,1.89.35,2.66,2.66,0,0,1,1.2,1,2.85,2.85,0,0,1,.42,1.57,2.8,2.8,0,0,1-.42,1.56,2.66,2.66,0,0,1-1.2,1,4.49,4.49,0,0,1-1.89.36H58.64l.54-.57v3.11Zm1.2-3-.54-.6h2.58A2.65,2.65,0,0,0,63,281.4a1.91,1.91,0,0,0,0-2.78,2.65,2.65,0,0,0-1.74-.5H58.64l.54-.6Z"/><path class="cls-6" d="M66.11,285.48v-6.36h1.11v1.73l-.11-.43a1.91,1.91,0,0,1,.89-1,3.09,3.09,0,0,1,1.53-.35v1.12l-.14,0h-.12a2,2,0,0,0-1.47.56,2.19,2.19,0,0,0-.54,1.59v3.17Z"/><path class="cls-6" d="M73.58,285.55a3.4,3.4,0,0,1-1.7-.42A3,3,0,0,1,70.7,284a3.39,3.39,0,0,1,0-3.34,3.08,3.08,0,0,1,1.17-1.15,3.44,3.44,0,0,1,1.71-.42,3.49,3.49,0,0,1,1.69.41,3,3,0,0,1,1.18,1.15,3.5,3.5,0,0,1,0,3.36,3,3,0,0,1-1.18,1.15A3.39,3.39,0,0,1,73.58,285.55Zm0-1a2.21,2.21,0,0,0,1.09-.28,2,2,0,0,0,.77-.79,2.48,2.48,0,0,0,.27-1.18,2.42,2.42,0,0,0-.27-1.18,2.06,2.06,0,0,0-.77-.78,2.36,2.36,0,0,0-2.19,0,2.11,2.11,0,0,0-.76.78,2.22,2.22,0,0,0-.29,1.18,2.27,2.27,0,0,0,.29,1.18,2,2,0,0,0,.76.79A2.22,2.22,0,0,0,73.58,284.55Z"/><path class="cls-6" d="M77.56,280.07v-.95h4.06v.95Zm1.08,5.41v-6.92a2,2,0,0,1,.55-1.5,2.07,2.07,0,0,1,1.55-.55,2.71,2.71,0,0,1,.71.08,1.55,1.55,0,0,1,.59.29l-.35.87a1.47,1.47,0,0,0-.41-.22,1.51,1.51,0,0,0-.48-.08,1,1,0,0,0-.77.28,1.22,1.22,0,0,0-.26.84v.85l0,.53v5.53Z"/><path class="cls-6" d="M85.42,285.55a3.67,3.67,0,0,1-1.79-.42,3,3,0,0,1-1.2-1.15A3.23,3.23,0,0,1,82,282.3a3.43,3.43,0,0,1,.41-1.68,3.07,3.07,0,0,1,1.14-1.15,3.33,3.33,0,0,1,1.64-.41,3.21,3.21,0,0,1,1.63.41,2.77,2.77,0,0,1,1.11,1.14,3.57,3.57,0,0,1,.41,1.73s0,.1,0,.17a.88.88,0,0,1,0,.17H82.9v-.82h4.81l-.47.28a2.09,2.09,0,0,0-.25-1.09,1.92,1.92,0,0,0-.72-.75,2.28,2.28,0,0,0-2.15,0,1.91,1.91,0,0,0-.73.76,2.33,2.33,0,0,0-.26,1.11v.19a2.14,2.14,0,0,0,.29,1.13,2,2,0,0,0,.82.78,2.67,2.67,0,0,0,1.22.28,2.61,2.61,0,0,0,1-.2,2.3,2.3,0,0,0,.81-.57l.64.74a2.81,2.81,0,0,1-1.08.77A3.61,3.61,0,0,1,85.42,285.55Z"/><path class="cls-6" d="M91.76,285.55a5.35,5.35,0,0,1-1.51-.21,3.54,3.54,0,0,1-1.12-.53l.48-.91a3.79,3.79,0,0,0,1,.46,3.9,3.9,0,0,0,1.22.2,2.25,2.25,0,0,0,1.16-.23.72.72,0,0,0,.35-.64.58.58,0,0,0-.21-.47,1.67,1.67,0,0,0-.57-.25l-.79-.15a8.17,8.17,0,0,1-.86-.17,3.29,3.29,0,0,1-.8-.28,1.51,1.51,0,0,1-.57-.52,1.53,1.53,0,0,1-.22-.88,1.61,1.61,0,0,1,.33-1,2,2,0,0,1,.91-.66,3.78,3.78,0,0,1,1.41-.24,5.57,5.57,0,0,1,1.27.15,3,3,0,0,1,1,.43l-.49.91a2.77,2.77,0,0,0-.9-.4,4.29,4.29,0,0,0-.94-.1,2.13,2.13,0,0,0-1.13.24.74.74,0,0,0-.37.63.62.62,0,0,0,.22.5,1.65,1.65,0,0,0,.58.27,7.33,7.33,0,0,0,.79.16c.28,0,.57.1.86.17a3.68,3.68,0,0,1,.79.28,1.61,1.61,0,0,1,.57.5,1.52,1.52,0,0,1,.22.87,1.55,1.55,0,0,1-.33,1,2.25,2.25,0,0,1-1,.66A4.26,4.26,0,0,1,91.76,285.55Z"/><path class="cls-6" d="M97.77,285.55a5.35,5.35,0,0,1-1.51-.21,3.66,3.66,0,0,1-1.12-.53l.48-.91a3.79,3.79,0,0,0,1,.46,4,4,0,0,0,1.22.2,2.25,2.25,0,0,0,1.16-.23.7.7,0,0,0,.35-.64.58.58,0,0,0-.21-.47,1.67,1.67,0,0,0-.57-.25l-.79-.15a8.71,8.71,0,0,1-.86-.17,3.21,3.21,0,0,1-.79-.28,1.54,1.54,0,0,1-.58-.52,1.78,1.78,0,0,1,.11-1.89,1.94,1.94,0,0,1,.92-.66,3.71,3.71,0,0,1,1.41-.24,5.55,5.55,0,0,1,1.26.15,3,3,0,0,1,1,.43l-.49.91a2.77,2.77,0,0,0-.9-.4,4.23,4.23,0,0,0-.94-.1,2.07,2.07,0,0,0-1.12.24.73.73,0,0,0-.38.63.6.6,0,0,0,.23.5,1.59,1.59,0,0,0,.57.27,7.33,7.33,0,0,0,.79.16,8.71,8.71,0,0,1,.86.17,3.68,3.68,0,0,1,.79.28,1.42,1.42,0,0,1,.8,1.37,1.56,1.56,0,0,1-.34,1,2.19,2.19,0,0,1-1,.66A4.22,4.22,0,0,1,97.77,285.55Z"/><path class="cls-6" d="M102.53,277.9a.8.8,0,0,1-.56-.22.73.73,0,0,1-.22-.53.77.77,0,0,1,.22-.54.79.79,0,0,1,.56-.21.78.78,0,0,1,.56.21.67.67,0,0,1,.22.52.79.79,0,0,1-.21.55A.81.81,0,0,1,102.53,277.9Zm-.57,7.58v-6.36h1.15v6.36Z"/><path class="cls-6" d="M108,285.55a3.4,3.4,0,0,1-1.7-.42,3,3,0,0,1-1.18-1.16,3.46,3.46,0,0,1,0-3.34,3.08,3.08,0,0,1,1.17-1.15,3.44,3.44,0,0,1,1.71-.42,3.49,3.49,0,0,1,1.69.41,3,3,0,0,1,1.18,1.15,3.5,3.5,0,0,1,0,3.36,3,3,0,0,1-1.18,1.15A3.39,3.39,0,0,1,108,285.55Zm0-1a2.28,2.28,0,0,0,1.1-.28,2,2,0,0,0,.76-.79,2.48,2.48,0,0,0,.27-1.18,2.42,2.42,0,0,0-.27-1.18,2.11,2.11,0,0,0-.76-.78,2.27,2.27,0,0,0-1.1-.27,2.24,2.24,0,0,0-1.1.27,2.19,2.19,0,0,0-.76.78,2.22,2.22,0,0,0-.29,1.18,2.27,2.27,0,0,0,.29,1.18,2.07,2.07,0,0,0,.76.79A2.25,2.25,0,0,0,108,284.55Z"/><path class="cls-6" d="M116.32,279.06a3,3,0,0,1,1.37.3,2.1,2.1,0,0,1,.93.91,3.15,3.15,0,0,1,.34,1.55v3.66h-1.15V282a1.94,1.94,0,0,0-.45-1.39,1.68,1.68,0,0,0-1.27-.47,2.28,2.28,0,0,0-1.07.24,1.71,1.71,0,0,0-.7.71,2.52,2.52,0,0,0-.24,1.16v3.28h-1.16v-6.36H114v1.72l-.18-.46a2.25,2.25,0,0,1,1-1A3.15,3.15,0,0,1,116.32,279.06Z"/><path class="cls-6" d="M123,285.55a3,3,0,0,1-1.25-.24,1.94,1.94,0,0,1-.82-.66,1.73,1.73,0,0,1-.29-1,1.79,1.79,0,0,1,.25-.94,1.75,1.75,0,0,1,.8-.67,3.74,3.74,0,0,1,1.51-.25h2v.83h-2a1.69,1.69,0,0,0-1.17.29.92.92,0,0,0-.3.69.9.9,0,0,0,.38.75,1.64,1.64,0,0,0,1,.28,2.18,2.18,0,0,0,1.13-.28,1.7,1.7,0,0,0,.7-.84l.23.79a1.77,1.77,0,0,1-.8.89A2.91,2.91,0,0,1,123,285.55Zm2.08-.07v-1.34l-.06-.26v-2.29a1.49,1.49,0,0,0-.42-1.13,1.8,1.8,0,0,0-1.28-.4,3.43,3.43,0,0,0-1.1.18,2.88,2.88,0,0,0-.92.5l-.48-.86a3.44,3.44,0,0,1,1.19-.61,4.92,4.92,0,0,1,1.44-.21,2.9,2.9,0,0,1,2,.64,2.48,2.48,0,0,1,.71,1.94v3.84Z"/><path class="cls-6" d="M128.27,285.48v-8.9h1.15v8.9Z"/><path class="cls-6" d="M133.44,285.55a5.28,5.28,0,0,1-1.5-.21,3.54,3.54,0,0,1-1.12-.53l.48-.91a3.72,3.72,0,0,0,1,.46,4,4,0,0,0,1.23.2,2.27,2.27,0,0,0,1.16-.23.72.72,0,0,0,.35-.64.56.56,0,0,0-.22-.47,1.51,1.51,0,0,0-.57-.25l-.78-.15c-.29,0-.58-.1-.87-.17a3.36,3.36,0,0,1-.79-.28,1.51,1.51,0,0,1-.57-.52A1.53,1.53,0,0,1,131,281a1.67,1.67,0,0,1,.32-1,2,2,0,0,1,.92-.66,3.78,3.78,0,0,1,1.41-.24,5.57,5.57,0,0,1,1.27.15,3,3,0,0,1,1.05.43l-.49.91a2.77,2.77,0,0,0-.9-.4,4.36,4.36,0,0,0-.94-.1,2.13,2.13,0,0,0-1.13.24.72.72,0,0,0-.37.63.59.59,0,0,0,.22.5,1.65,1.65,0,0,0,.58.27,7.12,7.12,0,0,0,.78.16c.29,0,.58.1.87.17a3.41,3.41,0,0,1,.78.28,1.56,1.56,0,0,1,.58.5,1.52,1.52,0,0,1,.22.87,1.55,1.55,0,0,1-.33,1,2.25,2.25,0,0,1-1,.66A4.28,4.28,0,0,1,133.44,285.55Z"/><path class="cls-6" d="M54.25,304.25v-8.4H58a3.68,3.68,0,0,1,2.23.58A1.88,1.88,0,0,1,61,298a2,2,0,0,1-.31,1.15,2,2,0,0,1-.82.72,2.49,2.49,0,0,1-1.12.25l.22-.36a3.16,3.16,0,0,1,1.27.25,2.12,2.12,0,0,1,.88.74,2.2,2.2,0,0,1,.32,1.21,1.94,1.94,0,0,1-.81,1.67,4,4,0,0,1-2.4.6Zm1.2-1h2.76a2.88,2.88,0,0,0,1.52-.33,1.34,1.34,0,0,0,0-2.13,2.88,2.88,0,0,0-1.52-.33H55.34v-1h2.57a2.53,2.53,0,0,0,1.41-.34,1.26,1.26,0,0,0,0-2,2.53,2.53,0,0,0-1.41-.33H55.45Z"/><path class="cls-6" d="M65.89,304.32a3.43,3.43,0,0,1-1.7-.42A3.13,3.13,0,0,1,63,302.74a3.24,3.24,0,0,1,1.17-4.49,3.71,3.71,0,0,1,3.41,0,3,3,0,0,1,1.17,1.15,3.18,3.18,0,0,1,.43,1.68,3.23,3.23,0,0,1-.43,1.68,3.08,3.08,0,0,1-1.17,1.15A3.43,3.43,0,0,1,65.89,304.32Zm0-1A2.14,2.14,0,0,0,67,303a2,2,0,0,0,.76-.78,2.74,2.74,0,0,0,0-2.37,2,2,0,0,0-.76-.77,2.25,2.25,0,0,0-1.1-.28,2.18,2.18,0,0,0-1.09.28,2,2,0,0,0-.77.77,2.57,2.57,0,0,0,0,2.37,2,2,0,0,0,.77.78A2.08,2.08,0,0,0,65.89,303.31Z"/><path class="cls-6" d="M73.51,304.32a3.43,3.43,0,0,1-1.7-.42,3.13,3.13,0,0,1-1.18-1.16,3.48,3.48,0,0,1,0-3.35,3.15,3.15,0,0,1,1.18-1.14,3.37,3.37,0,0,1,1.7-.42,3.42,3.42,0,0,1,1.7.41,3,3,0,0,1,1.17,1.15,3.18,3.18,0,0,1,.43,1.68,3.23,3.23,0,0,1-.43,1.68,3.08,3.08,0,0,1-1.17,1.15A3.43,3.43,0,0,1,73.51,304.32Zm0-1a2.14,2.14,0,0,0,1.1-.28,2,2,0,0,0,.76-.78,2.74,2.74,0,0,0,0-2.37,2,2,0,0,0-.76-.77,2.25,2.25,0,0,0-1.1-.28,2.18,2.18,0,0,0-1.09.28,2,2,0,0,0-.77.77,2.57,2.57,0,0,0,0,2.37,2,2,0,0,0,.77.78A2.08,2.08,0,0,0,73.51,303.31Z"/><path class="cls-6" d="M78.4,304.25v-8.91h1.16v8.91Zm.94-1.54,0-1.48L83,297.89h1.4l-2.81,2.76-.63.52Zm3.92,1.54-2.49-3.1.74-.92,3.17,4Z"/><path class="cls-6" d="M86.37,296.66a.79.79,0,0,1-.56-.21.75.75,0,0,1-.22-.53.74.74,0,0,1,.22-.54.76.76,0,0,1,.56-.22.78.78,0,0,1,.56.21.69.69,0,0,1,.22.52.74.74,0,0,1-.78.77Zm-.57,7.59v-6.36H87v6.36Z"/><path class="cls-6" d="M92.54,297.83a3,3,0,0,1,1.37.3,2.1,2.1,0,0,1,.93.91,3.12,3.12,0,0,1,.34,1.55v3.66H94v-3.53a1.92,1.92,0,0,0-.45-1.39,1.65,1.65,0,0,0-1.27-.47,2.28,2.28,0,0,0-1.07.24,1.66,1.66,0,0,0-.7.71A2.52,2.52,0,0,0,90.3,301v3.28H89.14v-6.36h1.11v1.71l-.18-.45a2.27,2.27,0,0,1,1-1A3.15,3.15,0,0,1,92.54,297.83Z"/><path class="cls-6" d="M100,304a3.41,3.41,0,0,1-1.65-.39,3,3,0,0,1-1.16-1.08,3.32,3.32,0,0,1,0-3.23,3,3,0,0,1,1.16-1.07,3.41,3.41,0,0,1,1.65-.38,3.28,3.28,0,0,1,1.48.33,2.5,2.5,0,0,1,1.08,1,3.36,3.36,0,0,1,.4,1.73,3.28,3.28,0,0,1-.4,1.71,2.61,2.61,0,0,1-1.08,1A3.16,3.16,0,0,1,100,304Zm.14,2.67a6.08,6.08,0,0,1-1.7-.25,3.55,3.55,0,0,1-1.34-.7l.56-.89a3.19,3.19,0,0,0,1.09.61,4.34,4.34,0,0,0,1.35.22,2.26,2.26,0,0,0,1.66-.53,2.2,2.2,0,0,0,.53-1.61v-1.34l.12-1.26-.06-1.27v-1.74h1.09v5.49a3.24,3.24,0,0,1-.84,2.47A3.45,3.45,0,0,1,100.1,306.65Zm0-3.68a2.33,2.33,0,0,0,1.13-.26A2.08,2.08,0,0,0,102,302a2.22,2.22,0,0,0,0-2.16,2,2,0,0,0-.77-.73,2.44,2.44,0,0,0-1.13-.26,2.49,2.49,0,0,0-1.14.26,2,2,0,0,0-.78.73,2.22,2.22,0,0,0,0,2.16,2,2,0,0,0,.78.73A2.37,2.37,0,0,0,100.09,303Z"/><path class="cls-6" d="M110.19,304.25H109v-8.4h5.93v1h-4.73Zm-.12-4.43h4.33v1h-4.33Z"/><path class="cls-6" d="M116.32,304.25v-6.36h1.11v1.72l-.11-.43a2,2,0,0,1,.89-1,3.12,3.12,0,0,1,1.53-.34v1.11h-.26a1.93,1.93,0,0,0-1.46.55,2.2,2.2,0,0,0-.54,1.6v3.17Z"/><path class="cls-6" d="M123.79,304.32a3.43,3.43,0,0,1-1.7-.42,3.13,3.13,0,0,1-1.18-1.16,3.24,3.24,0,0,1,1.17-4.49,3.71,3.71,0,0,1,3.41,0,3,3,0,0,1,1.17,1.15,3.18,3.18,0,0,1,.43,1.68,3.23,3.23,0,0,1-.43,1.68,3.08,3.08,0,0,1-1.17,1.15A3.43,3.43,0,0,1,123.79,304.32Zm0-1a2.14,2.14,0,0,0,1.1-.28,2,2,0,0,0,.76-.78,2.74,2.74,0,0,0,0-2.37,2,2,0,0,0-.76-.77,2.25,2.25,0,0,0-1.1-.28,2.18,2.18,0,0,0-1.09.28,2,2,0,0,0-.77.77,2.57,2.57,0,0,0,0,2.37,2,2,0,0,0,.77.78A2.08,2.08,0,0,0,123.79,303.31Z"/><path class="cls-6" d="M136.64,297.83a3,3,0,0,1,1.36.3,2.1,2.1,0,0,1,.91.91,3.24,3.24,0,0,1,.33,1.55v3.66h-1.15v-3.53a2,2,0,0,0-.43-1.39,1.54,1.54,0,0,0-1.21-.47,2,2,0,0,0-1,.24,1.59,1.59,0,0,0-.67.71,2.66,2.66,0,0,0-.23,1.16v3.28h-1.15v-3.53a2,2,0,0,0-.43-1.39,1.53,1.53,0,0,0-1.22-.47,2,2,0,0,0-1,.24,1.59,1.59,0,0,0-.67.71,2.52,2.52,0,0,0-.24,1.16v3.28h-1.16v-6.36h1.11v1.69l-.18-.43a2.23,2.23,0,0,1,.92-1,3,3,0,0,1,1.45-.34,2.74,2.74,0,0,1,1.58.45,2.13,2.13,0,0,1,.86,1.36l-.47-.19a2.4,2.4,0,0,1,1-1.18A3.1,3.1,0,0,1,136.64,297.83Z"/><path class="cls-6" d="M76.4,317.6h4.9v1H75.2v-8.4h5.93v1H76.4Zm-.11-3.73h4.32v1H76.29Z"/><path class="cls-6" d="M81.91,318.65l2.73-3.56v.59L82,312.29h1.28l2,2.61h-.5l2-2.61h1.25l-2.64,3.42,0-.62,2.76,3.56H86.89l-2.1-2.79.47.07-2.07,2.72Z"/><path class="cls-6" d="M88.81,321v-8.68h1.1V314l-.07,1.48L90,317v4Zm3.37-2.25a2.87,2.87,0,0,1-1.45-.37,2.65,2.65,0,0,1-1-1.08,3.75,3.75,0,0,1-.39-1.8,3.87,3.87,0,0,1,.38-1.8,2.5,2.5,0,0,1,1-1.08,3,3,0,0,1,1.47-.36,3.32,3.32,0,0,1,1.66.4A3,3,0,0,1,95,313.77a3.32,3.32,0,0,1,.42,1.7,3.37,3.37,0,0,1-.42,1.7,3,3,0,0,1-1.14,1.14A3.32,3.32,0,0,1,92.18,318.72Zm-.09-1a2.11,2.11,0,0,0,1.09-.28,1.93,1.93,0,0,0,.77-.78,2.65,2.65,0,0,0,0-2.37,2,2,0,0,0-.77-.77,2.21,2.21,0,0,0-1.09-.28,2.18,2.18,0,0,0-1.09.28,2,2,0,0,0-.77.77,2.65,2.65,0,0,0,0,2.37,2,2,0,0,0,.77.78A2.08,2.08,0,0,0,92.09,317.71Z"/><path class="cls-6" d="M99.82,318.72A3.7,3.7,0,0,1,98,318.3a3.09,3.09,0,0,1-1.2-1.15,3.53,3.53,0,0,1,0-3.36A3,3,0,0,1,98,312.64a3.5,3.5,0,0,1,3.27,0,3,3,0,0,1,1.11,1.15,3.52,3.52,0,0,1,.4,1.72,1,1,0,0,1,0,.17c0,.06,0,.13,0,.18H97.31V315h4.81l-.47.29a2.17,2.17,0,0,0-.25-1.09,2,2,0,0,0-.73-.75,2.26,2.26,0,0,0-2.14,0,1.88,1.88,0,0,0-.73.75,2.29,2.29,0,0,0-.27,1.12v.19a2.15,2.15,0,0,0,.3,1.13,2,2,0,0,0,.82.77,2.49,2.49,0,0,0,1.21.28,2.63,2.63,0,0,0,1-.19,2.38,2.38,0,0,0,.81-.58l.63.75a2.75,2.75,0,0,1-1.07.76A3.7,3.7,0,0,1,99.82,318.72Z"/><path class="cls-6" d="M104.34,318.65v-6.36h1.1V314l-.11-.43a2,2,0,0,1,.89-1,3.16,3.16,0,0,1,1.54-.34v1.11h-.27a2,2,0,0,0-1.46.55,2.2,2.2,0,0,0-.54,1.6v3.17Z"/><path class="cls-6" d="M108.52,313.23v-.94h4.06v.94Zm3.1,5.49a2,2,0,0,1-1.49-.52,2,2,0,0,1-.53-1.47v-5.84h1.16v5.79a1.12,1.12,0,0,0,.25.79,1,1,0,0,0,.74.28,1.36,1.36,0,0,0,.9-.3l.36.82a1.48,1.48,0,0,1-.63.34A2.74,2.74,0,0,1,111.62,318.72Z"/><path class="cls-6" d="M116.23,318.72a5,5,0,0,1-1.51-.22,3.44,3.44,0,0,1-1.12-.53l.48-.91a3.79,3.79,0,0,0,1,.47,3.93,3.93,0,0,0,1.22.19,2.15,2.15,0,0,0,1.16-.23.7.7,0,0,0,.35-.63.57.57,0,0,0-.21-.47,1.49,1.49,0,0,0-.57-.25,7.43,7.43,0,0,0-.79-.15c-.29-.05-.57-.1-.86-.17a3.22,3.22,0,0,1-.79-.29A1.44,1.44,0,0,1,114,315a1.65,1.65,0,0,1-.22-.89,1.58,1.58,0,0,1,.33-1,2,2,0,0,1,.92-.67,3.72,3.72,0,0,1,1.41-.23,5.55,5.55,0,0,1,1.26.15,3.19,3.19,0,0,1,1,.42l-.49.92a2.57,2.57,0,0,0-.9-.4,4.24,4.24,0,0,0-.94-.11,2,2,0,0,0-1.12.25.73.73,0,0,0-.38.63.61.61,0,0,0,.23.5,1.59,1.59,0,0,0,.57.26,7.23,7.23,0,0,0,.79.17c.29,0,.57.1.86.16a3.69,3.69,0,0,1,.79.29,1.53,1.53,0,0,1,.57.5,1.5,1.5,0,0,1,.23.87,1.56,1.56,0,0,1-.34,1,2.09,2.09,0,0,1-1,.65A4,4,0,0,1,116.23,318.72Z"/><path class="cls-6" d="M67.74,336.21v-8.4h1.2v8.4Z"/><path class="cls-6" d="M74.68,329.79a3,3,0,0,1,1.38.3A2.2,2.2,0,0,1,77,331a3.26,3.26,0,0,1,.33,1.55v3.66H76.17v-3.53a1.94,1.94,0,0,0-.45-1.39,1.67,1.67,0,0,0-1.26-.47,2.25,2.25,0,0,0-1.07.24,1.6,1.6,0,0,0-.7.71,2.41,2.41,0,0,0-.25,1.17v3.27H71.29v-6.36h1.1v1.72l-.18-.46a2.25,2.25,0,0,1,1-1A3.18,3.18,0,0,1,74.68,329.79Z"/><path class="cls-6" d="M82.09,336.28a3.3,3.3,0,0,1-1.65-.4,3.07,3.07,0,0,1-1.15-1.14,3.39,3.39,0,0,1-.42-1.71,3.35,3.35,0,0,1,.42-1.7,3,3,0,0,1,1.15-1.13,3.31,3.31,0,0,1,1.65-.41,2.94,2.94,0,0,1,1.45.36,2.65,2.65,0,0,1,1,1.08A3.75,3.75,0,0,1,85,333a3.87,3.87,0,0,1-.38,1.8,2.59,2.59,0,0,1-1,1.09A3,3,0,0,1,82.09,336.28Zm.09-1a2.21,2.21,0,0,0,1.09-.28,2,2,0,0,0,.77-.79,2.37,2.37,0,0,0,.28-1.18,2.34,2.34,0,0,0-.28-1.18,2,2,0,0,0-.77-.77,2.16,2.16,0,0,0-3,.77A2.34,2.34,0,0,0,80,333a2.37,2.37,0,0,0,.28,1.18,2.09,2.09,0,0,0,.77.79A2.21,2.21,0,0,0,82.18,335.28Zm2.18.93V334.5l.07-1.48-.12-1.48v-4.23h1.15v8.9Z"/><path class="cls-6" d="M88.22,328.63a.76.76,0,0,1-.56-.22.73.73,0,0,1-.22-.53.77.77,0,0,1,.22-.54.85.85,0,0,1,1.12,0,.67.67,0,0,1,.22.52.77.77,0,0,1-.21.55A.81.81,0,0,1,88.22,328.63Zm-.58,7.58v-6.36H88.8v6.36Z"/><path class="cls-6" d="M92.66,336.21l-2.78-6.36h1.2l2.47,5.76H93l2.52-5.76h1.13l-2.78,6.36Z"/><path class="cls-6" d="M98.28,328.63a.75.75,0,0,1-.56-.22.69.69,0,0,1-.22-.53.73.73,0,0,1,.22-.54.78.78,0,0,1,.56-.21.75.75,0,0,1,.55.21.68.68,0,0,1,.23.52.78.78,0,0,1-.22.55A.77.77,0,0,1,98.28,328.63Zm-.58,7.58v-6.36h1.15v6.36Z"/><path class="cls-6" d="M103.68,336.28a3.3,3.3,0,0,1-1.65-.4,3.07,3.07,0,0,1-1.15-1.14,3.39,3.39,0,0,1-.42-1.71,3.35,3.35,0,0,1,.42-1.7A3,3,0,0,1,102,330.2a3.31,3.31,0,0,1,1.65-.41,2.94,2.94,0,0,1,1.45.36,2.65,2.65,0,0,1,1,1.08,3.75,3.75,0,0,1,.39,1.8,3.87,3.87,0,0,1-.38,1.8,2.65,2.65,0,0,1-1,1.09A3,3,0,0,1,103.68,336.28Zm.09-1a2.24,2.24,0,0,0,1.09-.28,2,2,0,0,0,.77-.79,2.48,2.48,0,0,0,.28-1.18,2.45,2.45,0,0,0-.28-1.18,2,2,0,0,0-.77-.77,2.13,2.13,0,0,0-1.09-.28,2.08,2.08,0,0,0-1.09.28,2,2,0,0,0-.77.77,2.34,2.34,0,0,0-.29,1.18,2.37,2.37,0,0,0,.29,1.18,2,2,0,0,0,.77.79A2.18,2.18,0,0,0,103.77,335.28Zm2.17.93V334.5L106,333l-.12-1.48v-4.23h1.15v8.9Z"/><path class="cls-6" d="M111.91,336.28a3.28,3.28,0,0,1-1.44-.3,2.16,2.16,0,0,1-1-.91,3.3,3.3,0,0,1-.34-1.56v-3.66h1.15v3.53a2,2,0,0,0,.45,1.4,1.66,1.66,0,0,0,1.27.47,2.13,2.13,0,0,0,1-.24,1.71,1.71,0,0,0,.69-.72,2.54,2.54,0,0,0,.24-1.15v-3.29h1.15v6.36h-1.09V334.5l.18.45a2.25,2.25,0,0,1-.94,1A2.82,2.82,0,0,1,111.91,336.28Z"/><path class="cls-6" d="M119.22,336.28A3,3,0,0,1,118,336a1.94,1.94,0,0,1-.82-.66,1.73,1.73,0,0,1-.29-1,1.85,1.85,0,0,1,.25-.93,1.71,1.71,0,0,1,.8-.68,3.92,3.92,0,0,1,1.51-.25h2v.83h-2a1.74,1.74,0,0,0-1.17.29.92.92,0,0,0-.3.69.88.88,0,0,0,.38.75,1.64,1.64,0,0,0,1,.29,2.18,2.18,0,0,0,1.13-.29,1.57,1.57,0,0,0,.7-.84l.23.79a1.77,1.77,0,0,1-.8.89A2.91,2.91,0,0,1,119.22,336.28Zm2.08-.07v-1.34l-.06-.25v-2.3a1.5,1.5,0,0,0-.42-1.13,1.8,1.8,0,0,0-1.28-.4,3.43,3.43,0,0,0-1.1.18,3,3,0,0,0-.92.5l-.48-.86a3.44,3.44,0,0,1,1.19-.61,4.92,4.92,0,0,1,1.44-.21,2.9,2.9,0,0,1,2,.64,2.48,2.48,0,0,1,.71,1.94v3.84Z"/><path class="cls-6" d="M124.53,336.21v-8.9h1.15v8.9Z"/><path class="cls-6" d="M63.93,349.57h4.89v1H62.73v-8.4h5.93v1.05H63.93Zm-.11-3.73h4.32v1H63.82Z"/><path class="cls-6" d="M72.09,350.61l-2.79-6.36h1.2L73,350H72.4l2.52-5.76h1.13l-2.79,6.36Z"/><path class="cls-6" d="M78.81,350.68a3,3,0,0,1-1.25-.24,1.94,1.94,0,0,1-.82-.66,1.73,1.73,0,0,1-.29-1,1.85,1.85,0,0,1,.25-.93,1.69,1.69,0,0,1,.81-.68A3.83,3.83,0,0,1,79,347h2v.83h-2a1.76,1.76,0,0,0-1.17.29.91.91,0,0,0-.29.69.87.87,0,0,0,.37.75,1.66,1.66,0,0,0,1,.29,2.18,2.18,0,0,0,1.13-.29,1.64,1.64,0,0,0,.71-.84l.22.79a1.77,1.77,0,0,1-.8.89A2.91,2.91,0,0,1,78.81,350.68Zm2.08-.07v-1.34l0-.25v-2.3a1.51,1.51,0,0,0-.43-1.13,1.8,1.8,0,0,0-1.28-.4,3.43,3.43,0,0,0-1.1.18,3,3,0,0,0-.92.5l-.47-.86a3.3,3.3,0,0,1,1.18-.61,4.92,4.92,0,0,1,1.44-.21,2.88,2.88,0,0,1,2,.64,2.48,2.48,0,0,1,.71,1.94v3.84Z"/><path class="cls-6" d="M84.12,350.61v-8.9h1.15v8.9Z"/><path class="cls-6" d="M90.15,350.68a3.28,3.28,0,0,1-1.44-.3,2.16,2.16,0,0,1-1-.91,3.3,3.3,0,0,1-.34-1.56v-3.66h1.15v3.53a2,2,0,0,0,.45,1.4,1.65,1.65,0,0,0,1.27.47,2.13,2.13,0,0,0,1-.24,1.71,1.71,0,0,0,.69-.72,2.54,2.54,0,0,0,.24-1.15v-3.29H93.4v6.36H92.31V348.9l.18.45a2.25,2.25,0,0,1-.94,1A2.82,2.82,0,0,1,90.15,350.68Z"/><path class="cls-6" d="M97.45,350.68a3,3,0,0,1-1.24-.24,1.94,1.94,0,0,1-.82-.66,1.73,1.73,0,0,1-.29-1,1.75,1.75,0,0,1,.25-.93,1.71,1.71,0,0,1,.8-.68,3.89,3.89,0,0,1,1.51-.25h2v.83h-2a1.74,1.74,0,0,0-1.17.29.92.92,0,0,0-.3.69.89.89,0,0,0,.37.75,1.69,1.69,0,0,0,1,.29,2.18,2.18,0,0,0,1.13-.29,1.62,1.62,0,0,0,.7-.84l.23.79a1.77,1.77,0,0,1-.8.89A2.92,2.92,0,0,1,97.45,350.68Zm2.09-.07v-1.34l-.06-.25v-2.3a1.5,1.5,0,0,0-.42-1.13,1.8,1.8,0,0,0-1.28-.4,3.49,3.49,0,0,0-1.11.18,2.94,2.94,0,0,0-.91.5l-.48-.86a3.39,3.39,0,0,1,1.18-.61,5,5,0,0,1,1.45-.21,2.92,2.92,0,0,1,2,.64,2.48,2.48,0,0,1,.7,1.94v3.84Z"/><path class="cls-6" d="M101.86,345.2v-.95h4.06v.95Zm3.1,5.48a2,2,0,0,1-1.49-.51,2,2,0,0,1-.53-1.48v-5.83h1.15v5.78a1.15,1.15,0,0,0,.26.8,1,1,0,0,0,.74.27,1.36,1.36,0,0,0,.9-.3l.36.83a1.91,1.91,0,0,1-.63.34A2.78,2.78,0,0,1,105,350.68Z"/><path class="cls-6" d="M108.31,343a.72.72,0,0,1-.55-.22.7.7,0,0,1-.23-.53.74.74,0,0,1,.23-.54.75.75,0,0,1,.55-.21.78.78,0,0,1,.56.21.68.68,0,0,1,.23.52.78.78,0,0,1-.22.55A.79.79,0,0,1,108.31,343Zm-.57,7.58v-6.36h1.15v6.36Z"/><path class="cls-6" d="M113.81,350.68a3.43,3.43,0,0,1-1.7-.42,3.1,3.1,0,0,1-1.18-1.15,3.26,3.26,0,0,1-.43-1.68,3.17,3.17,0,0,1,.43-1.67,3.1,3.1,0,0,1,1.18-1.15,3.37,3.37,0,0,1,1.7-.42,3.43,3.43,0,0,1,1.7.42,2.92,2.92,0,0,1,1.17,1.14,3.5,3.5,0,0,1,0,3.36,3,3,0,0,1-1.17,1.15A3.43,3.43,0,0,1,113.81,350.68Zm0-1a2.25,2.25,0,0,0,1.1-.28,1.93,1.93,0,0,0,.76-.79,2.48,2.48,0,0,0,.28-1.18,2.45,2.45,0,0,0-.28-1.18,1.94,1.94,0,0,0-.76-.77,2.14,2.14,0,0,0-1.1-.28,2.08,2.08,0,0,0-1.09.28,2,2,0,0,0-.77.77,2.34,2.34,0,0,0-.29,1.18,2.37,2.37,0,0,0,.29,1.18,2,2,0,0,0,.77.79A2.18,2.18,0,0,0,113.81,349.68Z"/><path class="cls-6" d="M122.1,344.19a3,3,0,0,1,1.38.3,2.26,2.26,0,0,1,.93.91,3.26,3.26,0,0,1,.33,1.55v3.66h-1.15v-3.53a1.94,1.94,0,0,0-.45-1.39,1.68,1.68,0,0,0-1.27-.47,2.24,2.24,0,0,0-1.06.24,1.68,1.68,0,0,0-.71.71,2.54,2.54,0,0,0-.24,1.17v3.27h-1.15v-6.36h1.1V346l-.18-.46a2.25,2.25,0,0,1,1-1A3.18,3.18,0,0,1,122.1,344.19Z"/><path class="cls-6" d="M128.7,350.68a5.23,5.23,0,0,1-1.5-.21,3.72,3.72,0,0,1-1.13-.53l.48-.91a4.31,4.31,0,0,0,1,.47,4.27,4.27,0,0,0,1.23.19,2.2,2.2,0,0,0,1.15-.23.71.71,0,0,0,.36-.64.53.53,0,0,0-.22-.46,1.37,1.37,0,0,0-.57-.26l-.78-.15c-.29,0-.58-.1-.87-.16a3.69,3.69,0,0,1-.79-.29,1.41,1.41,0,0,1-.79-1.4,1.69,1.69,0,0,1,.32-1,2,2,0,0,1,.92-.66,3.78,3.78,0,0,1,1.41-.24,5.57,5.57,0,0,1,1.27.15,3.16,3.16,0,0,1,1.05.43l-.5.91a2.79,2.79,0,0,0-.9-.4,4.2,4.2,0,0,0-.93-.1,2.11,2.11,0,0,0-1.13.24.74.74,0,0,0-.37.63.59.59,0,0,0,.22.5,1.49,1.49,0,0,0,.58.27,6.67,6.67,0,0,0,.78.16c.29,0,.58.1.87.17a3.59,3.59,0,0,1,.78.28,1.5,1.5,0,0,1,.58.51,1.46,1.46,0,0,1,.22.86,1.53,1.53,0,0,1-.34,1,2.2,2.2,0,0,1-.94.65A4.05,4.05,0,0,1,128.7,350.68Z"/><path class="cls-6" d="M83.33,365.11a4.74,4.74,0,0,1-1.78-.33,4.1,4.1,0,0,1-1.42-.9,4.15,4.15,0,0,1-.94-1.36,4.45,4.45,0,0,1,0-3.41,4,4,0,0,1,.94-1.36,4.33,4.33,0,0,1,1.41-.91,4.75,4.75,0,0,1,1.79-.32,4.93,4.93,0,0,1,1.78.31,4.48,4.48,0,0,1,1.41.9,4.16,4.16,0,0,1,.93,1.37,4.42,4.42,0,0,1,.33,1.71,4.36,4.36,0,0,1-.33,1.72,4.15,4.15,0,0,1-2.34,2.26A4.94,4.94,0,0,1,83.33,365.11Zm0-1.07a3.46,3.46,0,0,0,1.3-.24,3,3,0,0,0,1-.68,3.28,3.28,0,0,0,.69-1,3.4,3.4,0,0,0,.24-1.29,3.35,3.35,0,0,0-.24-1.28,3.4,3.4,0,0,0-.69-1,2.92,2.92,0,0,0-1-.69,3.46,3.46,0,0,0-1.3-.24,3.4,3.4,0,0,0-1.29.24,3.2,3.2,0,0,0-1.73,1.71,3.35,3.35,0,0,0-.24,1.28,3.4,3.4,0,0,0,.24,1.29,3,3,0,0,0,.69,1,3.18,3.18,0,0,0,1,.68A3.4,3.4,0,0,0,83.32,364Z"/><path class="cls-6" d="M88.54,359.6v-1H92.6v1ZM89.62,365v-6.92a2.08,2.08,0,0,1,.54-1.5,2.11,2.11,0,0,1,1.56-.55,2.76,2.76,0,0,1,.71.09,1.61,1.61,0,0,1,.59.28l-.35.87a1.47,1.47,0,0,0-.41-.22,1.51,1.51,0,0,0-.48-.08,1,1,0,0,0-.77.29,1.13,1.13,0,0,0-.26.83V359l0,.53V365Z"/><path class="cls-6" d="M92.83,359.6v-1h4.06v1ZM93.91,365v-6.92A1.91,1.91,0,0,1,96,356a2.82,2.82,0,0,1,.71.09,1.49,1.49,0,0,1,.58.28l-.35.87a1.41,1.41,0,0,0-.4-.22,1.62,1.62,0,0,0-.49-.08,1,1,0,0,0-.76.29,1.14,1.14,0,0,0-.27.83V359l0,.53V365Z"/><path class="cls-6" d="M100.69,365.08a3.73,3.73,0,0,1-1.79-.42,3,3,0,0,1-1.2-1.15,3.53,3.53,0,0,1,0-3.36A3,3,0,0,1,98.83,359a3.43,3.43,0,0,1,3.27,0,2.86,2.86,0,0,1,1.11,1.15,3.5,3.5,0,0,1,.4,1.72,53.81,53.81,0,0,0,0,.35H98.18v-.83H103l-.47.29a2.2,2.2,0,0,0-.25-1.1,2,2,0,0,0-.73-.75,2.26,2.26,0,0,0-2.14,0,1.91,1.91,0,0,0-.73.76,2.23,2.23,0,0,0-.27,1.11v.19a2.18,2.18,0,0,0,.3,1.14,2,2,0,0,0,.82.77,2.75,2.75,0,0,0,2.24.08,2.35,2.35,0,0,0,.81-.57l.63.74a2.78,2.78,0,0,1-1.07.77A3.69,3.69,0,0,1,100.69,365.08Z"/><path class="cls-6" d="M105.21,365v-6.36h1.1v1.73l-.11-.43a2,2,0,0,1,.89-1,3.16,3.16,0,0,1,1.54-.35v1.12h-.27a2,2,0,0,0-1.46.55,2.19,2.19,0,0,0-.54,1.59V365Z"/><path class="cls-6" d="M111.89,365.08a5.35,5.35,0,0,1-1.51-.21,3.66,3.66,0,0,1-1.12-.53l.48-.91a4.13,4.13,0,0,0,1,.47,4.25,4.25,0,0,0,1.22.19,2.22,2.22,0,0,0,1.16-.23.71.71,0,0,0,.36-.64.56.56,0,0,0-.22-.46,1.37,1.37,0,0,0-.57-.26l-.79-.15c-.28,0-.57-.1-.86-.16a3.69,3.69,0,0,1-.79-.29,1.68,1.68,0,0,1-.47-2.41,2,2,0,0,1,.92-.66,3.71,3.71,0,0,1,1.41-.24,5.49,5.49,0,0,1,1.26.15,3,3,0,0,1,1.05.43l-.49.91a3,3,0,0,0-.9-.4,4.2,4.2,0,0,0-.93-.1,2.11,2.11,0,0,0-1.13.24.74.74,0,0,0-.37.63.59.59,0,0,0,.22.5,1.51,1.51,0,0,0,.57.27,7.33,7.33,0,0,0,.79.16c.29.05.58.1.86.17a3.68,3.68,0,0,1,.79.28,1.5,1.5,0,0,1,.58.51,1.71,1.71,0,0,1-.12,1.86,2.17,2.17,0,0,1-1,.65A4,4,0,0,1,111.89,365.08Z"/><path class="cls-6" d="M77.26,382.67a4.73,4.73,0,0,1-1.78-.32,4.27,4.27,0,0,1-1.42-.91,4.19,4.19,0,0,1-.94-1.36,4.28,4.28,0,0,1,.94-4.77,4.1,4.1,0,0,1,1.42-.9,4.7,4.7,0,0,1,1.78-.33,4.9,4.9,0,0,1,1.78.32,4.19,4.19,0,0,1,1.42.9,4.06,4.06,0,0,1,.93,1.37,4.6,4.6,0,0,1,0,3.42,4.16,4.16,0,0,1-.93,1.37,4.52,4.52,0,0,1-1.42.9A4.9,4.9,0,0,1,77.26,382.67Zm0-1.06a3.42,3.42,0,0,0,1.3-.24,3.18,3.18,0,0,0,1-.68,3.13,3.13,0,0,0,.68-1,3.36,3.36,0,0,0,.25-1.28,3.32,3.32,0,0,0-.25-1.28,3.24,3.24,0,0,0-.68-1,3.18,3.18,0,0,0-1-.68,3.61,3.61,0,0,0-2.59,0,3.29,3.29,0,0,0-1,.68,3.45,3.45,0,0,0-.69,1,3.32,3.32,0,0,0-.24,1.28,3.16,3.16,0,0,0,.93,2.31,3.29,3.29,0,0,0,1,.68A3.44,3.44,0,0,0,77.25,381.61Z"/><path class="cls-6" d="M86.78,376.16a3,3,0,0,1,1.37.3,2.1,2.1,0,0,1,.93.91,3.12,3.12,0,0,1,.34,1.55v3.66H88.27v-3.53a1.92,1.92,0,0,0-.45-1.39,1.65,1.65,0,0,0-1.27-.47,2.28,2.28,0,0,0-1.07.24,1.71,1.71,0,0,0-.7.71,2.52,2.52,0,0,0-.24,1.16v3.28H83.38v-6.36h1.11v1.71l-.18-.45a2.19,2.19,0,0,1,1-1A3,3,0,0,1,86.78,376.16Z"/><path class="cls-6" d="M91.15,379.78v-1h3.23v1Z"/><path class="cls-6" d="M96.32,382.58v-8.4h1.2v7.35h4.55v1.05Z"/><path class="cls-6" d="M103.86,375a.78.78,0,0,1-.56-.21.71.71,0,0,1-.22-.53.7.7,0,0,1,.22-.54.79.79,0,0,1,.56-.22.75.75,0,0,1,.55.21.7.7,0,0,1,.23.53.77.77,0,0,1-.22.54A.73.73,0,0,1,103.86,375Zm-.58,7.59v-6.36h1.15v6.36Z"/><path class="cls-6" d="M110,376.16a3,3,0,0,1,1.38.3,2.2,2.2,0,0,1,.93.91,3.24,3.24,0,0,1,.33,1.55v3.66h-1.15v-3.53a1.92,1.92,0,0,0-.45-1.39,1.64,1.64,0,0,0-1.26-.47,2.25,2.25,0,0,0-1.07.24,1.6,1.6,0,0,0-.7.71,2.4,2.4,0,0,0-.25,1.16v3.28h-1.15v-6.36h1.1v1.71l-.18-.45a2.19,2.19,0,0,1,1-1A3.06,3.06,0,0,1,110,376.16Z"/><path class="cls-6" d="M117.63,382.65a3.67,3.67,0,0,1-1.79-.42,3,3,0,0,1-1.2-1.15,3.23,3.23,0,0,1-.43-1.68,3.33,3.33,0,0,1,.42-1.68,2.93,2.93,0,0,1,1.14-1.15,3.29,3.29,0,0,1,1.63-.41,3.17,3.17,0,0,1,1.64.41,2.9,2.9,0,0,1,1.11,1.14,3.64,3.64,0,0,1,.4,1.72,1,1,0,0,1,0,.17.9.9,0,0,1,0,.18h-5.41V379h4.81l-.46.29a2.17,2.17,0,0,0-.26-1.09,1.86,1.86,0,0,0-.72-.75,2.11,2.11,0,0,0-1.08-.27,2.06,2.06,0,0,0-1.06.27,1.87,1.87,0,0,0-.74.76,2.33,2.33,0,0,0-.26,1.11v.19a2.24,2.24,0,0,0,.29,1.13,2.08,2.08,0,0,0,.83.78,2.84,2.84,0,0,0,2.23.08,2.2,2.2,0,0,0,.81-.58l.64.75a2.83,2.83,0,0,1-1.07.76A3.7,3.7,0,0,1,117.63,382.65Z"/><path class="cls-6" d="M81.77,397v-8.4h3.54a5,5,0,0,1,2.37.53,3.92,3.92,0,0,1,1.6,1.47,4.51,4.51,0,0,1,0,4.39,3.88,3.88,0,0,1-1.6,1.48,5.11,5.11,0,0,1-2.37.53Zm1.2-1.05h2.27a3.89,3.89,0,0,0,1.8-.39,3,3,0,0,0,1.19-1.11,3.47,3.47,0,0,0,0-3.31A2.88,2.88,0,0,0,87,390a3.77,3.77,0,0,0-1.8-.4H83Z"/><path class="cls-6" d="M92.09,389.39a.79.79,0,0,1-.56-.21.71.71,0,0,1-.22-.53.7.7,0,0,1,.22-.54.8.8,0,0,1,.56-.22.79.79,0,0,1,.56.21.69.69,0,0,1,.22.53.75.75,0,0,1-.78.76ZM91.51,397v-6.36h1.16V397Z"/><path class="cls-6" d="M96.72,397.05a3,3,0,0,1-1.24-.24,1.83,1.83,0,0,1-.82-.67,1.67,1.67,0,0,1-.29-1,1.76,1.76,0,0,1,.25-.94,1.69,1.69,0,0,1,.8-.67,3.68,3.68,0,0,1,1.51-.25h2v.83H97a1.73,1.73,0,0,0-1.16.28,1,1,0,0,0-.3.7.89.89,0,0,0,.37.75,1.66,1.66,0,0,0,1,.28,2.13,2.13,0,0,0,1.14-.29,1.62,1.62,0,0,0,.7-.84l.23.8a1.78,1.78,0,0,1-.81.89A2.86,2.86,0,0,1,96.72,397.05Zm2.09-.07v-1.35l-.06-.25v-2.29a1.44,1.44,0,0,0-.43-1.13,1.78,1.78,0,0,0-1.27-.41,3.5,3.5,0,0,0-1.11.19,2.75,2.75,0,0,0-.91.5l-.48-.87a3.55,3.55,0,0,1,1.18-.6,4.94,4.94,0,0,1,1.45-.21,2.92,2.92,0,0,1,2,.63,2.48,2.48,0,0,1,.71,1.95V397Z"/><path class="cls-6" d="M102,397v-6.36h1.1v1.73l-.11-.44a2,2,0,0,1,.89-1,3.05,3.05,0,0,1,1.54-.35v1.11h-.27a2,2,0,0,0-1.46.55,2.2,2.2,0,0,0-.54,1.6V397Z"/><path class="cls-6" d="M107.41,399.38a2.62,2.62,0,0,1-.88-.15,2.16,2.16,0,0,1-.75-.44l.49-.86a1.77,1.77,0,0,0,.53.34,1.58,1.58,0,0,0,.61.12,1.12,1.12,0,0,0,.7-.21,2,2,0,0,0,.52-.77l.39-.88.12-.14,2.5-5.77h1.13l-3.09,7a3.61,3.61,0,0,1-.62,1.06,1.87,1.87,0,0,1-.75.55A2.57,2.57,0,0,1,107.41,399.38Zm1.52-2.2L106,390.62h1.2l2.47,5.66Z"/></g></g></svg>