<svg xmlns="http://www.w3.org/2000/svg" viewBox="0 0 226.98 226.98"><defs><style>.cls-1{fill:#878787;}.cls-2{fill:#0d3f62;}.cls-3{fill:#337299;}.cls-4{fill:#fff;}.cls-5{fill:none;stroke:#f8ac17;stroke-miterlimit:10;stroke-width:33px;opacity:0.2;}</style></defs><g id="Layer_2" data-name="Layer 2"><g id="Layer_1-2" data-name="Layer 1"><path class="cls-1" d="M113.62,195.48a82.78,82.78,0,1,1,82.77-82.78A82.88,82.88,0,0,1,113.62,195.48Zm0-161.52a78.74,78.74,0,1,0,78.74,78.74A78.83,78.83,0,0,0,113.62,34Z"/><rect class="cls-2" x="74.33" y="89.64" width="76.01" height="46.64" rx="1.06" transform="translate(225.3 0.63) rotate(90)"/><rect class="cls-3" x="85.78" y="86.86" width="53.11" height="46.64" transform="translate(222.51 -2.15) rotate(90)"/><path class="cls-4" d="M116.76,145.35h-8.85a1.88,1.88,0,1,1,0-3.75h8.85a1.88,1.88,0,0,1,0,3.75Z"/><path class="cls-4" d="M108.91,121.08a1.88,1.88,0,0,1-1.29-.52l-7.28-6.91a1.87,1.87,0,0,1,2.58-2.72l5.72,5.43L123.89,95a1.87,1.87,0,1,1,3,2.18l-16.51,23.14a1.85,1.85,0,0,1-1.33.78Z"/><circle class="cls-5" cx="113.49" cy="113.49" r="96.99"/></g></g></svg>