<svg xmlns="http://www.w3.org/2000/svg" viewBox="0 0 226.98 226.98"><defs><style>.cls-1{fill:#878787;}.cls-2{fill:#337299;}.cls-3{fill:#f1f2f2;}.cls-4{fill:#0d3f62;}.cls-5{fill:none;stroke:#f8ac17;stroke-miterlimit:10;stroke-width:33px;opacity:0.2;}</style></defs><g id="Layer_2" data-name="Layer 2"><g id="Layer_1-2" data-name="Layer 1"><path class="cls-1" d="M112.86,195.48a82.78,82.78,0,1,1,82.78-82.78A82.87,82.87,0,0,1,112.86,195.48Zm0-161.52A78.74,78.74,0,1,0,191.6,112.7,78.83,78.83,0,0,0,112.86,34Z"/><path class="cls-2" d="M129.72,125.4V114.8h-7.79a24.33,24.33,0,0,0-3.26-7.83l5.52-5.52-7.5-7.5-5.52,5.52a24.13,24.13,0,0,0-7.82-3.25v-7.8H92.74v7.8a24.18,24.18,0,0,0-7.83,3.25L79.39,94l-7.5,7.5L77.41,107a24.09,24.09,0,0,0-3.25,7.83H66.37v10.6h7.79a24.09,24.09,0,0,0,3.25,7.83l-5.52,5.52,7.5,7.5,5.52-5.52A24.18,24.18,0,0,0,92.74,144v7.8h10.61V144a24.13,24.13,0,0,0,7.82-3.25l5.52,5.52,7.5-7.5-5.52-5.52a24.33,24.33,0,0,0,3.26-7.83Z"/><path class="cls-3" d="M109.89,120.1A11.85,11.85,0,1,1,98,108.25,11.85,11.85,0,0,1,109.89,120.1Z"/><path class="cls-4" d="M172.13,98l-1.71-7.23L165.11,92a16.94,16.94,0,0,0-3.48-4.81l2.87-4.65-6.31-3.91-2.88,4.65a16.92,16.92,0,0,0-5.86-1L148.2,77,141,78.69,142.22,84a16.94,16.94,0,0,0-4.81,3.48l-4.65-2.88-3.91,6.32,4.65,2.88a17.16,17.16,0,0,0-1,5.86l-5.31,1.25,1.71,7.23,5.31-1.25a17.08,17.08,0,0,0,3.48,4.81l-2.87,4.65,6.32,3.9,2.87-4.64a17.15,17.15,0,0,0,5.86,1l1.25,5.31,7.23-1.7-1.25-5.31a16.94,16.94,0,0,0,4.81-3.48l4.65,2.87,3.91-6.32-4.65-2.87a17.2,17.2,0,0,0,1-5.86Z"/><path class="cls-3" d="M157.76,97.52a8.3,8.3,0,1,1-10-6.17A8.31,8.31,0,0,1,157.76,97.52Z"/><circle class="cls-5" cx="113.49" cy="113.49" r="96.99"/></g></g></svg>