<svg xmlns="http://www.w3.org/2000/svg" viewBox="0 0 226.98 226.98"><defs><style>.cls-1{fill:#878787;}.cls-2{fill:#0d3f62;}.cls-3{fill:#337299;}.cls-4{fill:#fff;}.cls-5{fill:none;stroke:#f8ac17;stroke-miterlimit:10;stroke-width:33px;opacity:0.2;}</style></defs><g id="Layer_2" data-name="Layer 2"><g id="Layer_1-2" data-name="Layer 1"><path class="cls-1" d="M111.66,195.48a82.78,82.78,0,1,1,82.78-82.78A82.88,82.88,0,0,1,111.66,195.48Zm0-161.52A78.74,78.74,0,1,0,190.4,112.7,78.83,78.83,0,0,0,111.66,34Z"/><polygon class="cls-2" points="156.51 105.46 156.51 143.61 143.9 143.61 143.92 147.53 143.94 149.63 143.96 154.73 140.79 152.77 139.49 151.97 136.57 150.16 135.95 149.78 132.51 147.65 132.23 147.48 128.97 145.47 127.9 144.8 125.97 143.61 88.35 143.61 88.35 105.46 156.51 105.46"/><polygon class="cls-3" points="58.06 80.88 58.06 119.03 70.66 119.03 70.6 130.15 88.59 119.03 126.21 119.03 126.21 80.88 58.06 80.88"/><path class="cls-4" d="M81.64,99.3a3.55,3.55,0,1,1-3.54-3.54A3.54,3.54,0,0,1,81.64,99.3Z"/><path class="cls-4" d="M95.68,99.3a3.55,3.55,0,1,1-3.54-3.54A3.55,3.55,0,0,1,95.68,99.3Z"/><path class="cls-4" d="M109.53,99.3A3.55,3.55,0,1,1,106,95.76,3.55,3.55,0,0,1,109.53,99.3Z"/><circle class="cls-5" cx="113.49" cy="113.49" r="96.99"/></g></g></svg>