<svg xmlns="http://www.w3.org/2000/svg" viewBox="0 0 226.98 226.98"><defs><style>.cls-1{fill:#878787;}.cls-2{fill:#337299;}.cls-3{fill:#0d3f62;}.cls-4{fill:none;stroke:#f8ac17;stroke-miterlimit:10;stroke-width:33px;opacity:0.2;}</style></defs><g id="Layer_2" data-name="Layer 2"><g id="Layer_1-2" data-name="Layer 1"><path class="cls-1" d="M112.36,195.48a82.78,82.78,0,1,1,82.78-82.78A82.87,82.87,0,0,1,112.36,195.48Zm0-161.52a78.74,78.74,0,1,0,78.75,78.74A78.83,78.83,0,0,0,112.36,34Z"/><rect class="cls-2" x="92.88" y="89.19" width="47.55" height="47.55" rx="6.2"/><path class="cls-3" d="M116.65,125.1a4.1,4.1,0,0,1-3-1.28L93.36,102.28a4.08,4.08,0,1,1,5.93-5.6L116.61,115,157.14,70.9a4.08,4.08,0,0,1,6,5.53l-43.49,47.35a4.13,4.13,0,0,1-3,1.32Z"/><circle class="cls-4" cx="113.49" cy="113.49" r="96.99"/></g></g></svg>