<svg xmlns="http://www.w3.org/2000/svg" viewBox="0 0 858.42 494.65"><defs><style>.cls-1{fill:#feeed1;opacity:0.75;}.cls-2{fill:#67a1c6;}.cls-3{fill:#1d1d1b;}.cls-4,.cls-6{fill:none;stroke-miterlimit:10;}.cls-4{stroke:#1d1d1b;}.cls-5{fill:#fabb20;}.cls-6{stroke:#000;stroke-width:2px;}</style></defs><g id="Layer_2" data-name="Layer 2"><g id="Layer_1-2" data-name="Layer 1"><rect class="cls-1" width="858.42" height="494.65" rx="30.58"/><rect class="cls-2" x="36.15" y="121.75" width="91.78" height="321.76"/><path class="cls-3" d="M53.39,140.19v-.61L56,137.11a3.45,3.45,0,0,0,.51-.58,1.33,1.33,0,0,0,.22-.45,1.56,1.56,0,0,0,.06-.41.93.93,0,0,0-.34-.77,1.59,1.59,0,0,0-1-.28,2.42,2.42,0,0,0-.91.17,1.76,1.76,0,0,0-.7.52l-.61-.54a2.28,2.28,0,0,1,1-.7,3.39,3.39,0,0,1,1.33-.25,2.91,2.91,0,0,1,1.15.21,1.75,1.75,0,0,1,.75.61,1.7,1.7,0,0,1,.26.94,2.06,2.06,0,0,1-.08.6,2,2,0,0,1-.3.63,5.53,5.53,0,0,1-.65.75l-2.29,2.2-.21-.35h3.8v.78Z"/><path class="cls-3" d="M58.29,138.64V138l3.22-4.12h1L59.29,138l-.46-.14h5v.77Zm3.5,1.55v-1.55l0-.77V136.5h.84v3.69Z"/><path class="cls-3" d="M68.24,140.19h-.9v-6.3h.9Zm3.69-2.8H68.15v-.79h3.78Zm-.08-3.5h.9v6.3h-.9Z"/><path class="cls-3" d="M76.56,140.25a2.55,2.55,0,0,1-1.27-.32,2.32,2.32,0,0,1-.89-.87,2.62,2.62,0,0,1,0-2.51,2.42,2.42,0,0,1,.88-.86,2.78,2.78,0,0,1,2.55,0,2.23,2.23,0,0,1,.89.86,2.45,2.45,0,0,1,.31,1.26,2.5,2.5,0,0,1-.31,1.26,2.37,2.37,0,0,1-.89.86A2.55,2.55,0,0,1,76.56,140.25Zm0-.76a1.59,1.59,0,0,0,.82-.21,1.3,1.3,0,0,0,.57-.59,2,2,0,0,0,0-1.77,1.39,1.39,0,0,0-.57-.58,1.71,1.71,0,0,0-1.64,0,1.61,1.61,0,0,0-.58.58,2,2,0,0,0,0,1.77,1.5,1.5,0,0,0,.58.59A1.59,1.59,0,0,0,76.56,139.49Z"/><path class="cls-3" d="M82.24,140.25a2.45,2.45,0,0,1-1.08-.23,1.6,1.6,0,0,1-.72-.69,2.37,2.37,0,0,1-.25-1.16v-2.75h.86v2.65a1.43,1.43,0,0,0,.34,1.05,1.22,1.22,0,0,0,1,.35,1.61,1.61,0,0,0,.78-.18,1.21,1.21,0,0,0,.51-.54,1.91,1.91,0,0,0,.18-.86v-2.47h.87v4.77h-.82v-1.28l.13.34a1.67,1.67,0,0,1-.7.74A2.15,2.15,0,0,1,82.24,140.25Z"/><path class="cls-3" d="M86.32,140.19v-4.77h.83v1.3l-.08-.33a1.45,1.45,0,0,1,.67-.75,2.36,2.36,0,0,1,1.15-.26v.84h-.2a1.46,1.46,0,0,0-1.1.41,1.64,1.64,0,0,0-.4,1.2v2.37Z"/><path class="cls-3" d="M95.38,140.26a3.83,3.83,0,0,1-1.33-.23,3.22,3.22,0,0,1-1-.68,3.15,3.15,0,0,1-.7-1,3.19,3.19,0,0,1-.25-1.29,3.14,3.14,0,0,1,.25-1.28,3.3,3.3,0,0,1,.7-1,3.24,3.24,0,0,1,1.06-.67,3.61,3.61,0,0,1,1.33-.24,3.47,3.47,0,0,1,1.34.25,2.76,2.76,0,0,1,1,.73l-.58.57a2.32,2.32,0,0,0-.81-.56,2.4,2.4,0,0,0-1-.19,2.63,2.63,0,0,0-1,.18,2.33,2.33,0,0,0-1.31,1.28,2.49,2.49,0,0,0-.18,1,2.58,2.58,0,0,0,.18,1,2.43,2.43,0,0,0,.52.77,2.31,2.31,0,0,0,.79.5,2.63,2.63,0,0,0,1,.18,2.58,2.58,0,0,0,1-.18,2.22,2.22,0,0,0,.81-.57l.58.56a2.68,2.68,0,0,1-1,.74A3.49,3.49,0,0,1,95.38,140.26Z"/><path class="cls-3" d="M101.49,135.38a2.26,2.26,0,0,1,1,.22,1.61,1.61,0,0,1,.7.69,2.35,2.35,0,0,1,.25,1.16v2.74h-.86v-2.64a1.49,1.49,0,0,0-.34-1.05,1.28,1.28,0,0,0-1-.35,1.69,1.69,0,0,0-.8.18,1.23,1.23,0,0,0-.53.53,1.94,1.94,0,0,0-.18.88v2.45h-.87v-6.68h.87v3.2l-.17-.34a1.59,1.59,0,0,1,.72-.73A2.39,2.39,0,0,1,101.49,135.38Z"/><path class="cls-3" d="M106.47,140.25a2.28,2.28,0,0,1-.94-.18,1.45,1.45,0,0,1-.61-.5,1.33,1.33,0,0,1-.22-.73,1.32,1.32,0,0,1,.19-.7,1.21,1.21,0,0,1,.6-.5,2.74,2.74,0,0,1,1.13-.19h1.51v.62h-1.47a1.32,1.32,0,0,0-.88.21.71.71,0,0,0-.22.53.66.66,0,0,0,.28.56,1.24,1.24,0,0,0,.77.21,1.58,1.58,0,0,0,.85-.22,1.23,1.23,0,0,0,.53-.63l.17.6a1.44,1.44,0,0,1-.6.67A2.22,2.22,0,0,1,106.47,140.25Zm1.56-.06v-1l0-.18v-1.72a1.12,1.12,0,0,0-.32-.85,1.32,1.32,0,0,0-1-.31,2.63,2.63,0,0,0-.83.14,2.11,2.11,0,0,0-.68.38l-.36-.65a2.44,2.44,0,0,1,.88-.45,3.6,3.6,0,0,1,1.09-.16,2.22,2.22,0,0,1,1.51.47,1.89,1.89,0,0,1,.53,1.46v2.88Z"/><path class="cls-3" d="M109.77,136.13v-.71h3v.71Zm2.32,4.12a1.5,1.5,0,0,1-1.11-.39,1.47,1.47,0,0,1-.4-1.11v-4.37h.86v4.34a.84.84,0,0,0,.2.59.71.71,0,0,0,.55.21,1,1,0,0,0,.68-.23l.27.62a1.31,1.31,0,0,1-.48.26A2.12,2.12,0,0,1,112.09,140.25Z"/><path class="cls-3" d="M161.27,113.32v-8.4h3.95a3.74,3.74,0,0,1,2.29.6,1.87,1.87,0,0,1,.79,1.59,2,2,0,0,1-.31,1.14,2.15,2.15,0,0,1-.84.74,2.5,2.5,0,0,1-1.13.25l.22-.43a3.07,3.07,0,0,1,1.27.26,2.1,2.1,0,0,1,.89.75,2.24,2.24,0,0,1,.32,1.22,2,2,0,0,1-.82,1.68,4.12,4.12,0,0,1-2.44.6Zm1.56-1.22h2.53a2.55,2.55,0,0,0,1.33-.29,1,1,0,0,0,.47-.92,1,1,0,0,0-.47-.92,2.45,2.45,0,0,0-1.33-.29h-2.65v-1.22H165a2.28,2.28,0,0,0,1.24-.28,1,1,0,0,0,.45-.87,1,1,0,0,0-.45-.87,2.19,2.19,0,0,0-1.24-.29h-2.21Z"/><path class="cls-3" d="M169.21,113.32l3.78-8.4h1.54l3.79,8.4h-1.64l-3.24-7.57h.62l-3.25,7.57Zm1.74-1.94.43-1.22h4.53l.42,1.22Z"/><path class="cls-3" d="M182,113.44a6.2,6.2,0,0,1-1.88-.28,4.44,4.44,0,0,1-1.43-.72l.54-1.22a4.1,4.1,0,0,0,1.25.66,4.39,4.39,0,0,0,1.52.27,3.16,3.16,0,0,0,1.07-.15,1.21,1.21,0,0,0,.6-.39.86.86,0,0,0,.19-.55.77.77,0,0,0-.27-.62,2,2,0,0,0-.72-.37,9,9,0,0,0-1-.26,10.54,10.54,0,0,1-1.07-.28,5.08,5.08,0,0,1-1-.42,2.23,2.23,0,0,1-.71-.69,2.07,2.07,0,0,1-.27-1.11,2.23,2.23,0,0,1,.37-1.25,2.43,2.43,0,0,1,1.11-.91,4.57,4.57,0,0,1,1.9-.35,5.83,5.83,0,0,1,1.5.2,4.15,4.15,0,0,1,1.3.55l-.49,1.21a5,5,0,0,0-1.17-.5,4.3,4.3,0,0,0-1.15-.16,2.81,2.81,0,0,0-1,.16,1.3,1.3,0,0,0-.6.41,1,1,0,0,0-.18.57.78.78,0,0,0,.27.62,1.82,1.82,0,0,0,.71.36c.29.09.61.18,1,.26s.72.17,1.07.28a4.73,4.73,0,0,1,1,.42,1.88,1.88,0,0,1,1,1.77,2.2,2.2,0,0,1-.37,1.24,2.52,2.52,0,0,1-1.12.91A4.6,4.6,0,0,1,182,113.44Z"/><path class="cls-3" d="M186.94,113.32v-8.4h1.56v8.4Z"/><path class="cls-3" d="M194.65,113.44a5,5,0,0,1-1.79-.31,4.38,4.38,0,0,1-1.42-.91,4.43,4.43,0,0,1-.94-4.82,4.07,4.07,0,0,1,.95-1.37,4.22,4.22,0,0,1,1.42-.91,5,5,0,0,1,1.79-.32,4.82,4.82,0,0,1,1.89.36,3.73,3.73,0,0,1,1.44,1l-1,1a3.13,3.13,0,0,0-1-.74,2.93,2.93,0,0,0-1.22-.25,3.09,3.09,0,0,0-1.2.22,2.78,2.78,0,0,0-1.58,1.55,3.17,3.17,0,0,0,0,2.37,2.88,2.88,0,0,0,.63.94,2.77,2.77,0,0,0,.95.61,3.29,3.29,0,0,0,1.2.22,3.09,3.09,0,0,0,1.22-.25,3,3,0,0,0,1-.75l1,1a3.94,3.94,0,0,1-1.44,1A4.84,4.84,0,0,1,194.65,113.44Z"/><path class="cls-3" d="M204.36,113.32H202.8v-8.4h6.13v1.32h-4.57Zm-.12-4.52h4.17v1.3h-4.17Z"/><path class="cls-3" d="M210.44,113.32v-8.4h3.46a4.62,4.62,0,0,1,1.91.36,2.76,2.76,0,0,1,1.23,1,2.91,2.91,0,0,1,.43,1.61,2.68,2.68,0,0,1-1.66,2.61,4.62,4.62,0,0,1-1.91.36h-2.58l.68-.7v3.14Zm1.56-3-.68-.76h2.51a2.39,2.39,0,0,0,1.55-.44,1.54,1.54,0,0,0,.52-1.24,1.5,1.5,0,0,0-.52-1.23,2.39,2.39,0,0,0-1.55-.44h-2.51l.68-.76Zm3.94,3-2.13-3h1.67l2.14,3Z"/><path class="cls-3" d="M220.78,112h4.73v1.32h-6.3v-8.4h6.14v1.32h-4.57Zm-.12-3.58h4.17v1.28h-4.17Z"/><path class="cls-3" d="M228.82,112h4.73v1.32h-6.3v-8.4h6.14v1.32h-4.57Zm-.12-3.58h4.17v1.28H228.7Z"/><path class="cls-3" d="M237.42,113.32l3.78-8.4h1.53l3.8,8.4h-1.65l-3.24-7.57h.63L239,113.32Zm1.74-1.94.43-1.22h4.52l.42,1.22Z"/><path class="cls-3" d="M247.59,113.32v-8.4h3.46a4.62,4.62,0,0,1,1.91.36,2.66,2.66,0,0,1,1.23,1,2.92,2.92,0,0,1,.44,1.61,2.83,2.83,0,0,1-.44,1.59,2.72,2.72,0,0,1-1.23,1,4.62,4.62,0,0,1-1.91.36h-2.58l.69-.7v3.14Zm1.57-3-.69-.76H251a2.37,2.37,0,0,0,1.55-.44,1.54,1.54,0,0,0,.52-1.24,1.5,1.5,0,0,0-.52-1.23,2.37,2.37,0,0,0-1.55-.44h-2.51l.69-.76Zm3.93,3-2.12-3h1.66l2.14,3Z"/><path class="cls-3" d="M257.93,112h4.74v1.32h-6.3v-8.4h6.13v1.32h-4.57Zm-.12-3.58H262v1.28h-4.17Z"/><path class="cls-3" d="M263.22,113.32l3.78-8.4h1.53l3.8,8.4h-1.65l-3.24-7.57h.63l-3.26,7.57Zm1.74-1.94.43-1.22h4.52l.42,1.22Z"/><path class="cls-3" d="M153.64,393.57V393h7v.57Zm0,1.8v-.58h7v.58Zm6.12,3.44a5.06,5.06,0,0,1-1.88-.34,4.45,4.45,0,0,1-2.52-2.44,5,5,0,0,1,0-3.69,4.46,4.46,0,0,1,1-1.47,4.54,4.54,0,0,1,1.52-1,5.06,5.06,0,0,1,1.88-.34,5.19,5.19,0,0,1,1.88.33,3.86,3.86,0,0,1,1.48,1l-.63.61a3.25,3.25,0,0,0-1.22-.82,4.14,4.14,0,0,0-1.45-.26,4.26,4.26,0,0,0-1.54.28,3.71,3.71,0,0,0-2,2,3.89,3.89,0,0,0-.28,1.5,3.82,3.82,0,0,0,.28,1.5,3.63,3.63,0,0,0,2,2,4.06,4.06,0,0,0,1.54.28,3.92,3.92,0,0,0,1.45-.26,3.28,3.28,0,0,0,1.22-.83l.63.61a3.88,3.88,0,0,1-1.48,1A5,5,0,0,1,159.76,398.81Z"/><path class="cls-3" d="M169.34,398.73V390l.42.45H167.2v-.84h3.08v9.1Z"/><path class="cls-3" d="M173.15,398.8a.63.63,0,0,1-.48-.21.69.69,0,0,1-.21-.51.7.7,0,0,1,.69-.7.68.68,0,0,1,.49.2.65.65,0,0,1,.2.5.69.69,0,0,1-.2.51A.65.65,0,0,1,173.15,398.8Z"/><path class="cls-3" d="M178,389.56a3.65,3.65,0,0,1,2,.54,3.25,3.25,0,0,1,1.26,1.55,6.19,6.19,0,0,1,.43,2.46,5.73,5.73,0,0,1-.52,2.58,3.72,3.72,0,0,1-1.47,1.59,4.33,4.33,0,0,1-2.17.53,5.43,5.43,0,0,1-1.16-.12,3.23,3.23,0,0,1-1-.37l.38-.76a2.23,2.23,0,0,0,.81.33,4.34,4.34,0,0,0,1,.1,3.09,3.09,0,0,0,2.35-.93,4,4,0,0,0,.87-2.8c0-.2,0-.44,0-.71a3.91,3.91,0,0,0-.15-.83l.33.24a2.31,2.31,0,0,1-.56,1.15,2.63,2.63,0,0,1-1,.72,3.56,3.56,0,0,1-1.37.25,3.51,3.51,0,0,1-1.59-.34,2.53,2.53,0,0,1-1.48-2.39,2.65,2.65,0,0,1,.41-1.48,2.69,2.69,0,0,1,1.11-1A3.57,3.57,0,0,1,178,389.56Zm0,.79a2.63,2.63,0,0,0-1.15.24,1.94,1.94,0,0,0-.79.68,1.92,1.92,0,0,0-.28,1.05,1.82,1.82,0,0,0,.61,1.44,2.52,2.52,0,0,0,1.68.53,2.77,2.77,0,0,0,1.22-.26,2,2,0,0,0,.82-.72,1.8,1.8,0,0,0,0-2,1.94,1.94,0,0,0-.8-.72A2.82,2.82,0,0,0,178.08,390.35Z"/><path class="cls-3" d="M186,389.56a3.69,3.69,0,0,1,2,.54,3.37,3.37,0,0,1,1.26,1.55,6.19,6.19,0,0,1,.43,2.46,5.73,5.73,0,0,1-.53,2.58,3.7,3.7,0,0,1-1.46,1.59,4.36,4.36,0,0,1-2.17.53,5.36,5.36,0,0,1-1.16-.12,3.23,3.23,0,0,1-1-.37l.38-.76a2.1,2.1,0,0,0,.81.33,4.34,4.34,0,0,0,1,.1,3.07,3.07,0,0,0,2.34-.93,4,4,0,0,0,.88-2.8c0-.2,0-.44,0-.71a3.91,3.91,0,0,0-.15-.83l.32.24a2.29,2.29,0,0,1-.55,1.15,2.63,2.63,0,0,1-1,.72,3.56,3.56,0,0,1-1.37.25,3.51,3.51,0,0,1-1.59-.34,2.53,2.53,0,0,1-1.09-.95,2.58,2.58,0,0,1-.39-1.44,2.73,2.73,0,0,1,.4-1.48,2.66,2.66,0,0,1,1.12-1A3.57,3.57,0,0,1,186,389.56Zm0,.79a2.6,2.6,0,0,0-1.15.24,1.88,1.88,0,0,0-.79.68,1.92,1.92,0,0,0-.29,1.05,1.82,1.82,0,0,0,.62,1.44,2.5,2.5,0,0,0,1.67.53,2.79,2.79,0,0,0,1.23-.26,2.05,2.05,0,0,0,.82-.72,1.86,1.86,0,0,0,.29-1,1.78,1.78,0,0,0-.27-.95,1.91,1.91,0,0,0-.81-.72A2.75,2.75,0,0,0,186,390.35Z"/><path class="cls-3" d="M195.23,390.53l-1.8,1v-.2l1.8,1-.3.55-1.77-1,.14-.07v2h-.6l0-2,.13.07-1.76,1-.31-.55,1.81-1v.2l-1.81-1,.31-.55,1.76,1-.13.07,0-2h.6v2l-.14-.07,1.77-1Z"/><path class="cls-3" d="M200.21,401.26v-9.35h.88v2l-.09,1.37.13,1.38v4.55Zm3.52-2.46a3.2,3.2,0,0,1-1.6-.41,3,3,0,0,1-1.14-1.18,4.49,4.49,0,0,1,0-3.79,2.78,2.78,0,0,1,1.13-1.17,3.19,3.19,0,0,1,1.61-.41,3.53,3.53,0,0,1,1.75.44,3.15,3.15,0,0,1,1.21,1.22,4,4,0,0,1,0,3.64,3.29,3.29,0,0,1-1.21,1.22A3.53,3.53,0,0,1,203.73,398.8Zm-.07-.82a2.54,2.54,0,0,0,1.3-.33,2.35,2.35,0,0,0,.91-.94,3,3,0,0,0,0-2.79A2.39,2.39,0,0,0,205,393a2.45,2.45,0,0,0-1.3-.34,2.47,2.47,0,0,0-1.3.34,2.33,2.33,0,0,0-.91.93,3.11,3.11,0,0,0,0,2.79,2.29,2.29,0,0,0,.91.94A2.56,2.56,0,0,0,203.66,398Z"/><path class="cls-3" d="M211.92,398.8a3.75,3.75,0,0,1-1.87-.45,3.24,3.24,0,0,1-1.26-1.23,3.51,3.51,0,0,1-.46-1.81,3.62,3.62,0,0,1,.44-1.79,3.27,3.27,0,0,1,1.19-1.23,3.31,3.31,0,0,1,1.71-.45,3.35,3.35,0,0,1,1.71.44,3.15,3.15,0,0,1,1.18,1.22,3.81,3.81,0,0,1,.43,1.81.66.66,0,0,1,0,.14c0,.05,0,.1,0,.15H209v-.69h5.45l-.36.27a2.67,2.67,0,0,0-.32-1.31,2.38,2.38,0,0,0-.87-.91,2.46,2.46,0,0,0-1.26-.32,2.51,2.51,0,0,0-1.26.32,2.31,2.31,0,0,0-.87.91,2.79,2.79,0,0,0-.31,1.34v.14a2.65,2.65,0,0,0,.34,1.37,2.39,2.39,0,0,0,1,.93,3.2,3.2,0,0,0,2.58.11,2.39,2.39,0,0,0,.93-.68l.52.6a3,3,0,0,1-1.14.83A3.82,3.82,0,0,1,211.92,398.8Z"/><path class="cls-3" d="M216.87,398.73v-6.82h.89v1.86l-.1-.33a2.34,2.34,0,0,1,1-1.19,3.2,3.2,0,0,1,1.67-.41v.9h-.2a2.21,2.21,0,0,0-1.69.65,2.64,2.64,0,0,0-.62,1.87v3.48Z"/><path class="cls-3" d="M234,391.84a3.16,3.16,0,0,1,1.45.32,2.25,2.25,0,0,1,1,1,3.47,3.47,0,0,1,.34,1.64v4h-.92v-3.87a2.32,2.32,0,0,0-.51-1.63,1.89,1.89,0,0,0-1.45-.55,2.37,2.37,0,0,0-1.22.29,2,2,0,0,0-.79.84,2.91,2.91,0,0,0-.28,1.34v3.58h-.92v-3.87a2.33,2.33,0,0,0-.52-1.63,1.92,1.92,0,0,0-1.46-.55,2.38,2.38,0,0,0-1.21.29,2,2,0,0,0-.8.84,3,3,0,0,0-.28,1.34v3.58h-.92v-6.82h.88v1.85l-.14-.33a2.42,2.42,0,0,1,1-1.16,3,3,0,0,1,1.64-.43,2.9,2.9,0,0,1,1.71.5,2.41,2.41,0,0,1,.91,1.51l-.37-.15a2.68,2.68,0,0,1,1.06-1.34A3.15,3.15,0,0,1,234,391.84Z"/><path class="cls-3" d="M242.07,398.8a3.53,3.53,0,0,1-1.79-.45,3.26,3.26,0,0,1-1.23-1.24,3.6,3.6,0,0,1-.46-1.8,3.54,3.54,0,0,1,.46-1.8,3.2,3.2,0,0,1,1.23-1.22,3.79,3.79,0,0,1,3.58,0,3.3,3.3,0,0,1,1.24,1.22,3.54,3.54,0,0,1,.45,1.8,3.6,3.6,0,0,1-.45,1.81,3.26,3.26,0,0,1-1.24,1.23A3.58,3.58,0,0,1,242.07,398.8Zm0-.82a2.58,2.58,0,0,0,1.31-.33,2.33,2.33,0,0,0,.9-.94,3.13,3.13,0,0,0,0-2.8,2.37,2.37,0,0,0-.9-.93,2.56,2.56,0,0,0-1.3-.33,2.54,2.54,0,0,0-1.3.33,2.39,2.39,0,0,0-.91.93,3.05,3.05,0,0,0,0,2.8,2.33,2.33,0,0,0,.9.94A2.54,2.54,0,0,0,242.07,398Z"/><path class="cls-3" d="M250.92,391.84a3.23,3.23,0,0,1,1.46.32,2.31,2.31,0,0,1,1,1,3.35,3.35,0,0,1,.36,1.64v4h-.93v-3.87a2.24,2.24,0,0,0-.54-1.63,2,2,0,0,0-1.51-.55,2.56,2.56,0,0,0-1.27.29,1.92,1.92,0,0,0-.83.84,2.79,2.79,0,0,0-.29,1.34v3.58h-.93v-6.82h.89v1.87l-.14-.35a2.43,2.43,0,0,1,1-1.16A3.18,3.18,0,0,1,250.92,391.84Z"/><path class="cls-3" d="M255.16,392.68v-.77h4.22v.77Zm3.22,6.12a1.81,1.81,0,0,1-2-2V390.4h.92v6.36a1.27,1.27,0,0,0,.31.92,1.12,1.12,0,0,0,.87.33,1.48,1.48,0,0,0,1-.36l.32.67a1.79,1.79,0,0,1-.65.36A2.66,2.66,0,0,1,258.38,398.8Z"/><path class="cls-3" d="M265,391.84a3.25,3.25,0,0,1,1.47.32,2.24,2.24,0,0,1,1,1,3.35,3.35,0,0,1,.36,1.64v4h-.92v-3.87a2.24,2.24,0,0,0-.54-1.63,2,2,0,0,0-1.52-.55,2.55,2.55,0,0,0-1.26.29,1.92,1.92,0,0,0-.83.84,2.79,2.79,0,0,0-.3,1.34v3.58h-.92v-9.64h.92v4.69l-.18-.35a2.49,2.49,0,0,1,1-1.16A3.21,3.21,0,0,1,265,391.84Z"/><path class="cls-3" d="M153.64,425.25v-.57h7v.57Zm0,1.79v-.57h7V427Zm6.12,3.45a5.07,5.07,0,0,1-1.88-.35,4.52,4.52,0,0,1-1.52-1,4.67,4.67,0,0,1-1-1.47,5.06,5.06,0,0,1,0-3.7,4.47,4.47,0,0,1,2.52-2.43,5.07,5.07,0,0,1,1.88-.35,5.19,5.19,0,0,1,1.88.33,4,4,0,0,1,1.48,1l-.63.61a3.14,3.14,0,0,0-1.22-.82,4.14,4.14,0,0,0-1.45-.26,4.06,4.06,0,0,0-1.54.28,3.87,3.87,0,0,0-2,5,3.63,3.63,0,0,0,2,2,4.06,4.06,0,0,0,1.54.28,3.92,3.92,0,0,0,1.45-.26,3.28,3.28,0,0,0,1.22-.83l.63.61a3.88,3.88,0,0,1-1.48,1A5,5,0,0,1,159.76,430.49Z"/><path class="cls-3" d="M171.39,430.49a3.35,3.35,0,0,1-1.88-.55,3.72,3.72,0,0,1-1.28-1.59,6.83,6.83,0,0,1,0-5,3.63,3.63,0,0,1,1.28-1.58,3.42,3.42,0,0,1,3.75,0,3.65,3.65,0,0,1,1.29,1.58,6.7,6.7,0,0,1,0,5,3.74,3.74,0,0,1-1.29,1.59A3.34,3.34,0,0,1,171.39,430.49Zm0-.86a2.33,2.33,0,0,0,1.4-.43,2.88,2.88,0,0,0,.94-1.28,6.41,6.41,0,0,0,0-4.12,2.85,2.85,0,0,0-.94-1.27,2.43,2.43,0,0,0-2.79,0,2.72,2.72,0,0,0-.95,1.27,6.41,6.41,0,0,0,0,4.12,2.75,2.75,0,0,0,.95,1.28A2.32,2.32,0,0,0,171.39,429.63Z"/><path class="cls-3" d="M176.94,430.48a.65.65,0,0,1-.49-.21.73.73,0,0,1-.2-.51.69.69,0,0,1,.2-.51.67.67,0,0,1,.49-.19.65.65,0,0,1,.48.19.66.66,0,0,1,.21.51.69.69,0,0,1-.21.51A.63.63,0,0,1,176.94,430.48Z"/><path class="cls-3" d="M181.82,421.23a3.71,3.71,0,0,1,2.05.54,3.4,3.4,0,0,1,1.26,1.56,6.36,6.36,0,0,1,.43,2.45,5.74,5.74,0,0,1-.53,2.59,3.7,3.7,0,0,1-1.46,1.59,4.39,4.39,0,0,1-2.17.53,5.52,5.52,0,0,1-1.17-.12,3.33,3.33,0,0,1-1-.37l.37-.76a2.21,2.21,0,0,0,.82.33,4.25,4.25,0,0,0,.95.1,3.06,3.06,0,0,0,2.35-.94,4,4,0,0,0,.88-2.79,6.75,6.75,0,0,0,0-.72,5,5,0,0,0-.14-.83l.32.25a2.42,2.42,0,0,1-.55,1.15,2.63,2.63,0,0,1-1,.72,3.91,3.91,0,0,1-3-.09,2.56,2.56,0,0,1-1.08-.95,2.9,2.9,0,0,1,0-2.92,2.69,2.69,0,0,1,1.11-1A3.6,3.6,0,0,1,181.82,421.23Zm0,.8a2.66,2.66,0,0,0-1.15.24,1.84,1.84,0,0,0-.78.68,1.9,1.9,0,0,0-.29,1.05,1.79,1.79,0,0,0,.62,1.43,2.45,2.45,0,0,0,1.67.54,2.79,2.79,0,0,0,1.23-.26A2.13,2.13,0,0,0,184,425a1.86,1.86,0,0,0,.29-1,1.78,1.78,0,0,0-.27-1,2,2,0,0,0-.81-.72A2.82,2.82,0,0,0,181.86,422Z"/><path class="cls-3" d="M189.74,421.23a3.65,3.65,0,0,1,2,.54,3.28,3.28,0,0,1,1.26,1.56,6.18,6.18,0,0,1,.43,2.45,5.75,5.75,0,0,1-.52,2.59,3.66,3.66,0,0,1-1.47,1.59,4.33,4.33,0,0,1-2.17.53,5.5,5.5,0,0,1-1.16-.12,3.33,3.33,0,0,1-1-.37l.37-.76a2.23,2.23,0,0,0,.81.33,4.34,4.34,0,0,0,1,.1,3.06,3.06,0,0,0,2.35-.94,4,4,0,0,0,.87-2.79q0-.3,0-.72a4.15,4.15,0,0,0-.15-.83l.33.25a2.35,2.35,0,0,1-.56,1.15,2.56,2.56,0,0,1-1,.72,3.88,3.88,0,0,1-3-.09,2.5,2.5,0,0,1-1.08-.95,2.9,2.9,0,0,1,0-2.92,2.69,2.69,0,0,1,1.11-1A3.57,3.57,0,0,1,189.74,421.23Zm0,.8a2.63,2.63,0,0,0-1.15.24,1.87,1.87,0,0,0-.79.68,1.89,1.89,0,0,0-.28,1.05,1.76,1.76,0,0,0,.62,1.43,2.43,2.43,0,0,0,1.67.54,2.77,2.77,0,0,0,1.22-.26,2,2,0,0,0,.82-.72,1.79,1.79,0,0,0,.3-1,1.7,1.7,0,0,0-.28-1,1.94,1.94,0,0,0-.8-.72A2.82,2.82,0,0,0,189.78,422Z"/><path class="cls-3" d="M199,422.21l-1.79,1V423l1.79,1-.3.54-1.77-1,.15-.07v2h-.6v-2l.13.07-1.75,1-.31-.54,1.8-1v.21l-1.8-1,.31-.55,1.75,1-.13.06v-2h.6v2l-.15-.06,1.77-1Z"/><path class="cls-3" d="M204,432.93v-9.34h.88v2.05l-.09,1.37.13,1.37v4.55Zm3.52-2.45a3.2,3.2,0,0,1-1.6-.41,3,3,0,0,1-1.13-1.19,3.77,3.77,0,0,1-.43-1.89,3.94,3.94,0,0,1,.42-1.89,2.92,2.92,0,0,1,1.13-1.18,3.31,3.31,0,0,1,1.61-.4,3.5,3.5,0,0,1,1.75.44,3.11,3.11,0,0,1,1.22,1.22,4,4,0,0,1,0,3.63,3.18,3.18,0,0,1-1.22,1.22A3.4,3.4,0,0,1,207.51,430.48Zm-.06-.82a2.43,2.43,0,0,0,2.21-1.27A2.87,2.87,0,0,0,210,427a2.83,2.83,0,0,0-.34-1.39,2.48,2.48,0,0,0-2.21-1.27,2.51,2.51,0,0,0-1.31.34,2.39,2.39,0,0,0-.91.93,2.83,2.83,0,0,0-.33,1.39,2.87,2.87,0,0,0,.33,1.4,2.49,2.49,0,0,0,.91.94A2.6,2.6,0,0,0,207.45,429.66Z"/><path class="cls-3" d="M215.7,430.48a3.78,3.78,0,0,1-1.87-.45,3.2,3.2,0,0,1-1.26-1.24,3.54,3.54,0,0,1-.46-1.8,3.62,3.62,0,0,1,.44-1.79,3.22,3.22,0,0,1,1.2-1.23,3.49,3.49,0,0,1,3.41,0,3,3,0,0,1,1.18,1.22,3.67,3.67,0,0,1,.43,1.81.66.66,0,0,1,0,.14v.15h-5.94v-.69h5.44l-.36.27a2.74,2.74,0,0,0-.32-1.32,2.34,2.34,0,0,0-2.12-1.23,2.48,2.48,0,0,0-1.27.33,2.31,2.31,0,0,0-.87.91,2.79,2.79,0,0,0-.31,1.34V427a2.66,2.66,0,0,0,.35,1.37,2.45,2.45,0,0,0,1,.93,2.94,2.94,0,0,0,1.41.33,3.19,3.19,0,0,0,1.16-.22,2.49,2.49,0,0,0,.93-.68l.52.6a2.9,2.9,0,0,1-1.14.83A3.82,3.82,0,0,1,215.7,430.48Z"/><path class="cls-3" d="M220.66,430.41v-6.82h.88v1.86l-.09-.33a2.24,2.24,0,0,1,1-1.19,3.22,3.22,0,0,1,1.68-.41v.9h-.21a2.19,2.19,0,0,0-1.69.65,2.63,2.63,0,0,0-.61,1.87v3.48Z"/><path class="cls-3" d="M237.8,423.52a3.13,3.13,0,0,1,1.45.32,2.25,2.25,0,0,1,1,1,3.46,3.46,0,0,1,.35,1.64v4h-.92v-3.87a2.31,2.31,0,0,0-.52-1.63,1.87,1.87,0,0,0-1.45-.56,2.34,2.34,0,0,0-1.21.3,1.91,1.91,0,0,0-.8.84,3,3,0,0,0-.28,1.33v3.59h-.92v-3.87a2.26,2.26,0,0,0-.52-1.63,1.9,1.9,0,0,0-1.45-.56,2.36,2.36,0,0,0-1.21.3,1.86,1.86,0,0,0-.8.84,2.87,2.87,0,0,0-.28,1.33v3.59h-.93v-6.82h.89v1.84l-.14-.32a2.43,2.43,0,0,1,1-1.17,3.14,3.14,0,0,1,1.65-.42,2.89,2.89,0,0,1,1.7.5,2.37,2.37,0,0,1,.91,1.5l-.36-.14A2.69,2.69,0,0,1,236,424,3.17,3.17,0,0,1,237.8,423.52Z"/><path class="cls-3" d="M245.85,430.48a3.49,3.49,0,0,1-1.78-.45,3.43,3.43,0,0,1-1.24-1.24,3.59,3.59,0,0,1-.45-1.8,3.54,3.54,0,0,1,.45-1.8,3.4,3.4,0,0,1,1.24-1.23,3.82,3.82,0,0,1,3.58,0,3.27,3.27,0,0,1,1.23,1.22,3.82,3.82,0,0,1,0,3.6,3.15,3.15,0,0,1-1.24,1.24A3.55,3.55,0,0,1,245.85,430.48Zm0-.82a2.43,2.43,0,0,0,2.22-1.27,3.13,3.13,0,0,0,0-2.8,2.46,2.46,0,0,0-.91-.93,2.54,2.54,0,0,0-1.3-.33,2.56,2.56,0,0,0-1.3.33,2.46,2.46,0,0,0-.91.93,3.05,3.05,0,0,0,0,2.8,2.57,2.57,0,0,0,.91.94A2.48,2.48,0,0,0,245.85,429.66Z"/><path class="cls-3" d="M254.7,423.52a3.2,3.2,0,0,1,1.46.32,2.31,2.31,0,0,1,1,1,3.35,3.35,0,0,1,.36,1.64v4h-.92v-3.87a2.23,2.23,0,0,0-.54-1.63,2,2,0,0,0-1.52-.56,2.55,2.55,0,0,0-1.26.3,2,2,0,0,0-.84.84,2.87,2.87,0,0,0-.29,1.33v3.59h-.92v-6.82h.88v1.87l-.14-.35a2.51,2.51,0,0,1,1-1.17A3.3,3.3,0,0,1,254.7,423.52Z"/><path class="cls-3" d="M258.94,424.35v-.76h4.23v.76Zm3.22,6.13a1.81,1.81,0,0,1-2-2v-6.41h.93v6.36a1.32,1.32,0,0,0,.3.92,1.13,1.13,0,0,0,.88.32,1.45,1.45,0,0,0,1-.35l.33.67a1.75,1.75,0,0,1-.66.36A2.61,2.61,0,0,1,262.16,430.48Z"/><path class="cls-3" d="M268.77,423.52a3.23,3.23,0,0,1,1.46.32,2.31,2.31,0,0,1,1,1,3.35,3.35,0,0,1,.36,1.64v4h-.93v-3.87a2.23,2.23,0,0,0-.54-1.63,2,2,0,0,0-1.51-.56,2.56,2.56,0,0,0-1.27.3,1.92,1.92,0,0,0-.83.84,2.75,2.75,0,0,0-.29,1.33v3.59h-.93v-9.65h.93v4.7l-.18-.35a2.46,2.46,0,0,1,1-1.17A3.27,3.27,0,0,1,268.77,423.52Z"/><path class="cls-3" d="M365.62,113.32v-8.4h3.95a3.74,3.74,0,0,1,2.29.6,1.87,1.87,0,0,1,.79,1.59,2,2,0,0,1-.31,1.14,2.12,2.12,0,0,1-.83.74,2.57,2.57,0,0,1-1.14.25l.22-.43a3,3,0,0,1,1.27.26,2,2,0,0,1,.89.75,2.16,2.16,0,0,1,.32,1.22,2,2,0,0,1-.82,1.68,4.12,4.12,0,0,1-2.44.6Zm1.56-1.22h2.53a2.61,2.61,0,0,0,1.34-.29,1,1,0,0,0,.46-.92,1,1,0,0,0-.46-.92,2.52,2.52,0,0,0-1.34-.29h-2.65v-1.22h2.33a2.32,2.32,0,0,0,1.25-.28,1,1,0,0,0,.44-.87,1,1,0,0,0-.44-.87,2.22,2.22,0,0,0-1.25-.29h-2.21Z"/><path class="cls-3" d="M373.57,113.32l3.78-8.4h1.53l3.79,8.4H381l-3.24-7.57h.62l-3.25,7.57Zm1.74-1.94.43-1.22h4.52l.42,1.22Z"/><path class="cls-3" d="M386.35,113.44a6.11,6.11,0,0,1-1.88-.28,4.4,4.4,0,0,1-1.44-.72l.54-1.22a4.22,4.22,0,0,0,1.25.66,4.49,4.49,0,0,0,1.53.27,3.1,3.1,0,0,0,1.06-.15,1.13,1.13,0,0,0,.6-.39.87.87,0,0,0,.2-.55.78.78,0,0,0-.28-.62,1.91,1.91,0,0,0-.71-.37,9.86,9.86,0,0,0-1-.26,10.37,10.37,0,0,1-1.06-.28,4.59,4.59,0,0,1-1-.42,2.16,2.16,0,0,1-.72-.69,2.07,2.07,0,0,1-.27-1.11,2.31,2.31,0,0,1,.37-1.25,2.46,2.46,0,0,1,1.12-.91,4.54,4.54,0,0,1,1.9-.35,6,6,0,0,1,1.5.2,4.09,4.09,0,0,1,1.29.55l-.49,1.21a4.73,4.73,0,0,0-1.16-.5,4.36,4.36,0,0,0-1.15-.16,2.83,2.83,0,0,0-1,.16,1.22,1.22,0,0,0-.59.41.91.91,0,0,0-.19.57.78.78,0,0,0,.27.62,1.9,1.9,0,0,0,.71.36c.29.09.62.18,1,.26s.71.17,1.07.28a5,5,0,0,1,1,.42,2.1,2.1,0,0,1,.71.68,2,2,0,0,1,.27,1.09,2.27,2.27,0,0,1-.36,1.24,2.55,2.55,0,0,1-1.13.91A4.58,4.58,0,0,1,386.35,113.44Z"/><path class="cls-3" d="M391.29,113.32v-8.4h1.56v8.4Z"/><path class="cls-3" d="M399,113.44a4.9,4.9,0,0,1-1.78-.31,4.42,4.42,0,0,1-1.43-.91,4.49,4.49,0,0,1-.94-4.82,4.21,4.21,0,0,1,.95-1.37,4.36,4.36,0,0,1,1.43-.91,4.91,4.91,0,0,1,1.79-.32,4.81,4.81,0,0,1,1.88.36,3.59,3.59,0,0,1,1.44,1l-1,1a3,3,0,0,0-1-.74,2.91,2.91,0,0,0-1.21-.25,3.18,3.18,0,0,0-1.21.22,2.73,2.73,0,0,0-.94.61,2.78,2.78,0,0,0-.63.94,3,3,0,0,0,.63,3.31,2.73,2.73,0,0,0,.94.61,3.38,3.38,0,0,0,1.21.22,3.08,3.08,0,0,0,1.21-.25,2.93,2.93,0,0,0,1-.75l1,1a3.78,3.78,0,0,1-1.44,1A4.84,4.84,0,0,1,399,113.44Z"/><path class="cls-3" d="M409.76,113.44a6.16,6.16,0,0,1-1.88-.28,4.34,4.34,0,0,1-1.43-.72l.54-1.22a4,4,0,0,0,1.24.66,4.49,4.49,0,0,0,1.53.27,3.1,3.1,0,0,0,1.06-.15,1.2,1.2,0,0,0,.61-.39.92.92,0,0,0,.19-.55.75.75,0,0,0-.28-.62,1.91,1.91,0,0,0-.71-.37c-.3-.1-.62-.18-1-.26a9.9,9.9,0,0,1-1.07-.28,4.82,4.82,0,0,1-1-.42,2,2,0,0,1-.71-.69,2.07,2.07,0,0,1-.28-1.11,2.31,2.31,0,0,1,.37-1.25,2.51,2.51,0,0,1,1.12-.91,4.54,4.54,0,0,1,1.9-.35,6,6,0,0,1,1.5.2,4.25,4.25,0,0,1,1.3.55l-.5,1.21a4.73,4.73,0,0,0-1.16-.5,4.36,4.36,0,0,0-1.15-.16,2.86,2.86,0,0,0-1.05.16,1.22,1.22,0,0,0-.59.41,1,1,0,0,0-.19.57.78.78,0,0,0,.27.62,1.9,1.9,0,0,0,.71.36c.29.09.62.18,1,.26s.72.17,1.07.28a5,5,0,0,1,1,.42,2.1,2.1,0,0,1,.71.68,2,2,0,0,1,.27,1.09,2.27,2.27,0,0,1-.36,1.24,2.55,2.55,0,0,1-1.13.91A4.55,4.55,0,0,1,409.76,113.44Z"/><path class="cls-3" d="M416.28,113.32v-7.08H413.5v-1.32h7.13v1.32h-2.79v7.08Z"/><path class="cls-3" d="M420.2,113.32l3.78-8.4h1.53l3.8,8.4h-1.65l-3.24-7.57h.63l-3.26,7.57Zm1.74-1.94.43-1.22h4.52l.42,1.22Z"/><path class="cls-3" d="M430.37,113.32v-8.4h3.46a4.62,4.62,0,0,1,1.91.36,2.66,2.66,0,0,1,1.23,1,2.92,2.92,0,0,1,.44,1.61,2.83,2.83,0,0,1-.44,1.59,2.72,2.72,0,0,1-1.23,1,4.62,4.62,0,0,1-1.91.36h-2.58l.68-.7v3.14Zm1.56-3-.68-.76h2.51a2.37,2.37,0,0,0,1.55-.44,1.54,1.54,0,0,0,.52-1.24,1.5,1.5,0,0,0-.52-1.23,2.37,2.37,0,0,0-1.55-.44h-2.51l.68-.76Zm3.94,3-2.13-3h1.67l2.14,3Z"/><path class="cls-3" d="M440.73,113.32v-7.08H438v-1.32h7.12v1.32h-2.78v7.08Z"/><path class="cls-3" d="M447.81,112h4.74v1.32h-6.3v-8.4h6.13v1.32h-4.57Zm-.12-3.58h4.17v1.28h-4.17Z"/><path class="cls-3" d="M454.29,113.32v-8.4h3.45a4.63,4.63,0,0,1,1.92.36,2.76,2.76,0,0,1,1.23,1,2.91,2.91,0,0,1,.43,1.61,2.68,2.68,0,0,1-1.66,2.61,4.63,4.63,0,0,1-1.92.36h-2.58l.69-.7v3.14Zm1.56-3-.69-.76h2.51a2.4,2.4,0,0,0,1.56-.44,1.57,1.57,0,0,0,.52-1.24,1.53,1.53,0,0,0-.52-1.23,2.4,2.4,0,0,0-1.56-.44h-2.51l.69-.76Zm3.93,3-2.12-3h1.67l2.13,3Z"/><path class="cls-3" d="M337.08,72.39V54.89h7.2a9.84,9.84,0,0,1,4,.73,5.77,5.77,0,0,1,2.56,2.14,6.08,6.08,0,0,1,.9,3.35,5.92,5.92,0,0,1-.9,3.31,5.79,5.79,0,0,1-2.56,2.15,9.5,9.5,0,0,1-4,.77h-5.37l1.42-1.5v6.55Zm3.25-6.2-1.42-1.6h5.22a5,5,0,0,0,3.24-.92,3.57,3.57,0,0,0,0-5.12,5,5,0,0,0-3.24-.91h-5.22l1.42-1.6Z"/><path class="cls-3" d="M355,72.39V54.89h7.2a9.84,9.84,0,0,1,4,.73,5.77,5.77,0,0,1,2.56,2.14,6.08,6.08,0,0,1,.9,3.35,5.62,5.62,0,0,1-3.46,5.43,9.66,9.66,0,0,1-4,.75h-5.37l1.42-1.45v6.55Zm3.25-6.2-1.42-1.58H362a5,5,0,0,0,3.24-.92,3.23,3.23,0,0,0,1.09-2.58,3.17,3.17,0,0,0-1.09-2.56,5,5,0,0,0-3.24-.91h-5.22l1.42-1.6Zm8.2,6.2L362,66h3.47l4.45,6.35Z"/><path class="cls-3" d="M373.25,72.39V54.89h3.25v17.5Z"/><path class="cls-3" d="M389.33,72.64A10.06,10.06,0,0,1,385.6,72a8.71,8.71,0,0,1-4.92-4.73,9.61,9.61,0,0,1,0-7.2,8.45,8.45,0,0,1,2-2.85,8.76,8.76,0,0,1,3-1.89,10.88,10.88,0,0,1,7.65.07,8,8,0,0,1,3,2.19l-2.1,2A6.53,6.53,0,0,0,392,58a6.25,6.25,0,0,0-2.53-.51,6.79,6.79,0,0,0-2.51.45,5.71,5.71,0,0,0-2,1.27,6,6,0,0,0-1.32,1.95,6.75,6.75,0,0,0,0,5,6,6,0,0,0,1.32,2,5.74,5.74,0,0,0,2,1.28,6.79,6.79,0,0,0,2.51.45,6.09,6.09,0,0,0,2.53-.52,6.46,6.46,0,0,0,2.15-1.56l2.1,2a8,8,0,0,1-3,2.2A10,10,0,0,1,389.33,72.64Z"/><path class="cls-3" d="M402.65,69.64h9.88v2.75H399.4V54.89h12.78v2.75h-9.53Zm-.25-7.48h8.7v2.68h-8.7Z"/><path class="cls-3" d="M426.6,72.39V57.64h-5.8V54.89h14.85v2.75h-5.8V72.39Z"/><path class="cls-3" d="M434.75,72.39l7.88-17.5h3.2l7.9,17.5H450.3l-6.75-15.78h1.3l-6.77,15.78Zm3.63-4,.9-2.55h9.42l.88,2.55Z"/><path class="cls-3" d="M456,72.39V54.89h8.23A7.89,7.89,0,0,1,469,56.12a3.94,3.94,0,0,1,1.65,3.32,4.16,4.16,0,0,1-.65,2.38,4.34,4.34,0,0,1-1.73,1.53,5.29,5.29,0,0,1-2.37.54l.45-.9a6.4,6.4,0,0,1,2.65.53,4.25,4.25,0,0,1,1.85,1.57,4.53,4.53,0,0,1,.68,2.55,4.09,4.09,0,0,1-1.71,3.5,8.64,8.64,0,0,1-5.09,1.25Zm3.25-2.55h5.28a5.3,5.3,0,0,0,2.77-.6,2.37,2.37,0,0,0,0-3.84,5.2,5.2,0,0,0-2.77-.61H459V62.26h4.85a4.74,4.74,0,0,0,2.6-.6,2,2,0,0,0,.93-1.8A2,2,0,0,0,466.4,58a4.74,4.74,0,0,0-2.6-.6h-4.6Z"/><path class="cls-3" d="M475,72.39V54.89h3.25V69.64h9.15v2.75Z"/><path class="cls-3" d="M493.2,69.64h9.88v2.75H490V54.89h12.78v2.75H493.2ZM493,62.16h8.7v2.68H493Z"/><path class="cls-3" d="M560.76,113.32v-8.4h3.46a4.62,4.62,0,0,1,1.91.36,2.76,2.76,0,0,1,1.23,1,2.91,2.91,0,0,1,.43,1.61,2.82,2.82,0,0,1-.43,1.59,2.78,2.78,0,0,1-1.23,1,4.46,4.46,0,0,1-1.91.37h-2.58l.68-.72v3.14Zm1.56-3-.68-.77h2.51a2.39,2.39,0,0,0,1.55-.44,1.71,1.71,0,0,0,0-2.46,2.39,2.39,0,0,0-1.55-.44h-2.51l.68-.76Z"/><path class="cls-3" d="M569.35,113.32v-8.4h3.46a4.62,4.62,0,0,1,1.91.36,2.66,2.66,0,0,1,1.23,1,2.92,2.92,0,0,1,.44,1.61,2.83,2.83,0,0,1-.44,1.59,2.72,2.72,0,0,1-1.23,1,4.62,4.62,0,0,1-1.91.36h-2.58l.68-.7v3.14Zm1.56-3-.68-.76h2.51a2.37,2.37,0,0,0,1.55-.44,1.54,1.54,0,0,0,.52-1.24,1.5,1.5,0,0,0-.52-1.23,2.37,2.37,0,0,0-1.55-.44h-2.51l.68-.76Zm3.94,3-2.12-3h1.66l2.14,3Z"/><path class="cls-3" d="M579.69,112h4.74v1.32h-6.3v-8.4h6.13v1.32h-4.57Zm-.12-3.58h4.17v1.28h-4.17Z"/><path class="cls-3" d="M586.17,113.32v-8.4h1.28l3.67,6.14h-.67l3.61-6.14h1.29l0,8.4h-1.5v-6.08h.3l-3,5.14h-.71l-3.12-5.14h.37v6.08Z"/><path class="cls-3" d="M597.63,113.32v-8.4h1.56v8.4Z"/><path class="cls-3" d="M605.05,113.44a3.64,3.64,0,0,1-2.69-1,3.8,3.8,0,0,1-1-2.82v-4.73h1.56v4.68a2.68,2.68,0,0,0,.56,1.89,2.08,2.08,0,0,0,1.58.59,2.06,2.06,0,0,0,1.57-.59,2.69,2.69,0,0,0,.55-1.89v-4.68h1.54v4.73a3.8,3.8,0,0,1-1,2.82A3.66,3.66,0,0,1,605.05,113.44Z"/><path class="cls-3" d="M610.92,113.32v-8.4h1.29l3.67,6.14h-.67l3.61-6.14h1.28l0,8.4h-1.5v-6.08h.3l-3,5.14h-.71l-3.12-5.14h.36v6.08Z"/><path class="cls-3" d="M742.92,112h4.74v1.32h-6.3v-8.4h6.13v1.32h-4.57Zm-.12-3.58H747v1.28H742.8Z"/><path class="cls-3" d="M749.4,113.32v-8.4H751V112h4.39v1.32Z"/><path class="cls-3" d="M756.58,113.32v-8.4h1.57v8.4Z"/><path class="cls-3" d="M762.12,113.32v-7.08h-2.79v-1.32h7.13v1.32h-2.78v7.08Z"/><path class="cls-3" d="M769.2,112h4.74v1.32h-6.3v-8.4h6.13v1.32H769.2Zm-.12-3.58h4.17v1.28h-4.17Z"/><path class="cls-3" d="M55.2,172v-6.3H58a2.77,2.77,0,0,1,1.67.44,1.41,1.41,0,0,1,.59,1.19,1.61,1.61,0,0,1-.23.87,1.55,1.55,0,0,1-.62.54,2,2,0,0,1-.84.19l.17-.27a2.37,2.37,0,0,1,.95.18,1.5,1.5,0,0,1,.9,1.46,1.47,1.47,0,0,1-.61,1.26,3,3,0,0,1-1.8.44Zm.9-.72h2.07a2.15,2.15,0,0,0,1.15-.26.86.86,0,0,0,.39-.79.89.89,0,0,0-.39-.8,2.16,2.16,0,0,0-1.15-.25H56v-.73H58a1.89,1.89,0,0,0,1.06-.25.95.95,0,0,0,0-1.52,2,2,0,0,0-1.06-.25H56.1Z"/><path class="cls-3" d="M61.89,172v-6.67h.86V172Z"/><path class="cls-3" d="M66.44,172.07a2.58,2.58,0,0,1-1.27-.32,2.4,2.4,0,0,1-.89-.87,2.45,2.45,0,0,1-.32-1.25,2.48,2.48,0,0,1,.32-1.26,2.37,2.37,0,0,1,.89-.86,2.52,2.52,0,0,1,1.27-.31,2.58,2.58,0,0,1,1.28.31,2.27,2.27,0,0,1,.88.86,2.46,2.46,0,0,1,.32,1.26,2.51,2.51,0,0,1-.32,1.26,2.27,2.27,0,0,1-.88.86A2.59,2.59,0,0,1,66.44,172.07Zm0-.76a1.65,1.65,0,0,0,.83-.21,1.45,1.45,0,0,0,.57-.58,1.83,1.83,0,0,0,.21-.89,1.8,1.8,0,0,0-.21-.89,1.51,1.51,0,0,0-.57-.58,1.65,1.65,0,0,0-.83-.2,1.61,1.61,0,0,0-.82.2,1.51,1.51,0,0,0-.57.58,1.8,1.8,0,0,0-.22.89,1.83,1.83,0,0,0,.22.89,1.45,1.45,0,0,0,.57.58A1.61,1.61,0,0,0,66.44,171.31Z"/><path class="cls-3" d="M72.1,171.82a2.5,2.5,0,0,1-1.24-.3,2.19,2.19,0,0,1-.87-.81,2.45,2.45,0,0,1,0-2.42,2.24,2.24,0,0,1,.87-.8,2.61,2.61,0,0,1,1.24-.29,2.41,2.41,0,0,1,1.11.25,1.8,1.8,0,0,1,.81.76,2.92,2.92,0,0,1,0,2.58,1.94,1.94,0,0,1-.81.77A2.42,2.42,0,0,1,72.1,171.82Zm.1,2a4.53,4.53,0,0,1-1.27-.18,2.5,2.5,0,0,1-1-.53l.41-.66a2.48,2.48,0,0,0,.82.45,3.12,3.12,0,0,0,1,.17,1.68,1.68,0,0,0,1.24-.4,1.63,1.63,0,0,0,.39-1.2v-1l.1-.95,0-.95v-1.31h.82v4.13a2.44,2.44,0,0,1-.63,1.85A2.59,2.59,0,0,1,72.2,173.81Zm0-2.75a1.8,1.8,0,0,0,.84-.2,1.4,1.4,0,0,0,.58-.55,1.53,1.53,0,0,0,.21-.81,1.58,1.58,0,0,0-.21-.81,1.44,1.44,0,0,0-.58-.54,1.79,1.79,0,0,0-.84-.19,1.84,1.84,0,0,0-.86.19,1.51,1.51,0,0,0-.58.54,1.58,1.58,0,0,0-.21.81,1.53,1.53,0,0,0,.21.81,1.46,1.46,0,0,0,.58.55A1.85,1.85,0,0,0,72.2,171.06Z"/><path class="cls-3" d="M77.92,172l2.85-6.3h.89l2.86,6.3h-.94L81,166.22h.36L78.85,172Zm1.21-1.57.25-.72h3.54l.26.72Z"/><path class="cls-3" d="M85.33,172v-4.77h.83v1.3l-.08-.32a1.47,1.47,0,0,1,.67-.76,2.36,2.36,0,0,1,1.15-.26V168h-.2a1.49,1.49,0,0,0-1.1.41,1.66,1.66,0,0,0-.4,1.2V172Z"/><path class="cls-3" d="M88.47,168v-.72h3V168Zm2.33,4.11a1.53,1.53,0,0,1-1.12-.39,1.51,1.51,0,0,1-.4-1.11V166.2h.87v4.34a.82.82,0,0,0,.19.59.73.73,0,0,0,.56.21,1,1,0,0,0,.67-.23l.27.62a1.27,1.27,0,0,1-.47.26A2.18,2.18,0,0,1,90.8,172.07Z"/><path class="cls-3" d="M93.32,166.33a.57.57,0,0,1-.42-.17.52.52,0,0,1-.17-.39.57.57,0,0,1,.17-.41.61.61,0,0,1,.42-.16.58.58,0,0,1,.42.16.5.5,0,0,1,.16.39.56.56,0,0,1-.16.41A.57.57,0,0,1,93.32,166.33ZM92.89,172v-4.77h.86V172Z"/><path class="cls-3" d="M97.48,172.07a2.7,2.7,0,0,1-1.31-.32,2.23,2.23,0,0,1-.89-.86,2.42,2.42,0,0,1-.33-1.26,2.37,2.37,0,0,1,.33-1.26,2.23,2.23,0,0,1,.89-.86,2.7,2.7,0,0,1,1.31-.31,2.41,2.41,0,0,1,1.15.26,1.81,1.81,0,0,1,.79.76l-.66.42a1.35,1.35,0,0,0-.57-.52,1.61,1.61,0,0,0-.72-.16,1.63,1.63,0,0,0-.84.2,1.56,1.56,0,0,0-.59.58,2,2,0,0,0,0,1.78,1.49,1.49,0,0,0,.59.58,1.64,1.64,0,0,0,.84.21,1.61,1.61,0,0,0,.72-.16,1.49,1.49,0,0,0,.57-.52l.66.41a1.87,1.87,0,0,1-.79.76A2.41,2.41,0,0,1,97.48,172.07Z"/><path class="cls-3" d="M100.45,172v-6.67h.86V172Z"/><path class="cls-3" d="M105.08,172.07a2.81,2.81,0,0,1-1.35-.32,2.33,2.33,0,0,1-.9-.86,2.51,2.51,0,0,1-.32-1.26,2.56,2.56,0,0,1,.31-1.26,2.29,2.29,0,0,1,.86-.86,2.39,2.39,0,0,1,1.23-.31,2.33,2.33,0,0,1,1.22.31,2.12,2.12,0,0,1,.83.85,2.58,2.58,0,0,1,.31,1.3.57.57,0,0,1,0,.12c0,.05,0,.1,0,.14h-4.06v-.62h3.61l-.35.21a1.71,1.71,0,0,0-.19-.82,1.41,1.41,0,0,0-.55-.56,1.7,1.7,0,0,0-1.6,0,1.37,1.37,0,0,0-.55.57,1.73,1.73,0,0,0-.2.83v.14a1.58,1.58,0,0,0,.22.85,1.45,1.45,0,0,0,.62.58,1.88,1.88,0,0,0,.91.21,2.11,2.11,0,0,0,.77-.14,1.7,1.7,0,0,0,.6-.43l.48.55a2,2,0,0,1-.8.58A2.88,2.88,0,0,1,105.08,172.07Z"/><path class="cls-3" d="M109.83,172.07a4.23,4.23,0,0,1-1.13-.16,2.74,2.74,0,0,1-.84-.4l.36-.68a3.59,3.59,0,0,0,.76.35,3.16,3.16,0,0,0,.92.14,1.66,1.66,0,0,0,.86-.17.53.53,0,0,0,.27-.48.42.42,0,0,0-.16-.35,1.32,1.32,0,0,0-.43-.19c-.18,0-.37-.08-.59-.11a5,5,0,0,1-.65-.13,2.75,2.75,0,0,1-.59-.21,1,1,0,0,1-.43-.39,1.15,1.15,0,0,1-.17-.66,1.26,1.26,0,0,1,.25-.76,1.59,1.59,0,0,1,.69-.5,3,3,0,0,1,1-.17,4.4,4.4,0,0,1,1,.11,2.41,2.41,0,0,1,.79.32l-.37.68a2,2,0,0,0-.67-.29,2.87,2.87,0,0,0-.71-.08,1.57,1.57,0,0,0-.84.18.54.54,0,0,0-.28.47.43.43,0,0,0,.17.38,1.32,1.32,0,0,0,.43.2,4.08,4.08,0,0,0,.59.12c.21,0,.43.08.64.13a2.41,2.41,0,0,1,.59.21,1.16,1.16,0,0,1,.44.38,1.13,1.13,0,0,1,.16.64,1.15,1.15,0,0,1-.25.75,1.56,1.56,0,0,1-.71.49A3,3,0,0,1,109.83,172.07Z"/><path class="cls-3" d="M54.57,199.11a3.52,3.52,0,0,1-1.32-.24,3.16,3.16,0,0,1-1.06-.68,3.31,3.31,0,0,1-.7-1,3.43,3.43,0,0,1,0-2.57,3.17,3.17,0,0,1,.71-1,3.22,3.22,0,0,1,1-.68,3.61,3.61,0,0,1,1.33-.24,3.68,3.68,0,0,1,1.35.25,2.88,2.88,0,0,1,1,.73l-.59.57a2.32,2.32,0,0,0-.81-.56,2.38,2.38,0,0,0-1-.19,2.68,2.68,0,0,0-1,.18,2.29,2.29,0,0,0-.78.51,2.06,2.06,0,0,0-.52.77,2.35,2.35,0,0,0-.19,1,2.4,2.4,0,0,0,.19,1,2.06,2.06,0,0,0,.52.77,2.29,2.29,0,0,0,.78.51,2.68,2.68,0,0,0,1,.18,2.57,2.57,0,0,0,1-.19,2.22,2.22,0,0,0,.81-.57l.59.57a2.76,2.76,0,0,1-1,.73A3.51,3.51,0,0,1,54.57,199.11Z"/><path class="cls-3" d="M58.14,199v-4.77H59v1.3l-.09-.32a1.51,1.51,0,0,1,.67-.76,2.38,2.38,0,0,1,1.15-.26v.84h-.2a1.47,1.47,0,0,0-1.09.41,1.66,1.66,0,0,0-.41,1.2V199Z"/><path class="cls-3" d="M63.82,199.09a2.81,2.81,0,0,1-1.35-.32,2.2,2.2,0,0,1-.9-.86,2.68,2.68,0,0,1,0-2.52,2.22,2.22,0,0,1,.86-.86,2.39,2.39,0,0,1,1.23-.31,2.36,2.36,0,0,1,1.22.31,2.15,2.15,0,0,1,.83.86,2.62,2.62,0,0,1,.3,1.29v.12a.71.71,0,0,0,0,.14H61.93v-.62h3.6l-.35.21a1.51,1.51,0,0,0-.19-.82,1.45,1.45,0,0,0-.54-.56,1.61,1.61,0,0,0-.8-.2,1.65,1.65,0,0,0-.81.2,1.51,1.51,0,0,0-.55.57,1.72,1.72,0,0,0-.19.83v.14a1.64,1.64,0,0,0,.22.86,1.55,1.55,0,0,0,.61.58,2.06,2.06,0,0,0,.91.2,2.11,2.11,0,0,0,.77-.14,1.74,1.74,0,0,0,.61-.43l.48.55a2,2,0,0,1-.81.58A2.83,2.83,0,0,1,63.82,199.09Z"/><path class="cls-3" d="M68.46,199.09a2.27,2.27,0,0,1-.93-.18,1.48,1.48,0,0,1-.62-.5,1.3,1.3,0,0,1-.21-.73,1.4,1.4,0,0,1,.18-.7,1.21,1.21,0,0,1,.6-.5,2.74,2.74,0,0,1,1.13-.19h1.51v.62H68.65a1.25,1.25,0,0,0-.87.22.68.68,0,0,0-.23.52.66.66,0,0,0,.28.56,1.26,1.26,0,0,0,.77.21,1.65,1.65,0,0,0,.85-.21,1.26,1.26,0,0,0,.53-.63l.17.59a1.3,1.3,0,0,1-.6.67A2.12,2.12,0,0,1,68.46,199.09ZM70,199v-1l0-.19v-1.72a1.12,1.12,0,0,0-.32-.85,1.35,1.35,0,0,0-1-.3,2.41,2.41,0,0,0-.83.14,2.12,2.12,0,0,0-.68.37l-.36-.65a2.49,2.49,0,0,1,.89-.45,3.49,3.49,0,0,1,1.08-.16,2.16,2.16,0,0,1,1.51.48,1.82,1.82,0,0,1,.53,1.45V199Z"/><path class="cls-3" d="M71.76,195v-.72h3V195Zm2.32,4.11A1.5,1.5,0,0,1,73,198.7a1.47,1.47,0,0,1-.4-1.11v-4.37h.87v4.34a.82.82,0,0,0,.19.59.71.71,0,0,0,.55.21,1,1,0,0,0,.68-.23l.27.63a1.41,1.41,0,0,1-.47.25A2.25,2.25,0,0,1,74.08,199.09Z"/><path class="cls-3" d="M78.12,199.09a2.81,2.81,0,0,1-1.35-.32,2.2,2.2,0,0,1-.9-.86,2.51,2.51,0,0,1-.32-1.26,2.61,2.61,0,0,1,.31-1.26,2.22,2.22,0,0,1,.86-.86,2.39,2.39,0,0,1,1.23-.31,2.33,2.33,0,0,1,1.22.31,2.15,2.15,0,0,1,.83.86,2.62,2.62,0,0,1,.3,1.29v.12s0,.1,0,.14H76.23v-.62h3.61l-.36.21a1.6,1.6,0,0,0-.18-.82,1.55,1.55,0,0,0-.55-.56,1.61,1.61,0,0,0-.8-.2,1.68,1.68,0,0,0-.81.2,1.41,1.41,0,0,0-.54.57,1.62,1.62,0,0,0-.2.83v.14a1.64,1.64,0,0,0,.22.86,1.62,1.62,0,0,0,.61.58,2.18,2.18,0,0,0,1.68.06,1.74,1.74,0,0,0,.61-.43l.48.55a2,2,0,0,1-.81.58A2.83,2.83,0,0,1,78.12,199.09Z"/><path class="cls-3" d="M84.05,199v-6.3h2.46a3.35,3.35,0,0,1,1.41.27,2,2,0,0,1,.9.75,2.14,2.14,0,0,1,.31,1.18,2.08,2.08,0,0,1-.31,1.17,2,2,0,0,1-.9.76,3.35,3.35,0,0,1-1.41.27h-2l.41-.43V199Zm.9-2.24-.41-.45h1.94a2,2,0,0,0,1.31-.37,1.45,1.45,0,0,0,0-2.08,2,2,0,0,0-1.31-.37H84.54l.41-.45Z"/><path class="cls-3" d="M90.15,199v-4.77H91v1.3l-.08-.32a1.45,1.45,0,0,1,.66-.76,2.38,2.38,0,0,1,1.15-.26v.84h-.19a1.48,1.48,0,0,0-1.1.41,1.66,1.66,0,0,0-.41,1.2V199Z"/><path class="cls-3" d="M95.83,199.09a2.81,2.81,0,0,1-1.35-.32,2.33,2.33,0,0,1-.9-.86,2.51,2.51,0,0,1-.32-1.26,2.61,2.61,0,0,1,.31-1.26,2.29,2.29,0,0,1,.86-.86,2.39,2.39,0,0,1,1.23-.31,2.33,2.33,0,0,1,1.22.31,2.09,2.09,0,0,1,.83.86,2.62,2.62,0,0,1,.31,1.29s0,.07,0,.12,0,.1,0,.14H93.94v-.62h3.61l-.35.21a1.71,1.71,0,0,0-.19-.82,1.48,1.48,0,0,0-.55-.56,1.7,1.7,0,0,0-1.6,0,1.37,1.37,0,0,0-.55.57,1.73,1.73,0,0,0-.2.83v.14a1.64,1.64,0,0,0,.22.86,1.58,1.58,0,0,0,.62.58,2,2,0,0,0,.91.2,2.06,2.06,0,0,0,.76-.14,1.65,1.65,0,0,0,.61-.43l.48.55a2,2,0,0,1-.81.58A2.83,2.83,0,0,1,95.83,199.09Z"/><path class="cls-3" d="M98.53,195v-.72h3V195Zm.81,4.05v-5.19a1.5,1.5,0,0,1,.41-1.12,1.54,1.54,0,0,1,1.16-.42,1.9,1.9,0,0,1,.54.07,1.38,1.38,0,0,1,.44.21l-.27.66a1.11,1.11,0,0,0-.3-.17A1.13,1.13,0,0,0,101,193a.76.76,0,0,0-.58.21.92.92,0,0,0-.2.63v.64l0,.4V199Zm3.48-5.68a.57.57,0,0,1-.42-.17.51.51,0,0,1-.16-.39.56.56,0,0,1,.16-.41.61.61,0,0,1,.42-.16.57.57,0,0,1,.42.16.51.51,0,0,1,.17.39.57.57,0,0,1-.17.41A.56.56,0,0,1,102.82,193.35Zm-.43,5.68v-4.77h.86V199Z"/><path class="cls-3" d="M104.9,199v-6.67h.86V199Z"/><path class="cls-3" d="M109.54,199.09a2.81,2.81,0,0,1-1.35-.32,2.2,2.2,0,0,1-.9-.86,2.68,2.68,0,0,1,0-2.52,2.22,2.22,0,0,1,.86-.86,2.58,2.58,0,0,1,2.45,0,2.15,2.15,0,0,1,.83.86,2.62,2.62,0,0,1,.3,1.29v.12s0,.1,0,.14h-4v-.62h3.6l-.35.21a1.51,1.51,0,0,0-.19-.82,1.45,1.45,0,0,0-.54-.56,1.72,1.72,0,0,0-1.61,0,1.51,1.51,0,0,0-.55.57,1.72,1.72,0,0,0-.19.83v.14a1.64,1.64,0,0,0,.22.86,1.55,1.55,0,0,0,.61.58,2.06,2.06,0,0,0,.91.2,2.11,2.11,0,0,0,.77-.14,1.74,1.74,0,0,0,.61-.43l.48.55a2,2,0,0,1-.81.58A2.83,2.83,0,0,1,109.54,199.09Z"/><path class="cls-3" d="M111.85,199.93l3-8.47h.78l-3,8.47Z"/><path class="cls-3" d="M59,209.83v-6.3h2.46a3.35,3.35,0,0,1,1.41.27,2,2,0,0,1,.9.75,2.15,2.15,0,0,1,.32,1.18,2.09,2.09,0,0,1-.32,1.17,2,2,0,0,1-.9.76,3.35,3.35,0,0,1-1.41.27h-2l.4-.43v2.33Zm.9-2.24-.4-.45h1.93a2,2,0,0,0,1.31-.37,1.43,1.43,0,0,0,0-2.08,2,2,0,0,0-1.31-.37H59.52l.4-.45Z"/><path class="cls-3" d="M65.13,209.83v-4.77H66v1.3l-.08-.32a1.47,1.47,0,0,1,.67-.76,2.36,2.36,0,0,1,1.15-.26v.84h-.2a1.49,1.49,0,0,0-1.1.41,1.66,1.66,0,0,0-.4,1.2v2.37Z"/><path class="cls-3" d="M70.72,209.89a2.58,2.58,0,0,1-1.27-.32,2.4,2.4,0,0,1-.89-.87,2.45,2.45,0,0,1-.32-1.25,2.48,2.48,0,0,1,.32-1.26,2.37,2.37,0,0,1,.89-.86,2.52,2.52,0,0,1,1.27-.31,2.58,2.58,0,0,1,1.28.31,2.27,2.27,0,0,1,.88.86,2.46,2.46,0,0,1,.32,1.26,2.51,2.51,0,0,1-.32,1.26,2.27,2.27,0,0,1-.88.86A2.59,2.59,0,0,1,70.72,209.89Zm0-.76a1.76,1.76,0,0,0,.83-.2,1.54,1.54,0,0,0,.57-.59,1.83,1.83,0,0,0,.21-.89,1.8,1.8,0,0,0-.21-.89,1.51,1.51,0,0,0-.57-.58,1.65,1.65,0,0,0-.83-.2,1.57,1.57,0,0,0-.81.2,1.47,1.47,0,0,0-.58.58,1.8,1.8,0,0,0-.22.89,1.83,1.83,0,0,0,.22.89,1.5,1.5,0,0,0,.58.59A1.68,1.68,0,0,0,70.72,209.13Z"/><path class="cls-3" d="M76.48,209.89a2.7,2.7,0,0,1-1.31-.32,2.23,2.23,0,0,1-.89-.86,2.42,2.42,0,0,1-.33-1.26,2.37,2.37,0,0,1,.33-1.26,2.23,2.23,0,0,1,.89-.86,2.7,2.7,0,0,1,1.31-.31,2.41,2.41,0,0,1,1.15.26,1.81,1.81,0,0,1,.79.76l-.66.42a1.35,1.35,0,0,0-.57-.52,1.61,1.61,0,0,0-.72-.16,1.63,1.63,0,0,0-.84.2,1.56,1.56,0,0,0-.59.58,2,2,0,0,0,0,1.78,1.59,1.59,0,0,0,.59.59,1.74,1.74,0,0,0,.84.2,1.61,1.61,0,0,0,.72-.16,1.49,1.49,0,0,0,.57-.52l.66.41a1.87,1.87,0,0,1-.79.76A2.41,2.41,0,0,1,76.48,209.89Z"/><path class="cls-3" d="M81.57,209.89a2.81,2.81,0,0,1-1.35-.32,2.33,2.33,0,0,1-.9-.86,2.51,2.51,0,0,1-.32-1.26,2.56,2.56,0,0,1,.31-1.26,2.29,2.29,0,0,1,.86-.86A2.39,2.39,0,0,1,81.4,205a2.33,2.33,0,0,1,1.22.31,2.12,2.12,0,0,1,.83.85,2.58,2.58,0,0,1,.31,1.3s0,.07,0,.12,0,.1,0,.14H79.68v-.62h3.61l-.35.21a1.71,1.71,0,0,0-.19-.82,1.48,1.48,0,0,0-.55-.56,1.7,1.7,0,0,0-1.6,0,1.37,1.37,0,0,0-.55.57,1.73,1.73,0,0,0-.2.83v.14a1.64,1.64,0,0,0,.22.86,1.58,1.58,0,0,0,.62.58,2,2,0,0,0,.91.2,2.06,2.06,0,0,0,.76-.14,1.65,1.65,0,0,0,.61-.43l.48.55a2,2,0,0,1-.81.58A2.83,2.83,0,0,1,81.57,209.89Z"/><path class="cls-3" d="M86.32,209.89a4.17,4.17,0,0,1-1.13-.16,2.53,2.53,0,0,1-.84-.4l.36-.68a3.37,3.37,0,0,0,.76.35,3.14,3.14,0,0,0,.91.14,1.7,1.7,0,0,0,.87-.17.53.53,0,0,0,.27-.48.45.45,0,0,0-.16-.35,1.32,1.32,0,0,0-.43-.19l-.59-.11c-.22,0-.43-.07-.65-.12a3.15,3.15,0,0,1-.59-.22,1.1,1.1,0,0,1-.44-.39,1.24,1.24,0,0,1-.16-.66,1.2,1.2,0,0,1,.25-.76,1.61,1.61,0,0,1,.68-.5,3.06,3.06,0,0,1,1.06-.17,4.47,4.47,0,0,1,1,.11,2.51,2.51,0,0,1,.79.32l-.37.69a1.87,1.87,0,0,0-.68-.3,2.74,2.74,0,0,0-.7-.08,1.54,1.54,0,0,0-.84.18.54.54,0,0,0-.28.47.45.45,0,0,0,.16.38,1.2,1.2,0,0,0,.44.2,4.08,4.08,0,0,0,.59.12c.21,0,.43.08.64.13a2.41,2.41,0,0,1,.59.21,1.13,1.13,0,0,1,.43.38,1.05,1.05,0,0,1,.17.64,1.15,1.15,0,0,1-.25.75,1.62,1.62,0,0,1-.71.49A3,3,0,0,1,86.32,209.89Z"/><path class="cls-3" d="M90.83,209.89a4.17,4.17,0,0,1-1.13-.16,2.53,2.53,0,0,1-.84-.4l.36-.68A3.28,3.28,0,0,0,90,209a3.21,3.21,0,0,0,.92.14,1.73,1.73,0,0,0,.87-.17.53.53,0,0,0,.27-.48.43.43,0,0,0-.17-.35,1.26,1.26,0,0,0-.42-.19l-.59-.11c-.22,0-.43-.07-.65-.12a2.9,2.9,0,0,1-.59-.22,1.1,1.1,0,0,1-.44-.39,1.24,1.24,0,0,1-.16-.66,1.25,1.25,0,0,1,.24-.76,1.71,1.71,0,0,1,.69-.5A3.06,3.06,0,0,1,91,205a4.47,4.47,0,0,1,1,.11,2.51,2.51,0,0,1,.79.32l-.37.69a1.87,1.87,0,0,0-.68-.3,2.74,2.74,0,0,0-.7-.08,1.54,1.54,0,0,0-.84.18.54.54,0,0,0-.28.47.45.45,0,0,0,.16.38,1.22,1.22,0,0,0,.43.2,4.72,4.72,0,0,0,.59.12c.22,0,.44.08.65.13a2.57,2.57,0,0,1,.59.21,1.07,1.07,0,0,1,.6,1,1.15,1.15,0,0,1-.25.75,1.62,1.62,0,0,1-.71.49A3,3,0,0,1,90.83,209.89Z"/><path class="cls-3" d="M94.4,204.15A.57.57,0,0,1,94,204a.51.51,0,0,1-.16-.39.56.56,0,0,1,.16-.41.61.61,0,0,1,.42-.16.57.57,0,0,1,.42.16.51.51,0,0,1,.17.39.57.57,0,0,1-.17.41A.54.54,0,0,1,94.4,204.15ZM94,209.83v-4.77h.86v4.77Z"/><path class="cls-3" d="M99,205a2.26,2.26,0,0,1,1,.22,1.61,1.61,0,0,1,.7.69,2.46,2.46,0,0,1,.25,1.16v2.74h-.86v-2.64a1.5,1.5,0,0,0-.34-1.05,1.28,1.28,0,0,0-1-.35,1.66,1.66,0,0,0-.8.18,1.23,1.23,0,0,0-.53.53,1.94,1.94,0,0,0-.18.88v2.45h-.87v-4.77h.83v1.29l-.14-.34a1.66,1.66,0,0,1,.73-.73A2.39,2.39,0,0,1,99,205Z"/><path class="cls-3" d="M104.59,209.64a2.56,2.56,0,0,1-1.24-.3,2.16,2.16,0,0,1-.86-.81,2.45,2.45,0,0,1,0-2.42,2.21,2.21,0,0,1,.86-.8,2.67,2.67,0,0,1,1.24-.29,2.46,2.46,0,0,1,1.12.25,1.83,1.83,0,0,1,.8.76,2.92,2.92,0,0,1,0,2.58,2,2,0,0,1-.8.77A2.46,2.46,0,0,1,104.59,209.64Zm.11,2a4.48,4.48,0,0,1-1.27-.18,2.55,2.55,0,0,1-1-.53l.42-.66a2.39,2.39,0,0,0,.82.45,3.1,3.1,0,0,0,1,.17,1.65,1.65,0,0,0,1.24-.4,1.6,1.6,0,0,0,.4-1.2v-1l.09-1,0-.95v-1.31h.81v4.13a2.44,2.44,0,0,1-.63,1.85A2.56,2.56,0,0,1,104.7,211.63Zm0-2.75a1.81,1.81,0,0,0,.85-.2,1.46,1.46,0,0,0,.58-.55,1.53,1.53,0,0,0,.21-.81,1.58,1.58,0,0,0-.21-.81,1.51,1.51,0,0,0-.58-.54,2,2,0,0,0-1.7,0,1.54,1.54,0,0,0-.59.54,1.58,1.58,0,0,0-.21.81,1.53,1.53,0,0,0,.21.81,1.49,1.49,0,0,0,.59.55A1.81,1.81,0,0,0,104.69,208.88Z"/><path class="cls-3" d="M58.46,237h-.9v-6.3H62v.78H58.46Zm-.09-3.33h3.25v.78H58.37Z"/><path class="cls-3" d="M63.06,237v-4.77h.83v1.29l-.08-.32a1.49,1.49,0,0,1,.66-.76,2.38,2.38,0,0,1,1.15-.26V233h-.19a1.48,1.48,0,0,0-1.1.41,1.66,1.66,0,0,0-.41,1.2V237Z"/><path class="cls-3" d="M68.74,237a2.8,2.8,0,0,1-1.35-.31,2.35,2.35,0,0,1-.9-.87,2.51,2.51,0,0,1-.32-1.26,2.61,2.61,0,0,1,.31-1.26,2.36,2.36,0,0,1,.86-.86,2.39,2.39,0,0,1,1.23-.31,2.33,2.33,0,0,1,1.22.31,2.09,2.09,0,0,1,.83.86,2.67,2.67,0,0,1,.31,1.29s0,.08,0,.12,0,.1,0,.14H66.85v-.62h3.61l-.35.21a1.71,1.71,0,0,0-.19-.82,1.55,1.55,0,0,0-.55-.56,1.7,1.7,0,0,0-1.6,0,1.44,1.44,0,0,0-.55.57,1.73,1.73,0,0,0-.2.83v.15a1.63,1.63,0,0,0,.22.85,1.51,1.51,0,0,0,.62.58,2.15,2.15,0,0,0,1.67.06,1.65,1.65,0,0,0,.61-.43l.48.56a2.06,2.06,0,0,1-.81.57A2.83,2.83,0,0,1,68.74,237Z"/><path class="cls-3" d="M74.25,237a2.8,2.8,0,0,1-1.35-.31,2.22,2.22,0,0,1-.9-.87,2.68,2.68,0,0,1,0-2.52,2.29,2.29,0,0,1,.86-.86,2.39,2.39,0,0,1,1.23-.31,2.33,2.33,0,0,1,1.22.31,2.15,2.15,0,0,1,.83.86,2.67,2.67,0,0,1,.3,1.29v.12s0,.1,0,.14H72.36v-.62H76l-.36.21a1.6,1.6,0,0,0-.18-.82,1.64,1.64,0,0,0-.55-.56,1.61,1.61,0,0,0-.8-.2,1.68,1.68,0,0,0-.81.2,1.48,1.48,0,0,0-.54.57,1.62,1.62,0,0,0-.2.83v.15a1.63,1.63,0,0,0,.22.85,1.55,1.55,0,0,0,.61.58,1.93,1.93,0,0,0,.91.2,1.89,1.89,0,0,0,.77-.14,1.74,1.74,0,0,0,.61-.43l.48.56a2.13,2.13,0,0,1-.81.57A2.83,2.83,0,0,1,74.25,237Z"/><path class="cls-3" d="M82,237l-2.78-6.3h1l2.54,5.81h-.55l2.56-5.81h.9L82.89,237Z"/><path class="cls-3" d="M86.67,231.29a.61.61,0,0,1-.42-.16.54.54,0,0,1-.17-.4.57.57,0,0,1,.17-.41.61.61,0,0,1,.42-.16.65.65,0,0,1,.42.16.53.53,0,0,1,.16.39.56.56,0,0,1-.16.41A.57.57,0,0,1,86.67,231.29ZM86.24,237v-4.77h.86V237Z"/><path class="cls-3" d="M90.72,237a2.4,2.4,0,0,1-1.24-.31,2.26,2.26,0,0,1-.86-.85,2.53,2.53,0,0,1-.32-1.28,2.47,2.47,0,0,1,.32-1.27,2.2,2.2,0,0,1,.86-.85,2.4,2.4,0,0,1,1.24-.31,2.23,2.23,0,0,1,1.09.27,2,2,0,0,1,.77.81,2.75,2.75,0,0,1,.3,1.35,2.87,2.87,0,0,1-.29,1.35,2,2,0,0,1-.77.82A2.21,2.21,0,0,1,90.72,237Zm.07-.76a1.57,1.57,0,0,0,.81-.2,1.5,1.5,0,0,0,.58-.59,1.83,1.83,0,0,0,.21-.89,1.8,1.8,0,0,0-.21-.89,1.54,1.54,0,0,0-.58-.58,1.76,1.76,0,0,0-1.63,0,1.69,1.69,0,0,0-.58.58,1.8,1.8,0,0,0-.21.89,1.83,1.83,0,0,0,.21.89,1.64,1.64,0,0,0,.58.59A1.58,1.58,0,0,0,90.79,236.27Zm1.63.71v-1.29l0-1.11-.09-1.11V230.3h.87V237Z"/><path class="cls-3" d="M97,237a2.8,2.8,0,0,1-1.35-.31,2.28,2.28,0,0,1-.9-.87,2.51,2.51,0,0,1-.32-1.26,2.61,2.61,0,0,1,.31-1.26,2.29,2.29,0,0,1,.86-.86,2.39,2.39,0,0,1,1.23-.31,2.33,2.33,0,0,1,1.22.31,2.15,2.15,0,0,1,.83.86,2.67,2.67,0,0,1,.3,1.29v.12s0,.1,0,.14H95.12v-.62h3.61l-.36.21a1.6,1.6,0,0,0-.18-.82,1.64,1.64,0,0,0-.55-.56,1.61,1.61,0,0,0-.8-.2,1.68,1.68,0,0,0-.81.2,1.48,1.48,0,0,0-.54.57,1.62,1.62,0,0,0-.2.83v.15a1.63,1.63,0,0,0,.22.85,1.55,1.55,0,0,0,.61.58,1.93,1.93,0,0,0,.91.2,1.89,1.89,0,0,0,.77-.14,1.74,1.74,0,0,0,.61-.43l.48.56a2.13,2.13,0,0,1-.81.57A2.83,2.83,0,0,1,97,237Z"/><path class="cls-3" d="M102.44,237a2.58,2.58,0,0,1-1.28-.31,2.3,2.3,0,0,1-.88-.87,2.42,2.42,0,0,1-.33-1.26,2.36,2.36,0,0,1,.33-1.25,2.21,2.21,0,0,1,.88-.86,2.53,2.53,0,0,1,1.28-.32,2.57,2.57,0,0,1,1.27.31,2.34,2.34,0,0,1,.88.86,2.64,2.64,0,0,1,0,2.52,2.3,2.3,0,0,1-.88.87A2.57,2.57,0,0,1,102.44,237Zm0-.76a1.61,1.61,0,0,0,.82-.2,1.54,1.54,0,0,0,.57-.59,1.83,1.83,0,0,0,.21-.89,1.8,1.8,0,0,0-.21-.89,1.59,1.59,0,0,0-.57-.58,1.72,1.72,0,0,0-.82-.2,1.69,1.69,0,0,0-.82.2,1.61,1.61,0,0,0-.58.58,1.8,1.8,0,0,0-.22.89,1.83,1.83,0,0,0,.22.89,1.56,1.56,0,0,0,.58.59A1.58,1.58,0,0,0,102.44,236.27Z"/><path class="cls-3" d="M107.47,237a3.75,3.75,0,0,1-1.12-.16,2.69,2.69,0,0,1-.85-.4l.36-.68a3.16,3.16,0,0,0,.76.35,3.21,3.21,0,0,0,.92.14,1.63,1.63,0,0,0,.87-.17.54.54,0,0,0,.26-.47.42.42,0,0,0-.16-.36,1.14,1.14,0,0,0-.43-.18,4.08,4.08,0,0,0-.59-.12l-.65-.12a2.76,2.76,0,0,1-.59-.22,1.08,1.08,0,0,1-.43-.39,1.15,1.15,0,0,1-.16-.66,1.2,1.2,0,0,1,.24-.75,1.44,1.44,0,0,1,.69-.5,2.83,2.83,0,0,1,1.06-.18,4.54,4.54,0,0,1,.95.11,2.58,2.58,0,0,1,.78.32l-.37.69a1.82,1.82,0,0,0-.67-.3,3.34,3.34,0,0,0-.7-.08,1.6,1.6,0,0,0-.85.18.57.57,0,0,0-.28.48.45.45,0,0,0,.17.37,1.15,1.15,0,0,0,.43.2,4.38,4.38,0,0,0,.59.12l.65.13a2.75,2.75,0,0,1,.59.21,1.21,1.21,0,0,1,.43.38,1.14,1.14,0,0,1,.17.65,1.15,1.15,0,0,1-.26.74,1.51,1.51,0,0,1-.71.49A3,3,0,0,1,107.47,237Z"/><path class="cls-3" d="M60.91,263.85H60v-6.3h4.45v.78H60.91Zm-.09-3.32h3.25v.77H60.82Z"/><path class="cls-3" d="M65.51,263.85v-4.77h.83v1.29l-.08-.32a1.46,1.46,0,0,1,.67-.76,2.36,2.36,0,0,1,1.15-.26v.84h-.2a1.49,1.49,0,0,0-1.1.41,1.66,1.66,0,0,0-.4,1.2v2.38Z"/><path class="cls-3" d="M71.19,263.9a2.73,2.73,0,0,1-1.34-.31,2.22,2.22,0,0,1-.9-.87,2.36,2.36,0,0,1-.32-1.26,2.5,2.5,0,0,1,.31-1.26,2.26,2.26,0,0,1,.85-.86A2.55,2.55,0,0,1,71,259a2.33,2.33,0,0,1,1.22.31,2.11,2.11,0,0,1,.84.86,2.67,2.67,0,0,1,.3,1.29.53.53,0,0,1,0,.12.61.61,0,0,1,0,.14H69.3v-.62h3.61l-.35.22a1.58,1.58,0,0,0-.19-.82,1.48,1.48,0,0,0-.54-.57,1.72,1.72,0,0,0-1.61,0,1.51,1.51,0,0,0-.55.57,1.73,1.73,0,0,0-.2.83v.15a1.71,1.71,0,0,0,.22.85,1.57,1.57,0,0,0,.62.58A2.18,2.18,0,0,0,72,263a1.83,1.83,0,0,0,.61-.43l.47.56a2,2,0,0,1-.8.57A2.67,2.67,0,0,1,71.19,263.9Z"/><path class="cls-3" d="M76.7,263.9a2.8,2.8,0,0,1-1.35-.31,2.35,2.35,0,0,1-.9-.87,2.46,2.46,0,0,1-.32-1.26,2.51,2.51,0,0,1,.32-1.26,2.26,2.26,0,0,1,.85-.86,2.5,2.5,0,0,1,1.23-.31,2.33,2.33,0,0,1,1.22.31,2.09,2.09,0,0,1,.83.86,2.57,2.57,0,0,1,.31,1.29.53.53,0,0,1,0,.12c0,.05,0,.1,0,.14H74.81v-.62h3.61l-.35.22a1.68,1.68,0,0,0-.19-.82,1.44,1.44,0,0,0-.55-.57,1.7,1.7,0,0,0-1.6,0,1.44,1.44,0,0,0-.55.57,1.73,1.73,0,0,0-.2.83v.15a1.61,1.61,0,0,0,.22.85,1.51,1.51,0,0,0,.62.58,1.88,1.88,0,0,0,.91.2,1.92,1.92,0,0,0,.77-.14,1.7,1.7,0,0,0,.6-.43l.48.56a2.09,2.09,0,0,1-.8.57A2.7,2.7,0,0,1,76.7,263.9Z"/><path class="cls-3" d="M83.88,263.85v-5.52H81.72v-.78h5.21v.78H84.77v5.52Z"/><path class="cls-3" d="M89.34,263.9a2.58,2.58,0,0,1-1.28-.31,2.3,2.3,0,0,1-.88-.87,2.42,2.42,0,0,1-.33-1.26,2.36,2.36,0,0,1,.33-1.25,2.27,2.27,0,0,1,.88-.86,2.56,2.56,0,0,1,1.28-.32,2.65,2.65,0,0,1,1.27.31,2.27,2.27,0,0,1,.88.86,2.51,2.51,0,0,1,.32,1.26,2.46,2.46,0,0,1-.32,1.26,2.23,2.23,0,0,1-.88.87A2.54,2.54,0,0,1,89.34,263.9Zm0-.76a1.61,1.61,0,0,0,.82-.2,1.54,1.54,0,0,0,.57-.59,1.83,1.83,0,0,0,.21-.89,1.74,1.74,0,0,0-.21-.88,1.45,1.45,0,0,0-.57-.58,1.61,1.61,0,0,0-.82-.21,1.59,1.59,0,0,0-.82.21,1.54,1.54,0,0,0-.58.58,1.74,1.74,0,0,0-.21.88,1.83,1.83,0,0,0,.21.89,1.64,1.64,0,0,0,.58.59A1.58,1.58,0,0,0,89.34,263.14Z"/><path class="cls-3" d="M95.05,263.9a2.54,2.54,0,0,1-1.27-.31,2.32,2.32,0,0,1-.89-.87,2.51,2.51,0,0,1-.32-1.26,2.45,2.45,0,0,1,.32-1.25,2.34,2.34,0,0,1,.88-.86,2.59,2.59,0,0,1,1.28-.32,2.62,2.62,0,0,1,1.27.31,2.37,2.37,0,0,1,.89.86,2.51,2.51,0,0,1,.32,1.26,2.46,2.46,0,0,1-.32,1.26,2.32,2.32,0,0,1-.89.87A2.52,2.52,0,0,1,95.05,263.9Zm0-.76a1.58,1.58,0,0,0,.82-.2,1.5,1.5,0,0,0,.58-.59,2,2,0,0,0,.2-.89,1.84,1.84,0,0,0-.2-.88,1.41,1.41,0,0,0-.58-.58,1.71,1.71,0,0,0-1.64,0,1.45,1.45,0,0,0-.57.58,1.64,1.64,0,0,0-.22.88,1.73,1.73,0,0,0,.22.89,1.54,1.54,0,0,0,.57.59A1.58,1.58,0,0,0,95.05,263.14Z"/><path class="cls-3" d="M98.72,263.85v-6.68h.87v6.68Z"/><path class="cls-3" d="M102.6,263.9a3.86,3.86,0,0,1-1.13-.16,2.53,2.53,0,0,1-.84-.4l.36-.68a3.16,3.16,0,0,0,.76.35,2.83,2.83,0,0,0,.91.14,1.58,1.58,0,0,0,.87-.17.53.53,0,0,0,.27-.47.47.47,0,0,0-.16-.36,1.14,1.14,0,0,0-.43-.18c-.18-.05-.37-.08-.59-.12s-.43-.07-.65-.12a2.76,2.76,0,0,1-.59-.22,1,1,0,0,1-.43-.39,1.15,1.15,0,0,1-.17-.66,1.17,1.17,0,0,1,.25-.75,1.44,1.44,0,0,1,.69-.5,2.74,2.74,0,0,1,1-.18,4.47,4.47,0,0,1,1,.11,2.65,2.65,0,0,1,.79.32l-.37.69a1.9,1.9,0,0,0-.67-.3,3.43,3.43,0,0,0-.71-.08,1.57,1.57,0,0,0-.84.18.55.55,0,0,0-.28.48.43.43,0,0,0,.17.37,1,1,0,0,0,.43.2,4.08,4.08,0,0,0,.59.12l.64.13a2.41,2.41,0,0,1,.59.21,1.16,1.16,0,0,1,.44.38,1.14,1.14,0,0,1,.16.65,1.12,1.12,0,0,1-.25.74,1.65,1.65,0,0,1-.71.5A3.26,3.26,0,0,1,102.6,263.9Z"/><path class="cls-3" d="M56,274.65h-.9v-6.3h4.44v.78H56ZM56,271.33H59.2v.77H56Z"/><path class="cls-3" d="M62.59,274.7a2.52,2.52,0,0,1-1.27-.31,2.26,2.26,0,0,1-.89-.87,2.42,2.42,0,0,1-.33-1.26,2.36,2.36,0,0,1,.33-1.25,2.27,2.27,0,0,1,.88-.86,2.74,2.74,0,0,1,2.55,0,2.27,2.27,0,0,1,.88.86,2.41,2.41,0,0,1,.32,1.26,2.36,2.36,0,0,1-.32,1.26,2.23,2.23,0,0,1-.88.87A2.54,2.54,0,0,1,62.59,274.7Zm0-.76a1.61,1.61,0,0,0,.82-.2,1.41,1.41,0,0,0,.57-.59,1.83,1.83,0,0,0,.21-.89,1.74,1.74,0,0,0-.21-.88,1.33,1.33,0,0,0-.57-.58,1.61,1.61,0,0,0-.82-.21,1.59,1.59,0,0,0-.82.21,1.54,1.54,0,0,0-.58.58,1.74,1.74,0,0,0-.21.88,1.83,1.83,0,0,0,.21.89,1.64,1.64,0,0,0,.58.59A1.58,1.58,0,0,0,62.59,273.94Z"/><path class="cls-3" d="M66.26,274.65v-4.77h.83v1.29l-.08-.32a1.49,1.49,0,0,1,.66-.76,2.41,2.41,0,0,1,1.15-.26v.84h-.19a1.48,1.48,0,0,0-1.1.41,1.66,1.66,0,0,0-.41,1.2v2.38Z"/><path class="cls-3" d="M74.33,274.72A4.14,4.14,0,0,1,73,274.5a2.92,2.92,0,0,1-1-.57l.33-.71a3,3,0,0,0,.92.53,3.26,3.26,0,0,0,1.16.2,2.69,2.69,0,0,0,.89-.12,1.1,1.1,0,0,0,.51-.35.81.81,0,0,0,.16-.5.69.69,0,0,0-.21-.52,1.54,1.54,0,0,0-.55-.32,6,6,0,0,0-.74-.21l-.82-.21a3.82,3.82,0,0,1-.74-.31,1.59,1.59,0,0,1-.55-.51,1.48,1.48,0,0,1-.21-.83,1.65,1.65,0,0,1,.26-.89,1.87,1.87,0,0,1,.79-.66,3.35,3.35,0,0,1,1.37-.25,4.09,4.09,0,0,1,1.09.15,2.82,2.82,0,0,1,.93.41l-.3.72a2.84,2.84,0,0,0-.85-.39,3.37,3.37,0,0,0-.87-.12,2.42,2.42,0,0,0-.88.14,1.12,1.12,0,0,0-.5.35A.9.9,0,0,0,73,270a.69.69,0,0,0,.21.53,1.54,1.54,0,0,0,.55.32l.74.21.81.21a3.67,3.67,0,0,1,.75.3,1.59,1.59,0,0,1,.55.51,1.52,1.52,0,0,1,.2.81,1.54,1.54,0,0,1-.26.88,1.72,1.72,0,0,1-.8.66A3.27,3.27,0,0,1,74.33,274.72Z"/><path class="cls-3" d="M80.08,274.7a2.76,2.76,0,0,1-1.34-.31,2.22,2.22,0,0,1-.9-.87,2.46,2.46,0,0,1-.32-1.26,2.5,2.5,0,0,1,.31-1.26,2.29,2.29,0,0,1,.86-.86,2.58,2.58,0,0,1,2.45,0A2.15,2.15,0,0,1,82,271a2.67,2.67,0,0,1,.3,1.29v.12s0,.1,0,.14H78.19v-.62H81.8l-.35.21a1.55,1.55,0,0,0-.73-1.38,1.72,1.72,0,0,0-1.61,0,1.58,1.58,0,0,0-.55.57,1.73,1.73,0,0,0-.2.83v.15a1.61,1.61,0,0,0,.23.85,1.48,1.48,0,0,0,.61.58,2.18,2.18,0,0,0,1.68.06,1.83,1.83,0,0,0,.61-.43l.48.56a2.13,2.13,0,0,1-.81.57A2.67,2.67,0,0,1,80.08,274.7Z"/><path class="cls-3" d="M83.47,274.65V268h.86v6.68Z"/><path class="cls-3" d="M85.29,270.59v-.71h3v.71Zm.82,4.06v-5.2a1.55,1.55,0,0,1,.4-1.12,1.58,1.58,0,0,1,1.17-.42,2.42,2.42,0,0,1,.54.07,1.33,1.33,0,0,1,.43.21l-.26.66a1,1,0,0,0-.31-.17,1.34,1.34,0,0,0-.35-.05.75.75,0,0,0-.58.21.89.89,0,0,0-.2.62v.64l0,.4v4.15Z"/><path class="cls-3" d="M92.6,274.65h-.9v-6.3h.9Zm3.7-2.81H92.51v-.78H96.3Zm-.08-3.49h.9v6.3h-.9Z"/><path class="cls-3" d="M101,274.7a2.8,2.8,0,0,1-1.35-.31,2.35,2.35,0,0,1-.9-.87,2.46,2.46,0,0,1-.32-1.26,2.61,2.61,0,0,1,.31-1.26,2.36,2.36,0,0,1,.86-.86,2.39,2.39,0,0,1,1.23-.31,2.33,2.33,0,0,1,1.22.31,2.09,2.09,0,0,1,.83.86,2.57,2.57,0,0,1,.31,1.29.53.53,0,0,1,0,.12s0,.1,0,.14H99.12v-.62h3.61l-.35.21a1.67,1.67,0,0,0-.19-.81,1.51,1.51,0,0,0-.55-.57,1.7,1.7,0,0,0-1.6,0,1.44,1.44,0,0,0-.55.57,1.73,1.73,0,0,0-.2.83v.15a1.61,1.61,0,0,0,.22.85,1.51,1.51,0,0,0,.62.58,1.88,1.88,0,0,0,.91.2,2,2,0,0,0,.77-.14,1.7,1.7,0,0,0,.6-.43l.48.56a2.06,2.06,0,0,1-.81.57A2.62,2.62,0,0,1,101,274.7Z"/><path class="cls-3" d="M104.39,274.65V268h.87v6.68Z"/><path class="cls-3" d="M106.9,276.39v-6.51h.83v1.28l0,1.11.09,1.11v3Zm2.53-1.69a2.22,2.22,0,0,1-1.08-.27,2,2,0,0,1-.78-.82,2.75,2.75,0,0,1-.3-1.35,2.87,2.87,0,0,1,.29-1.35,1.83,1.83,0,0,1,.77-.81,2.24,2.24,0,0,1,1.1-.27,2.38,2.38,0,0,1,1.24.31,2.26,2.26,0,0,1,.86.85,2.49,2.49,0,0,1,.31,1.27,2.53,2.53,0,0,1-.31,1.28,2.2,2.2,0,0,1-.86.85A2.38,2.38,0,0,1,109.43,274.7Zm-.07-.76a1.58,1.58,0,0,0,.82-.2,1.5,1.5,0,0,0,.58-.59,1.83,1.83,0,0,0,.21-.89,1.74,1.74,0,0,0-.21-.88,1.41,1.41,0,0,0-.58-.58,1.69,1.69,0,0,0-1.63,0,1.41,1.41,0,0,0-.58.58,1.74,1.74,0,0,0-.21.88,1.83,1.83,0,0,0,.21.89,1.5,1.5,0,0,0,.58.59A1.57,1.57,0,0,0,109.36,273.94Z"/><path class="cls-3" d="M67.12,301.86a4.24,4.24,0,0,1-1.38-.22,2.86,2.86,0,0,1-1-.57l.33-.7a3,3,0,0,0,.92.52,3.26,3.26,0,0,0,1.16.2A2.73,2.73,0,0,0,68,301a1,1,0,0,0,.5-.35.82.82,0,0,0,.17-.5.69.69,0,0,0-.21-.52,1.73,1.73,0,0,0-.55-.32,6.73,6.73,0,0,0-.75-.21l-.81-.21a4.21,4.21,0,0,1-.75-.31,1.65,1.65,0,0,1-.54-.51,1.47,1.47,0,0,1-.21-.82,1.66,1.66,0,0,1,.26-.9,1.81,1.81,0,0,1,.79-.66,3.35,3.35,0,0,1,1.36-.24,4,4,0,0,1,1.09.14,3.22,3.22,0,0,1,.94.41l-.3.72a2.84,2.84,0,0,0-.85-.39,3.45,3.45,0,0,0-.88-.12,2.4,2.4,0,0,0-.87.14,1,1,0,0,0-.5.36.81.81,0,0,0-.16.5.69.69,0,0,0,.21.53,1.73,1.73,0,0,0,.55.32l.75.21.81.21a4.19,4.19,0,0,1,.75.3,1.65,1.65,0,0,1,.54.51,1.43,1.43,0,0,1,.21.81,1.68,1.68,0,0,1-.26.89,1.79,1.79,0,0,1-.81.65A3.23,3.23,0,0,1,67.12,301.86Z"/><path class="cls-3" d="M72.87,301.84a2.73,2.73,0,0,1-1.34-.31,2.31,2.31,0,0,1-.91-.87,2.45,2.45,0,0,1-.31-1.26,2.5,2.5,0,0,1,.31-1.26,2.26,2.26,0,0,1,.85-.86A2.5,2.5,0,0,1,72.7,297a2.33,2.33,0,0,1,1.22.31,2.17,2.17,0,0,1,.84.86,2.67,2.67,0,0,1,.3,1.29.49.49,0,0,1,0,.12.61.61,0,0,1,0,.14H71v-.62h3.61l-.35.22a1.68,1.68,0,0,0-.19-.82,1.44,1.44,0,0,0-.55-.57,1.58,1.58,0,0,0-.8-.2,1.61,1.61,0,0,0-.8.2,1.44,1.44,0,0,0-.55.57,1.73,1.73,0,0,0-.2.83v.15a1.71,1.71,0,0,0,.22.85,1.51,1.51,0,0,0,.62.58,2.07,2.07,0,0,0,1.68.06,1.58,1.58,0,0,0,.6-.43l.48.56a2,2,0,0,1-.8.57A2.7,2.7,0,0,1,72.87,301.84Z"/><path class="cls-3" d="M76.25,301.79v-6.68h.87v6.68Z"/><path class="cls-3" d="M78.08,297.73V297h3v.71Zm.81,4.06v-5.2a1.44,1.44,0,0,1,1.58-1.54,2.33,2.33,0,0,1,.53.07,1.38,1.38,0,0,1,.44.21l-.26.66a1,1,0,0,0-.31-.17,1.36,1.36,0,0,0-.36-.05.74.74,0,0,0-.57.21.84.84,0,0,0-.2.62v5.19Z"/><path class="cls-3" d="M85.74,301.79v-5.52H83.58v-.78h5.21v.78H86.63v5.52Z"/><path class="cls-3" d="M91.28,301.84a2.8,2.8,0,0,1-1.35-.31,2.22,2.22,0,0,1-.9-.87,2.46,2.46,0,0,1-.32-1.26,2.5,2.5,0,0,1,.31-1.26,2.29,2.29,0,0,1,.86-.86,2.5,2.5,0,0,1,1.23-.31,2.36,2.36,0,0,1,1.22.31,2.15,2.15,0,0,1,.83.86,2.67,2.67,0,0,1,.3,1.29v.12a.71.71,0,0,0,0,.14H89.39v-.62H93l-.35.22a1.55,1.55,0,0,0-.73-1.39,1.61,1.61,0,0,0-.8-.2,1.65,1.65,0,0,0-.81.2,1.58,1.58,0,0,0-.55.57,1.72,1.72,0,0,0-.19.83v.15a1.61,1.61,0,0,0,.22.85,1.48,1.48,0,0,0,.61.58,2.07,2.07,0,0,0,1.68.06,1.62,1.62,0,0,0,.61-.43l.48.56a2.13,2.13,0,0,1-.81.57A2.65,2.65,0,0,1,91.28,301.84Z"/><path class="cls-3" d="M96,301.84a3.77,3.77,0,0,1-1.13-.16,2.53,2.53,0,0,1-.84-.4l.36-.68a3.09,3.09,0,0,0,1.67.49,1.63,1.63,0,0,0,.87-.17.52.52,0,0,0,.26-.47.41.41,0,0,0-.16-.35,1,1,0,0,0-.42-.19c-.18-.05-.38-.08-.59-.12s-.44-.07-.65-.12a2.25,2.25,0,0,1-.6-.22,1.08,1.08,0,0,1-.43-.39,1.15,1.15,0,0,1-.16-.66,1.22,1.22,0,0,1,.24-.75,1.44,1.44,0,0,1,.69-.5A2.83,2.83,0,0,1,96.2,297a3.93,3.93,0,0,1,1,.12,2.51,2.51,0,0,1,.79.31l-.37.69a2.05,2.05,0,0,0-.68-.3,3.34,3.34,0,0,0-.7-.08,1.6,1.6,0,0,0-.85.18.59.59,0,0,0-.28.48.45.45,0,0,0,.17.37,1.07,1.07,0,0,0,.43.2,4.72,4.72,0,0,0,.59.12l.65.13a2.57,2.57,0,0,1,.59.21,1.07,1.07,0,0,1,.6,1,1.21,1.21,0,0,1-.25.75,1.7,1.7,0,0,1-.71.49A3.3,3.3,0,0,1,96,301.84Z"/><path class="cls-3" d="M98.48,297.73V297h3v.71Zm2.33,4.11a1.53,1.53,0,0,1-1.12-.39,1.47,1.47,0,0,1-.4-1.1V296h.87v4.34a.85.85,0,0,0,.19.6.77.77,0,0,0,.56.2,1,1,0,0,0,.67-.22l.27.62a1.25,1.25,0,0,1-.47.25A2.18,2.18,0,0,1,100.81,301.84Z"/><path class="cls-3" d="M65.65,336.44v-6.52h.83v1.29l0,1.11.09,1.11v3Zm2.53-1.69a2.1,2.1,0,0,1-1.08-.28,2,2,0,0,1-.79-.81,3.29,3.29,0,0,1,0-2.7,1.83,1.83,0,0,1,.77-.81,2.24,2.24,0,0,1,1.1-.27,2.5,2.5,0,0,1,1.24.3,2.29,2.29,0,0,1,.86.86,2.47,2.47,0,0,1,.31,1.27,2.55,2.55,0,0,1-.31,1.28,2.26,2.26,0,0,1-.86.85A2.4,2.4,0,0,1,68.18,334.75Zm-.07-.76a1.59,1.59,0,0,0,.82-.21,1.41,1.41,0,0,0,.58-.58,1.86,1.86,0,0,0,.21-.89,1.8,1.8,0,0,0-.21-.89,1.47,1.47,0,0,0-.58-.58,1.76,1.76,0,0,0-1.63,0,1.47,1.47,0,0,0-.58.58,1.8,1.8,0,0,0-.21.89,1.86,1.86,0,0,0,.21.89,1.41,1.41,0,0,0,.58.58A1.58,1.58,0,0,0,68.11,334Z"/><path class="cls-3" d="M73.83,334.75a2.58,2.58,0,0,1-1.27-.32,2.4,2.4,0,0,1-.89-.87,2.45,2.45,0,0,1-.32-1.25,2.48,2.48,0,0,1,.32-1.26,2.37,2.37,0,0,1,.89-.86,2.52,2.52,0,0,1,1.27-.31,2.58,2.58,0,0,1,1.28.31,2.27,2.27,0,0,1,.88.86,2.46,2.46,0,0,1,.32,1.26,2.51,2.51,0,0,1-.32,1.26,2.34,2.34,0,0,1-.88.86A2.59,2.59,0,0,1,73.83,334.75Zm0-.76a1.65,1.65,0,0,0,.83-.21,1.45,1.45,0,0,0,.57-.58,1.86,1.86,0,0,0,.21-.89,1.8,1.8,0,0,0-.21-.89,1.51,1.51,0,0,0-.57-.58,1.65,1.65,0,0,0-.83-.2,1.61,1.61,0,0,0-.82.2,1.51,1.51,0,0,0-.57.58,1.7,1.7,0,0,0-.22.89,1.75,1.75,0,0,0,.22.89,1.45,1.45,0,0,0,.57.58A1.61,1.61,0,0,0,73.83,334Z"/><path class="cls-3" d="M79.48,334.75a2.4,2.4,0,0,1-1.24-.31,2.26,2.26,0,0,1-.86-.85,2.56,2.56,0,0,1-.32-1.28,2.47,2.47,0,0,1,.32-1.27,2.29,2.29,0,0,1,.86-.86,2.5,2.5,0,0,1,1.24-.3,2.23,2.23,0,0,1,1.09.27,2,2,0,0,1,.77.81,2.75,2.75,0,0,1,.3,1.35,2.87,2.87,0,0,1-.29,1.35,1.89,1.89,0,0,1-.77.81A2.12,2.12,0,0,1,79.48,334.75Zm.07-.76a1.58,1.58,0,0,0,.81-.21,1.41,1.41,0,0,0,.58-.58,1.86,1.86,0,0,0,.21-.89,1.8,1.8,0,0,0-.21-.89,1.47,1.47,0,0,0-.58-.58,1.76,1.76,0,0,0-1.63,0,1.61,1.61,0,0,0-.58.58,1.8,1.8,0,0,0-.21.89,1.86,1.86,0,0,0,.21.89,1.54,1.54,0,0,0,.58.58A1.59,1.59,0,0,0,79.55,334Zm1.63.7v-1.28l0-1.11-.09-1.11V328H82v6.67Z"/><path class="cls-3" d="M85.72,334.75a2.66,2.66,0,0,1-1.3-.32,2.3,2.3,0,0,1-.89-.86,2.42,2.42,0,0,1-.33-1.26,2.37,2.37,0,0,1,.33-1.26,2.23,2.23,0,0,1,.89-.86,2.66,2.66,0,0,1,1.3-.31,2.42,2.42,0,0,1,1.16.26,1.81,1.81,0,0,1,.79.76l-.66.42a1.48,1.48,0,0,0-.57-.52,1.66,1.66,0,0,0-.73-.16,1.62,1.62,0,0,0-.83.2,1.56,1.56,0,0,0-.59.58,2,2,0,0,0,0,1.78,1.49,1.49,0,0,0,.59.58,1.63,1.63,0,0,0,.83.21,1.47,1.47,0,0,0,1.3-.68l.66.41a1.93,1.93,0,0,1-.79.76A2.42,2.42,0,0,1,85.72,334.75Z"/><path class="cls-3" d="M90.18,334.75a2.2,2.2,0,0,1-.93-.18,1.42,1.42,0,0,1-.62-.5,1.33,1.33,0,0,1-.22-.73,1.41,1.41,0,0,1,.19-.7,1.21,1.21,0,0,1,.6-.5,2.74,2.74,0,0,1,1.13-.19h1.51v.62H90.37a1.26,1.26,0,0,0-.88.22.67.67,0,0,0-.22.52.66.66,0,0,0,.28.56,1.24,1.24,0,0,0,.77.21,1.65,1.65,0,0,0,.85-.21,1.31,1.31,0,0,0,.53-.63l.17.59a1.34,1.34,0,0,1-.6.67A2.12,2.12,0,0,1,90.18,334.75Zm1.56-.06v-1l0-.19v-1.72a1.12,1.12,0,0,0-.32-.85,1.35,1.35,0,0,0-1-.3,2.62,2.62,0,0,0-.83.13,2.11,2.11,0,0,0-.68.38l-.36-.65a2.41,2.41,0,0,1,.89-.45,3.49,3.49,0,0,1,1.08-.16,2.17,2.17,0,0,1,1.51.48,1.82,1.82,0,0,1,.53,1.45v2.88Z"/><path class="cls-3" d="M95.53,334.75a4.23,4.23,0,0,1-1.13-.16,2.74,2.74,0,0,1-.84-.4l.36-.68a3.59,3.59,0,0,0,.76.35,3.16,3.16,0,0,0,.92.14,1.66,1.66,0,0,0,.86-.17.53.53,0,0,0,.27-.48.42.42,0,0,0-.16-.35,1.14,1.14,0,0,0-.43-.19c-.18,0-.37-.08-.59-.11a5,5,0,0,1-.65-.13,2.75,2.75,0,0,1-.59-.21,1.08,1.08,0,0,1-.43-.39,1.15,1.15,0,0,1-.17-.66,1.26,1.26,0,0,1,.25-.76,1.59,1.59,0,0,1,.69-.5,3,3,0,0,1,1-.17,4.4,4.4,0,0,1,1,.11,2.41,2.41,0,0,1,.79.32l-.37.68a2,2,0,0,0-.67-.29,2.87,2.87,0,0,0-.71-.08,1.57,1.57,0,0,0-.84.18.54.54,0,0,0-.28.47.43.43,0,0,0,.17.38,1.32,1.32,0,0,0,.43.2,4.08,4.08,0,0,0,.59.12c.21,0,.43.08.65.13a2.48,2.48,0,0,1,.58.21,1.08,1.08,0,0,1,.44.38,1.1,1.1,0,0,1,.16.64,1.15,1.15,0,0,1-.25.75,1.56,1.56,0,0,1-.71.49A3,3,0,0,1,95.53,334.75Z"/><path class="cls-3" d="M98,330.64v-.72h3v.72Zm2.32,4.11a1.5,1.5,0,0,1-1.11-.39,1.47,1.47,0,0,1-.4-1.11v-4.37h.86v4.34a.83.83,0,0,0,.2.59.71.71,0,0,0,.55.21,1,1,0,0,0,.68-.23l.27.62a1.31,1.31,0,0,1-.48.26A2.12,2.12,0,0,1,100.31,334.75Z"/><path class="cls-3" d="M69.52,360.56v-6.3h.9v6.3Z"/><path class="cls-3" d="M74.73,355.75a2.23,2.23,0,0,1,1,.22,1.61,1.61,0,0,1,.7.69,2.35,2.35,0,0,1,.25,1.16v2.74h-.86v-2.64a1.46,1.46,0,0,0-.34-1.05,1.26,1.26,0,0,0-1-.35,1.71,1.71,0,0,0-.8.18,1.29,1.29,0,0,0-.53.53,1.94,1.94,0,0,0-.18.88v2.45h-.86v-4.77H73v1.29l-.13-.34a1.64,1.64,0,0,1,.72-.73A2.39,2.39,0,0,1,74.73,355.75Z"/><path class="cls-3" d="M77.63,356.51v-.72h3v.72Zm.81,4.05v-5.19A1.44,1.44,0,0,1,80,353.83a1.88,1.88,0,0,1,.53.07,1.06,1.06,0,0,1,.44.21l-.26.66a1.17,1.17,0,0,0-.31-.17,1,1,0,0,0-.36-.06.74.74,0,0,0-.57.21.87.87,0,0,0-.2.63v5.18Z"/><path class="cls-3" d="M83.45,360.62a2.59,2.59,0,0,1-1.28-.32,2.4,2.4,0,0,1-.89-.87,2.45,2.45,0,0,1-.32-1.25,2.48,2.48,0,0,1,.32-1.26,2.37,2.37,0,0,1,.89-.86,2.53,2.53,0,0,1,1.28-.31,2.57,2.57,0,0,1,1.27.31,2.27,2.27,0,0,1,.88.86,2.46,2.46,0,0,1,.32,1.26,2.51,2.51,0,0,1-.32,1.26,2.34,2.34,0,0,1-.88.86A2.58,2.58,0,0,1,83.45,360.62Zm0-.76a1.61,1.61,0,0,0,.82-.21,1.45,1.45,0,0,0,.57-.58,1.86,1.86,0,0,0,.21-.89,1.8,1.8,0,0,0-.21-.89,1.51,1.51,0,0,0-.57-.58,1.61,1.61,0,0,0-.82-.2,1.58,1.58,0,0,0-.82.2,1.54,1.54,0,0,0-.58.58,1.8,1.8,0,0,0-.22.89,1.86,1.86,0,0,0,.22.89,1.47,1.47,0,0,0,.58.58A1.59,1.59,0,0,0,83.45,359.86Z"/><path class="cls-3" d="M90.93,360.62a2.27,2.27,0,0,1-.93-.18,1.48,1.48,0,0,1-.62-.5,1.32,1.32,0,0,1-.21-.73,1.4,1.4,0,0,1,.18-.7A1.29,1.29,0,0,1,90,358a2.71,2.71,0,0,1,1.13-.19H92.6v.62H91.12a1.25,1.25,0,0,0-.87.22.7.7,0,0,0,0,1.08,1.29,1.29,0,0,0,.78.21,1.7,1.7,0,0,0,.85-.21,1.24,1.24,0,0,0,.52-.63l.17.59a1.3,1.3,0,0,1-.6.67A2.12,2.12,0,0,1,90.93,360.62Zm1.57-.06v-1l0-.19v-1.72a1.08,1.08,0,0,0-.32-.85,1.34,1.34,0,0,0-.95-.3,2.34,2.34,0,0,0-.83.14,2.07,2.07,0,0,0-.69.37l-.36-.65a2.49,2.49,0,0,1,.89-.45,3.53,3.53,0,0,1,1.08-.16,2.2,2.2,0,0,1,1.52.48,1.85,1.85,0,0,1,.53,1.45v2.88Z"/><path class="cls-3" d="M94.24,356.51v-.72h3v.72Zm2.32,4.11a1.53,1.53,0,0,1-1.12-.39,1.5,1.5,0,0,1-.39-1.11v-4.37h.86v4.34a.82.82,0,0,0,.19.59.73.73,0,0,0,.56.21,1,1,0,0,0,.67-.23l.27.62a1.27,1.27,0,0,1-.47.26A2.12,2.12,0,0,1,96.56,360.62Z"/><path class="cls-3" d="M58.78,370.58h3.67v.78H57.88v-6.3h4.45v.79H58.78Zm-.08-2.8h3.24v.77H58.7Z"/><path class="cls-3" d="M69.75,366.55a2.22,2.22,0,0,1,1,.22,1.64,1.64,0,0,1,.69.69,2.47,2.47,0,0,1,.24,1.16v2.74h-.86v-2.64a1.55,1.55,0,0,0-.32-1.05,1.2,1.2,0,0,0-.91-.35,1.55,1.55,0,0,0-.76.18,1.28,1.28,0,0,0-.5.53,2.09,2.09,0,0,0-.17.88v2.45h-.87v-2.64a1.5,1.5,0,0,0-.32-1.05,1.17,1.17,0,0,0-.91-.35,1.54,1.54,0,0,0-.75.18,1.28,1.28,0,0,0-.5.53,1.94,1.94,0,0,0-.18.88v2.45h-.87v-4.77h.83v1.27l-.13-.32a1.62,1.62,0,0,1,.69-.73,2.25,2.25,0,0,1,1.09-.26,2,2,0,0,1,1.18.34,1.61,1.61,0,0,1,.65,1l-.35-.15a1.77,1.77,0,0,1,.75-.88A2.37,2.37,0,0,1,69.75,366.55Z"/><path class="cls-3" d="M75.42,371.42a2.74,2.74,0,0,1-1.34-.32,2.26,2.26,0,0,1-.9-.86,2.41,2.41,0,0,1-.32-1.26,2.45,2.45,0,0,1,.31-1.26,2.2,2.2,0,0,1,.85-.86,2.39,2.39,0,0,1,1.23-.31,2.42,2.42,0,0,1,1.22.3,2.24,2.24,0,0,1,.84.86,2.68,2.68,0,0,1,.3,1.3.57.57,0,0,1,0,.12.66.66,0,0,1,0,.14H73.53v-.62h3.61l-.35.21a1.6,1.6,0,0,0-.19-.82,1.45,1.45,0,0,0-.54-.56,1.65,1.65,0,0,0-.81-.2,1.61,1.61,0,0,0-.8.2,1.44,1.44,0,0,0-.55.57,1.73,1.73,0,0,0-.2.83V369a1.68,1.68,0,0,0,.22.85,1.51,1.51,0,0,0,.62.58,1.91,1.91,0,0,0,.91.21,2.11,2.11,0,0,0,.77-.14,1.7,1.7,0,0,0,.6-.43l.48.55a2,2,0,0,1-.8.58A2.85,2.85,0,0,1,75.42,371.42Z"/><path class="cls-3" d="M78.81,371.36v-4.77h.82v1.3l-.08-.32a1.47,1.47,0,0,1,.67-.76,2.36,2.36,0,0,1,1.15-.26v.84h-.2a1.46,1.46,0,0,0-1.1.41,1.66,1.66,0,0,0-.4,1.2v2.37Z"/><path class="cls-3" d="M84.34,371.17a2.56,2.56,0,0,1-1.24-.3,2.16,2.16,0,0,1-.86-.81,2.45,2.45,0,0,1,0-2.42,2.21,2.21,0,0,1,.86-.8,2.55,2.55,0,0,1,1.24-.29,2.46,2.46,0,0,1,1.12.25,1.83,1.83,0,0,1,.8.76,2.92,2.92,0,0,1,0,2.58,2,2,0,0,1-.8.77A2.46,2.46,0,0,1,84.34,371.17Zm.11,2a4.55,4.55,0,0,1-1.28-.18,2.57,2.57,0,0,1-1-.53l.41-.66a2.59,2.59,0,0,0,.82.45,3.21,3.21,0,0,0,1,.17,1.65,1.65,0,0,0,1.24-.4,1.6,1.6,0,0,0,.4-1.2v-1l.09-.95-.05-1v-1.31h.82v4.13a2.44,2.44,0,0,1-.63,1.85A2.56,2.56,0,0,1,84.45,373.16Zm0-2.75a1.74,1.74,0,0,0,.84-.2,1.4,1.4,0,0,0,.58-.55,1.45,1.45,0,0,0,.22-.81,1.49,1.49,0,0,0-.22-.81,1.44,1.44,0,0,0-.58-.54,1.74,1.74,0,0,0-.84-.2,1.81,1.81,0,0,0-.85.2A1.47,1.47,0,0,0,83,368a1.58,1.58,0,0,0-.21.81,1.53,1.53,0,0,0,.21.81,1.42,1.42,0,0,0,.59.55A1.81,1.81,0,0,0,84.44,370.41Z"/><path class="cls-3" d="M90.69,371.42a2.77,2.77,0,0,1-1.34-.32,2.26,2.26,0,0,1-.9-.86,2.51,2.51,0,0,1-.32-1.26,2.45,2.45,0,0,1,.31-1.26,2.26,2.26,0,0,1,.85-.86,2.63,2.63,0,0,1,2.46,0,2.28,2.28,0,0,1,.83.86,2.68,2.68,0,0,1,.3,1.3v.12c0,.05,0,.09,0,.14H88.8v-.62h3.61l-.35.21a1.6,1.6,0,0,0-.19-.82,1.45,1.45,0,0,0-.54-.56,1.72,1.72,0,0,0-1.61,0,1.44,1.44,0,0,0-.55.57,1.73,1.73,0,0,0-.2.83V369a1.59,1.59,0,0,0,.23.85,1.42,1.42,0,0,0,.61.58,1.94,1.94,0,0,0,.91.21,2.11,2.11,0,0,0,.77-.14,1.83,1.83,0,0,0,.61-.43l.47.55a2,2,0,0,1-.8.58A2.85,2.85,0,0,1,90.69,371.42Z"/><path class="cls-3" d="M96.62,366.55a2.31,2.31,0,0,1,1,.22,1.64,1.64,0,0,1,.69.69,2.35,2.35,0,0,1,.25,1.16v2.74h-.86v-2.64a1.46,1.46,0,0,0-.34-1.05,1.26,1.26,0,0,0-1-.35,1.71,1.71,0,0,0-.8.18,1.21,1.21,0,0,0-.52.53,1.82,1.82,0,0,0-.19.88v2.45h-.86v-4.77h.83v1.29l-.14-.34a1.69,1.69,0,0,1,.72-.73A2.39,2.39,0,0,1,96.62,366.55Z"/><path class="cls-3" d="M102.29,371.42a2.64,2.64,0,0,1-1.3-.32A2.3,2.3,0,0,1,99.77,369a2.36,2.36,0,0,1,.32-1.26,2.33,2.33,0,0,1,.9-.86,2.63,2.63,0,0,1,1.3-.31,2.52,2.52,0,0,1,1.15.25,1.89,1.89,0,0,1,.79.77l-.66.42a1.35,1.35,0,0,0-.57-.52,1.62,1.62,0,0,0-.72-.17,1.69,1.69,0,0,0-.84.21,1.47,1.47,0,0,0-.58.58,1.91,1.91,0,0,0,0,1.78,1.41,1.41,0,0,0,.58.58,1.69,1.69,0,0,0,.84.21,1.61,1.61,0,0,0,.72-.16,1.49,1.49,0,0,0,.57-.52l.66.41a1.93,1.93,0,0,1-.79.76A2.41,2.41,0,0,1,102.29,371.42Z"/><path class="cls-3" d="M105.46,373.16a1.87,1.87,0,0,1-.66-.11,1.44,1.44,0,0,1-.56-.33l.37-.65a1.25,1.25,0,0,0,.39.27,1.22,1.22,0,0,0,.46.09.84.84,0,0,0,.53-.17,1.51,1.51,0,0,0,.38-.57l.3-.66.09-.11,1.87-4.33h.85l-2.32,5.25a2.53,2.53,0,0,1-.46.79,1.53,1.53,0,0,1-.56.41A1.87,1.87,0,0,1,105.46,373.16Zm1.14-1.64-2.18-4.93h.9l1.85,4.25Z"/><path class="cls-3" d="M66.12,393.54a3.71,3.71,0,0,1-1.34-.24,3.16,3.16,0,0,1-1.06-.68,3,3,0,0,1-.7-1A3.28,3.28,0,0,1,63,389a3,3,0,0,1,.7-1,3.16,3.16,0,0,1,1.06-.68,3.83,3.83,0,0,1,2.67,0,3,3,0,0,1,1.06.67,2.82,2.82,0,0,1,.7,1,3.43,3.43,0,0,1,0,2.57,2.86,2.86,0,0,1-.7,1,3.14,3.14,0,0,1-1.06.67A3.61,3.61,0,0,1,66.12,393.54Zm0-.8a2.59,2.59,0,0,0,1-.18,2.25,2.25,0,0,0,.77-.51,2.54,2.54,0,0,0,.52-2.69,2.43,2.43,0,0,0-.52-.77,2.25,2.25,0,0,0-.77-.51,2.73,2.73,0,0,0-2,0,2.35,2.35,0,0,0-.77.51,2.14,2.14,0,0,0-.52.77,2.5,2.5,0,0,0,0,1.91,2.18,2.18,0,0,0,.52.78,2.35,2.35,0,0,0,.77.51A2.58,2.58,0,0,0,66.11,392.74Zm2.07,2a2.35,2.35,0,0,1-.6-.07,2.61,2.61,0,0,1-.58-.25,3.51,3.51,0,0,1-.59-.43,7.93,7.93,0,0,1-.67-.65l1-.25a4.54,4.54,0,0,0,.51.54,2.09,2.09,0,0,0,.49.31,1.45,1.45,0,0,0,1.63-.45l.43.52A2,2,0,0,1,68.18,394.78Z"/><path class="cls-3" d="M72.72,393.52a2.45,2.45,0,0,1-1.08-.22,1.6,1.6,0,0,1-.72-.69,2.41,2.41,0,0,1-.25-1.17V388.7h.86v2.65a1.46,1.46,0,0,0,.34,1,1.26,1.26,0,0,0,.95.35,1.5,1.5,0,0,0,.78-.19,1.21,1.21,0,0,0,.51-.54,1.84,1.84,0,0,0,.18-.85V388.7h.87v4.77h-.82v-1.29l.13.34a1.62,1.62,0,0,1-.7.74A2,2,0,0,1,72.72,393.52Z"/><path class="cls-3" d="M78.93,393.52a2.8,2.8,0,0,1-1.35-.31,2.35,2.35,0,0,1-.9-.87,2.46,2.46,0,0,1-.32-1.26,2.61,2.61,0,0,1,.31-1.26,2.36,2.36,0,0,1,.86-.86,2.5,2.5,0,0,1,1.23-.31A2.43,2.43,0,0,1,80,389a2.15,2.15,0,0,1,.83.86,2.67,2.67,0,0,1,.3,1.29v.13c0,.05,0,.09,0,.13H77v-.62h3.61l-.35.22a1.68,1.68,0,0,0-.19-.82,1.41,1.41,0,0,0-.55-.56,1.63,1.63,0,0,0-1.6,0,1.35,1.35,0,0,0-.55.56,1.76,1.76,0,0,0-.2.83v.15a1.61,1.61,0,0,0,.22.85,1.51,1.51,0,0,0,.62.58,1.87,1.87,0,0,0,.9.21,1.89,1.89,0,0,0,.77-.15,1.54,1.54,0,0,0,.61-.43l.48.56a2.27,2.27,0,0,1-.81.58A2.83,2.83,0,0,1,78.93,393.52Z"/><path class="cls-3" d="M83.68,393.52a3.81,3.81,0,0,1-1.13-.16,2.75,2.75,0,0,1-.84-.39l.36-.69a2.75,2.75,0,0,0,.75.35,2.91,2.91,0,0,0,.92.15,1.59,1.59,0,0,0,.87-.18.53.53,0,0,0,.27-.47.41.41,0,0,0-.17-.35,1,1,0,0,0-.42-.19l-.59-.11-.65-.13a2.18,2.18,0,0,1-.59-.22,1.16,1.16,0,0,1-.44-.38,1.29,1.29,0,0,1-.16-.66,1.2,1.2,0,0,1,.25-.76,1.53,1.53,0,0,1,.68-.5,2.83,2.83,0,0,1,1.06-.18,3.93,3.93,0,0,1,1,.12,2.29,2.29,0,0,1,.79.32l-.37.68a2.28,2.28,0,0,0-.68-.3,3.27,3.27,0,0,0-.7-.08,1.45,1.45,0,0,0-.84.19.54.54,0,0,0-.28.47.43.43,0,0,0,.16.37,1.2,1.2,0,0,0,.44.21l.59.12c.21,0,.43.07.64.12a2.41,2.41,0,0,1,.59.21,1.13,1.13,0,0,1,.43.38,1.07,1.07,0,0,1,.17.65,1.15,1.15,0,0,1-.25.75,1.7,1.7,0,0,1-.71.49A3.26,3.26,0,0,1,83.68,393.52Z"/><path class="cls-3" d="M86.14,389.41v-.71h3v.71Zm2.32,4.11a1.58,1.58,0,0,1-1.12-.38A1.5,1.5,0,0,1,87,392v-4.38h.86V392a.85.85,0,0,0,.19.6.77.77,0,0,0,.56.2,1,1,0,0,0,.67-.22l.27.62a1.25,1.25,0,0,1-.47.25A1.79,1.79,0,0,1,88.46,393.52Z"/><path class="cls-3" d="M91,387.78a.57.57,0,0,1-.42-.16.56.56,0,0,1,0-.8.57.57,0,0,1,.42-.16.6.6,0,0,1,.42.15.57.57,0,0,1-.42,1Zm-.43,5.69V388.7h.86v4.77Z"/><path class="cls-3" d="M95.1,393.52a2.54,2.54,0,0,1-1.27-.31,2.32,2.32,0,0,1-.89-.87,2.41,2.41,0,0,1-.32-1.26,2.35,2.35,0,0,1,.32-1.25,2.42,2.42,0,0,1,.88-.86,2.56,2.56,0,0,1,1.28-.32,2.65,2.65,0,0,1,1.27.31,2.37,2.37,0,0,1,.89.86,2.5,2.5,0,0,1,.31,1.26,2.45,2.45,0,0,1-.31,1.26,2.32,2.32,0,0,1-.89.87A2.54,2.54,0,0,1,95.1,393.52Zm0-.75a1.59,1.59,0,0,0,.82-.21,1.35,1.35,0,0,0,.57-.59,1.8,1.8,0,0,0,.21-.89,1.76,1.76,0,0,0-.21-.88,1.39,1.39,0,0,0-.57-.58,1.71,1.71,0,0,0-1.64,0,1.61,1.61,0,0,0-.58.58,1.76,1.76,0,0,0-.21.88,1.8,1.8,0,0,0,.21.89,1.57,1.57,0,0,0,.58.59A1.59,1.59,0,0,0,95.1,392.77Z"/><path class="cls-3" d="M101.32,388.65a2.26,2.26,0,0,1,1,.23,1.64,1.64,0,0,1,.7.68,2.52,2.52,0,0,1,.25,1.16v2.75h-.86v-2.65a1.46,1.46,0,0,0-.34-1,1.28,1.28,0,0,0-.95-.35,1.66,1.66,0,0,0-.8.18,1.18,1.18,0,0,0-.53.53,1.87,1.87,0,0,0-.18.87v2.46h-.87V388.7h.83V390l-.14-.35a1.64,1.64,0,0,1,.73-.72A2.28,2.28,0,0,1,101.32,388.65Z"/><path class="cls-3" d="M63.5,404.34a3.58,3.58,0,0,1-1.33-.24,3,3,0,0,1-1.05-.67,3.15,3.15,0,0,1-.7-1,3.45,3.45,0,0,1,0-2.58,3.15,3.15,0,0,1,.7-1,3,3,0,0,1,1.06-.67,3.58,3.58,0,0,1,1.33-.24,3.67,3.67,0,0,1,1.34.24,2.79,2.79,0,0,1,1.05.74l-.58.56a2.5,2.5,0,0,0-.82-.56,2.56,2.56,0,0,0-1-.18,2.63,2.63,0,0,0-1,.18,2.37,2.37,0,0,0-.79.5,2.28,2.28,0,0,0-.52.77,2.7,2.7,0,0,0,0,1.94,2.28,2.28,0,0,0,1.31,1.27,2.63,2.63,0,0,0,1,.18,2.56,2.56,0,0,0,1-.18,2.41,2.41,0,0,0,.82-.58l.58.57a2.79,2.79,0,0,1-1.05.74A3.49,3.49,0,0,1,63.5,404.34Z"/><path class="cls-3" d="M68.37,404.32a2.28,2.28,0,0,1-.94-.18,1.38,1.38,0,0,1-.61-.5,1.2,1.2,0,0,1-.22-.72,1.28,1.28,0,0,1,.79-1.21,2.88,2.88,0,0,1,1.13-.19H70v.62H68.56a1.32,1.32,0,0,0-.88.22.7.7,0,0,0-.22.52.68.68,0,0,0,.28.57,1.24,1.24,0,0,0,.77.21,1.58,1.58,0,0,0,.85-.22,1.23,1.23,0,0,0,.53-.63l.17.59a1.38,1.38,0,0,1-.61.68A2.19,2.19,0,0,1,68.37,404.32Zm1.56-.05v-1l0-.19v-1.72a1.13,1.13,0,0,0-.32-.85,1.38,1.38,0,0,0-1-.3,2.63,2.63,0,0,0-.83.14,2.1,2.1,0,0,0-.68.37l-.36-.64a2.63,2.63,0,0,1,.88-.46,3.94,3.94,0,0,1,1.09-.16,2.17,2.17,0,0,1,1.51.48,1.88,1.88,0,0,1,.53,1.46v2.88Z"/><path class="cls-3" d="M71.67,400.21v-.71h3v.71ZM74,404.32a1.58,1.58,0,0,1-1.12-.38,1.5,1.5,0,0,1-.39-1.11v-4.38h.86v4.34a.85.85,0,0,0,.2.6.74.74,0,0,0,.55.2,1,1,0,0,0,.68-.22L75,404a1.18,1.18,0,0,1-.47.25A1.79,1.79,0,0,1,74,404.32Z"/><path class="cls-3" d="M77.47,404.32a2.27,2.27,0,0,1-.93-.18,1.38,1.38,0,0,1-.61-.5,1.2,1.2,0,0,1-.22-.72,1.38,1.38,0,0,1,.18-.7,1.36,1.36,0,0,1,.61-.51,2.88,2.88,0,0,1,1.13-.19h1.51v.62H77.66a1.3,1.3,0,0,0-.87.22.71.71,0,0,0-.23.52.71.71,0,0,0,.28.57,1.29,1.29,0,0,0,.78.21,1.58,1.58,0,0,0,.85-.22,1.17,1.17,0,0,0,.52-.63l.18.59a1.38,1.38,0,0,1-.61.68A2.23,2.23,0,0,1,77.47,404.32Zm1.57-.05v-1l-.05-.19v-1.72a1.09,1.09,0,0,0-.32-.85,1.34,1.34,0,0,0-1-.3,2.58,2.58,0,0,0-.83.14,2.27,2.27,0,0,0-.69.37l-.36-.64a2.78,2.78,0,0,1,.89-.46,3.94,3.94,0,0,1,1.09-.16,2.19,2.19,0,0,1,1.51.48,1.88,1.88,0,0,1,.53,1.46v2.88Z"/><path class="cls-3" d="M81.46,404.27v-6.68h.86v6.68Z"/><path class="cls-3" d="M86,404.32a2.58,2.58,0,0,1-1.28-.31,2.3,2.3,0,0,1-.88-.87,2.42,2.42,0,0,1-.33-1.26,2.36,2.36,0,0,1,.33-1.25,2.21,2.21,0,0,1,.88-.86,2.53,2.53,0,0,1,1.28-.32,2.68,2.68,0,0,1,1.27.31,2.34,2.34,0,0,1,.88.86,2.51,2.51,0,0,1,.32,1.26,2.46,2.46,0,0,1-.32,1.26,2.3,2.3,0,0,1-.88.87A2.57,2.57,0,0,1,86,404.32Zm0-.75a1.61,1.61,0,0,0,.82-.21,1.47,1.47,0,0,0,.57-.59,1.83,1.83,0,0,0,.21-.89,1.76,1.76,0,0,0-.21-.88,1.45,1.45,0,0,0-.57-.58,1.61,1.61,0,0,0-.82-.21,1.59,1.59,0,0,0-.82.21,1.47,1.47,0,0,0-.58.58,1.77,1.77,0,0,0-.22.88,1.83,1.83,0,0,0,.22.89,1.5,1.5,0,0,0,.58.59A1.59,1.59,0,0,0,86,403.57Z"/><path class="cls-3" d="M91.67,404.07a2.61,2.61,0,0,1-1.24-.29,2.26,2.26,0,0,1-.86-.82,2.29,2.29,0,0,1,.86-3.22,2.61,2.61,0,0,1,1.24-.29,2.55,2.55,0,0,1,1.11.25,1.91,1.91,0,0,1,.81.76,2.95,2.95,0,0,1,0,2.59,1.91,1.91,0,0,1-.81.76A2.3,2.3,0,0,1,91.67,404.07Zm.11,2a4.22,4.22,0,0,1-1.28-.19,2.56,2.56,0,0,1-1-.52l.41-.67a2.5,2.5,0,0,0,.82.46,3.11,3.11,0,0,0,1,.16,1.71,1.71,0,0,0,1.24-.39,1.68,1.68,0,0,0,.4-1.21v-1l.09-.94,0-1v-1.3h.82v4.12a2.42,2.42,0,0,1-.63,1.85A2.58,2.58,0,0,1,91.78,406.07Zm0-2.76a1.76,1.76,0,0,0,.84-.19,1.54,1.54,0,0,0,.58-.55,1.58,1.58,0,0,0,.21-.81,1.53,1.53,0,0,0-.21-.81,1.4,1.4,0,0,0-.58-.55,2,2,0,0,0-1.69,0,1.42,1.42,0,0,0-.59.55,1.53,1.53,0,0,0-.21.81,1.47,1.47,0,0,0,.8,1.36A1.78,1.78,0,0,0,91.77,403.31Z"/><path class="cls-3" d="M97.9,404.32a2.44,2.44,0,0,1-1.07-.22,1.6,1.6,0,0,1-.72-.69,2.41,2.41,0,0,1-.26-1.17V399.5h.87v2.64a1.51,1.51,0,0,0,.33,1.06,1.28,1.28,0,0,0,1,.35,1.57,1.57,0,0,0,.79-.19,1.21,1.21,0,0,0,.51-.54,1.84,1.84,0,0,0,.18-.85V399.5h.86v4.77h-.82V403l.14.34a1.67,1.67,0,0,1-.7.74A2.08,2.08,0,0,1,97.9,404.32Z"/><path class="cls-3" d="M104.11,404.32a2.76,2.76,0,0,1-1.34-.31,2.22,2.22,0,0,1-.9-.87,2.46,2.46,0,0,1-.32-1.26,2.5,2.5,0,0,1,.31-1.26,2.34,2.34,0,0,1,.85-.86,2.55,2.55,0,0,1,1.23-.31,2.47,2.47,0,0,1,1.23.31,2.15,2.15,0,0,1,.83.86,2.67,2.67,0,0,1,.3,1.29V402s0,.09,0,.13h-4.06v-.62h3.61l-.35.22a1.58,1.58,0,0,0-.19-.82,1.39,1.39,0,0,0-.54-.56,1.65,1.65,0,0,0-1.61,0,1.41,1.41,0,0,0-.55.56,1.76,1.76,0,0,0-.2.83v.15a1.71,1.71,0,0,0,.22.85,1.57,1.57,0,0,0,.62.58,2.07,2.07,0,0,0,1.68.06,1.7,1.7,0,0,0,.61-.43l.47.56a2.15,2.15,0,0,1-.8.58A2.85,2.85,0,0,1,104.11,404.32Z"/><path class="cls-3" d="M69.26,430.48a3.71,3.71,0,0,1-1.34-.24,3.16,3.16,0,0,1-1.06-.68,3,3,0,0,1-.7-1,3.28,3.28,0,0,1,0-2.56,3,3,0,0,1,.7-1,3.16,3.16,0,0,1,1.06-.68,3.67,3.67,0,0,1,1.34-.24,3.58,3.58,0,0,1,1.33.24,3.18,3.18,0,0,1,1.07.67,3,3,0,0,1,.69,1,3.43,3.43,0,0,1,0,2.57,3,3,0,0,1-.69,1,3.21,3.21,0,0,1-1.07.68A3.79,3.79,0,0,1,69.26,430.48Zm0-.8a2.59,2.59,0,0,0,1-.18A2.25,2.25,0,0,0,71,429a2.35,2.35,0,0,0,.7-1.73,2.49,2.49,0,0,0-.18-1,2.43,2.43,0,0,0-.52-.77,2.25,2.25,0,0,0-.77-.51,2.73,2.73,0,0,0-2,0,2.35,2.35,0,0,0-.77.51,2.14,2.14,0,0,0-.52.77,2.49,2.49,0,0,0-.19,1,2.57,2.57,0,0,0,.19,1,2.23,2.23,0,0,0,.52.77,2.35,2.35,0,0,0,.77.51A2.58,2.58,0,0,0,69.25,429.68Zm2.07,2.05a2.35,2.35,0,0,1-.6-.08,2.55,2.55,0,0,1-.58-.24,3.6,3.6,0,0,1-.59-.44,7.87,7.87,0,0,1-.67-.65l1-.25a4.54,4.54,0,0,0,.51.54,1.59,1.59,0,0,0,.49.31,1.45,1.45,0,0,0,1.63-.45l.43.52A2,2,0,0,1,71.32,431.73Z"/><path class="cls-3" d="M75.86,430.47a2.45,2.45,0,0,1-1.08-.23,1.6,1.6,0,0,1-.72-.69,2.4,2.4,0,0,1-.25-1.16v-2.75h.86v2.65a1.43,1.43,0,0,0,.34,1,1.26,1.26,0,0,0,.95.35,1.61,1.61,0,0,0,.78-.18,1.33,1.33,0,0,0,.51-.54,1.91,1.91,0,0,0,.18-.86v-2.47h.87v4.77h-.82v-1.29l.13.35a1.65,1.65,0,0,1-.7.73A2.05,2.05,0,0,1,75.86,430.47Z"/><path class="cls-3" d="M80.38,424.72a.57.57,0,0,1-.42-.16.54.54,0,0,1-.17-.39.55.55,0,0,1,.17-.41.57.57,0,0,1,.42-.16.6.6,0,0,1,.42.16.5.5,0,0,1,.16.39.56.56,0,0,1-.16.41A.57.57,0,0,1,80.38,424.72ZM80,430.41v-4.77h.86v4.77Z"/><path class="cls-3" d="M82,430.41v-.56l3.06-3.8.17.3H82.05v-.71h3.87v.57L82.86,430l-.2-.3H86v.71Z"/><path class="cls-3" d="M86.69,430.41v-.56l3-3.8.18.3H86.74v-.71h3.87v.57L87.55,430l-.2-.3h3.33v.71Z"/><path class="cls-3" d="M93.87,430.47a2.81,2.81,0,0,1-1.35-.32,2.33,2.33,0,0,1-.9-.86A2.51,2.51,0,0,1,91.3,428a2.56,2.56,0,0,1,.31-1.26,2.22,2.22,0,0,1,.86-.86,2.39,2.39,0,0,1,1.23-.31,2.42,2.42,0,0,1,1.22.3,2.21,2.21,0,0,1,.83.86,2.67,2.67,0,0,1,.3,1.29v.13c0,.05,0,.09,0,.13H92v-.62h3.61l-.35.22a1.68,1.68,0,0,0-.19-.82,1.48,1.48,0,0,0-.55-.56,1.7,1.7,0,0,0-1.6,0,1.32,1.32,0,0,0-.55.57,1.62,1.62,0,0,0-.2.83v.14a1.61,1.61,0,0,0,.22.85,1.51,1.51,0,0,0,.62.58,1.87,1.87,0,0,0,.9.21,2.07,2.07,0,0,0,.77-.14,1.57,1.57,0,0,0,.61-.44l.48.56a2.15,2.15,0,0,1-.81.58A2.83,2.83,0,0,1,93.87,430.47Z"/><path class="cls-3" d="M98.62,430.47a3.81,3.81,0,0,1-1.13-.17,2.53,2.53,0,0,1-.84-.39l.36-.69a2.61,2.61,0,0,0,.75.35,2.91,2.91,0,0,0,.92.15,1.73,1.73,0,0,0,.87-.17.55.55,0,0,0,.27-.48.41.41,0,0,0-.17-.35,1.09,1.09,0,0,0-.42-.19l-.59-.11c-.22,0-.43-.08-.65-.13a2.41,2.41,0,0,1-.59-.21,1.06,1.06,0,0,1-.6-1.05,1.25,1.25,0,0,1,.24-.76,1.63,1.63,0,0,1,.69-.5,2.84,2.84,0,0,1,1.06-.17,3.91,3.91,0,0,1,.95.11,2.29,2.29,0,0,1,.79.32l-.37.68a2,2,0,0,0-.68-.29,2.74,2.74,0,0,0-.7-.09,1.53,1.53,0,0,0-.84.19.54.54,0,0,0-.28.47.43.43,0,0,0,.16.37,1.23,1.23,0,0,0,.43.21,4.72,4.72,0,0,0,.59.12c.22,0,.44.07.65.12a2.9,2.9,0,0,1,.59.22,1.11,1.11,0,0,1,.43.37,1.28,1.28,0,0,1-.08,1.4,1.7,1.7,0,0,1-.71.49A3,3,0,0,1,98.62,430.47Z"/><rect class="cls-4" x="36.33" y="121.75" width="785.93" height="32.18"/><rect class="cls-4" x="128.11" y="121.75" width="198.86" height="321.76"/><rect class="cls-4" x="326.97" y="121.75" width="185.14" height="321.76"/><rect class="cls-4" x="512.11" y="121.75" width="147.96" height="321.76"/><rect class="cls-4" x="36.33" y="153.93" width="785.93" height="32.18"/><rect class="cls-4" x="36.33" y="186.1" width="785.93" height="32.18"/><rect class="cls-4" x="36.33" y="218.28" width="785.93" height="32.18"/><rect class="cls-4" x="36.33" y="250.45" width="785.93" height="32.18"/><rect class="cls-4" x="36.33" y="282.63" width="785.93" height="32.18"/><rect class="cls-4" x="36.33" y="314.8" width="785.93" height="32.18"/><rect class="cls-4" x="36.33" y="346.98" width="785.93" height="32.18"/><rect class="cls-4" x="36.33" y="379.16" width="785.93" height="32.18"/><rect class="cls-4" x="36.33" y="411.33" width="785.93" height="32.18"/><circle class="cls-5" cx="211.13" cy="297.67" r="10.35"/><polyline class="cls-6" points="205.1 295.83 206.55 300.12 217.15 295.22"/><circle class="cls-5" cx="211.13" cy="266.89" r="10.35"/><polyline class="cls-6" points="205.1 265.05 206.55 269.34 217.15 264.44"/><circle class="cls-5" cx="211.13" cy="234.71" r="10.35"/><polyline class="cls-6" points="205.1 232.87 206.55 237.16 217.15 232.26"/><circle class="cls-5" cx="211.13" cy="201.67" r="10.35"/><polyline class="cls-6" points="205.1 199.83 206.55 204.12 217.15 199.22"/><circle class="cls-5" cx="211.13" cy="170.36" r="10.35"/><polyline class="cls-6" points="205.1 168.52 206.55 172.81 217.15 167.91"/><circle class="cls-5" cx="211.13" cy="138.19" r="10.35"/><polyline class="cls-6" points="205.1 136.34 206.55 140.64 217.15 135.74"/><circle class="cls-5" cx="211.13" cy="330.54" r="10.35"/><polyline class="cls-6" points="205.1 328.7 206.55 332.99 217.15 328.09"/><circle class="cls-5" cx="211.13" cy="363.42" r="10.35"/><polyline class="cls-6" points="205.1 361.58 206.55 365.87 217.15 360.97"/><circle class="cls-5" cx="419.54" cy="297.67" r="10.35"/><polyline class="cls-6" points="413.51 295.83 414.96 300.12 425.57 295.22"/><circle class="cls-5" cx="419.54" cy="266.89" r="10.35"/><polyline class="cls-6" points="413.51 265.05 414.96 269.34 425.57 264.44"/><circle class="cls-5" cx="419.54" cy="234.71" r="10.35"/><polyline class="cls-6" points="413.51 232.87 414.96 237.16 425.57 232.26"/><circle class="cls-5" cx="419.54" cy="201.67" r="10.35"/><polyline class="cls-6" points="413.51 199.83 414.96 204.12 425.57 199.22"/><circle class="cls-5" cx="419.54" cy="170.36" r="10.35"/><polyline class="cls-6" points="413.51 168.52 414.96 172.81 425.57 167.91"/><circle class="cls-5" cx="419.54" cy="138.19" r="10.35"/><polyline class="cls-6" points="413.51 136.34 414.96 140.64 425.57 135.74"/><circle class="cls-5" cx="419.54" cy="330.54" r="10.35"/><polyline class="cls-6" points="413.51 328.7 414.96 332.99 425.57 328.09"/><circle class="cls-5" cx="419.54" cy="363.42" r="10.35"/><polyline class="cls-6" points="413.51 361.58 414.96 365.87 425.57 360.97"/><circle class="cls-5" cx="419.54" cy="395.24" r="10.35"/><polyline class="cls-6" points="413.51 393.4 414.96 397.69 425.57 392.79"/><circle class="cls-5" cx="419.54" cy="427.42" r="10.35"/><polyline class="cls-6" points="413.51 425.58 414.96 429.87 425.57 424.97"/><circle class="cls-5" cx="586.09" cy="297.67" r="10.35"/><polyline class="cls-6" points="580.07 295.83 581.51 300.12 592.12 295.22"/><circle class="cls-5" cx="586.09" cy="266.89" r="10.35"/><polyline class="cls-6" points="580.07 265.05 581.51 269.34 592.12 264.44"/><circle class="cls-5" cx="586.09" cy="234.71" r="10.35"/><polyline class="cls-6" points="580.07 232.87 581.51 237.16 592.12 232.26"/><circle class="cls-5" cx="586.09" cy="201.67" r="10.35"/><polyline class="cls-6" points="580.07 199.83 581.51 204.12 592.12 199.22"/><circle class="cls-5" cx="586.09" cy="170.36" r="10.35"/><polyline class="cls-6" points="580.07 168.52 581.51 172.81 592.12 167.91"/><circle class="cls-5" cx="586.09" cy="138.19" r="10.35"/><polyline class="cls-6" points="580.07 136.34 581.51 140.64 592.12 135.74"/><circle class="cls-5" cx="586.09" cy="330.54" r="10.35"/><polyline class="cls-6" points="580.07 328.7 581.51 332.99 592.12 328.09"/><circle class="cls-5" cx="586.09" cy="363.42" r="10.35"/><polyline class="cls-6" points="580.07 361.58 581.51 365.87 592.12 360.97"/><circle class="cls-5" cx="586.09" cy="395.24" r="10.35"/><polyline class="cls-6" points="580.07 393.4 581.51 397.69 592.12 392.79"/><circle class="cls-5" cx="586.09" cy="427.42" r="10.35"/><polyline class="cls-6" points="580.07 425.58 581.51 429.87 592.12 424.97"/></g></g></svg>