<svg xmlns="http://www.w3.org/2000/svg" viewBox="0 0 858.42 494.65"><defs><style>.cls-1{fill:#feeed1;opacity:0.75;}.cls-2{fill:#67a1c6;}.cls-3{fill:#1d1d1b;}.cls-4,.cls-6{fill:none;stroke-miterlimit:10;}.cls-4{stroke:#1d1d1b;}.cls-5{fill:#fabb20;}.cls-6{stroke:#000;stroke-width:2px;}</style></defs><g id="Layer_2" data-name="Layer 2"><g id="Layer_1-2" data-name="Layer 1"><rect class="cls-1" width="858.42" height="494.65" rx="30.58"/><rect class="cls-2" x="36.24" y="121.75" width="91.78" height="321.76"/><path class="cls-3" d="M53.29,140.19v-.61l2.57-2.47a3.45,3.45,0,0,0,.51-.58,1.55,1.55,0,0,0,.22-.45,1.56,1.56,0,0,0,.06-.41.93.93,0,0,0-.34-.77,1.59,1.59,0,0,0-1-.28,2.38,2.38,0,0,0-.91.17,1.76,1.76,0,0,0-.7.52l-.61-.54a2.31,2.31,0,0,1,1-.7,3.47,3.47,0,0,1,1.34-.25,2.83,2.83,0,0,1,1.14.21,1.72,1.72,0,0,1,.76.61,1.7,1.7,0,0,1,.26.94,2.47,2.47,0,0,1-.08.6,2,2,0,0,1-.31.63,5.36,5.36,0,0,1-.64.75l-2.29,2.2-.22-.35h3.81v.78Z"/><path class="cls-3" d="M58.2,138.64V138l3.22-4.13h1L59.2,138l-.46-.15h5v.77Zm3.5,1.55v-1.55l0-.77V136.5h.84v3.69Z"/><path class="cls-3" d="M68.14,140.19h-.9v-6.3h.9Zm3.7-2.8H68.05v-.79h3.79Zm-.08-3.5h.9v6.3h-.9Z"/><path class="cls-3" d="M76.47,140.25a2.52,2.52,0,0,1-1.27-.32,2.26,2.26,0,0,1-.89-.87,2.55,2.55,0,0,1,0-2.51,2.34,2.34,0,0,1,.88-.86,2.78,2.78,0,0,1,2.55,0,2.14,2.14,0,0,1,.88.86,2.36,2.36,0,0,1,.32,1.26,2.41,2.41,0,0,1-.32,1.26,2.27,2.27,0,0,1-.88.86A2.55,2.55,0,0,1,76.47,140.25Zm0-.76a1.61,1.61,0,0,0,.82-.21,1.3,1.3,0,0,0,.57-.59,2,2,0,0,0,0-1.77,1.39,1.39,0,0,0-.57-.58,1.61,1.61,0,0,0-.82-.21,1.59,1.59,0,0,0-.82.21,1.61,1.61,0,0,0-.58.58,2,2,0,0,0,0,1.77,1.5,1.5,0,0,0,.58.59A1.59,1.59,0,0,0,76.47,139.49Z"/><path class="cls-3" d="M82.15,140.25a2.45,2.45,0,0,1-1.08-.23,1.6,1.6,0,0,1-.72-.69,2.37,2.37,0,0,1-.25-1.16v-2.75H81v2.65a1.43,1.43,0,0,0,.34,1.05,1.22,1.22,0,0,0,1,.35,1.61,1.61,0,0,0,.78-.18,1.21,1.21,0,0,0,.51-.54,1.88,1.88,0,0,0,.18-.86v-2.47h.87v4.77h-.82v-1.28l.13.34a1.67,1.67,0,0,1-.7.74A2.15,2.15,0,0,1,82.15,140.25Z"/><path class="cls-3" d="M86.23,140.19v-4.77h.83v1.3l-.08-.33a1.4,1.4,0,0,1,.67-.75,2.36,2.36,0,0,1,1.15-.26v.84h-.2a1.46,1.46,0,0,0-1.1.41,1.64,1.64,0,0,0-.4,1.2v2.37Z"/><path class="cls-3" d="M95.29,140.27A3.61,3.61,0,0,1,94,140a3,3,0,0,1-1-.68,3.15,3.15,0,0,1-.7-1A3.19,3.19,0,0,1,92,137a3.14,3.14,0,0,1,.25-1.28,3.3,3.3,0,0,1,.7-1,3.14,3.14,0,0,1,1.06-.67,3.58,3.58,0,0,1,1.33-.24,3.47,3.47,0,0,1,1.34.25,2.76,2.76,0,0,1,1,.73l-.58.57a2.27,2.27,0,0,0-.82-.56,2.38,2.38,0,0,0-1-.19,2.63,2.63,0,0,0-1,.18,2.24,2.24,0,0,0-.79.51,2.18,2.18,0,0,0-.52.77,2.49,2.49,0,0,0-.18,1,2.58,2.58,0,0,0,.18,1,2.28,2.28,0,0,0,.52.77,2.22,2.22,0,0,0,.79.5,2.63,2.63,0,0,0,1,.18,2.56,2.56,0,0,0,1-.18,2.17,2.17,0,0,0,.82-.57l.58.56a2.68,2.68,0,0,1-1,.74A3.49,3.49,0,0,1,95.29,140.27Z"/><path class="cls-3" d="M101.4,135.38a2.26,2.26,0,0,1,1,.22,1.61,1.61,0,0,1,.7.69,2.46,2.46,0,0,1,.25,1.16v2.74h-.87v-2.64a1.49,1.49,0,0,0-.33-1.05,1.29,1.29,0,0,0-1-.35,1.66,1.66,0,0,0-.8.18,1.23,1.23,0,0,0-.53.53,1.94,1.94,0,0,0-.19.88v2.45h-.86v-6.67h.86v3.19l-.17-.34a1.69,1.69,0,0,1,.72-.73A2.46,2.46,0,0,1,101.4,135.38Z"/><path class="cls-3" d="M106.37,140.25a2.27,2.27,0,0,1-.93-.18,1.45,1.45,0,0,1-.61-.5,1.26,1.26,0,0,1-.22-.73,1.32,1.32,0,0,1,.19-.7,1.21,1.21,0,0,1,.6-.5,2.71,2.71,0,0,1,1.13-.19H108v.62h-1.48a1.31,1.31,0,0,0-.87.21.71.71,0,0,0-.22.53.68.68,0,0,0,.27.56,1.29,1.29,0,0,0,.78.21,1.58,1.58,0,0,0,.85-.22,1.23,1.23,0,0,0,.53-.63l.17.6a1.41,1.41,0,0,1-.61.67A2.2,2.2,0,0,1,106.37,140.25Zm1.57-.06v-1l0-.19v-1.72a1.12,1.12,0,0,0-.32-.85,1.38,1.38,0,0,0-1-.31,2.63,2.63,0,0,0-.83.14,2.11,2.11,0,0,0-.68.38l-.36-.65a2.44,2.44,0,0,1,.88-.45,3.6,3.6,0,0,1,1.09-.16,2.24,2.24,0,0,1,1.51.47,1.89,1.89,0,0,1,.53,1.46v2.88Z"/><path class="cls-3" d="M109.68,136.13v-.71h3v.71Zm2.32,4.12a1.54,1.54,0,0,1-1.12-.39,1.5,1.5,0,0,1-.39-1.11v-4.37h.86v4.34a.83.83,0,0,0,.2.59.69.69,0,0,0,.55.21,1,1,0,0,0,.67-.23l.27.62a1.27,1.27,0,0,1-.47.26A2.12,2.12,0,0,1,112,140.25Z"/><path class="cls-3" d="M161.18,113.32v-8.4h3.94a3.78,3.78,0,0,1,2.3.6,1.89,1.89,0,0,1,.79,1.59,2.06,2.06,0,0,1-.31,1.14,2.15,2.15,0,0,1-.84.74,2.53,2.53,0,0,1-1.13.25l.21-.43a3.08,3.08,0,0,1,1.28.26,2,2,0,0,1,.88.75,2.16,2.16,0,0,1,.33,1.22,2,2,0,0,1-.82,1.68,4.16,4.16,0,0,1-2.45.6Zm1.56-1.22h2.53a2.57,2.57,0,0,0,1.33-.29,1,1,0,0,0,.47-.92,1,1,0,0,0-.47-.92,2.48,2.48,0,0,0-1.33-.29h-2.65v-1.22h2.32a2.29,2.29,0,0,0,1.25-.28,1,1,0,0,0,.45-.87,1,1,0,0,0-.45-.87,2.2,2.2,0,0,0-1.25-.29h-2.2Z"/><path class="cls-3" d="M169.12,113.32l3.78-8.4h1.54l3.79,8.4h-1.65l-3.24-7.57H174l-3.25,7.57Zm1.74-1.94.43-1.22h4.53l.42,1.22Z"/><path class="cls-3" d="M181.9,113.44a6.16,6.16,0,0,1-1.88-.28,4.44,4.44,0,0,1-1.43-.72l.54-1.22a4,4,0,0,0,1.25.66,4.39,4.39,0,0,0,1.52.27A3.16,3.16,0,0,0,183,112a1.21,1.21,0,0,0,.6-.39.84.84,0,0,0,.19-.55.75.75,0,0,0-.28-.62,1.91,1.91,0,0,0-.71-.37,9.64,9.64,0,0,0-1-.26,10.54,10.54,0,0,1-1.07-.28,4.82,4.82,0,0,1-1-.42,2.13,2.13,0,0,1-.71-.69,2.07,2.07,0,0,1-.27-1.11,2.3,2.3,0,0,1,.36-1.25,2.51,2.51,0,0,1,1.12-.91,4.54,4.54,0,0,1,1.9-.35,5.83,5.83,0,0,1,1.5.2,4.15,4.15,0,0,1,1.3.55l-.49,1.21a5,5,0,0,0-1.17-.5,4.3,4.3,0,0,0-1.15-.16,2.81,2.81,0,0,0-1,.16,1.25,1.25,0,0,0-.6.41,1,1,0,0,0-.18.57.78.78,0,0,0,.27.62,1.72,1.72,0,0,0,.7.36c.3.09.62.18,1,.26s.72.17,1.07.28a4.73,4.73,0,0,1,1,.42,1.88,1.88,0,0,1,1,1.77,2.28,2.28,0,0,1-.37,1.24,2.52,2.52,0,0,1-1.12.91A4.63,4.63,0,0,1,181.9,113.44Z"/><path class="cls-3" d="M186.84,113.32v-8.4h1.56v8.4Z"/><path class="cls-3" d="M194.56,113.44a4.91,4.91,0,0,1-1.79-.31,4.38,4.38,0,0,1-1.42-.91,4.34,4.34,0,0,1,0-6.19,4.36,4.36,0,0,1,1.43-.91,5,5,0,0,1,1.79-.32,4.74,4.74,0,0,1,1.88.36,3.59,3.59,0,0,1,1.44,1l-1,1a3.06,3.06,0,0,0-1-.74,2.85,2.85,0,0,0-1.21-.25,3.09,3.09,0,0,0-1.2.22,2.77,2.77,0,0,0-.95.61,2.88,2.88,0,0,0-.63.94,3.17,3.17,0,0,0,0,2.37,2.88,2.88,0,0,0,.63.94,2.77,2.77,0,0,0,.95.61,3.29,3.29,0,0,0,1.2.22,3,3,0,0,0,1.21-.25,3,3,0,0,0,1-.75l1,1a3.78,3.78,0,0,1-1.44,1A4.79,4.79,0,0,1,194.56,113.44Z"/><path class="cls-3" d="M204.27,113.32h-1.56v-8.4h6.13v1.32h-4.57Zm-.12-4.52h4.17v1.3h-4.17Z"/><path class="cls-3" d="M210.35,113.32v-8.4h3.46a4.62,4.62,0,0,1,1.91.36,2.83,2.83,0,0,1,1.23,1,2.91,2.91,0,0,1,.43,1.61,2.68,2.68,0,0,1-1.66,2.61,4.62,4.62,0,0,1-1.91.36h-2.58l.68-.7v3.14Zm1.56-3-.68-.76h2.5a2.4,2.4,0,0,0,1.56-.44,1.54,1.54,0,0,0,.52-1.24,1.5,1.5,0,0,0-.52-1.23,2.4,2.4,0,0,0-1.56-.44h-2.5l.68-.76Zm3.94,3-2.13-3h1.67l2.14,3Z"/><path class="cls-3" d="M220.68,112h4.74v1.32h-6.3v-8.4h6.13v1.32h-4.57Zm-.12-3.58h4.18v1.28h-4.18Z"/><path class="cls-3" d="M228.72,112h4.74v1.32h-6.3v-8.4h6.13v1.32h-4.57Zm-.12-3.58h4.18v1.28H228.6Z"/><path class="cls-3" d="M237.33,113.32l3.78-8.4h1.53l3.79,8.4h-1.64l-3.24-7.57h.62l-3.25,7.57Zm1.74-1.94.43-1.22H244l.42,1.22Z"/><path class="cls-3" d="M247.5,113.32v-8.4H251a4.62,4.62,0,0,1,1.91.36,2.72,2.72,0,0,1,1.23,1,2.92,2.92,0,0,1,.44,1.61,2.83,2.83,0,0,1-.44,1.59,2.72,2.72,0,0,1-1.23,1,4.62,4.62,0,0,1-1.91.36h-2.58l.68-.7v3.14Zm1.56-3-.68-.76h2.51a2.37,2.37,0,0,0,1.55-.44,1.54,1.54,0,0,0,.52-1.24,1.5,1.5,0,0,0-.52-1.23,2.37,2.37,0,0,0-1.55-.44h-2.51l.68-.76Zm3.94,3-2.13-3h1.67l2.14,3Z"/><path class="cls-3" d="M257.83,112h4.74v1.32h-6.3v-8.4h6.14v1.32h-4.58Zm-.12-3.58h4.18v1.28h-4.18Z"/><path class="cls-3" d="M263.13,113.32l3.78-8.4h1.53l3.79,8.4h-1.64l-3.24-7.57H268l-3.25,7.57Zm1.74-1.94.43-1.22h4.52l.42,1.22Z"/><path class="cls-3" d="M153.55,393.57V393h7v.57Zm0,1.8v-.58h7v.58Zm6.12,3.44a5.06,5.06,0,0,1-1.88-.34,4.71,4.71,0,0,1-1.52-1,4.51,4.51,0,0,1-1-1.47,4.91,4.91,0,0,1,0-3.69,4.31,4.31,0,0,1,1-1.47,4.54,4.54,0,0,1,1.52-1,5.06,5.06,0,0,1,1.88-.34,5.19,5.19,0,0,1,1.88.33,3.86,3.86,0,0,1,1.48,1l-.63.61a3.21,3.21,0,0,0-1.23-.82,4,4,0,0,0-1.44-.26,4.26,4.26,0,0,0-1.54.28,3.71,3.71,0,0,0-2,2,4.18,4.18,0,0,0,0,3,3.65,3.65,0,0,0,2,2,4.06,4.06,0,0,0,1.54.28,3.84,3.84,0,0,0,1.44-.26,3.23,3.23,0,0,0,1.23-.83l.63.61a3.88,3.88,0,0,1-1.48,1A5,5,0,0,1,159.67,398.81Z"/><path class="cls-3" d="M169.25,398.73V390l.42.45h-2.56v-.84h3.08v9.1Z"/><path class="cls-3" d="M173.06,398.8a.63.63,0,0,1-.48-.21.69.69,0,0,1-.21-.51.7.7,0,0,1,.69-.7.68.68,0,0,1,.69.7.73.73,0,0,1-.2.51A.65.65,0,0,1,173.06,398.8Z"/><path class="cls-3" d="M178,389.56a3.65,3.65,0,0,1,2,.54,3.25,3.25,0,0,1,1.26,1.55,6.19,6.19,0,0,1,.43,2.46,5.73,5.73,0,0,1-.52,2.58,3.72,3.72,0,0,1-1.47,1.59,4.36,4.36,0,0,1-2.17.53,5.43,5.43,0,0,1-1.16-.12,3.23,3.23,0,0,1-1-.37l.38-.76a2.1,2.1,0,0,0,.81.33,4.34,4.34,0,0,0,1,.1,3.05,3.05,0,0,0,2.34-.93,4,4,0,0,0,.88-2.8c0-.2,0-.44,0-.71a3.91,3.91,0,0,0-.15-.83l.32.24a2.29,2.29,0,0,1-.55,1.15,2.63,2.63,0,0,1-1,.72,3.56,3.56,0,0,1-1.37.25,3.51,3.51,0,0,1-1.59-.34,2.53,2.53,0,0,1-1.48-2.39,2.62,2.62,0,0,1,1.52-2.45A3.57,3.57,0,0,1,178,389.56Zm0,.79a2.63,2.63,0,0,0-1.15.24,1.88,1.88,0,0,0-.79.68,1.92,1.92,0,0,0-.28,1.05,1.82,1.82,0,0,0,.61,1.44,2.51,2.51,0,0,0,1.67.53,2.79,2.79,0,0,0,1.23-.26,2,2,0,0,0,.82-.72,1.86,1.86,0,0,0,0-2,2,2,0,0,0-.8-.72A2.82,2.82,0,0,0,178,390.35Z"/><path class="cls-3" d="M185.87,389.56a3.69,3.69,0,0,1,2,.54,3.37,3.37,0,0,1,1.26,1.55,6.38,6.38,0,0,1,.43,2.46,5.73,5.73,0,0,1-.53,2.58,3.7,3.7,0,0,1-1.46,1.59,4.36,4.36,0,0,1-2.17.53,5.36,5.36,0,0,1-1.16-.12,3.23,3.23,0,0,1-1-.37l.38-.76a2.1,2.1,0,0,0,.81.33,4.34,4.34,0,0,0,1,.1,3.07,3.07,0,0,0,2.34-.93,4,4,0,0,0,.88-2.8c0-.2,0-.44,0-.71a4.66,4.66,0,0,0-.15-.83l.32.24a2.29,2.29,0,0,1-.55,1.15,2.63,2.63,0,0,1-1,.72,3.56,3.56,0,0,1-1.37.25,3.51,3.51,0,0,1-1.59-.34,2.53,2.53,0,0,1-1.09-.95,2.58,2.58,0,0,1-.39-1.44,2.58,2.58,0,0,1,1.52-2.45A3.57,3.57,0,0,1,185.87,389.56Zm0,.79a2.6,2.6,0,0,0-1.15.24,1.88,1.88,0,0,0-.79.68,1.92,1.92,0,0,0-.29,1.05,1.82,1.82,0,0,0,.62,1.44,2.5,2.5,0,0,0,1.67.53,2.79,2.79,0,0,0,1.23-.26,2.05,2.05,0,0,0,.82-.72,1.86,1.86,0,0,0,.29-1,1.78,1.78,0,0,0-.27-.95,2,2,0,0,0-.81-.72A2.77,2.77,0,0,0,185.91,390.35Z"/><path class="cls-3" d="M195.14,390.53l-1.8,1v-.2l1.8,1-.3.55-1.77-1,.14-.06v2h-.6l0-2,.13.06-1.76,1-.31-.55,1.81-1v.2l-1.81-1L191,390l1.76,1-.13.07,0-2h.6v2l-.14-.07,1.77-1Z"/><path class="cls-3" d="M200.12,401.26v-9.35H201v2l-.09,1.37.13,1.38v4.55Zm3.52-2.46a3.2,3.2,0,0,1-1.6-.41,3,3,0,0,1-1.14-1.18,4.49,4.49,0,0,1,0-3.79,2.83,2.83,0,0,1,1.13-1.17,3.19,3.19,0,0,1,1.61-.41,3.53,3.53,0,0,1,1.75.44,3.15,3.15,0,0,1,1.21,1.22,4,4,0,0,1,0,3.64,3.29,3.29,0,0,1-1.21,1.22A3.53,3.53,0,0,1,203.64,398.8Zm-.07-.82a2.54,2.54,0,0,0,1.3-.33,2.35,2.35,0,0,0,.91-.94,3,3,0,0,0,0-2.79,2.39,2.39,0,0,0-.91-.93,2.45,2.45,0,0,0-1.3-.34,2.47,2.47,0,0,0-1.3.34,2.33,2.33,0,0,0-.91.93,3.11,3.11,0,0,0,0,2.79,2.29,2.29,0,0,0,.91.94A2.56,2.56,0,0,0,203.57,398Z"/><path class="cls-3" d="M211.83,398.8a3.75,3.75,0,0,1-1.87-.45,3.24,3.24,0,0,1-1.26-1.23,3.51,3.51,0,0,1-.46-1.81,3.62,3.62,0,0,1,.44-1.79,3.27,3.27,0,0,1,1.19-1.23,3.31,3.31,0,0,1,1.71-.45,3.35,3.35,0,0,1,1.71.44,3.15,3.15,0,0,1,1.18,1.22,3.81,3.81,0,0,1,.43,1.81c0,.05,0,.09,0,.14s0,.1,0,.15h-5.94v-.69h5.45l-.36.28a2.69,2.69,0,0,0-.32-1.32,2.38,2.38,0,0,0-.87-.91,2.46,2.46,0,0,0-1.26-.32,2.51,2.51,0,0,0-1.26.32,2.31,2.31,0,0,0-.87.91,2.79,2.79,0,0,0-.31,1.34v.14a2.72,2.72,0,0,0,.34,1.38,2.43,2.43,0,0,0,1,.92,3.2,3.2,0,0,0,2.58.11,2.39,2.39,0,0,0,.93-.68l.52.6a3,3,0,0,1-1.14.83A3.89,3.89,0,0,1,211.83,398.8Z"/><path class="cls-3" d="M216.78,398.73v-6.82h.88v1.86l-.09-.33a2.24,2.24,0,0,1,1-1.19,3.2,3.2,0,0,1,1.67-.41v.9H220a2.2,2.2,0,0,0-1.68.65,2.64,2.64,0,0,0-.62,1.87v3.48Z"/><path class="cls-3" d="M233.93,391.84a3.19,3.19,0,0,1,1.45.32,2.25,2.25,0,0,1,1,1,3.47,3.47,0,0,1,.34,1.64v4h-.92v-3.87a2.32,2.32,0,0,0-.51-1.63,1.89,1.89,0,0,0-1.45-.55,2.37,2.37,0,0,0-1.22.29,1.89,1.89,0,0,0-.79.84,2.91,2.91,0,0,0-.28,1.34v3.58h-.92v-3.87a2.33,2.33,0,0,0-.52-1.63,1.92,1.92,0,0,0-1.46-.55,2.38,2.38,0,0,0-1.21.29,1.91,1.91,0,0,0-.8.84,2.91,2.91,0,0,0-.28,1.34v3.58h-.92v-6.82h.88v1.85l-.14-.33a2.42,2.42,0,0,1,1-1.16,3,3,0,0,1,1.64-.43,2.85,2.85,0,0,1,1.7.5,2.38,2.38,0,0,1,.92,1.51l-.37-.15a2.68,2.68,0,0,1,1.06-1.34A3.23,3.23,0,0,1,233.93,391.84Z"/><path class="cls-3" d="M242,398.8a3.51,3.51,0,0,1-1.78-.45,3.26,3.26,0,0,1-1.23-1.24,3.6,3.6,0,0,1-.46-1.8,3.54,3.54,0,0,1,.46-1.8,3.2,3.2,0,0,1,1.23-1.22,3.79,3.79,0,0,1,3.58,0,3.3,3.3,0,0,1,1.24,1.22,3.54,3.54,0,0,1,.45,1.8,3.6,3.6,0,0,1-.45,1.81,3.26,3.26,0,0,1-1.24,1.23A3.59,3.59,0,0,1,242,398.8Zm0-.82a2.59,2.59,0,0,0,1.32-.33,2.33,2.33,0,0,0,.9-.94,3.13,3.13,0,0,0,0-2.8,2.37,2.37,0,0,0-.9-.93,2.56,2.56,0,0,0-1.3-.33,2.54,2.54,0,0,0-1.3.33,2.39,2.39,0,0,0-.91.93,3.05,3.05,0,0,0,0,2.8,2.33,2.33,0,0,0,.9.94A2.53,2.53,0,0,0,242,398Z"/><path class="cls-3" d="M250.83,391.84a3.23,3.23,0,0,1,1.46.32,2.31,2.31,0,0,1,1,1,3.35,3.35,0,0,1,.36,1.64v4h-.93v-3.87a2.24,2.24,0,0,0-.54-1.63,2,2,0,0,0-1.51-.55,2.56,2.56,0,0,0-1.27.29,1.92,1.92,0,0,0-.83.84,2.79,2.79,0,0,0-.29,1.34v3.58h-.93v-6.82h.89v1.87l-.15-.35a2.54,2.54,0,0,1,1-1.16A3.24,3.24,0,0,1,250.83,391.84Z"/><path class="cls-3" d="M255.07,392.68v-.77h4.22v.77Zm3.22,6.12a1.81,1.81,0,0,1-2-2V390.4h.92v6.36a1.27,1.27,0,0,0,.31.92,1.12,1.12,0,0,0,.87.33,1.48,1.48,0,0,0,1-.36l.32.67a1.79,1.79,0,0,1-.65.36A2.66,2.66,0,0,1,258.29,398.8Z"/><path class="cls-3" d="M264.89,391.84a3.25,3.25,0,0,1,1.47.32,2.24,2.24,0,0,1,1,1,3.35,3.35,0,0,1,.36,1.64v4h-.92v-3.87a2.24,2.24,0,0,0-.54-1.63,2,2,0,0,0-1.52-.55,2.55,2.55,0,0,0-1.26.29,2,2,0,0,0-.84.84,2.91,2.91,0,0,0-.29,1.34v3.58h-.92v-9.64h.92v4.69l-.18-.35a2.49,2.49,0,0,1,1-1.16A3.21,3.21,0,0,1,264.89,391.84Z"/><path class="cls-3" d="M153.55,425.25v-.57h7v.57Zm0,1.79v-.57h7V427Zm6.12,3.45a5.07,5.07,0,0,1-1.88-.35,4.68,4.68,0,0,1-1.52-1,4.51,4.51,0,0,1-1-1.47,4.93,4.93,0,0,1,0-3.7,4.37,4.37,0,0,1,1-1.46,4.54,4.54,0,0,1,1.52-1,5.07,5.07,0,0,1,1.88-.35,5.19,5.19,0,0,1,1.88.33,3.88,3.88,0,0,1,1.48,1l-.63.61a3.23,3.23,0,0,0-1.23-.83,4.27,4.27,0,0,0-1.44-.25,4.06,4.06,0,0,0-1.54.28,3.72,3.72,0,0,0-1.22.79,3.64,3.64,0,0,0-.81,1.2,4.16,4.16,0,0,0,0,3,3.54,3.54,0,0,0,.81,1.2,3.72,3.72,0,0,0,1.22.79,4.25,4.25,0,0,0,3,0,3.23,3.23,0,0,0,1.23-.83l.63.61a3.88,3.88,0,0,1-1.48,1A5,5,0,0,1,159.67,430.49Z"/><path class="cls-3" d="M171.29,430.49a3.34,3.34,0,0,1-1.87-.55,3.72,3.72,0,0,1-1.28-1.59,6.83,6.83,0,0,1,0-5,3.72,3.72,0,0,1,1.28-1.59,3.47,3.47,0,0,1,3.75,0,3.82,3.82,0,0,1,1.29,1.59,6.7,6.7,0,0,1,0,5,3.82,3.82,0,0,1-1.29,1.59A3.35,3.35,0,0,1,171.29,430.49Zm0-.86a2.28,2.28,0,0,0,1.41-.44,2.76,2.76,0,0,0,.93-1.27,6.41,6.41,0,0,0,0-4.12,2.76,2.76,0,0,0-.93-1.27,2.34,2.34,0,0,0-1.41-.44,2.37,2.37,0,0,0-1.39.44,2.86,2.86,0,0,0-1,1.27,6.59,6.59,0,0,0,0,4.12,2.86,2.86,0,0,0,1,1.27A2.3,2.3,0,0,0,171.29,429.63Z"/><path class="cls-3" d="M176.85,430.48a.65.65,0,0,1-.49-.21.69.69,0,0,1-.2-.51.66.66,0,0,1,.2-.51.67.67,0,0,1,.49-.19.65.65,0,0,1,.48.19.66.66,0,0,1,.21.51.69.69,0,0,1-.21.51A.63.63,0,0,1,176.85,430.48Z"/><path class="cls-3" d="M181.73,421.23a3.65,3.65,0,0,1,2,.54,3.35,3.35,0,0,1,1.27,1.56,6.37,6.37,0,0,1,.42,2.45,5.75,5.75,0,0,1-.52,2.59,3.7,3.7,0,0,1-1.46,1.59,4.4,4.4,0,0,1-2.18.53,5.5,5.5,0,0,1-1.16-.12,3.09,3.09,0,0,1-1-.38l.37-.75a2.21,2.21,0,0,0,.82.33,4.19,4.19,0,0,0,.95.1,3.06,3.06,0,0,0,2.35-.94,4,4,0,0,0,.88-2.79c0-.2,0-.44,0-.72a4.15,4.15,0,0,0-.15-.83l.33.25a2.42,2.42,0,0,1-.55,1.15,2.71,2.71,0,0,1-1,.72,3.61,3.61,0,0,1-1.38.25,3.71,3.71,0,0,1-1.59-.34,2.76,2.76,0,0,1-1.07-3.87,2.69,2.69,0,0,1,1.11-1A3.57,3.57,0,0,1,181.73,421.23Zm0,.8a2.66,2.66,0,0,0-1.15.24,1.84,1.84,0,0,0-.78.68,2,2,0,0,0,.33,2.48,2.44,2.44,0,0,0,1.67.53,2.68,2.68,0,0,0,1.23-.26,1.94,1.94,0,0,0,.81-.71,1.79,1.79,0,0,0,.3-1,1.7,1.7,0,0,0-.28-1,1.94,1.94,0,0,0-.8-.72A2.82,2.82,0,0,0,181.77,422Z"/><path class="cls-3" d="M189.65,421.23a3.65,3.65,0,0,1,2,.54,3.28,3.28,0,0,1,1.26,1.56,6.18,6.18,0,0,1,.43,2.45,5.75,5.75,0,0,1-.52,2.59,3.72,3.72,0,0,1-1.47,1.59,4.36,4.36,0,0,1-2.17.53,5.43,5.43,0,0,1-1.16-.12,3.24,3.24,0,0,1-1-.38l.38-.75a2.16,2.16,0,0,0,.81.33,4.34,4.34,0,0,0,1,.1,3,3,0,0,0,2.34-.94,3.91,3.91,0,0,0,.88-2.79q0-.3,0-.72a4.15,4.15,0,0,0-.15-.83l.33.25a2.44,2.44,0,0,1-.56,1.15,2.63,2.63,0,0,1-1,.72,3.56,3.56,0,0,1-1.37.25,3.65,3.65,0,0,1-1.59-.34,2.66,2.66,0,0,1-1.09-.95,2.71,2.71,0,0,1,1.13-3.89A3.57,3.57,0,0,1,189.65,421.23Zm0,.8a2.63,2.63,0,0,0-1.15.24,1.81,1.81,0,0,0-.79.68,1.87,1.87,0,0,0-.28,1.05,1.78,1.78,0,0,0,.61,1.43,2.46,2.46,0,0,0,1.67.53,2.65,2.65,0,0,0,1.23-.26,2,2,0,0,0,.82-.71,1.86,1.86,0,0,0,0-2,1.94,1.94,0,0,0-.8-.72A2.82,2.82,0,0,0,189.69,422Z"/><path class="cls-3" d="M198.92,422.21l-1.79,1V423l1.79,1-.3.54-1.77-1,.14-.07v2h-.59v-2l.13.07-1.75,1-.32-.54,1.81-1v.21l-1.81-1,.32-.55,1.75,1-.13.06v-2H197v2l-.14-.06,1.77-1Z"/><path class="cls-3" d="M203.9,432.93v-9.34h.88v2.05l-.09,1.36.13,1.38v4.55Zm3.52-2.45a3.2,3.2,0,0,1-1.6-.41,3.11,3.11,0,0,1-1.14-1.19,3.88,3.88,0,0,1-.42-1.89,3.94,3.94,0,0,1,.42-1.89,2.86,2.86,0,0,1,1.13-1.18,3.21,3.21,0,0,1,1.61-.4,3.53,3.53,0,0,1,1.75.44,3.11,3.11,0,0,1,1.22,1.22,4,4,0,0,1,0,3.63,3.18,3.18,0,0,1-1.22,1.22A3.43,3.43,0,0,1,207.42,430.48Zm-.06-.82a2.5,2.5,0,0,0,1.3-.34,2.46,2.46,0,0,0,.91-.93,2.87,2.87,0,0,0,.33-1.4,2.83,2.83,0,0,0-.33-1.39,2.43,2.43,0,0,0-2.21-1.27,2.6,2.6,0,0,0-1.31.33,2.42,2.42,0,0,0-.91.94,2.83,2.83,0,0,0-.33,1.39,2.87,2.87,0,0,0,.33,1.4,2.33,2.33,0,0,0,.91.93A2.51,2.51,0,0,0,207.36,429.66Z"/><path class="cls-3" d="M215.61,430.48a3.78,3.78,0,0,1-1.87-.45,3.2,3.2,0,0,1-1.26-1.24A3.44,3.44,0,0,1,212,427a3.62,3.62,0,0,1,.44-1.79,3.27,3.27,0,0,1,1.19-1.23,3.51,3.51,0,0,1,3.42,0,3.08,3.08,0,0,1,1.18,1.22,3.67,3.67,0,0,1,.43,1.81.71.71,0,0,1,0,.14v.15h-5.95v-.69h5.45l-.36.27a2.74,2.74,0,0,0-.32-1.32,2.28,2.28,0,0,0-.87-.9,2.37,2.37,0,0,0-1.26-.33,2.47,2.47,0,0,0-1.26.33,2.25,2.25,0,0,0-.87.91,2.79,2.79,0,0,0-.31,1.34V427a2.65,2.65,0,0,0,.34,1.37,2.33,2.33,0,0,0,1,.92,2.83,2.83,0,0,0,1.41.34,3.19,3.19,0,0,0,1.16-.22,2.49,2.49,0,0,0,.93-.68l.52.6a2.9,2.9,0,0,1-1.14.83A3.82,3.82,0,0,1,215.61,430.48Z"/><path class="cls-3" d="M220.56,430.41v-6.82h.89v1.85l-.09-.32a2.24,2.24,0,0,1,1-1.19,3.22,3.22,0,0,1,1.68-.41v.9h-.21a2.19,2.19,0,0,0-1.69.66,2.63,2.63,0,0,0-.61,1.87v3.48Z"/><path class="cls-3" d="M237.71,423.52a3.16,3.16,0,0,1,1.45.32,2.2,2.2,0,0,1,1,1,3.46,3.46,0,0,1,.35,1.64v4h-.93v-3.87a2.35,2.35,0,0,0-.51-1.64,1.91,1.91,0,0,0-1.45-.55,2.43,2.43,0,0,0-1.21.29,2,2,0,0,0-.8.85,3,3,0,0,0-.28,1.33v3.59h-.92v-3.87a2.31,2.31,0,0,0-.52-1.64,1.94,1.94,0,0,0-1.46-.55,2.49,2.49,0,0,0-1.21.29,2.05,2.05,0,0,0-.8.85,3,3,0,0,0-.27,1.33v3.59h-.93v-6.82h.89v1.84l-.15-.32a2.5,2.5,0,0,1,1-1.17,3.11,3.11,0,0,1,1.65-.42,2.89,2.89,0,0,1,1.7.5,2.32,2.32,0,0,1,.91,1.5l-.37-.14a2.75,2.75,0,0,1,1.06-1.35A3.22,3.22,0,0,1,237.71,423.52Z"/><path class="cls-3" d="M245.76,430.48A3.49,3.49,0,0,1,244,430a3.35,3.35,0,0,1-1.24-1.24,3.59,3.59,0,0,1-.45-1.8,3.51,3.51,0,0,1,.45-1.8A3.25,3.25,0,0,1,244,424a3.82,3.82,0,0,1,3.58,0,3.35,3.35,0,0,1,1.23,1.22,3.82,3.82,0,0,1,0,3.6,3.21,3.21,0,0,1-1.24,1.24A3.58,3.58,0,0,1,245.76,430.48Zm0-.82a2.48,2.48,0,0,0,1.31-.34,2.37,2.37,0,0,0,.9-.93,3.05,3.05,0,0,0,0-2.8,2.37,2.37,0,0,0-.9-.93,2.54,2.54,0,0,0-1.3-.33,2.56,2.56,0,0,0-1.3.33,2.46,2.46,0,0,0-.91.93,3.05,3.05,0,0,0,0,2.8,2.51,2.51,0,0,0,.9.93A2.45,2.45,0,0,0,245.76,429.66Z"/><path class="cls-3" d="M254.61,423.52a3.23,3.23,0,0,1,1.46.32,2.26,2.26,0,0,1,1,1,3.35,3.35,0,0,1,.36,1.64v4h-.92v-3.87a2.27,2.27,0,0,0-.54-1.64,2.07,2.07,0,0,0-1.52-.55,2.7,2.7,0,0,0-1.27.29,2.06,2.06,0,0,0-.83.85,2.87,2.87,0,0,0-.29,1.33v3.59h-.92v-6.82H252v1.87l-.14-.35a2.46,2.46,0,0,1,1-1.17A3.27,3.27,0,0,1,254.61,423.52Z"/><path class="cls-3" d="M258.85,424.35v-.76h4.22v.76Zm3.22,6.13a2,2,0,0,1-1.48-.52,2,2,0,0,1-.52-1.47v-6.41H261v6.36a1.33,1.33,0,0,0,.31.92,1.17,1.17,0,0,0,.88.32,1.46,1.46,0,0,0,1-.35l.33.66a1.71,1.71,0,0,1-.66.37A2.66,2.66,0,0,1,262.07,430.48Z"/><path class="cls-3" d="M268.68,423.52a3.23,3.23,0,0,1,1.46.32,2.26,2.26,0,0,1,1,1,3.35,3.35,0,0,1,.35,1.64v4h-.92v-3.87a2.27,2.27,0,0,0-.54-1.64,2,2,0,0,0-1.51-.55,2.68,2.68,0,0,0-1.27.29,2,2,0,0,0-.83.85,2.75,2.75,0,0,0-.29,1.33v3.59h-.93v-9.65h.93v4.7l-.19-.35a2.56,2.56,0,0,1,1-1.17A3.33,3.33,0,0,1,268.68,423.52Z"/><path class="cls-3" d="M365.53,113.32v-8.4h4a3.74,3.74,0,0,1,2.29.6,1.87,1.87,0,0,1,.79,1.59,2,2,0,0,1-.31,1.14,2.19,2.19,0,0,1-.83.74,2.57,2.57,0,0,1-1.14.25l.22-.43a3,3,0,0,1,1.27.26,2,2,0,0,1,.89.75A2.24,2.24,0,0,1,373,111a1.94,1.94,0,0,1-.82,1.68,4.12,4.12,0,0,1-2.44.6Zm1.56-1.22h2.53a2.55,2.55,0,0,0,1.33-.29,1,1,0,0,0,.47-.92A1,1,0,0,0,371,110a2.45,2.45,0,0,0-1.33-.29H367v-1.22h2.33a2.34,2.34,0,0,0,1.25-.28,1,1,0,0,0,.44-.87,1,1,0,0,0-.44-.87,2.25,2.25,0,0,0-1.25-.29h-2.21Z"/><path class="cls-3" d="M373.48,113.32l3.77-8.4h1.54l3.79,8.4h-1.64l-3.24-7.57h.62l-3.25,7.57Zm1.73-1.94.44-1.22h4.52l.42,1.22Z"/><path class="cls-3" d="M386.25,113.44a6.09,6.09,0,0,1-1.87-.28,4.4,4.4,0,0,1-1.44-.72l.54-1.22a4.22,4.22,0,0,0,1.25.66,4.47,4.47,0,0,0,1.52.27,3.16,3.16,0,0,0,1.07-.15,1.21,1.21,0,0,0,.6-.39.84.84,0,0,0,.19-.55.77.77,0,0,0-.27-.62,1.88,1.88,0,0,0-.72-.37,9,9,0,0,0-1-.26c-.35-.07-.71-.17-1.07-.28a4.73,4.73,0,0,1-1-.42,1.91,1.91,0,0,1-1-1.8,2.23,2.23,0,0,1,.37-1.25,2.43,2.43,0,0,1,1.11-.91,4.59,4.59,0,0,1,1.91-.35,6,6,0,0,1,1.5.2,4.19,4.19,0,0,1,1.29.55l-.49,1.21a4.9,4.9,0,0,0-1.16-.5,4.37,4.37,0,0,0-1.16-.16,2.81,2.81,0,0,0-1,.16,1.22,1.22,0,0,0-.59.41.91.91,0,0,0-.19.57.78.78,0,0,0,.27.62,1.76,1.76,0,0,0,.71.36c.29.09.62.18,1,.26s.71.17,1.06.28a4.82,4.82,0,0,1,1,.42,2.1,2.1,0,0,1,.71.68,2,2,0,0,1,.27,1.09,2.2,2.2,0,0,1-.37,1.24,2.47,2.47,0,0,1-1.12.91A4.6,4.6,0,0,1,386.25,113.44Z"/><path class="cls-3" d="M391.2,113.32v-8.4h1.56v8.4Z"/><path class="cls-3" d="M398.91,113.44a4.9,4.9,0,0,1-1.78-.31,4.42,4.42,0,0,1-1.43-.91,4.49,4.49,0,0,1-.94-4.82,4.21,4.21,0,0,1,.95-1.37,4.26,4.26,0,0,1,1.43-.91,4.91,4.91,0,0,1,1.79-.32,4.81,4.81,0,0,1,1.88.36,3.59,3.59,0,0,1,1.44,1l-1,1a3.13,3.13,0,0,0-1-.74,2.91,2.91,0,0,0-1.21-.25,3.18,3.18,0,0,0-1.21.22,2.87,2.87,0,0,0-1,.61,3.23,3.23,0,0,0-.63.94,3.3,3.3,0,0,0,0,2.37,3.23,3.23,0,0,0,.63.94,2.87,2.87,0,0,0,1,.61,3.38,3.38,0,0,0,1.21.22,3.08,3.08,0,0,0,1.21-.25,3,3,0,0,0,1-.75l1,1a3.78,3.78,0,0,1-1.44,1A4.84,4.84,0,0,1,398.91,113.44Z"/><path class="cls-3" d="M409.67,113.44a6.11,6.11,0,0,1-1.88-.28,4.4,4.4,0,0,1-1.44-.72l.54-1.22a4.22,4.22,0,0,0,1.25.66,4.49,4.49,0,0,0,1.53.27,3.1,3.1,0,0,0,1.06-.15,1.13,1.13,0,0,0,.6-.39.85.85,0,0,0,.2-.55.78.78,0,0,0-.28-.62,1.91,1.91,0,0,0-.71-.37,9.86,9.86,0,0,0-1-.26c-.35-.07-.71-.17-1.07-.28a4.73,4.73,0,0,1-1-.42,1.91,1.91,0,0,1-1-1.8,2.31,2.31,0,0,1,.37-1.25,2.46,2.46,0,0,1,1.12-.91,4.54,4.54,0,0,1,1.9-.35,6,6,0,0,1,1.5.2,4.09,4.09,0,0,1,1.29.55l-.49,1.21a4.73,4.73,0,0,0-1.16-.5,4.36,4.36,0,0,0-1.15-.16,2.83,2.83,0,0,0-1.05.16,1.22,1.22,0,0,0-.59.41.91.91,0,0,0-.19.57.78.78,0,0,0,.27.62,1.76,1.76,0,0,0,.71.36c.29.09.62.18,1,.26s.71.17,1.07.28a5,5,0,0,1,1,.42,2.1,2.1,0,0,1,.71.68,2,2,0,0,1,.27,1.09,2.27,2.27,0,0,1-.36,1.24,2.55,2.55,0,0,1-1.13.91A4.58,4.58,0,0,1,409.67,113.44Z"/><path class="cls-3" d="M416.19,113.32v-7.08h-2.78v-1.32h7.13v1.32h-2.79v7.08Z"/><path class="cls-3" d="M420.11,113.32l3.78-8.4h1.53l3.79,8.4h-1.64l-3.24-7.57H425l-3.25,7.57Zm1.74-1.94.43-1.22h4.52l.42,1.22Z"/><path class="cls-3" d="M430.28,113.32v-8.4h3.46a4.62,4.62,0,0,1,1.91.36,2.83,2.83,0,0,1,1.23,1,2.91,2.91,0,0,1,.43,1.61,2.68,2.68,0,0,1-1.66,2.61,4.62,4.62,0,0,1-1.91.36h-2.58l.68-.7v3.14Zm1.56-3-.68-.76h2.5a2.4,2.4,0,0,0,1.56-.44,1.54,1.54,0,0,0,.52-1.24,1.5,1.5,0,0,0-.52-1.23,2.4,2.4,0,0,0-1.56-.44h-2.5l.68-.76Zm3.94,3-2.13-3h1.67l2.14,3Z"/><path class="cls-3" d="M440.64,113.32v-7.08h-2.79v-1.32H445v1.32H442.2v7.08Z"/><path class="cls-3" d="M447.72,112h4.74v1.32h-6.3v-8.4h6.13v1.32h-4.57Zm-.12-3.58h4.17v1.28H447.6Z"/><path class="cls-3" d="M454.2,113.32v-8.4h3.45a4.63,4.63,0,0,1,1.92.36,2.83,2.83,0,0,1,1.23,1,3,3,0,0,1,.43,1.61,2.9,2.9,0,0,1-.43,1.59,2.83,2.83,0,0,1-1.23,1,4.63,4.63,0,0,1-1.92.36h-2.58l.69-.7v3.14Zm1.56-3-.69-.76h2.51a2.4,2.4,0,0,0,1.56-.44,1.57,1.57,0,0,0,.52-1.24,1.53,1.53,0,0,0-.52-1.23,2.4,2.4,0,0,0-1.56-.44h-2.51l.69-.76Zm3.93,3-2.12-3h1.67l2.13,3Z"/><path class="cls-3" d="M337,72.39V54.89h7.2a9.84,9.84,0,0,1,4,.73,5.82,5.82,0,0,1,2.56,2.14,6.05,6.05,0,0,1,.9,3.35,5.92,5.92,0,0,1-.9,3.31,5.84,5.84,0,0,1-2.56,2.15,9.5,9.5,0,0,1-4,.77h-5.38l1.43-1.5v6.55Zm3.25-6.2-1.43-1.6H344a5,5,0,0,0,3.24-.92,3.57,3.57,0,0,0,0-5.12,5,5,0,0,0-3.24-.91h-5.23l1.43-1.6Z"/><path class="cls-3" d="M354.89,72.39V54.89h7.2a9.84,9.84,0,0,1,4,.73,5.82,5.82,0,0,1,2.56,2.14,6.05,6.05,0,0,1,.9,3.35,5.62,5.62,0,0,1-3.46,5.43,9.66,9.66,0,0,1-4,.75h-5.38l1.43-1.45v6.55Zm3.25-6.2-1.43-1.58h5.23a5,5,0,0,0,3.24-.92,3.22,3.22,0,0,0,1.08-2.58,3.17,3.17,0,0,0-1.08-2.56,5,5,0,0,0-3.24-.91h-5.23l1.43-1.6Zm8.2,6.2L361.91,66h3.48l4.45,6.35Z"/><path class="cls-3" d="M373.16,72.39V54.89h3.25v17.5Z"/><path class="cls-3" d="M389.24,72.64a10.06,10.06,0,0,1-3.73-.67,8.85,8.85,0,0,1-3-1.88,8.75,8.75,0,0,1-2-2.85,9.61,9.61,0,0,1,0-7.2,8.43,8.43,0,0,1,2-2.85,8.8,8.8,0,0,1,3-1.89,10.88,10.88,0,0,1,7.65.07,8,8,0,0,1,3,2.19l-2.1,2A6.53,6.53,0,0,0,391.94,58a6.32,6.32,0,0,0-2.53-.51,6.79,6.79,0,0,0-2.51.45,5.71,5.71,0,0,0-2,1.27,6,6,0,0,0-1.32,1.95,6.75,6.75,0,0,0,0,5,6,6,0,0,0,1.32,2,5.74,5.74,0,0,0,2,1.28,6.79,6.79,0,0,0,2.51.45,6.16,6.16,0,0,0,2.53-.52,6.46,6.46,0,0,0,2.15-1.56l2.1,2a8,8,0,0,1-3,2.2A10.08,10.08,0,0,1,389.24,72.64Z"/><path class="cls-3" d="M402.56,69.64h9.88v2.75H399.31V54.89h12.78v2.75h-9.53Zm-.25-7.48H411v2.68h-8.7Z"/><path class="cls-3" d="M426.51,72.39V57.64h-5.8V54.89h14.85v2.75h-5.8V72.39Z"/><path class="cls-3" d="M434.66,72.39l7.88-17.5h3.2l7.9,17.5h-3.43l-6.75-15.78h1.3L438,72.39Zm3.63-4,.9-2.55h9.42l.88,2.55Z"/><path class="cls-3" d="M455.86,72.39V54.89h8.23a7.89,7.89,0,0,1,4.77,1.23,3.94,3.94,0,0,1,1.65,3.32,4.16,4.16,0,0,1-.65,2.38,4.31,4.31,0,0,1-1.74,1.53,5.21,5.21,0,0,1-2.36.54l.45-.9a6.4,6.4,0,0,1,2.65.53,4.25,4.25,0,0,1,1.85,1.57,4.53,4.53,0,0,1,.68,2.55,4.08,4.08,0,0,1-1.72,3.5,8.59,8.59,0,0,1-5.08,1.25Zm3.25-2.55h5.28a5.3,5.3,0,0,0,2.77-.6,2.37,2.37,0,0,0,0-3.84,5.2,5.2,0,0,0-2.77-.61h-5.53V62.26h4.85a4.74,4.74,0,0,0,2.6-.6,2,2,0,0,0,.93-1.8,2,2,0,0,0-.93-1.82,4.74,4.74,0,0,0-2.6-.6h-4.6Z"/><path class="cls-3" d="M474.89,72.39V54.89h3.25V69.64h9.15v2.75Z"/><path class="cls-3" d="M493.11,69.64H503v2.75H489.86V54.89h12.78v2.75h-9.53Zm-.25-7.48h8.7v2.68h-8.7Z"/><path class="cls-3" d="M560.67,113.32v-8.4h3.46a4.62,4.62,0,0,1,1.91.36,2.83,2.83,0,0,1,1.23,1,2.91,2.91,0,0,1,.43,1.61,2.82,2.82,0,0,1-.43,1.59,2.78,2.78,0,0,1-1.23,1,4.46,4.46,0,0,1-1.91.37h-2.58l.68-.72v3.14Zm1.56-3-.68-.77h2.51a2.33,2.33,0,0,0,1.55-.44,1.71,1.71,0,0,0,0-2.46,2.39,2.39,0,0,0-1.55-.44h-2.51l.68-.76Z"/><path class="cls-3" d="M569.26,113.32v-8.4h3.46a4.62,4.62,0,0,1,1.91.36,2.72,2.72,0,0,1,1.23,1,2.92,2.92,0,0,1,.44,1.61,2.83,2.83,0,0,1-.44,1.59,2.72,2.72,0,0,1-1.23,1,4.62,4.62,0,0,1-1.91.36h-2.58l.68-.7v3.14Zm1.56-3-.68-.76h2.51a2.37,2.37,0,0,0,1.55-.44,1.54,1.54,0,0,0,.52-1.24,1.5,1.5,0,0,0-.52-1.23,2.37,2.37,0,0,0-1.55-.44h-2.51l.68-.76Zm3.94,3-2.12-3h1.66l2.14,3Z"/><path class="cls-3" d="M579.6,112h4.74v1.32H578v-8.4h6.13v1.32H579.6Zm-.12-3.58h4.17v1.28h-4.17Z"/><path class="cls-3" d="M586.08,113.32v-8.4h1.28l3.67,6.14h-.67l3.61-6.14h1.29l0,8.4h-1.5v-6.08h.3L591,112.38h-.71l-3.12-5.14h.36v6.08Z"/><path class="cls-3" d="M597.54,113.32v-8.4h1.56v8.4Z"/><path class="cls-3" d="M605,113.44a3.64,3.64,0,0,1-2.69-1,3.82,3.82,0,0,1-1-2.82v-4.73h1.56v4.68a2.68,2.68,0,0,0,.56,1.89,2.08,2.08,0,0,0,1.58.59,2.06,2.06,0,0,0,1.57-.59,2.69,2.69,0,0,0,.55-1.89v-4.68h1.54v4.73a3.82,3.82,0,0,1-1,2.82A3.66,3.66,0,0,1,605,113.44Z"/><path class="cls-3" d="M610.83,113.32v-8.4h1.29l3.67,6.14h-.67l3.61-6.14H620l0,8.4h-1.5v-6.08h.29l-3,5.14h-.71L612,107.24h.36v6.08Z"/><path class="cls-3" d="M742.83,112h4.74v1.32h-6.3v-8.4h6.13v1.32h-4.57Zm-.12-3.58h4.17v1.28h-4.17Z"/><path class="cls-3" d="M749.31,113.32v-8.4h1.56V112h4.39v1.32Z"/><path class="cls-3" d="M756.49,113.32v-8.4h1.56v8.4Z"/><path class="cls-3" d="M762,113.32v-7.08h-2.79v-1.32h7.13v1.32h-2.79v7.08Z"/><path class="cls-3" d="M769.11,112h4.73v1.32h-6.29v-8.4h6.13v1.32h-4.57Zm-.12-3.58h4.17v1.28H769Z"/><path class="cls-3" d="M55.11,172v-6.3h2.83a2.77,2.77,0,0,1,1.67.44,1.41,1.41,0,0,1,.59,1.19,1.47,1.47,0,0,1-.85,1.41,2,2,0,0,1-.84.19l.16-.27a2.38,2.38,0,0,1,1,.18,1.57,1.57,0,0,1,.66.56,1.59,1.59,0,0,1,.24.9,1.47,1.47,0,0,1-.61,1.26,3.08,3.08,0,0,1-1.8.44Zm.9-.73h2.07a2.1,2.1,0,0,0,1.14-.25,1,1,0,0,0,0-1.59,2.1,2.1,0,0,0-1.14-.25H55.93v-.73h1.93a2,2,0,0,0,1.06-.25.95.95,0,0,0,0-1.52,2,2,0,0,0-1.06-.25H56Z"/><path class="cls-3" d="M61.8,172v-6.67h.86V172Z"/><path class="cls-3" d="M66.35,172.07a2.55,2.55,0,0,1-1.27-.32,2.32,2.32,0,0,1-.89-.87,2.45,2.45,0,0,1-.32-1.25,2.48,2.48,0,0,1,.32-1.26,2.42,2.42,0,0,1,.88-.86,2.8,2.8,0,0,1,2.56,0,2.34,2.34,0,0,1,.88.86,2.46,2.46,0,0,1,.32,1.26,2.51,2.51,0,0,1-.32,1.26,2.42,2.42,0,0,1-.88.86A2.59,2.59,0,0,1,66.35,172.07Zm0-.76a1.65,1.65,0,0,0,.83-.21,1.45,1.45,0,0,0,.57-.58,2,2,0,0,0,.2-.89,1.92,1.92,0,0,0-.2-.89,1.51,1.51,0,0,0-.57-.58,1.65,1.65,0,0,0-.83-.21,1.61,1.61,0,0,0-.82.21,1.51,1.51,0,0,0-.57.58,1.7,1.7,0,0,0-.22.89,1.75,1.75,0,0,0,.22.89,1.45,1.45,0,0,0,.57.58A1.61,1.61,0,0,0,66.35,171.31Z"/><path class="cls-3" d="M72,171.81a2.48,2.48,0,0,1-1.23-.29,2.19,2.19,0,0,1-.87-.81,2.45,2.45,0,0,1,0-2.42,2.24,2.24,0,0,1,.87-.8A2.48,2.48,0,0,1,72,167.2a2.46,2.46,0,0,1,1.12.25,1.85,1.85,0,0,1,.81.76,2.92,2.92,0,0,1,0,2.58,2,2,0,0,1-.81.77A2.46,2.46,0,0,1,72,171.81Zm.11,2a4.48,4.48,0,0,1-1.27-.18,2.62,2.62,0,0,1-1-.53l.42-.66a2.39,2.39,0,0,0,.82.45,3.1,3.1,0,0,0,1,.17,1.69,1.69,0,0,0,1.25-.4,1.63,1.63,0,0,0,.39-1.2v-1l.09-.95,0-.95v-1.31h.82v4.12a2.45,2.45,0,0,1-.63,1.86A2.63,2.63,0,0,1,72.11,173.81Zm0-2.75a1.81,1.81,0,0,0,.85-.2,1.4,1.4,0,0,0,.58-.55,1.53,1.53,0,0,0,.21-.81,1.58,1.58,0,0,0-.21-.81,1.44,1.44,0,0,0-.58-.54,1.81,1.81,0,0,0-.85-.2,1.84,1.84,0,0,0-.85.2,1.44,1.44,0,0,0-.58.54,1.58,1.58,0,0,0-.21.81,1.53,1.53,0,0,0,.21.81,1.4,1.4,0,0,0,.58.55A1.84,1.84,0,0,0,72.1,171.06Z"/><path class="cls-3" d="M77.83,172l2.85-6.3h.89l2.86,6.3h-.94l-2.55-5.79h.36L78.75,172ZM79,170.44l.25-.72h3.54l.26.72Z"/><path class="cls-3" d="M85.24,172v-4.77h.83v1.3l-.08-.32a1.42,1.42,0,0,1,.67-.76,2.36,2.36,0,0,1,1.15-.26V168h-.2a1.46,1.46,0,0,0-1.1.41,1.64,1.64,0,0,0-.4,1.2V172Z"/><path class="cls-3" d="M88.38,168v-.71h3V168Zm2.32,4.12a1.37,1.37,0,0,1-1.51-1.5V166.2h.87v4.34a.82.82,0,0,0,.19.59.71.71,0,0,0,.55.21,1,1,0,0,0,.68-.23l.27.62a1.27,1.27,0,0,1-.47.26A2.25,2.25,0,0,1,90.7,172.07Z"/><path class="cls-3" d="M93.23,166.32a.57.57,0,0,1-.42-.16.52.52,0,0,1-.17-.39.55.55,0,0,1,.17-.41.57.57,0,0,1,.42-.16.56.56,0,0,1,.41.16.51.51,0,0,1,.17.39.56.56,0,0,1-.16.41A.57.57,0,0,1,93.23,166.32ZM92.79,172v-4.77h.87V172Z"/><path class="cls-3" d="M97.38,172.07a2.66,2.66,0,0,1-1.3-.32,2.3,2.3,0,0,1-.89-.86,2.42,2.42,0,0,1-.33-1.26,2.37,2.37,0,0,1,.33-1.26,2.23,2.23,0,0,1,.89-.86,2.66,2.66,0,0,1,1.3-.31,2.54,2.54,0,0,1,1.16.25,1.89,1.89,0,0,1,.79.77l-.66.42a1.48,1.48,0,0,0-.57-.52,1.66,1.66,0,0,0-.73-.17,1.63,1.63,0,0,0-.83.21,1.56,1.56,0,0,0-.59.58,2,2,0,0,0,0,1.78,1.49,1.49,0,0,0,.59.58,1.63,1.63,0,0,0,.83.21,1.53,1.53,0,0,0,1.3-.68l.66.41a1.93,1.93,0,0,1-.79.76A2.42,2.42,0,0,1,97.38,172.07Z"/><path class="cls-3" d="M100.35,172v-6.67h.87V172Z"/><path class="cls-3" d="M105,172.07a2.81,2.81,0,0,1-1.35-.32,2.33,2.33,0,0,1-.9-.86,2.51,2.51,0,0,1-.32-1.26,2.56,2.56,0,0,1,.31-1.26,2.29,2.29,0,0,1,.86-.86,2.39,2.39,0,0,1,1.23-.31,2.42,2.42,0,0,1,1.22.3,2.21,2.21,0,0,1,.83.86,2.67,2.67,0,0,1,.3,1.29v.13c0,.05,0,.09,0,.14H103.1v-.62h3.61l-.35.21a1.71,1.71,0,0,0-.19-.82,1.48,1.48,0,0,0-.55-.56,1.7,1.7,0,0,0-1.6,0,1.37,1.37,0,0,0-.55.57,1.62,1.62,0,0,0-.2.83v.14a1.61,1.61,0,0,0,.22.85,1.45,1.45,0,0,0,.62.58,1.87,1.87,0,0,0,.9.21,2.07,2.07,0,0,0,.77-.14,1.57,1.57,0,0,0,.61-.44l.48.56a2,2,0,0,1-.81.58A2.83,2.83,0,0,1,105,172.07Z"/><path class="cls-3" d="M109.74,172.07a3.81,3.81,0,0,1-1.13-.17,2.35,2.35,0,0,1-.84-.39l.36-.69a3,3,0,0,0,.76.36,3.14,3.14,0,0,0,.91.14,1.7,1.7,0,0,0,.87-.17.53.53,0,0,0,.27-.48.45.45,0,0,0-.16-.35,1.14,1.14,0,0,0-.43-.19l-.59-.11c-.22,0-.43-.08-.65-.13a2.57,2.57,0,0,1-.59-.21,1.18,1.18,0,0,1-.44-.39,1.26,1.26,0,0,1-.16-.66,1.2,1.2,0,0,1,.25-.76,1.61,1.61,0,0,1,.68-.5,3.06,3.06,0,0,1,1.06-.17,4.47,4.47,0,0,1,1,.11,2.51,2.51,0,0,1,.79.32l-.37.68a2,2,0,0,0-.68-.29,2.74,2.74,0,0,0-.7-.08,1.54,1.54,0,0,0-.84.18.54.54,0,0,0-.28.47.45.45,0,0,0,.16.38,1.39,1.39,0,0,0,.44.2,4.08,4.08,0,0,0,.59.12c.21,0,.43.08.64.13a2.41,2.41,0,0,1,.59.21,1.05,1.05,0,0,1,.43.38,1,1,0,0,1,.17.64,1.15,1.15,0,0,1-.25.75,1.7,1.7,0,0,1-.71.49A3,3,0,0,1,109.74,172.07Z"/><path class="cls-3" d="M54.48,199.11a3.61,3.61,0,0,1-1.33-.24,3.22,3.22,0,0,1-1-.68,3.15,3.15,0,0,1-.7-1,3.43,3.43,0,0,1,0-2.57,3.17,3.17,0,0,1,.71-1,3.22,3.22,0,0,1,1-.68,3.61,3.61,0,0,1,1.33-.24,3.72,3.72,0,0,1,1.35.25,2.76,2.76,0,0,1,1,.73l-.58.57a2.32,2.32,0,0,0-.81-.56,2.38,2.38,0,0,0-1-.19,2.64,2.64,0,0,0-1,.18,2.44,2.44,0,0,0-.79.51,2.16,2.16,0,0,0-.51.77,2.55,2.55,0,0,0,0,1.93,2.16,2.16,0,0,0,.51.77,2.44,2.44,0,0,0,.79.51,2.64,2.64,0,0,0,1,.18,2.57,2.57,0,0,0,1-.19,2.22,2.22,0,0,0,.81-.57l.58.57a2.66,2.66,0,0,1-1,.73A3.58,3.58,0,0,1,54.48,199.11Z"/><path class="cls-3" d="M58.05,199v-4.76h.82v1.29l-.08-.32a1.47,1.47,0,0,1,.67-.76,2.36,2.36,0,0,1,1.15-.26v.84h-.2a1.49,1.49,0,0,0-1.1.41,1.66,1.66,0,0,0-.4,1.2V199Z"/><path class="cls-3" d="M63.72,199.09a2.77,2.77,0,0,1-1.34-.32,2.2,2.2,0,0,1-.9-.86,2.68,2.68,0,0,1,0-2.52,2.22,2.22,0,0,1,.86-.86,2.58,2.58,0,0,1,2.45,0,2.15,2.15,0,0,1,.83.86,2.64,2.64,0,0,1,.3,1.29v.12s0,.1,0,.14H61.83v-.62h3.61l-.35.21a1.51,1.51,0,0,0-.19-.82,1.45,1.45,0,0,0-.54-.56,1.72,1.72,0,0,0-1.61,0,1.51,1.51,0,0,0-.55.57,1.73,1.73,0,0,0-.2.83v.14a1.65,1.65,0,0,0,.23.86,1.55,1.55,0,0,0,.61.58,2.06,2.06,0,0,0,.91.2,2.11,2.11,0,0,0,.77-.14,1.83,1.83,0,0,0,.61-.43l.48.55a2,2,0,0,1-.81.58A2.85,2.85,0,0,1,63.72,199.09Z"/><path class="cls-3" d="M68.37,199.09a2.2,2.2,0,0,1-.93-.18,1.42,1.42,0,0,1-.62-.5,1.3,1.3,0,0,1-.22-.72,1.42,1.42,0,0,1,.19-.71,1.21,1.21,0,0,1,.6-.5,2.74,2.74,0,0,1,1.13-.19H70v.62H68.56a1.26,1.26,0,0,0-.88.22.67.67,0,0,0-.22.52.66.66,0,0,0,.28.56,1.24,1.24,0,0,0,.77.21,1.65,1.65,0,0,0,.85-.21,1.26,1.26,0,0,0,.53-.63l.17.59a1.34,1.34,0,0,1-.6.67A2.12,2.12,0,0,1,68.37,199.09Zm1.56-.06v-1l0-.19v-1.72a1.12,1.12,0,0,0-.32-.85,1.35,1.35,0,0,0-1-.3,2.37,2.37,0,0,0-.83.14,2,2,0,0,0-.68.37l-.36-.65a2.49,2.49,0,0,1,.89-.45,3.49,3.49,0,0,1,1.08-.16,2.17,2.17,0,0,1,1.51.48,1.83,1.83,0,0,1,.53,1.45V199Z"/><path class="cls-3" d="M71.67,195v-.71h3V195ZM74,199.09a1.5,1.5,0,0,1-1.11-.39,1.47,1.47,0,0,1-.4-1.11v-4.37h.86v4.34a.81.81,0,0,0,.2.59.71.71,0,0,0,.55.21,1,1,0,0,0,.68-.23l.27.63a1.37,1.37,0,0,1-.48.25A2.12,2.12,0,0,1,74,199.09Z"/><path class="cls-3" d="M78,199.09a2.78,2.78,0,0,1-1.35-.32,2.2,2.2,0,0,1-.9-.86,2.68,2.68,0,0,1,0-2.52,2.22,2.22,0,0,1,.86-.86,2.58,2.58,0,0,1,2.45,0,2.15,2.15,0,0,1,.83.86,2.64,2.64,0,0,1,.3,1.29v.12s0,.1,0,.14H76.13v-.62h3.61l-.35.21a1.51,1.51,0,0,0-.19-.82,1.45,1.45,0,0,0-.54-.56,1.72,1.72,0,0,0-1.61,0,1.58,1.58,0,0,0-.55.57,1.72,1.72,0,0,0-.19.83v.14a1.64,1.64,0,0,0,.22.86,1.55,1.55,0,0,0,.61.58,2.06,2.06,0,0,0,.91.2,2.11,2.11,0,0,0,.77-.14,1.83,1.83,0,0,0,.61-.43l.48.55a2,2,0,0,1-.81.58A2.83,2.83,0,0,1,78,199.09Z"/><path class="cls-3" d="M84,199v-6.3h2.45a3.36,3.36,0,0,1,1.42.27,2,2,0,0,1,.9.75,2.16,2.16,0,0,1,.31,1.18,2.08,2.08,0,0,1-.31,1.17,2,2,0,0,1-.9.76,3.36,3.36,0,0,1-1.42.27h-2l.41-.43V199Zm.9-2.24-.41-.45h1.94A2.06,2.06,0,0,0,87.7,196a1.32,1.32,0,0,0,.44-1,1.28,1.28,0,0,0-.44-1,2,2,0,0,0-1.31-.37H84.45l.41-.45Z"/><path class="cls-3" d="M90.06,199v-4.76h.83v1.29l-.08-.32a1.45,1.45,0,0,1,.66-.76,2.38,2.38,0,0,1,1.15-.26v.84h-.2a1.47,1.47,0,0,0-1.09.41,1.66,1.66,0,0,0-.41,1.2V199Z"/><path class="cls-3" d="M95.74,199.09a2.81,2.81,0,0,1-1.35-.32,2.2,2.2,0,0,1-.9-.86,2.51,2.51,0,0,1-.32-1.26,2.61,2.61,0,0,1,.31-1.26,2.22,2.22,0,0,1,.86-.86,2.39,2.39,0,0,1,1.23-.31,2.33,2.33,0,0,1,1.22.31,2.15,2.15,0,0,1,.83.86,2.64,2.64,0,0,1,.3,1.29v.12s0,.1,0,.14H93.85v-.62h3.61l-.36.21a1.6,1.6,0,0,0-.18-.82,1.55,1.55,0,0,0-.55-.56,1.61,1.61,0,0,0-.8-.2,1.68,1.68,0,0,0-.81.2,1.48,1.48,0,0,0-.54.57,1.62,1.62,0,0,0-.2.83v.14a1.64,1.64,0,0,0,.22.86,1.62,1.62,0,0,0,.61.58,2.18,2.18,0,0,0,1.68.06,1.74,1.74,0,0,0,.61-.43l.48.55a2,2,0,0,1-.81.58A2.83,2.83,0,0,1,95.74,199.09Z"/><path class="cls-3" d="M98.44,195v-.71h3V195Zm.81,4.05v-5.19a1.5,1.5,0,0,1,.41-1.12,1.54,1.54,0,0,1,1.16-.42,1.9,1.9,0,0,1,.54.07,1.33,1.33,0,0,1,.43.21l-.26.66a1.11,1.11,0,0,0-.3-.17,1.13,1.13,0,0,0-.36-.06.73.73,0,0,0-.58.22.87.87,0,0,0-.2.62v.64l0,.4V199Zm3.48-5.68a.61.61,0,0,1-.42-.16.56.56,0,0,1-.17-.4.57.57,0,0,1,.17-.41.61.61,0,0,1,.42-.16.57.57,0,0,1,.42.16.5.5,0,0,1,.16.39.56.56,0,0,1-.16.41A.57.57,0,0,1,102.73,193.35ZM102.3,199v-4.76h.86V199Z"/><path class="cls-3" d="M104.81,199v-6.67h.86V199Z"/><path class="cls-3" d="M109.44,199.09a2.77,2.77,0,0,1-1.34-.32,2.2,2.2,0,0,1-.9-.86,2.68,2.68,0,0,1,0-2.52,2.26,2.26,0,0,1,.85-.86,2.44,2.44,0,0,1,1.23-.31,2.37,2.37,0,0,1,1.23.31,2.15,2.15,0,0,1,.83.86,2.64,2.64,0,0,1,.3,1.29v.12s0,.1,0,.14h-4.06v-.62h3.61l-.35.21a1.6,1.6,0,0,0-.19-.82,1.45,1.45,0,0,0-.54-.56,1.72,1.72,0,0,0-1.61,0,1.51,1.51,0,0,0-.55.57,1.73,1.73,0,0,0-.2.83v.14a1.65,1.65,0,0,0,.23.86,1.55,1.55,0,0,0,.61.58,2.06,2.06,0,0,0,.91.2,2.11,2.11,0,0,0,.77-.14,1.83,1.83,0,0,0,.61-.43l.48.55a2,2,0,0,1-.81.58A2.85,2.85,0,0,1,109.44,199.09Z"/><path class="cls-3" d="M111.76,199.94l3-8.48h.78l-3,8.48Z"/><path class="cls-3" d="M58.93,209.83v-6.3h2.46a3.35,3.35,0,0,1,1.41.27,2,2,0,0,1,.9.75,2.15,2.15,0,0,1,.32,1.18,2.09,2.09,0,0,1-.32,1.17,2,2,0,0,1-.9.76,3.35,3.35,0,0,1-1.41.27h-2l.4-.43v2.33Zm.9-2.24-.4-.45h1.93a2,2,0,0,0,1.31-.37,1.43,1.43,0,0,0,0-2.08,2,2,0,0,0-1.31-.37H59.43l.4-.45Z"/><path class="cls-3" d="M65,209.83v-4.77h.83v1.3l-.08-.32a1.42,1.42,0,0,1,.67-.76A2.36,2.36,0,0,1,67.6,205v.84h-.2a1.49,1.49,0,0,0-1.1.41,1.66,1.66,0,0,0-.4,1.2v2.37Z"/><path class="cls-3" d="M70.63,209.89a2.55,2.55,0,0,1-1.27-.32,2.32,2.32,0,0,1-.89-.87,2.45,2.45,0,0,1-.32-1.25,2.51,2.51,0,0,1,.32-1.26,2.42,2.42,0,0,1,.88-.86,2.8,2.8,0,0,1,2.56,0,2.27,2.27,0,0,1,.88.86,2.64,2.64,0,0,1,0,2.52,2.27,2.27,0,0,1-.88.86A2.59,2.59,0,0,1,70.63,209.89Zm0-.76a1.76,1.76,0,0,0,.83-.2,1.54,1.54,0,0,0,.57-.59,2,2,0,0,0,.2-.89,1.92,1.92,0,0,0-.2-.89,1.51,1.51,0,0,0-.57-.58,1.65,1.65,0,0,0-.83-.2,1.61,1.61,0,0,0-.82.2,1.51,1.51,0,0,0-.57.58,1.7,1.7,0,0,0-.22.89,1.73,1.73,0,0,0,.22.89,1.54,1.54,0,0,0,.57.59A1.72,1.72,0,0,0,70.63,209.13Z"/><path class="cls-3" d="M76.38,209.89a2.66,2.66,0,0,1-1.3-.32,2.23,2.23,0,0,1-.89-.86,2.57,2.57,0,0,1,0-2.52,2.23,2.23,0,0,1,.89-.86,2.66,2.66,0,0,1,1.3-.31,2.42,2.42,0,0,1,1.16.26,1.81,1.81,0,0,1,.79.76l-.66.42a1.56,1.56,0,0,0-.57-.52,1.66,1.66,0,0,0-.73-.16,1.62,1.62,0,0,0-.83.2,1.56,1.56,0,0,0-.59.58,2,2,0,0,0,0,1.78,1.59,1.59,0,0,0,.59.59,1.73,1.73,0,0,0,.83.2,1.47,1.47,0,0,0,1.3-.68l.66.41a1.87,1.87,0,0,1-.79.76A2.42,2.42,0,0,1,76.38,209.89Z"/><path class="cls-3" d="M81.48,209.89a2.81,2.81,0,0,1-1.35-.32,2.2,2.2,0,0,1-.9-.86,2.51,2.51,0,0,1-.32-1.26,2.61,2.61,0,0,1,.31-1.26,2.22,2.22,0,0,1,.86-.86,2.39,2.39,0,0,1,1.23-.31,2.33,2.33,0,0,1,1.22.31,2.15,2.15,0,0,1,.83.86,2.62,2.62,0,0,1,.3,1.29v.12c0,.05,0,.1,0,.14H79.59v-.62H83.2l-.36.21a1.6,1.6,0,0,0-.18-.82,1.55,1.55,0,0,0-.55-.56,1.61,1.61,0,0,0-.8-.2,1.68,1.68,0,0,0-.81.2,1.41,1.41,0,0,0-.54.57,1.62,1.62,0,0,0-.2.83v.14a1.64,1.64,0,0,0,.22.86,1.62,1.62,0,0,0,.61.58,2.18,2.18,0,0,0,1.68.06,1.74,1.74,0,0,0,.61-.43l.48.55a2,2,0,0,1-.81.58A2.83,2.83,0,0,1,81.48,209.89Z"/><path class="cls-3" d="M86.23,209.89a4.17,4.17,0,0,1-1.13-.16,2.53,2.53,0,0,1-.84-.4l.36-.68a3.28,3.28,0,0,0,.75.35,3.21,3.21,0,0,0,.92.14,1.73,1.73,0,0,0,.87-.17.53.53,0,0,0,.27-.48.43.43,0,0,0-.17-.35,1.26,1.26,0,0,0-.42-.19l-.59-.11c-.22,0-.43-.07-.65-.12a3.25,3.25,0,0,1-.6-.22,1.07,1.07,0,0,1-.59-1.05,1.25,1.25,0,0,1,.24-.76,1.71,1.71,0,0,1,.69-.5A3.06,3.06,0,0,1,86.4,205a4.47,4.47,0,0,1,.95.11,2.51,2.51,0,0,1,.79.32l-.37.69a1.87,1.87,0,0,0-.68-.3,2.79,2.79,0,0,0-.7-.08,1.6,1.6,0,0,0-.85.18.55.55,0,0,0-.27.47.45.45,0,0,0,.16.38,1.22,1.22,0,0,0,.43.2,4.72,4.72,0,0,0,.59.12c.22,0,.44.08.65.13a2.57,2.57,0,0,1,.59.21,1.07,1.07,0,0,1,.6,1,1.14,1.14,0,0,1-.25.74,1.62,1.62,0,0,1-.71.49A3,3,0,0,1,86.23,209.89Z"/><path class="cls-3" d="M90.74,209.89a4.11,4.11,0,0,1-1.13-.16,2.53,2.53,0,0,1-.84-.4l.36-.68a3.28,3.28,0,0,0,.75.35,3.21,3.21,0,0,0,.92.14,1.73,1.73,0,0,0,.87-.17.52.52,0,0,0,.26-.48.42.42,0,0,0-.16-.35,1.36,1.36,0,0,0-.42-.19l-.59-.11c-.22,0-.44-.07-.65-.12a3.25,3.25,0,0,1-.6-.22,1.08,1.08,0,0,1-.43-.39,1.15,1.15,0,0,1-.16-.66,1.25,1.25,0,0,1,.24-.76,1.65,1.65,0,0,1,.69-.5,3.06,3.06,0,0,1,1.06-.17,4.47,4.47,0,0,1,1,.11,2.51,2.51,0,0,1,.79.32l-.37.69a1.87,1.87,0,0,0-.68-.3,2.79,2.79,0,0,0-.7-.08,1.6,1.6,0,0,0-.85.18.56.56,0,0,0-.28.47.46.46,0,0,0,.17.38,1.22,1.22,0,0,0,.43.2,4.72,4.72,0,0,0,.59.12c.22,0,.43.08.65.13a2.57,2.57,0,0,1,.59.21,1.07,1.07,0,0,1,.6,1,1.2,1.2,0,0,1-.25.74,1.62,1.62,0,0,1-.71.49A3.06,3.06,0,0,1,90.74,209.89Z"/><path class="cls-3" d="M94.31,204.15a.57.57,0,0,1-.42-.17.51.51,0,0,1-.16-.39.56.56,0,0,1,.16-.41.61.61,0,0,1,.42-.16.57.57,0,0,1,.42.16.51.51,0,0,1,.17.39.57.57,0,0,1-.17.41A.56.56,0,0,1,94.31,204.15Zm-.43,5.68v-4.77h.86v4.77Z"/><path class="cls-3" d="M98.94,205a2.26,2.26,0,0,1,1,.22,1.59,1.59,0,0,1,.69.69,2.34,2.34,0,0,1,.26,1.16v2.74h-.87v-2.64a1.5,1.5,0,0,0-.33-1.05,1.29,1.29,0,0,0-1-.35A1.73,1.73,0,0,0,98,206a1.27,1.27,0,0,0-.52.53,1.94,1.94,0,0,0-.19.88v2.45h-.86v-4.77h.83v1.29l-.14-.34a1.69,1.69,0,0,1,.72-.73A2.43,2.43,0,0,1,98.94,205Z"/><path class="cls-3" d="M104.5,209.64a2.53,2.53,0,0,1-1.24-.3,2.16,2.16,0,0,1-.86-.81,2.28,2.28,0,0,1,.86-3.22,2.64,2.64,0,0,1,1.24-.29,2.46,2.46,0,0,1,1.12.25,1.89,1.89,0,0,1,.8.76,2.92,2.92,0,0,1,0,2.58,2,2,0,0,1-.8.77A2.46,2.46,0,0,1,104.5,209.64Zm.11,2a4.55,4.55,0,0,1-1.28-.18,2.57,2.57,0,0,1-1-.53l.41-.66a2.59,2.59,0,0,0,.82.45,3.21,3.21,0,0,0,1,.17,1.67,1.67,0,0,0,1.24-.4,1.6,1.6,0,0,0,.4-1.2v-1l.09-1,0-.95v-1.31h.82v4.13a2.44,2.44,0,0,1-.63,1.85A2.56,2.56,0,0,1,104.61,211.63Zm0-2.75a1.74,1.74,0,0,0,.84-.2,1.4,1.4,0,0,0,.58-.55,1.45,1.45,0,0,0,.22-.81,1.49,1.49,0,0,0-.22-.81,1.44,1.44,0,0,0-.58-.54,1.74,1.74,0,0,0-.84-.19,1.8,1.8,0,0,0-.85.19,1.47,1.47,0,0,0-.59.54,1.58,1.58,0,0,0-.21.81,1.53,1.53,0,0,0,.21.81,1.42,1.42,0,0,0,.59.55A1.81,1.81,0,0,0,104.6,208.88Z"/><path class="cls-3" d="M58.37,237h-.9v-6.3h4.44v.78H58.37Zm-.09-3.33h3.25v.78H58.28Z"/><path class="cls-3" d="M63,237v-4.77h.83v1.29l-.08-.32a1.49,1.49,0,0,1,.66-.76,2.38,2.38,0,0,1,1.15-.26V233h-.2a1.47,1.47,0,0,0-1.09.41,1.66,1.66,0,0,0-.41,1.2V237Z"/><path class="cls-3" d="M68.65,237a2.8,2.8,0,0,1-1.35-.31,2.22,2.22,0,0,1-.9-.87,2.51,2.51,0,0,1-.32-1.26,2.61,2.61,0,0,1,.31-1.26,2.29,2.29,0,0,1,.86-.86,2.39,2.39,0,0,1,1.23-.31,2.33,2.33,0,0,1,1.22.31,2.15,2.15,0,0,1,.83.86,2.67,2.67,0,0,1,.3,1.29v.12s0,.1,0,.14H66.76v-.62h3.61l-.36.21a1.6,1.6,0,0,0-.18-.82,1.64,1.64,0,0,0-.55-.56,1.61,1.61,0,0,0-.8-.2,1.68,1.68,0,0,0-.81.2,1.48,1.48,0,0,0-.54.57,1.62,1.62,0,0,0-.2.83v.15a1.63,1.63,0,0,0,.22.85,1.55,1.55,0,0,0,.61.58,1.93,1.93,0,0,0,.91.2,1.89,1.89,0,0,0,.77-.14,1.74,1.74,0,0,0,.61-.43l.48.56a2.13,2.13,0,0,1-.81.57A2.83,2.83,0,0,1,68.65,237Z"/><path class="cls-3" d="M74.16,237a2.77,2.77,0,0,1-1.35-.31,2.22,2.22,0,0,1-.9-.87,2.68,2.68,0,0,1,0-2.52,2.29,2.29,0,0,1,.86-.86,2.58,2.58,0,0,1,2.45,0,2.15,2.15,0,0,1,.83.86,2.67,2.67,0,0,1,.3,1.29v.12s0,.1,0,.14H72.26v-.62h3.61l-.35.21a1.51,1.51,0,0,0-.19-.82,1.53,1.53,0,0,0-.54-.56,1.72,1.72,0,0,0-1.61,0,1.58,1.58,0,0,0-.55.57,1.72,1.72,0,0,0-.19.83v.15a1.63,1.63,0,0,0,.22.85,1.48,1.48,0,0,0,.61.58,2.18,2.18,0,0,0,1.68.06,1.83,1.83,0,0,0,.61-.43l.48.56a2.13,2.13,0,0,1-.81.57A2.83,2.83,0,0,1,74.16,237Z"/><path class="cls-3" d="M81.9,237l-2.77-6.3h1l2.55,5.81h-.56l2.57-5.81h.9L82.8,237Z"/><path class="cls-3" d="M86.58,231.29a.61.61,0,0,1-.42-.16.54.54,0,0,1-.17-.4.57.57,0,0,1,.17-.41.61.61,0,0,1,.42-.16.6.6,0,0,1,.41.16.54.54,0,0,1,.17.39.56.56,0,0,1-.16.41A.57.57,0,0,1,86.58,231.29ZM86.14,237v-4.77H87V237Z"/><path class="cls-3" d="M90.62,237a2.39,2.39,0,0,1-1.23-.31,2.2,2.2,0,0,1-.86-.85,2.53,2.53,0,0,1-.32-1.28,2.47,2.47,0,0,1,.32-1.27,2.13,2.13,0,0,1,.86-.85,2.39,2.39,0,0,1,1.23-.31,2.18,2.18,0,0,1,1.09.27,1.91,1.91,0,0,1,.78.81,2.75,2.75,0,0,1,.3,1.35,2.87,2.87,0,0,1-.29,1.35,2,2,0,0,1-.77.82A2.23,2.23,0,0,1,90.62,237Zm.08-.76a1.52,1.52,0,0,0,1.39-.79,1.83,1.83,0,0,0,.21-.89,1.8,1.8,0,0,0-.21-.89,1.61,1.61,0,0,0-.58-.58,1.76,1.76,0,0,0-1.63,0,1.69,1.69,0,0,0-.58.58,1.8,1.8,0,0,0-.21.89,1.83,1.83,0,0,0,.21.89,1.64,1.64,0,0,0,.58.59A1.58,1.58,0,0,0,90.7,236.27Zm1.63.71v-1.29l0-1.11-.09-1.1V230.3h.86V237Z"/><path class="cls-3" d="M96.92,237a2.8,2.8,0,0,1-1.35-.31,2.22,2.22,0,0,1-.9-.87,2.68,2.68,0,0,1,0-2.52,2.29,2.29,0,0,1,.86-.86,2.58,2.58,0,0,1,2.45,0,2.15,2.15,0,0,1,.83.86,2.67,2.67,0,0,1,.3,1.29v.12s0,.1,0,.14H95v-.62h3.6l-.35.21a1.51,1.51,0,0,0-.19-.82,1.53,1.53,0,0,0-.54-.56,1.72,1.72,0,0,0-1.61,0,1.58,1.58,0,0,0-.55.57,1.72,1.72,0,0,0-.19.83v.15a1.63,1.63,0,0,0,.22.85,1.48,1.48,0,0,0,.61.58,2.18,2.18,0,0,0,1.68.06,1.74,1.74,0,0,0,.61-.43l.48.56a2.13,2.13,0,0,1-.81.57A2.83,2.83,0,0,1,96.92,237Z"/><path class="cls-3" d="M102.34,237a2.57,2.57,0,0,1-1.27-.31,2.4,2.4,0,0,1-.89-.87,2.51,2.51,0,0,1-.32-1.26,2.45,2.45,0,0,1,.32-1.25,2.3,2.3,0,0,1,.89-.86,2.52,2.52,0,0,1,1.27-.32,2.58,2.58,0,0,1,1.28.31,2.34,2.34,0,0,1,.88.86,2.64,2.64,0,0,1,0,2.52,2.3,2.3,0,0,1-.88.87A2.58,2.58,0,0,1,102.34,237Zm0-.76a1.65,1.65,0,0,0,.83-.2,1.54,1.54,0,0,0,.57-.59,1.83,1.83,0,0,0,.21-.89,1.8,1.8,0,0,0-.21-.89,1.59,1.59,0,0,0-.57-.58,1.76,1.76,0,0,0-.83-.2,1.72,1.72,0,0,0-.82.2,1.59,1.59,0,0,0-.57.58,1.7,1.7,0,0,0-.22.89,1.73,1.73,0,0,0,.22.89,1.54,1.54,0,0,0,.57.59A1.61,1.61,0,0,0,102.34,236.27Z"/><path class="cls-3" d="M107.38,237a3.86,3.86,0,0,1-1.13-.16,2.74,2.74,0,0,1-.84-.4l.36-.68a3.16,3.16,0,0,0,1.68.49,1.56,1.56,0,0,0,.86-.17.53.53,0,0,0,.27-.47.42.42,0,0,0-.16-.36,1.14,1.14,0,0,0-.43-.18c-.18,0-.37-.08-.59-.12l-.65-.12a2.76,2.76,0,0,1-.59-.22,1,1,0,0,1-.43-.39,1.15,1.15,0,0,1-.16-.66,1.2,1.2,0,0,1,.24-.75,1.44,1.44,0,0,1,.69-.5,2.78,2.78,0,0,1,1-.18,4.4,4.4,0,0,1,1,.11,2.65,2.65,0,0,1,.79.32l-.37.69a1.82,1.82,0,0,0-.67-.3,3.43,3.43,0,0,0-.71-.08,1.57,1.57,0,0,0-.84.18.55.55,0,0,0-.28.48.45.45,0,0,0,.17.37,1.15,1.15,0,0,0,.43.2,4.38,4.38,0,0,0,.59.12l.65.13a2.75,2.75,0,0,1,.59.21,1.21,1.21,0,0,1,.43.38,1.3,1.3,0,0,1-.09,1.39,1.56,1.56,0,0,1-.71.49A3,3,0,0,1,107.38,237Z"/><path class="cls-3" d="M60.82,263.85h-.9v-6.3h4.45v.78H60.82Zm-.09-3.32H64v.77H60.73Z"/><path class="cls-3" d="M65.42,263.85v-4.77h.83v1.29l-.08-.32a1.49,1.49,0,0,1,.66-.76A2.42,2.42,0,0,1,68,259v.84h-.2a1.49,1.49,0,0,0-1.1.41,1.66,1.66,0,0,0-.4,1.2v2.38Z"/><path class="cls-3" d="M71.1,263.9a2.8,2.8,0,0,1-1.35-.31,2.35,2.35,0,0,1-.9-.87,2.45,2.45,0,0,1-.31-1.26,2.5,2.5,0,0,1,.31-1.26,2.26,2.26,0,0,1,.85-.86,2.5,2.5,0,0,1,1.23-.31,2.33,2.33,0,0,1,1.22.31,2.17,2.17,0,0,1,.84.86,2.67,2.67,0,0,1,.3,1.29.53.53,0,0,1,0,.12.61.61,0,0,1,0,.14H69.21v-.62h3.61l-.35.22a1.68,1.68,0,0,0-.19-.82,1.44,1.44,0,0,0-.55-.57,1.58,1.58,0,0,0-.8-.2,1.61,1.61,0,0,0-.8.2,1.44,1.44,0,0,0-.55.57,1.73,1.73,0,0,0-.2.83v.15a1.61,1.61,0,0,0,.22.85,1.51,1.51,0,0,0,.62.58,2.18,2.18,0,0,0,1.68.06,1.7,1.7,0,0,0,.6-.43l.48.56a2,2,0,0,1-.8.57A2.7,2.7,0,0,1,71.1,263.9Z"/><path class="cls-3" d="M76.61,263.9a2.8,2.8,0,0,1-1.35-.31,2.35,2.35,0,0,1-.9-.87,2.46,2.46,0,0,1-.32-1.26,2.61,2.61,0,0,1,.31-1.26,2.36,2.36,0,0,1,.86-.86,2.5,2.5,0,0,1,1.23-.31,2.33,2.33,0,0,1,1.22.31,2.15,2.15,0,0,1,.83.86,2.67,2.67,0,0,1,.3,1.29v.12c0,.05,0,.1,0,.14H74.72v-.62h3.61l-.35.22a1.68,1.68,0,0,0-.19-.82,1.51,1.51,0,0,0-.55-.57,1.7,1.7,0,0,0-1.6,0,1.44,1.44,0,0,0-.55.57,1.62,1.62,0,0,0-.2.83v.15a1.61,1.61,0,0,0,.22.85,1.51,1.51,0,0,0,.62.58,1.87,1.87,0,0,0,.9.2,1.89,1.89,0,0,0,.77-.14,1.65,1.65,0,0,0,.61-.43l.48.56a2.13,2.13,0,0,1-.81.57A2.65,2.65,0,0,1,76.61,263.9Z"/><path class="cls-3" d="M83.79,263.85v-5.52H81.63v-.78h5.21v.78H84.68v5.52Z"/><path class="cls-3" d="M89.24,263.9a2.57,2.57,0,0,1-1.27-.31,2.4,2.4,0,0,1-.89-.87,2.51,2.51,0,0,1-.32-1.26,2.45,2.45,0,0,1,.32-1.25,2.3,2.3,0,0,1,.89-.86,2.52,2.52,0,0,1,1.27-.32,2.69,2.69,0,0,1,1.28.31,2.34,2.34,0,0,1,.88.86,2.51,2.51,0,0,1,.32,1.26,2.46,2.46,0,0,1-.32,1.26,2.3,2.3,0,0,1-.88.87A2.58,2.58,0,0,1,89.24,263.9Zm0-.76a1.62,1.62,0,0,0,.83-.2,1.54,1.54,0,0,0,.57-.59,1.83,1.83,0,0,0,.21-.89,1.74,1.74,0,0,0-.21-.88,1.45,1.45,0,0,0-.57-.58,1.63,1.63,0,0,0-.83-.21,1.58,1.58,0,0,0-.81.21,1.47,1.47,0,0,0-.58.58,1.74,1.74,0,0,0-.22.88,1.83,1.83,0,0,0,.22.89,1.52,1.52,0,0,0,1.39.79Z"/><path class="cls-3" d="M95,263.9a2.54,2.54,0,0,1-1.27-.31,2.32,2.32,0,0,1-.89-.87,2.41,2.41,0,0,1-.32-1.26,2.34,2.34,0,0,1,1.2-2.11A2.56,2.56,0,0,1,95,259a2.65,2.65,0,0,1,1.27.31,2.37,2.37,0,0,1,.89.86,2.5,2.5,0,0,1,.31,1.26,2.45,2.45,0,0,1-.31,1.26,2.32,2.32,0,0,1-.89.87A2.54,2.54,0,0,1,95,263.9Zm0-.76a1.58,1.58,0,0,0,.82-.2,1.41,1.41,0,0,0,.57-.59,1.83,1.83,0,0,0,.21-.89,1.74,1.74,0,0,0-.21-.88,1.33,1.33,0,0,0-.57-.58,1.71,1.71,0,0,0-1.64,0,1.54,1.54,0,0,0-.58.58,1.74,1.74,0,0,0-.21.88,1.83,1.83,0,0,0,.21.89,1.64,1.64,0,0,0,.58.59A1.58,1.58,0,0,0,95,263.14Z"/><path class="cls-3" d="M98.63,263.85v-6.68h.86v6.68Z"/><path class="cls-3" d="M102.51,263.9a3.81,3.81,0,0,1-1.13-.16,2.53,2.53,0,0,1-.84-.4l.36-.68a3,3,0,0,0,.76.35,2.79,2.79,0,0,0,.91.14,1.6,1.6,0,0,0,.87-.17.53.53,0,0,0,.27-.47.45.45,0,0,0-.17-.36,1.09,1.09,0,0,0-.42-.18c-.18-.05-.38-.08-.59-.12s-.43-.07-.65-.12a2.58,2.58,0,0,1-.59-.22,1.1,1.1,0,0,1-.44-.39,1.24,1.24,0,0,1-.16-.66,1.17,1.17,0,0,1,.25-.75,1.46,1.46,0,0,1,.68-.5,2.83,2.83,0,0,1,1.06-.18,4.47,4.47,0,0,1,.95.11,2.77,2.77,0,0,1,.79.32l-.37.69a1.87,1.87,0,0,0-.68-.3,3.27,3.27,0,0,0-.7-.08,1.54,1.54,0,0,0-.84.18.55.55,0,0,0-.28.48.44.44,0,0,0,.16.37,1.05,1.05,0,0,0,.44.2,4.08,4.08,0,0,0,.59.12l.64.13a2.41,2.41,0,0,1,.59.21,1.13,1.13,0,0,1,.43.38,1.07,1.07,0,0,1,.17.65,1.12,1.12,0,0,1-.25.74,1.72,1.72,0,0,1-.71.5A3.26,3.26,0,0,1,102.51,263.9Z"/><path class="cls-3" d="M55.94,274.65H55v-6.3h4.45v.78H55.94Zm-.09-3.32H59.1v.77H55.85Z"/><path class="cls-3" d="M62.5,274.7a2.58,2.58,0,0,1-1.28-.31,2.3,2.3,0,0,1-.88-.87,2.42,2.42,0,0,1-.33-1.26,2.36,2.36,0,0,1,.33-1.25,2.27,2.27,0,0,1,.88-.86,2.56,2.56,0,0,1,1.28-.32,2.65,2.65,0,0,1,1.27.31,2.27,2.27,0,0,1,.88.86,2.41,2.41,0,0,1,.32,1.26,2.36,2.36,0,0,1-.32,1.26,2.23,2.23,0,0,1-.88.87A2.54,2.54,0,0,1,62.5,274.7Zm0-.76a1.61,1.61,0,0,0,.82-.2,1.54,1.54,0,0,0,.57-.59,1.83,1.83,0,0,0,.21-.89,1.74,1.74,0,0,0-.21-.88,1.45,1.45,0,0,0-.57-.58,1.61,1.61,0,0,0-.82-.21,1.59,1.59,0,0,0-.82.21,1.54,1.54,0,0,0-.58.58,1.74,1.74,0,0,0-.21.88,1.83,1.83,0,0,0,.21.89,1.64,1.64,0,0,0,.58.59A1.58,1.58,0,0,0,62.5,273.94Z"/><path class="cls-3" d="M66.17,274.65v-4.77H67v1.29l-.08-.32a1.49,1.49,0,0,1,.66-.76,2.38,2.38,0,0,1,1.15-.26v.84h-.19a1.48,1.48,0,0,0-1.1.41,1.66,1.66,0,0,0-.41,1.2v2.38Z"/><path class="cls-3" d="M74.24,274.72a4.14,4.14,0,0,1-1.37-.22,2.92,2.92,0,0,1-1-.57l.33-.7a3,3,0,0,0,.92.52,3.26,3.26,0,0,0,1.16.2,2.69,2.69,0,0,0,.89-.12,1.1,1.1,0,0,0,.51-.35.88.88,0,0,0,.16-.5.69.69,0,0,0-.21-.52,1.63,1.63,0,0,0-.55-.32,6.54,6.54,0,0,0-.74-.21c-.27-.06-.55-.13-.82-.21a4.21,4.21,0,0,1-.75-.31,1.65,1.65,0,0,1-.54-.51,1.48,1.48,0,0,1-.21-.83,1.65,1.65,0,0,1,.26-.89,1.81,1.81,0,0,1,.79-.66,3.34,3.34,0,0,1,1.36-.25,4,4,0,0,1,1.09.15,3.11,3.11,0,0,1,.94.41l-.3.72a2.84,2.84,0,0,0-.85-.39,3.39,3.39,0,0,0-.88-.12,2.4,2.4,0,0,0-.87.14,1.14,1.14,0,0,0-.5.35.92.92,0,0,0-.15.51.69.69,0,0,0,.21.53,1.58,1.58,0,0,0,.54.32l.75.21.81.21a4.19,4.19,0,0,1,.75.3,1.56,1.56,0,0,1,.54.51,1.43,1.43,0,0,1,.21.81,1.62,1.62,0,0,1-.26.88,1.69,1.69,0,0,1-.81.66A3.23,3.23,0,0,1,74.24,274.72Z"/><path class="cls-3" d="M80,274.7a2.73,2.73,0,0,1-1.34-.31,2.22,2.22,0,0,1-.9-.87,2.36,2.36,0,0,1-.32-1.26,2.5,2.5,0,0,1,.31-1.26,2.34,2.34,0,0,1,.85-.86,2.55,2.55,0,0,1,1.23-.31,2.39,2.39,0,0,1,1.23.31,2.15,2.15,0,0,1,.83.86,2.67,2.67,0,0,1,.3,1.29v.12s0,.1,0,.14H78.1v-.62h3.61l-.35.21a1.57,1.57,0,0,0-.19-.81,1.48,1.48,0,0,0-.54-.57,1.72,1.72,0,0,0-1.61,0,1.51,1.51,0,0,0-.55.57,1.73,1.73,0,0,0-.2.83v.15a1.71,1.71,0,0,0,.22.85,1.57,1.57,0,0,0,.62.58,2.18,2.18,0,0,0,1.68.06,1.83,1.83,0,0,0,.61-.43l.47.56a2,2,0,0,1-.8.57A2.67,2.67,0,0,1,80,274.7Z"/><path class="cls-3" d="M83.38,274.65V268h.86v6.68Z"/><path class="cls-3" d="M85.2,270.59v-.71h3v.71Zm.81,4.06v-5.2a1.44,1.44,0,0,1,1.58-1.54,2.33,2.33,0,0,1,.53.07,1.38,1.38,0,0,1,.44.21l-.26.66a1,1,0,0,0-.31-.17,1.36,1.36,0,0,0-.36-.05.74.74,0,0,0-.57.21.89.89,0,0,0-.2.62v.64l0,.4v4.15Z"/><path class="cls-3" d="M92.51,274.65h-.9v-6.3h.9Zm3.7-2.81H92.42v-.78h3.79Zm-.08-3.49H97v6.3h-.9Z"/><path class="cls-3" d="M100.92,274.7a2.8,2.8,0,0,1-1.35-.31,2.28,2.28,0,0,1-.9-.87,2.46,2.46,0,0,1-.32-1.26,2.61,2.61,0,0,1,.31-1.26,2.36,2.36,0,0,1,.86-.86,2.5,2.5,0,0,1,1.23-.31,2.33,2.33,0,0,1,1.22.31,2.15,2.15,0,0,1,.83.86,2.67,2.67,0,0,1,.3,1.29v.12s0,.1,0,.14H99v-.62h3.61l-.35.21a1.67,1.67,0,0,0-.19-.81,1.58,1.58,0,0,0-.55-.57,1.7,1.7,0,0,0-1.6,0,1.44,1.44,0,0,0-.55.57,1.62,1.62,0,0,0-.2.83v.15a1.61,1.61,0,0,0,.22.85,1.51,1.51,0,0,0,.62.58,1.87,1.87,0,0,0,.9.2,1.89,1.89,0,0,0,.77-.14,1.65,1.65,0,0,0,.61-.43l.48.56a2.13,2.13,0,0,1-.81.57A2.65,2.65,0,0,1,100.92,274.7Z"/><path class="cls-3" d="M104.3,274.65V268h.86v6.68Z"/><path class="cls-3" d="M106.81,276.39v-6.51h.83v1.28l0,1.11.09,1.11v3Zm2.53-1.69a2.19,2.19,0,0,1-1.08-.27,2.08,2.08,0,0,1-.79-.82,2.87,2.87,0,0,1-.29-1.35,3,3,0,0,1,.28-1.35,1.91,1.91,0,0,1,.78-.81,2.24,2.24,0,0,1,1.1-.27,2.4,2.4,0,0,1,1.24.31,2.26,2.26,0,0,1,.86.85,2.49,2.49,0,0,1,.31,1.27,2.53,2.53,0,0,1-.31,1.28,2.2,2.2,0,0,1-.86.85A2.4,2.4,0,0,1,109.34,274.7Zm-.07-.76a1.58,1.58,0,0,0,.82-.2,1.5,1.5,0,0,0,.58-.59,1.83,1.83,0,0,0,.21-.89,1.74,1.74,0,0,0-.21-.88,1.41,1.41,0,0,0-.58-.58,1.59,1.59,0,0,0-.82-.21,1.64,1.64,0,0,0-.82.21,1.45,1.45,0,0,0-.57.58,1.74,1.74,0,0,0-.21.88,1.83,1.83,0,0,0,.21.89,1.54,1.54,0,0,0,.57.59A1.63,1.63,0,0,0,109.27,273.94Z"/><path class="cls-3" d="M67,301.86a4.24,4.24,0,0,1-1.38-.22,2.86,2.86,0,0,1-1-.57l.33-.7a2.88,2.88,0,0,0,.92.52,3.26,3.26,0,0,0,1.16.2,2.77,2.77,0,0,0,.89-.12,1,1,0,0,0,.5-.35.79.79,0,0,0,.16-.5.69.69,0,0,0-.21-.52,1.54,1.54,0,0,0-.55-.32,6,6,0,0,0-.74-.21l-.81-.21a3.67,3.67,0,0,1-.75-.31A1.56,1.56,0,0,1,65,298a1.47,1.47,0,0,1-.21-.82,1.58,1.58,0,0,1,.26-.9,1.81,1.81,0,0,1,.79-.66,3.31,3.31,0,0,1,1.36-.24,4,4,0,0,1,1.09.14,3.22,3.22,0,0,1,.94.41l-.3.72a2.89,2.89,0,0,0-.86-.39,3.37,3.37,0,0,0-.87-.12,2.4,2.4,0,0,0-.87.14,1,1,0,0,0-.5.36.81.81,0,0,0-.16.5.69.69,0,0,0,.21.53,1.63,1.63,0,0,0,.55.32l.74.21c.27.06.55.13.82.21a4.19,4.19,0,0,1,.75.3,1.65,1.65,0,0,1,.54.51,1.43,1.43,0,0,1,.21.81,1.68,1.68,0,0,1-.26.89,1.84,1.84,0,0,1-.81.65A3.23,3.23,0,0,1,67,301.86Z"/><path class="cls-3" d="M72.78,301.84a2.8,2.8,0,0,1-1.35-.31,2.35,2.35,0,0,1-.9-.87,2.46,2.46,0,0,1-.32-1.26,2.61,2.61,0,0,1,.31-1.26,2.36,2.36,0,0,1,.86-.86,2.5,2.5,0,0,1,1.23-.31,2.33,2.33,0,0,1,1.22.31,2.09,2.09,0,0,1,.83.86,2.57,2.57,0,0,1,.31,1.29s0,.08,0,.13,0,.09,0,.13H70.89v-.62H74.5l-.35.22a1.68,1.68,0,0,0-.19-.82,1.51,1.51,0,0,0-.55-.57,1.7,1.7,0,0,0-1.6,0,1.44,1.44,0,0,0-.55.57,1.73,1.73,0,0,0-.2.83v.15a1.61,1.61,0,0,0,.22.85,1.51,1.51,0,0,0,.62.58,1.88,1.88,0,0,0,.91.21,2,2,0,0,0,.77-.15,1.58,1.58,0,0,0,.6-.43l.48.56a2.06,2.06,0,0,1-.81.57A2.65,2.65,0,0,1,72.78,301.84Z"/><path class="cls-3" d="M76.16,301.79v-6.68H77v6.68Z"/><path class="cls-3" d="M78,297.73V297h3v.71Zm.81,4.06v-5.2a1.56,1.56,0,0,1,.41-1.12,1.54,1.54,0,0,1,1.16-.41,2.35,2.35,0,0,1,.54.06,1.38,1.38,0,0,1,.44.21l-.26.66a1.34,1.34,0,0,0-.31-.17,1.42,1.42,0,0,0-.36-.05.78.78,0,0,0-.58.21.89.89,0,0,0-.19.62v5.19Z"/><path class="cls-3" d="M85.65,301.79v-5.52H83.49v-.78H88.7v.78H86.54v5.52Z"/><path class="cls-3" d="M91.18,301.84a2.76,2.76,0,0,1-1.34-.31,2.22,2.22,0,0,1-.9-.87,2.46,2.46,0,0,1-.32-1.26,2.5,2.5,0,0,1,.31-1.26,2.29,2.29,0,0,1,.86-.86A2.48,2.48,0,0,1,91,297a2.37,2.37,0,0,1,1.23.31,2.15,2.15,0,0,1,.83.86,2.67,2.67,0,0,1,.3,1.29v.13s0,.09,0,.13H89.29v-.62H92.9l-.35.22a1.58,1.58,0,0,0-.19-.82,1.48,1.48,0,0,0-.54-.57,1.72,1.72,0,0,0-1.61,0,1.51,1.51,0,0,0-.55.57,1.73,1.73,0,0,0-.2.83v.15a1.61,1.61,0,0,0,.23.85,1.48,1.48,0,0,0,.61.58,2.07,2.07,0,0,0,1.68.06,1.7,1.7,0,0,0,.61-.43l.48.56a2.13,2.13,0,0,1-.81.57A2.67,2.67,0,0,1,91.18,301.84Z"/><path class="cls-3" d="M95.94,301.84a3.77,3.77,0,0,1-1.13-.16,2.69,2.69,0,0,1-.85-.4l.37-.68a3.09,3.09,0,0,0,1.67.49,1.63,1.63,0,0,0,.87-.17.54.54,0,0,0,.26-.47.41.41,0,0,0-.16-.35,1,1,0,0,0-.43-.19c-.17-.05-.37-.08-.59-.12s-.43-.07-.64-.12a2.25,2.25,0,0,1-.6-.22,1.08,1.08,0,0,1-.43-.39,1.15,1.15,0,0,1-.16-.66,1.22,1.22,0,0,1,.24-.75,1.51,1.51,0,0,1,.69-.5,2.83,2.83,0,0,1,1.06-.18,3.93,3.93,0,0,1,1,.12,2.35,2.35,0,0,1,.78.31l-.37.69a2,2,0,0,0-.67-.3,3.34,3.34,0,0,0-.7-.08,1.6,1.6,0,0,0-.85.18.59.59,0,0,0-.28.48.45.45,0,0,0,.17.37,1,1,0,0,0,.43.2,4.72,4.72,0,0,0,.59.12l.65.13a2.57,2.57,0,0,1,.59.21,1.07,1.07,0,0,1,.6,1,1.16,1.16,0,0,1-.26.75,1.58,1.58,0,0,1-.71.49A3.2,3.2,0,0,1,95.94,301.84Z"/><path class="cls-3" d="M98.39,297.73V297h3v.71Zm2.32,4.11a1.5,1.5,0,0,1-1.11-.39,1.43,1.43,0,0,1-.4-1.1V296h.87v4.34a.85.85,0,0,0,.19.6.74.74,0,0,0,.55.2,1,1,0,0,0,.68-.22l.27.62a1.25,1.25,0,0,1-.47.25A2.25,2.25,0,0,1,100.71,301.84Z"/><path class="cls-3" d="M65.56,336.44v-6.52h.83v1.29l-.06,1.11.09,1.1v3Zm2.53-1.69a2.07,2.07,0,0,1-1.08-.28,2,2,0,0,1-.79-.81,3.34,3.34,0,0,1,0-2.7,1.91,1.91,0,0,1,.78-.81,2.21,2.21,0,0,1,1.1-.27,2.5,2.5,0,0,1,1.24.3,2.34,2.34,0,0,1,.86.85,2.53,2.53,0,0,1,.31,1.28,2.55,2.55,0,0,1-.31,1.28,2.26,2.26,0,0,1-.86.85A2.51,2.51,0,0,1,68.09,334.75ZM68,334a1.61,1.61,0,0,0,.82-.21,1.43,1.43,0,0,0,.58-.59,2,2,0,0,0,0-1.77,1.54,1.54,0,0,0-.58-.58,1.61,1.61,0,0,0-.82-.21,1.64,1.64,0,0,0-.82.21,1.51,1.51,0,0,0-.57.58,2,2,0,0,0,0,1.77,1.41,1.41,0,0,0,.57.59A1.64,1.64,0,0,0,68,334Z"/><path class="cls-3" d="M73.74,334.75a2.55,2.55,0,0,1-1.27-.32,2.32,2.32,0,0,1-.89-.87,2.62,2.62,0,0,1,0-2.51,2.42,2.42,0,0,1,.88-.86,2.8,2.8,0,0,1,2.56,0,2.27,2.27,0,0,1,.88.86,2.46,2.46,0,0,1,.32,1.26,2.51,2.51,0,0,1-.32,1.26,2.42,2.42,0,0,1-.88.86A2.59,2.59,0,0,1,73.74,334.75Zm0-.76a1.65,1.65,0,0,0,.83-.21,1.41,1.41,0,0,0,.57-.59,2.06,2.06,0,0,0,0-1.77,1.51,1.51,0,0,0-.57-.58,1.65,1.65,0,0,0-.83-.21,1.61,1.61,0,0,0-.82.21,1.51,1.51,0,0,0-.57.58,1.89,1.89,0,0,0,0,1.77,1.41,1.41,0,0,0,.57.59A1.61,1.61,0,0,0,73.74,334Z"/><path class="cls-3" d="M79.38,334.75a2.5,2.5,0,0,1-1.23-.31,2.2,2.2,0,0,1-.86-.85,2.56,2.56,0,0,1-.32-1.28,2.53,2.53,0,0,1,.32-1.28,2.26,2.26,0,0,1,.86-.85,2.49,2.49,0,0,1,1.23-.3,2.18,2.18,0,0,1,1.09.27,1.91,1.91,0,0,1,.78.81,2.75,2.75,0,0,1,.29,1.35,2.87,2.87,0,0,1-.28,1.35,1.89,1.89,0,0,1-.77.81A2.13,2.13,0,0,1,79.38,334.75Zm.08-.76a1.58,1.58,0,0,0,.81-.21,1.43,1.43,0,0,0,.58-.59,2,2,0,0,0,0-1.77,1.54,1.54,0,0,0-.58-.58,1.69,1.69,0,0,0-1.63,0,1.61,1.61,0,0,0-.58.58,2,2,0,0,0,0,1.77,1.5,1.5,0,0,0,.58.59A1.59,1.59,0,0,0,79.46,334Zm1.63.7v-1.28l0-1.11-.09-1.11V328h.86v6.67Z"/><path class="cls-3" d="M85.63,334.75a2.66,2.66,0,0,1-1.3-.32,2.3,2.3,0,0,1-.89-.86,2.42,2.42,0,0,1-.33-1.26,2.37,2.37,0,0,1,.33-1.26,2.17,2.17,0,0,1,.89-.86,2.66,2.66,0,0,1,1.3-.31,2.57,2.57,0,0,1,1.16.25,1.93,1.93,0,0,1,.79.76l-.66.43a1.48,1.48,0,0,0-.57-.52,1.66,1.66,0,0,0-.73-.17,1.63,1.63,0,0,0-.83.21,1.5,1.5,0,0,0-.59.58,1.91,1.91,0,0,0,0,1.78,1.43,1.43,0,0,0,.59.58,1.63,1.63,0,0,0,.83.21,1.53,1.53,0,0,0,1.3-.68l.66.41a1.93,1.93,0,0,1-.79.76A2.45,2.45,0,0,1,85.63,334.75Z"/><path class="cls-3" d="M90.09,334.75a2.28,2.28,0,0,1-.94-.18,1.45,1.45,0,0,1-.61-.5,1.26,1.26,0,0,1-.22-.73,1.32,1.32,0,0,1,.19-.7,1.21,1.21,0,0,1,.6-.5,2.71,2.71,0,0,1,1.13-.19h1.51v.62H90.28a1.32,1.32,0,0,0-.88.21.71.71,0,0,0-.22.53.66.66,0,0,0,.28.56,1.24,1.24,0,0,0,.77.21,1.58,1.58,0,0,0,.85-.22,1.23,1.23,0,0,0,.53-.63l.17.6a1.41,1.41,0,0,1-.61.67A2.18,2.18,0,0,1,90.09,334.75Zm1.56-.06v-1l0-.19v-1.72a1.12,1.12,0,0,0-.32-.85,1.38,1.38,0,0,0-1-.31,2.63,2.63,0,0,0-.83.14,2.11,2.11,0,0,0-.68.38l-.36-.65a2.44,2.44,0,0,1,.88-.45,3.6,3.6,0,0,1,1.09-.16,2.22,2.22,0,0,1,1.51.47,1.89,1.89,0,0,1,.53,1.46v2.88Z"/><path class="cls-3" d="M95.44,334.75a3.81,3.81,0,0,1-1.13-.17,2.35,2.35,0,0,1-.84-.39l.36-.69a3,3,0,0,0,.76.36,3.14,3.14,0,0,0,.91.14,1.68,1.68,0,0,0,.87-.17.53.53,0,0,0,.27-.48.45.45,0,0,0-.16-.35,1.14,1.14,0,0,0-.43-.19l-.59-.11c-.22,0-.43-.08-.65-.13a2.57,2.57,0,0,1-.59-.21,1.08,1.08,0,0,1-.43-.39,1.17,1.17,0,0,1-.17-.66,1.2,1.2,0,0,1,.25-.76,1.61,1.61,0,0,1,.68-.5,3.06,3.06,0,0,1,1.06-.17,4.47,4.47,0,0,1,1,.11,2.51,2.51,0,0,1,.79.32L97,331a2,2,0,0,0-.68-.29,2.74,2.74,0,0,0-.7-.08,1.54,1.54,0,0,0-.84.18.54.54,0,0,0-.28.47.45.45,0,0,0,.16.38,1.39,1.39,0,0,0,.44.2,4.08,4.08,0,0,0,.59.12c.21,0,.43.08.64.13a2.41,2.41,0,0,1,.59.21,1.05,1.05,0,0,1,.43.38,1,1,0,0,1,.17.64,1.15,1.15,0,0,1-.25.75,1.7,1.7,0,0,1-.71.49A3,3,0,0,1,95.44,334.75Z"/><path class="cls-3" d="M97.9,330.63v-.71h3v.71Zm2.32,4.12a1.54,1.54,0,0,1-1.12-.39,1.5,1.5,0,0,1-.39-1.11v-4.37h.86v4.34a.83.83,0,0,0,.2.59.69.69,0,0,0,.55.21,1,1,0,0,0,.67-.23l.27.62a1.27,1.27,0,0,1-.47.26A2.12,2.12,0,0,1,100.22,334.75Z"/><path class="cls-3" d="M69.43,360.56v-6.3h.9v6.3Z"/><path class="cls-3" d="M74.64,355.75a2.26,2.26,0,0,1,1,.22,1.61,1.61,0,0,1,.7.69,2.35,2.35,0,0,1,.25,1.16v2.74h-.86v-2.64a1.49,1.49,0,0,0-.34-1.05,1.26,1.26,0,0,0-1-.35,1.69,1.69,0,0,0-.8.18,1.29,1.29,0,0,0-.53.53,1.94,1.94,0,0,0-.18.88v2.45h-.87v-4.77h.83v1.29l-.13-.34a1.59,1.59,0,0,1,.72-.73A2.39,2.39,0,0,1,74.64,355.75Z"/><path class="cls-3" d="M77.54,356.51v-.72h3v.72Zm.81,4.05v-5.19a1.44,1.44,0,0,1,1.57-1.54,1.9,1.9,0,0,1,.54.07,1.2,1.2,0,0,1,.44.21l-.26.66a1.05,1.05,0,0,0-.31-.17,1.09,1.09,0,0,0-.36-.06.78.78,0,0,0-.58.21.91.91,0,0,0-.19.63v5.18Z"/><path class="cls-3" d="M83.35,360.62a2.55,2.55,0,0,1-1.27-.32,2.32,2.32,0,0,1-.89-.87,2.45,2.45,0,0,1-.32-1.25,2.48,2.48,0,0,1,.32-1.26,2.37,2.37,0,0,1,.89-.86,2.52,2.52,0,0,1,1.27-.31,2.58,2.58,0,0,1,1.28.31,2.27,2.27,0,0,1,.88.86,2.46,2.46,0,0,1,.32,1.26,2.51,2.51,0,0,1-.32,1.26,2.34,2.34,0,0,1-.88.86A2.59,2.59,0,0,1,83.35,360.62Zm0-.76a1.65,1.65,0,0,0,.83-.21,1.45,1.45,0,0,0,.57-.58,1.83,1.83,0,0,0,.2-.89,1.8,1.8,0,0,0-.2-.89,1.51,1.51,0,0,0-.57-.58,1.65,1.65,0,0,0-.83-.2,1.61,1.61,0,0,0-.82.2,1.51,1.51,0,0,0-.57.58,1.7,1.7,0,0,0-.22.89,1.73,1.73,0,0,0,.22.89,1.45,1.45,0,0,0,.57.58A1.61,1.61,0,0,0,83.35,359.86Z"/><path class="cls-3" d="M90.84,360.62a2.27,2.27,0,0,1-.93-.18,1.48,1.48,0,0,1-.62-.5,1.32,1.32,0,0,1-.21-.73,1.4,1.4,0,0,1,.18-.7,1.26,1.26,0,0,1,.6-.5,2.74,2.74,0,0,1,1.13-.19h1.52v.62H91a1.25,1.25,0,0,0-.87.22.7.7,0,0,0,0,1.08A1.29,1.29,0,0,0,91,360a1.7,1.7,0,0,0,.85-.21,1.27,1.27,0,0,0,.52-.64l.17.6a1.34,1.34,0,0,1-.6.67A2.22,2.22,0,0,1,90.84,360.62Zm1.57-.06v-1l0-.19v-1.72a1.12,1.12,0,0,0-.32-.85,1.35,1.35,0,0,0-1-.3,2.56,2.56,0,0,0-.82.13,2.28,2.28,0,0,0-.69.38l-.36-.65a2.49,2.49,0,0,1,.89-.45,3.49,3.49,0,0,1,1.08-.16,2.2,2.2,0,0,1,1.52.48,1.85,1.85,0,0,1,.53,1.45v2.88Z"/><path class="cls-3" d="M94.14,356.51v-.72h3v.72Zm2.33,4.11a1.53,1.53,0,0,1-1.12-.39,1.51,1.51,0,0,1-.4-1.11v-4.37h.87v4.34a.82.82,0,0,0,.19.59.72.72,0,0,0,.55.21,1,1,0,0,0,.68-.23l.27.62a1.27,1.27,0,0,1-.47.26A2.24,2.24,0,0,1,96.47,360.62Z"/><path class="cls-3" d="M58.69,370.58h3.67v.78H57.79v-6.3h4.44v.79H58.69Zm-.08-2.8h3.24v.77H58.61Z"/><path class="cls-3" d="M69.66,366.55a2.25,2.25,0,0,1,1,.22,1.64,1.64,0,0,1,.69.69,2.47,2.47,0,0,1,.24,1.16v2.74h-.86v-2.64a1.5,1.5,0,0,0-.33-1.05,1.16,1.16,0,0,0-.9-.35,1.55,1.55,0,0,0-.76.18,1.22,1.22,0,0,0-.5.53,1.94,1.94,0,0,0-.18.88v2.45h-.86v-2.64a1.55,1.55,0,0,0-.32-1.05,1.18,1.18,0,0,0-.91-.35,1.54,1.54,0,0,0-.75.18,1.28,1.28,0,0,0-.5.53,1.94,1.94,0,0,0-.18.88v2.45h-.87v-4.77h.83v1.27l-.13-.32a1.62,1.62,0,0,1,.69-.73,2.22,2.22,0,0,1,1.09-.26,2,2,0,0,1,1.18.34,1.56,1.56,0,0,1,.64,1l-.35-.15a1.85,1.85,0,0,1,.76-.88A2.37,2.37,0,0,1,69.66,366.55Z"/><path class="cls-3" d="M75.33,371.42A2.81,2.81,0,0,1,74,371.1a2.4,2.4,0,0,1-.9-.86,2.51,2.51,0,0,1-.32-1.26,2.46,2.46,0,0,1,.32-1.26,2.2,2.2,0,0,1,.85-.86,2.39,2.39,0,0,1,1.23-.31,2.42,2.42,0,0,1,1.22.3,2.21,2.21,0,0,1,.83.86,2.58,2.58,0,0,1,.31,1.3.57.57,0,0,1,0,.12c0,.05,0,.09,0,.14H73.44v-.62h3.61l-.35.21a1.71,1.71,0,0,0-.19-.82,1.35,1.35,0,0,0-.55-.56,1.7,1.7,0,0,0-1.6,0,1.32,1.32,0,0,0-.55.57,1.73,1.73,0,0,0-.2.83V369a1.61,1.61,0,0,0,.22.85,1.45,1.45,0,0,0,.62.58,1.88,1.88,0,0,0,.91.21,2.11,2.11,0,0,0,.77-.14,1.7,1.7,0,0,0,.6-.43l.48.55a2,2,0,0,1-.8.58A2.88,2.88,0,0,1,75.33,371.42Z"/><path class="cls-3" d="M78.71,371.36v-4.77h.83v1.3l-.08-.32a1.42,1.42,0,0,1,.67-.76,2.36,2.36,0,0,1,1.15-.26v.84h-.2a1.49,1.49,0,0,0-1.1.41,1.64,1.64,0,0,0-.4,1.2v2.37Z"/><path class="cls-3" d="M84.25,371.17a2.53,2.53,0,0,1-1.24-.3,2.16,2.16,0,0,1-.86-.81,2.28,2.28,0,0,1,.86-3.22,2.52,2.52,0,0,1,1.24-.29,2.39,2.39,0,0,1,1.11.25,1.8,1.8,0,0,1,.81.76,2.92,2.92,0,0,1,0,2.58,1.94,1.94,0,0,1-.81.77A2.39,2.39,0,0,1,84.25,371.17Zm.11,2a4.55,4.55,0,0,1-1.28-.18,2.71,2.71,0,0,1-1-.53l.41-.66a2.48,2.48,0,0,0,.82.45,3.21,3.21,0,0,0,1,.17,1.71,1.71,0,0,0,1.24-.4,1.64,1.64,0,0,0,.4-1.2v-1l.09-.95,0-1v-1.31h.82v4.12a2.45,2.45,0,0,1-.63,1.86A2.61,2.61,0,0,1,84.36,373.16Zm0-2.75a1.77,1.77,0,0,0,.84-.2,1.4,1.4,0,0,0,.58-.55,1.53,1.53,0,0,0,.22-.81,1.58,1.58,0,0,0-.22-.81,1.44,1.44,0,0,0-.58-.54,1.77,1.77,0,0,0-.84-.2,1.81,1.81,0,0,0-.85.2,1.47,1.47,0,0,0-.59.54,1.58,1.58,0,0,0-.21.81,1.53,1.53,0,0,0,.21.81,1.42,1.42,0,0,0,.59.55A1.81,1.81,0,0,0,84.35,370.41Z"/><path class="cls-3" d="M90.6,371.42a2.74,2.74,0,0,1-1.34-.32,2.26,2.26,0,0,1-.9-.86A2.41,2.41,0,0,1,88,369a2.45,2.45,0,0,1,.31-1.26,2.2,2.2,0,0,1,.85-.86,2.44,2.44,0,0,1,1.23-.31,2.49,2.49,0,0,1,1.23.3,2.28,2.28,0,0,1,.83.86,2.68,2.68,0,0,1,.3,1.3v.12c0,.05,0,.09,0,.14H88.71v-.62h3.61l-.35.21a1.6,1.6,0,0,0-.19-.82,1.39,1.39,0,0,0-.54-.56,1.72,1.72,0,0,0-1.61,0,1.38,1.38,0,0,0-.55.57,1.73,1.73,0,0,0-.2.83V369a1.71,1.71,0,0,0,.22.85,1.51,1.51,0,0,0,.62.58,1.91,1.91,0,0,0,.91.21,2.11,2.11,0,0,0,.77-.14,1.83,1.83,0,0,0,.61-.43l.47.55a2,2,0,0,1-.8.58A2.85,2.85,0,0,1,90.6,371.42Z"/><path class="cls-3" d="M96.53,366.55a2.23,2.23,0,0,1,1,.22,1.61,1.61,0,0,1,.7.69,2.35,2.35,0,0,1,.25,1.16v2.74h-.86v-2.64a1.46,1.46,0,0,0-.34-1.05,1.26,1.26,0,0,0-1-.35,1.71,1.71,0,0,0-.8.18A1.29,1.29,0,0,0,95,368a1.94,1.94,0,0,0-.18.88v2.45H94v-4.77h.82v1.29l-.13-.34a1.64,1.64,0,0,1,.72-.73A2.39,2.39,0,0,1,96.53,366.55Z"/><path class="cls-3" d="M102.2,371.42a2.7,2.7,0,0,1-1.31-.32,2.3,2.3,0,0,1-.89-.86,2.42,2.42,0,0,1-.33-1.26,2.37,2.37,0,0,1,.33-1.26,2.23,2.23,0,0,1,.89-.86,2.7,2.7,0,0,1,1.31-.31,2.52,2.52,0,0,1,1.15.25,1.89,1.89,0,0,1,.79.77l-.66.42a1.35,1.35,0,0,0-.57-.52,1.7,1.7,0,0,0-1.56,0,1.56,1.56,0,0,0-.59.58,2,2,0,0,0,0,1.78,1.49,1.49,0,0,0,.59.58,1.64,1.64,0,0,0,.84.21,1.76,1.76,0,0,0,.72-.16,1.49,1.49,0,0,0,.57-.52l.66.41a1.93,1.93,0,0,1-.79.76A2.41,2.41,0,0,1,102.2,371.42Z"/><path class="cls-3" d="M105.37,373.16a1.83,1.83,0,0,1-.66-.11,1.37,1.37,0,0,1-.56-.33l.37-.65a1.44,1.44,0,0,0,.39.27,1.22,1.22,0,0,0,.46.09.79.79,0,0,0,.52-.17,1.41,1.41,0,0,0,.39-.57l.3-.66.09-.11,1.87-4.33h.85l-2.32,5.25a2.74,2.74,0,0,1-.46.79,1.53,1.53,0,0,1-.56.41A1.87,1.87,0,0,1,105.37,373.16Zm1.14-1.64-2.18-4.93h.9l1.85,4.25Z"/><path class="cls-3" d="M66,393.54a3.67,3.67,0,0,1-1.34-.24,3.21,3.21,0,0,1-1.77-1.7,3.4,3.4,0,0,1,0-2.56,3.21,3.21,0,0,1,1.77-1.7,3.83,3.83,0,0,1,2.67,0,3,3,0,0,1,1.06.67,2.94,2.94,0,0,1,.7,1,3.43,3.43,0,0,1,0,2.57,3,3,0,0,1-.7,1,3.14,3.14,0,0,1-1.06.67A3.61,3.61,0,0,1,66,393.54Zm0-.8a2.63,2.63,0,0,0,1-.18,2.35,2.35,0,0,0,.77-.51,2.51,2.51,0,0,0,.7-1.73,2.32,2.32,0,0,0-.19-1,2.25,2.25,0,0,0-.51-.77,2.35,2.35,0,0,0-.77-.51,2.63,2.63,0,0,0-1-.18,2.58,2.58,0,0,0-1,.18,2.51,2.51,0,0,0-.78.51,2.25,2.25,0,0,0-.51.77,2.5,2.5,0,0,0,0,1.91,2.29,2.29,0,0,0,.51.78,2.51,2.51,0,0,0,.78.51A2.58,2.58,0,0,0,66,392.74Zm2.07,2a2.35,2.35,0,0,1-.6-.07,2.26,2.26,0,0,1-.58-.25,3.51,3.51,0,0,1-.59-.43,7.93,7.93,0,0,1-.67-.65l1-.25a4.54,4.54,0,0,0,.52.54,2.09,2.09,0,0,0,.49.31,1.41,1.41,0,0,0,.49.09,1.48,1.48,0,0,0,1.14-.54l.42.52A1.94,1.94,0,0,1,68.09,394.78Z"/><path class="cls-3" d="M72.63,393.52a2.45,2.45,0,0,1-1.08-.22,1.6,1.6,0,0,1-.72-.69,2.41,2.41,0,0,1-.26-1.17V388.7h.87v2.65a1.46,1.46,0,0,0,.34,1,1.25,1.25,0,0,0,.94.35,1.54,1.54,0,0,0,.79-.19A1.21,1.21,0,0,0,74,392a1.84,1.84,0,0,0,.18-.85V388.7h.86v4.77h-.81v-1.29l.13.34a1.67,1.67,0,0,1-.7.74A2,2,0,0,1,72.63,393.52Z"/><path class="cls-3" d="M78.84,393.52a2.8,2.8,0,0,1-1.35-.31,2.22,2.22,0,0,1-.9-.87,2.46,2.46,0,0,1-.32-1.26,2.5,2.5,0,0,1,.31-1.26,2.29,2.29,0,0,1,.86-.86,2.5,2.5,0,0,1,1.23-.31,2.43,2.43,0,0,1,1.22.31,2.15,2.15,0,0,1,.83.86,2.67,2.67,0,0,1,.3,1.29v.13c0,.05,0,.09,0,.13H77v-.62h3.61l-.36.22a1.57,1.57,0,0,0-.18-.82,1.48,1.48,0,0,0-.55-.56,1.52,1.52,0,0,0-.8-.21,1.58,1.58,0,0,0-.81.21,1.39,1.39,0,0,0-.54.56,1.65,1.65,0,0,0-.2.83v.15a1.61,1.61,0,0,0,.22.85,1.55,1.55,0,0,0,.61.58,1.94,1.94,0,0,0,.91.21,1.89,1.89,0,0,0,.77-.15,1.62,1.62,0,0,0,.61-.43l.48.56a2.27,2.27,0,0,1-.81.58A2.83,2.83,0,0,1,78.84,393.52Z"/><path class="cls-3" d="M83.59,393.52a3.81,3.81,0,0,1-1.13-.16,2.75,2.75,0,0,1-.84-.39l.36-.69a2.61,2.61,0,0,0,.75.35,2.91,2.91,0,0,0,.92.15,1.61,1.61,0,0,0,.87-.18.53.53,0,0,0,.27-.47.41.41,0,0,0-.17-.35,1,1,0,0,0-.42-.19l-.59-.11-.65-.13a2.25,2.25,0,0,1-.6-.22,1.13,1.13,0,0,1-.43-.38,1.2,1.2,0,0,1-.16-.66,1.25,1.25,0,0,1,.24-.76,1.63,1.63,0,0,1,.69-.5,2.83,2.83,0,0,1,1.06-.18,3.93,3.93,0,0,1,.95.12,2.29,2.29,0,0,1,.79.32l-.37.68a2.28,2.28,0,0,0-.68-.3,3.34,3.34,0,0,0-.7-.08,1.51,1.51,0,0,0-.85.19.56.56,0,0,0-.28.47.44.44,0,0,0,.17.37,1.23,1.23,0,0,0,.43.21l.59.12c.22,0,.43.07.65.12a2.57,2.57,0,0,1,.59.21,1.07,1.07,0,0,1,.6,1,1.15,1.15,0,0,1-.25.75,1.7,1.7,0,0,1-.71.49A3.3,3.3,0,0,1,83.59,393.52Z"/><path class="cls-3" d="M86,389.41v-.71h3v.71Zm2.33,4.11a1.57,1.57,0,0,1-1.12-.38,1.5,1.5,0,0,1-.39-1.11v-4.38h.86V392a.85.85,0,0,0,.19.6.73.73,0,0,0,.56.2,1,1,0,0,0,.67-.22l.27.62a1.25,1.25,0,0,1-.47.25A1.79,1.79,0,0,1,88.37,393.52Z"/><path class="cls-3" d="M90.89,387.78a.57.57,0,0,1-.42-.16.56.56,0,0,1,0-.8.57.57,0,0,1,.42-.16.64.64,0,0,1,.42.15.57.57,0,0,1-.42,1Zm-.44,5.69V388.7h.87v4.77Z"/><path class="cls-3" d="M95,393.52a2.52,2.52,0,0,1-1.27-.31,2.26,2.26,0,0,1-.89-.87,2.42,2.42,0,0,1-.33-1.26A2.37,2.37,0,0,1,93.73,389a2.56,2.56,0,0,1,1.28-.32,2.65,2.65,0,0,1,1.27.31,2.27,2.27,0,0,1,.88.86,2.41,2.41,0,0,1,.32,1.26,2.36,2.36,0,0,1-.32,1.26,2.23,2.23,0,0,1-.88.87A2.54,2.54,0,0,1,95,393.52Zm0-.75a1.61,1.61,0,0,0,.82-.21,1.35,1.35,0,0,0,.57-.59,1.8,1.8,0,0,0,.21-.89,1.76,1.76,0,0,0-.21-.88,1.39,1.39,0,0,0-.57-.58,1.61,1.61,0,0,0-.82-.21,1.59,1.59,0,0,0-.82.21,1.61,1.61,0,0,0-.58.58,1.76,1.76,0,0,0-.21.88,1.8,1.8,0,0,0,.21.89,1.57,1.57,0,0,0,.58.59A1.59,1.59,0,0,0,95,392.77Z"/><path class="cls-3" d="M101.23,388.65a2.26,2.26,0,0,1,1,.23,1.62,1.62,0,0,1,.69.68,2.4,2.4,0,0,1,.26,1.16v2.75h-.87v-2.65a1.46,1.46,0,0,0-.33-1,1.29,1.29,0,0,0-1-.35,1.73,1.73,0,0,0-.81.18,1.21,1.21,0,0,0-.52.53,1.87,1.87,0,0,0-.19.87v2.46h-.86V388.7h.83V390l-.14-.35a1.67,1.67,0,0,1,.72-.72A2.32,2.32,0,0,1,101.23,388.65Z"/><path class="cls-3" d="M63.41,404.34a3.58,3.58,0,0,1-1.33-.24,3.11,3.11,0,0,1-1.75-1.69,3.45,3.45,0,0,1,0-2.58,3.09,3.09,0,0,1,1.76-1.69,3.52,3.52,0,0,1,1.32-.24,3.68,3.68,0,0,1,1.35.24,2.79,2.79,0,0,1,1,.74l-.59.56a2.46,2.46,0,0,0-.81-.56,2.56,2.56,0,0,0-1-.18,2.72,2.72,0,0,0-1,.18,2.43,2.43,0,0,0-.78.5,2.14,2.14,0,0,0-.52.77,2.7,2.7,0,0,0,0,1.94,2.23,2.23,0,0,0,.52.77,2.43,2.43,0,0,0,.78.5,2.72,2.72,0,0,0,1,.18,2.56,2.56,0,0,0,1-.18,2.38,2.38,0,0,0,.81-.58l.59.57a2.79,2.79,0,0,1-1,.74A3.49,3.49,0,0,1,63.41,404.34Z"/><path class="cls-3" d="M68.27,404.32a2.27,2.27,0,0,1-.93-.18,1.38,1.38,0,0,1-.61-.5,1.2,1.2,0,0,1-.22-.72,1.28,1.28,0,0,1,.79-1.21,2.88,2.88,0,0,1,1.13-.19h1.51v.62H68.46a1.3,1.3,0,0,0-.87.22.73.73,0,0,0,0,1.09,1.29,1.29,0,0,0,.78.21,1.58,1.58,0,0,0,.85-.22,1.23,1.23,0,0,0,.53-.63l.17.59a1.38,1.38,0,0,1-.61.68A2.2,2.2,0,0,1,68.27,404.32Zm1.57-.05v-1l0-.19v-1.72a1.13,1.13,0,0,0-.32-.85,1.38,1.38,0,0,0-1-.3,2.63,2.63,0,0,0-.83.14,2.1,2.1,0,0,0-.68.37l-.36-.64a2.63,2.63,0,0,1,.88-.46,3.94,3.94,0,0,1,1.09-.16,2.19,2.19,0,0,1,1.51.48,1.88,1.88,0,0,1,.53,1.46v2.88Z"/><path class="cls-3" d="M71.58,400.21v-.71h3v.71Zm2.32,4.11a1.58,1.58,0,0,1-1.12-.38,1.5,1.5,0,0,1-.39-1.11v-4.38h.86v4.34a.85.85,0,0,0,.2.6.73.73,0,0,0,.55.2,1,1,0,0,0,.67-.22l.27.62a1.25,1.25,0,0,1-.47.25A1.79,1.79,0,0,1,73.9,404.32Z"/><path class="cls-3" d="M77.38,404.32a2.27,2.27,0,0,1-.93-.18,1.41,1.41,0,0,1-.62-.5,1.27,1.27,0,0,1-.21-.72,1.38,1.38,0,0,1,.18-.7,1.36,1.36,0,0,1,.61-.51,2.84,2.84,0,0,1,1.13-.19h1.51v.62H77.57a1.3,1.3,0,0,0-.87.22.71.71,0,0,0-.23.52.71.71,0,0,0,.28.57,1.29,1.29,0,0,0,.78.21,1.61,1.61,0,0,0,.85-.22,1.21,1.21,0,0,0,.52-.63l.17.59a1.32,1.32,0,0,1-.6.68A2.23,2.23,0,0,1,77.38,404.32Zm1.57-.05v-1l0-.19v-1.72a1.09,1.09,0,0,0-.32-.85,1.35,1.35,0,0,0-1-.3,2.57,2.57,0,0,0-.82.14,2.27,2.27,0,0,0-.69.37l-.36-.64a2.68,2.68,0,0,1,.89-.46,3.86,3.86,0,0,1,1.08-.16,2.2,2.2,0,0,1,1.52.48,1.88,1.88,0,0,1,.53,1.46v2.88Z"/><path class="cls-3" d="M81.37,404.27v-6.68h.86v6.68Z"/><path class="cls-3" d="M85.92,404.32a2.57,2.57,0,0,1-1.27-.31,2.4,2.4,0,0,1-.89-.87,2.51,2.51,0,0,1-.32-1.26,2.45,2.45,0,0,1,.32-1.25,2.37,2.37,0,0,1,.89-.86,2.52,2.52,0,0,1,1.27-.32,2.69,2.69,0,0,1,1.28.31,2.34,2.34,0,0,1,.88.86,2.51,2.51,0,0,1,.32,1.26,2.46,2.46,0,0,1-.32,1.26,2.3,2.3,0,0,1-.88.87A2.58,2.58,0,0,1,85.92,404.32Zm0-.75a1.65,1.65,0,0,0,.83-.21,1.47,1.47,0,0,0,.57-.59,1.8,1.8,0,0,0,.21-.89,1.76,1.76,0,0,0-.21-.88,1.51,1.51,0,0,0-.57-.58,1.65,1.65,0,0,0-.83-.21,1.61,1.61,0,0,0-.82.21,1.51,1.51,0,0,0-.57.58,1.67,1.67,0,0,0-.22.88,1.7,1.7,0,0,0,.22.89,1.47,1.47,0,0,0,.57.59A1.61,1.61,0,0,0,85.92,403.57Z"/><path class="cls-3" d="M91.58,404.07a2.61,2.61,0,0,1-1.24-.29,2.35,2.35,0,0,1-.87-3.23,2.19,2.19,0,0,1,.87-.81,2.61,2.61,0,0,1,1.24-.29,2.55,2.55,0,0,1,1.11.25,1.91,1.91,0,0,1,.81.76,2.95,2.95,0,0,1,0,2.59,1.91,1.91,0,0,1-.81.76A2.3,2.3,0,0,1,91.58,404.07Zm.1,2a4.16,4.16,0,0,1-1.27-.19,2.49,2.49,0,0,1-1-.52l.41-.67a2.5,2.5,0,0,0,.82.46,3.11,3.11,0,0,0,1,.16,1.72,1.72,0,0,0,1.24-.39,1.68,1.68,0,0,0,.39-1.21v-1l.09-.94,0-1v-1.3h.82v4.12a2.46,2.46,0,0,1-.63,1.86A2.63,2.63,0,0,1,91.68,406.07Zm0-2.76a1.8,1.8,0,0,0,.85-.19,1.54,1.54,0,0,0,.58-.55,1.58,1.58,0,0,0,.21-.81,1.53,1.53,0,0,0-.21-.81,1.4,1.4,0,0,0-.58-.55,1.8,1.8,0,0,0-.85-.19,1.83,1.83,0,0,0-.85.19,1.46,1.46,0,0,0-.58.55,1.53,1.53,0,0,0-.21.81,1.58,1.58,0,0,0,.21.81,1.61,1.61,0,0,0,.58.55A1.83,1.83,0,0,0,91.67,403.31Z"/><path class="cls-3" d="M97.81,404.32a2.41,2.41,0,0,1-1.07-.22,1.6,1.6,0,0,1-.72-.69,2.41,2.41,0,0,1-.26-1.17V399.5h.86v2.64A1.51,1.51,0,0,0,97,403.2a1.28,1.28,0,0,0,1,.35,1.5,1.5,0,0,0,.78-.19,1.18,1.18,0,0,0,.52-.54,1.84,1.84,0,0,0,.18-.85V399.5h.86v4.77h-.82V403l.14.34a1.67,1.67,0,0,1-.7.74A2.11,2.11,0,0,1,97.81,404.32Z"/><path class="cls-3" d="M104,404.32a2.73,2.73,0,0,1-1.34-.31,2.22,2.22,0,0,1-.9-.87,2.36,2.36,0,0,1-.32-1.26,2.5,2.5,0,0,1,.31-1.26,2.26,2.26,0,0,1,.85-.86,2.55,2.55,0,0,1,1.23-.31,2.5,2.5,0,0,1,1.23.31,2.15,2.15,0,0,1,.83.86,2.67,2.67,0,0,1,.3,1.29.62.62,0,0,1,0,.13.53.53,0,0,1,0,.13h-4.06v-.62h3.61l-.35.22a1.58,1.58,0,0,0-.19-.82,1.39,1.39,0,0,0-.54-.56,1.65,1.65,0,0,0-1.61,0,1.41,1.41,0,0,0-.55.56,1.76,1.76,0,0,0-.2.83v.15a1.71,1.71,0,0,0,.22.85,1.57,1.57,0,0,0,.62.58,2.07,2.07,0,0,0,1.68.06,1.7,1.7,0,0,0,.61-.43l.47.56a2.15,2.15,0,0,1-.8.58A2.85,2.85,0,0,1,104,404.32Z"/><path class="cls-3" d="M69.17,430.48a3.67,3.67,0,0,1-1.34-.24,3.21,3.21,0,0,1-1.77-1.7,3.4,3.4,0,0,1,0-2.56,3.21,3.21,0,0,1,1.77-1.7,3.83,3.83,0,0,1,2.67,0,3.14,3.14,0,0,1,1.06.67,3,3,0,0,1,.7,1,3.43,3.43,0,0,1,0,2.57,3.09,3.09,0,0,1-1.76,1.69A3.61,3.61,0,0,1,69.17,430.48Zm0-.8a2.63,2.63,0,0,0,1-.18,2.35,2.35,0,0,0,.77-.51,2.51,2.51,0,0,0,.7-1.73,2.32,2.32,0,0,0-.19-1,2.25,2.25,0,0,0-.51-.77,2.35,2.35,0,0,0-.77-.51,2.63,2.63,0,0,0-1-.18,2.58,2.58,0,0,0-1,.18,2.51,2.51,0,0,0-.78.51,2.25,2.25,0,0,0-.51.77,2.5,2.5,0,0,0,0,1.91,2.29,2.29,0,0,0,.51.78,2.51,2.51,0,0,0,.78.51A2.58,2.58,0,0,0,69.16,429.68Zm2.07,2.05a2.35,2.35,0,0,1-.6-.08,2.08,2.08,0,0,1-.58-.25,3.51,3.51,0,0,1-.59-.43,6.62,6.62,0,0,1-.67-.65l1-.25a4.54,4.54,0,0,0,.52.54,1.8,1.8,0,0,0,.49.31,1.41,1.41,0,0,0,.49.09,1.48,1.48,0,0,0,1.14-.54l.42.52A2,2,0,0,1,71.23,431.73Z"/><path class="cls-3" d="M75.77,430.46a2.45,2.45,0,0,1-1.08-.22,1.6,1.6,0,0,1-.72-.69,2.4,2.4,0,0,1-.26-1.16v-2.75h.87v2.65a1.44,1.44,0,0,0,.34,1,1.26,1.26,0,0,0,1,.35,1.63,1.63,0,0,0,.78-.18,1.33,1.33,0,0,0,.51-.54,1.91,1.91,0,0,0,.18-.86v-2.47h.86v4.77h-.81v-1.29l.13.35a1.65,1.65,0,0,1-.7.73A2,2,0,0,1,75.77,430.46Z"/><path class="cls-3" d="M80.29,424.72a.57.57,0,0,1-.42-.16.56.56,0,0,1,0-.8.57.57,0,0,1,.42-.16.56.56,0,0,1,.41.16.51.51,0,0,1,.17.39.57.57,0,0,1-.16.41A.57.57,0,0,1,80.29,424.72Zm-.44,5.69v-4.77h.87v4.77Z"/><path class="cls-3" d="M81.91,430.41v-.56l3-3.8.18.3H82v-.71h3.87v.57L82.77,430l-.2-.3H85.9v.71Z"/><path class="cls-3" d="M86.59,430.41v-.56l3.06-3.8.17.3H86.65v-.71h3.87v.57L87.46,430l-.2-.3h3.33v.71Z"/><path class="cls-3" d="M93.78,430.46a2.8,2.8,0,0,1-1.35-.31,2.26,2.26,0,0,1-.9-.86,2.51,2.51,0,0,1-.32-1.26,2.45,2.45,0,0,1,.31-1.26,2.16,2.16,0,0,1,.86-.86,2.39,2.39,0,0,1,1.23-.31,2.45,2.45,0,0,1,1.22.3,2.21,2.21,0,0,1,.83.86,2.67,2.67,0,0,1,.3,1.29v.13a.62.62,0,0,0,0,.13H91.89v-.62h3.6l-.35.22a1.49,1.49,0,0,0-.19-.82,1.39,1.39,0,0,0-.54-.56,1.52,1.52,0,0,0-.8-.21,1.55,1.55,0,0,0-.81.21,1.48,1.48,0,0,0-.55.56,1.76,1.76,0,0,0-.19.84v.14a1.61,1.61,0,0,0,.22.85,1.48,1.48,0,0,0,.61.58,2.07,2.07,0,0,0,1.68.06,1.62,1.62,0,0,0,.61-.43l.48.56a2.27,2.27,0,0,1-.81.58A2.83,2.83,0,0,1,93.78,430.46Z"/><path class="cls-3" d="M98.53,430.46a3.77,3.77,0,0,1-1.13-.16,2.75,2.75,0,0,1-.84-.39l.36-.69a2.61,2.61,0,0,0,.75.35,2.91,2.91,0,0,0,.92.15,1.73,1.73,0,0,0,.87-.17.54.54,0,0,0,.26-.48.41.41,0,0,0-.16-.35,1,1,0,0,0-.42-.19l-.59-.11-.65-.13a2.25,2.25,0,0,1-.6-.22,1.13,1.13,0,0,1-.43-.38,1.2,1.2,0,0,1-.16-.66,1.25,1.25,0,0,1,.24-.76,1.57,1.57,0,0,1,.69-.5,2.84,2.84,0,0,1,1.06-.17,3.91,3.91,0,0,1,1,.11,2.29,2.29,0,0,1,.79.32l-.37.68a2.28,2.28,0,0,0-.68-.3,3.34,3.34,0,0,0-.7-.08,1.51,1.51,0,0,0-.85.19.56.56,0,0,0-.28.47.44.44,0,0,0,.17.37,1.23,1.23,0,0,0,.43.21l.59.12c.22,0,.43.07.65.12a2.58,2.58,0,0,1,.59.22,1.11,1.11,0,0,1,.43.37,1.16,1.16,0,0,1,.17.65,1.21,1.21,0,0,1-.25.75,1.7,1.7,0,0,1-.71.49A3.06,3.06,0,0,1,98.53,430.46Z"/><rect class="cls-4" x="36.24" y="121.75" width="785.93" height="32.18"/><rect class="cls-4" x="128.02" y="121.75" width="198.86" height="321.76"/><rect class="cls-4" x="326.88" y="121.75" width="185.14" height="321.76"/><rect class="cls-4" x="512.02" y="121.75" width="147.96" height="321.76"/><rect class="cls-4" x="36.24" y="153.93" width="785.93" height="32.18"/><rect class="cls-4" x="36.24" y="186.1" width="785.93" height="32.18"/><rect class="cls-4" x="36.24" y="218.28" width="785.93" height="32.18"/><rect class="cls-4" x="36.24" y="250.45" width="785.93" height="32.18"/><rect class="cls-4" x="36.24" y="282.63" width="785.93" height="32.18"/><rect class="cls-4" x="36.24" y="314.8" width="785.93" height="32.18"/><rect class="cls-4" x="36.24" y="346.98" width="785.93" height="32.18"/><rect class="cls-4" x="36.24" y="379.16" width="785.93" height="32.18"/><rect class="cls-4" x="36.24" y="411.33" width="785.93" height="32.18"/><circle class="cls-5" cx="227.45" cy="137.84" r="10.35"/><polyline class="cls-6" points="221.42 136 222.87 140.29 233.47 135.39"/><circle class="cls-5" cx="227.45" cy="170.01" r="10.35"/><polyline class="cls-6" points="221.42 168.17 222.87 172.46 233.47 167.56"/><circle class="cls-5" cx="227.45" cy="203.77" r="10.35"/><polyline class="cls-6" points="221.42 201.93 222.87 206.22 233.47 201.32"/><circle class="cls-5" cx="227.45" cy="233.31" r="10.35"/><polyline class="cls-6" points="221.42 231.47 222.87 235.76 233.47 230.86"/><circle class="cls-5" cx="227.45" cy="266.54" r="10.35"/><polyline class="cls-6" points="221.42 264.7 222.87 268.99 233.47 264.09"/><circle class="cls-5" cx="227.45" cy="299.77" r="10.35"/><polyline class="cls-6" points="221.42 297.93 222.87 302.22 233.47 297.32"/><circle class="cls-5" cx="227.45" cy="330.89" r="10.35"/><polyline class="cls-6" points="221.42 329.05 222.87 333.34 233.47 328.44"/><circle class="cls-5" cx="227.45" cy="363.07" r="10.35"/><polyline class="cls-6" points="221.42 361.23 222.87 365.52 233.47 360.62"/><circle class="cls-5" cx="419.62" cy="363.07" r="10.35"/><polyline class="cls-6" points="413.59 361.23 415.04 365.52 425.64 360.62"/><circle class="cls-5" cx="419.62" cy="395.24" r="10.35"/><polyline class="cls-6" points="413.59 393.4 415.04 397.69 425.64 392.79"/><circle class="cls-5" cx="419.62" cy="427.42" r="10.35"/><polyline class="cls-6" points="413.59 425.58 415.04 429.87 425.64 424.97"/><circle class="cls-5" cx="419.62" cy="330.89" r="10.35"/><polyline class="cls-6" points="413.59 329.05 415.04 333.34 425.64 328.44"/><circle class="cls-5" cx="419.62" cy="297.32" r="10.35"/><polyline class="cls-6" points="413.59 295.48 415.04 299.77 425.64 294.87"/><circle class="cls-5" cx="419.62" cy="266.54" r="10.35"/><polyline class="cls-6" points="413.59 264.7 415.04 268.99 425.64 264.09"/><circle class="cls-5" cx="419.62" cy="234.36" r="10.35"/><polyline class="cls-6" points="413.59 232.52 415.04 236.81 425.64 231.91"/><circle class="cls-5" cx="419.62" cy="201.32" r="10.35"/><polyline class="cls-6" points="413.59 199.48 415.04 203.77 425.64 198.87"/><circle class="cls-5" cx="419.62" cy="170.01" r="10.35"/><polyline class="cls-6" points="413.59 168.17 415.04 172.46 425.64 167.56"/><circle class="cls-5" cx="419.62" cy="137.84" r="10.35"/><polyline class="cls-6" points="413.59 136 415.04 140.29 425.64 135.39"/><circle class="cls-5" cx="586" cy="363.07" r="10.35"/><polyline class="cls-6" points="579.97 361.23 581.42 365.52 592.02 360.62"/><circle class="cls-5" cx="586" cy="395.24" r="10.35"/><polyline class="cls-6" points="579.97 393.4 581.42 397.69 592.02 392.79"/><circle class="cls-5" cx="586" cy="427.42" r="10.35"/><polyline class="cls-6" points="579.97 425.58 581.42 429.87 592.02 424.97"/><circle class="cls-5" cx="586" cy="330.89" r="10.35"/><polyline class="cls-6" points="579.97 329.05 581.42 333.34 592.02 328.44"/><circle class="cls-5" cx="586" cy="297.32" r="10.35"/><polyline class="cls-6" points="579.97 295.48 581.42 299.77 592.02 294.87"/><circle class="cls-5" cx="586" cy="266.54" r="10.35"/><polyline class="cls-6" points="579.97 264.7 581.42 268.99 592.02 264.09"/><circle class="cls-5" cx="586" cy="234.36" r="10.35"/><polyline class="cls-6" points="579.97 232.52 581.42 236.81 592.02 231.91"/><circle class="cls-5" cx="586" cy="201.32" r="10.35"/><polyline class="cls-6" points="579.97 199.48 581.42 203.77 592.02 198.87"/><circle class="cls-5" cx="586" cy="170.01" r="10.35"/><polyline class="cls-6" points="579.97 168.17 581.42 172.46 592.02 167.56"/><circle class="cls-5" cx="586" cy="137.84" r="10.35"/><polyline class="cls-6" points="579.97 136 581.42 140.29 592.02 135.39"/><circle class="cls-5" cx="743.45" cy="363.07" r="10.35"/><polyline class="cls-6" points="737.42 361.23 738.87 365.52 749.48 360.62"/><circle class="cls-5" cx="743.45" cy="395.24" r="10.35"/><polyline class="cls-6" points="737.42 393.4 738.87 397.69 749.48 392.79"/><circle class="cls-5" cx="743.45" cy="427.42" r="10.35"/><polyline class="cls-6" points="737.42 425.58 738.87 429.87 749.48 424.97"/><circle class="cls-5" cx="743.45" cy="330.89" r="10.35"/><polyline class="cls-6" points="737.42 329.05 738.87 333.34 749.48 328.44"/><circle class="cls-5" cx="743.45" cy="297.32" r="10.35"/><polyline class="cls-6" points="737.42 295.48 738.87 299.77 749.48 294.87"/><circle class="cls-5" cx="743.45" cy="266.54" r="10.35"/><polyline class="cls-6" points="737.42 264.7 738.87 268.99 749.48 264.09"/><circle class="cls-5" cx="743.45" cy="234.36" r="10.35"/><polyline class="cls-6" points="737.42 232.52 738.87 236.81 749.48 231.91"/><circle class="cls-5" cx="743.45" cy="201.32" r="10.35"/><polyline class="cls-6" points="737.42 199.48 738.87 203.77 749.48 198.87"/><circle class="cls-5" cx="743.45" cy="170.01" r="10.35"/><polyline class="cls-6" points="737.42 168.17 738.87 172.46 749.48 167.56"/><circle class="cls-5" cx="743.45" cy="137.84" r="10.35"/><polyline class="cls-6" points="737.42 136 738.87 140.29 749.48 135.39"/></g></g></svg>