<svg xmlns="http://www.w3.org/2000/svg" viewBox="0 0 226.98 226.98"><defs><style>.cls-1{fill:#878787;}.cls-2{fill:#0d3f62;}.cls-3{fill:#337299;}.cls-4{fill:#fff;}.cls-5{fill:none;stroke:#f8ac17;stroke-miterlimit:10;stroke-width:33px;opacity:0.2;}</style></defs><g id="Layer_2" data-name="Layer 2"><g id="Layer_1-2" data-name="Layer 1"><path class="cls-1" d="M112.65,195.48a82.78,82.78,0,1,1,82.78-82.78A82.87,82.87,0,0,1,112.65,195.48Zm0-161.52A78.74,78.74,0,1,0,191.4,112.7,78.83,78.83,0,0,0,112.65,34Z"/><polygon class="cls-2" points="133.56 150.93 142.92 141.57 142.92 73.67 82.38 73.67 82.38 150.93 133.56 150.93"/><polygon class="cls-3" points="133.03 150.4 133.03 141.06 142.39 141.04 133.03 150.4"/><rect class="cls-4" x="104.03" y="86.94" width="17.17" height="6.57"/><path class="cls-4" d="M122.25,94.57H103V85.88h19.27Zm-17.17-2.11h15.06V88H105.08Z"/><rect class="cls-4" x="96.51" y="107.41" width="11.37" height="5.51"/><path class="cls-4" d="M108.94,114H95.46v-7.63h13.48Zm-11.38-2.12h9.27v-3.39H97.56Z"/><rect class="cls-4" x="92.6" y="125.36" width="8" height="5.51"/><path class="cls-4" d="M101.65,131.92H91.55v-7.61h10.1Zm-8-2.1h5.9v-3.4h-5.9Z"/><rect class="cls-4" x="108.54" y="125.36" width="8" height="5.51"/><path class="cls-4" d="M117.59,131.92h-10.1v-7.61h10.1Zm-8-2.1h5.89v-3.4h-5.89Z"/><rect class="cls-4" x="124.48" y="125.36" width="8" height="5.51"/><path class="cls-4" d="M133.53,131.92h-10.1v-7.61h10.1Zm-8-2.11h5.89v-3.39h-5.89Z"/><rect class="cls-4" x="117.35" y="107.41" width="11.28" height="5.51"/><path class="cls-4" d="M129.69,114H116.3v-7.61h13.39Zm-11.29-2.1h9.18v-3.41H118.4Z"/><polygon class="cls-4" points="124.04 107.72 121.94 107.72 121.94 102.25 103.25 102.25 103.25 107.72 101.15 107.72 101.15 100.14 124.04 100.14 124.04 107.72"/><rect class="cls-4" x="111.58" y="94.36" width="2.1" height="7.09"/><rect class="cls-4" x="101.15" y="111.86" width="2.11" height="8.97"/><polygon class="cls-4" points="129.53 125.75 127.43 125.75 127.43 121.35 97.66 121.35 97.66 125.75 95.55 125.75 95.55 119.24 129.53 119.24 129.53 125.75"/><rect class="cls-4" x="111.49" y="119.24" width="2.11" height="6.51"/><circle class="cls-5" cx="113.49" cy="113.49" r="96.99"/></g></g></svg>